<svg xmlns="http://www.w3.org/2000/svg" width="71" height="66" viewBox="0 0 71 66"><g fill="none"><g fill="#E84118"><path d="M30.6 46.6L5.8 46.6C5.2 46.6 4.8 46.1 4.8 45.5L4.8 5.7C4.8 5.2 5.2 4.7 5.8 4.7L65.2 4.7C65.8 4.7 66.2 5.2 66.2 5.7L66.2 14.4C68 14.7 69.6 15.2 71 16.1L71 5.7C71 2.6 68.4 0 65.2 0L5.8 0C2.6 0 0 2.6 0 5.7L0 45.5C0 48.7 2.6 51.3 5.8 51.3L25.7 51.3 25.7 59 22.6 59C20.6 59 19 60.5 19 62.5 19 64.4 20.6 66 22.6 66L32.6 66C31.3 64.3 30.6 62.2 30.6 59.9L30.6 46.6 30.6 46.6Z"/><path d="M50.3 62.6L50.3 57.5 39.8 57.5 39.8 25C39.8 24.3 40.4 23.7 41.1 23.7L64.9 23.7C65.6 23.7 66.2 24.3 66.2 25L66.2 35 68 35C69.1 35 70.1 35.4 71 35.9L71 25C71 21.7 68.3 19 64.9 19L41.1 19C37.7 19 35 21.7 35 25L35 60C35 63.3 37.7 66 41.1 66L51.4 66C50.8 65.1 50.3 63.8 50.3 62.6Z"/><path d="M67.9 37L56.1 37C54.4 37 53 38.3 53 40L53 62C53 63.7 54.4 65 56.1 65L67.9 65C69.6 65 71 63.7 71 62L71 40C71 38.3 69.6 37 67.9 37ZM56.7 40.6L67.3 40.6 67.3 59.6 56.7 59.6 56.7 40.6ZM62 63.5C61.7 63.5 61.4 63.4 61.1 63.2 60.9 63 60.7 62.6 60.7 62.3 60.7 61.6 61.3 61 62 61 62.7 61 63.3 61.6 63.3 62.3 63.3 62.6 63.1 63 62.9 63.2 62.6 63.4 62.3 63.5 62 63.5Z"/></g></g></svg>