<svg xmlns="http://www.w3.org/2000/svg" width="86" height="66" viewBox="0 0 86 66"><g fill="none"><g fill="#E84118"><path d="M80.4 24.9L65.7 9.1C62.8 6.3 58 6.3 55.1 9.2 54.2 10.1 53.5 11.1 53.2 12.3 50.3 10.1 46 10.3 43.3 13 42.4 13.9 41.8 15 41.4 16.1 38.5 13.9 34.3 14.2 31.6 16.8 30.7 17.7 30.1 18.7 29.7 19.9L22.8 13.1C19.9 10.3 15.1 10.3 12.2 13.1 9.3 16 9.3 20.6 12.2 23.4L38.8 49.4 23 51.8C18.8 52.4 15.5 56.1 15.5 60.3 15.5 63.4 18.2 66 21.4 66L58.3 66C64.1 66 69.5 63.8 73.5 59.8L79.7 53.8C83.8 49.9 86 44.6 86 39 86 33.8 84 28.8 80.4 24.9ZM76.9 51.1L70.8 57.2C67.4 60.4 63 62.2 58.3 62.2L21.4 62.2C20.3 62.2 19.5 61.3 19.5 60.3 19.5 58 21.2 56 23.6 55.6L43.2 52.6C44 52.5 44.6 52 44.8 51.3 45 50.6 44.8 49.9 44.3 49.4L15 20.7C13.6 19.4 13.6 17.2 15 15.8 15.7 15.1 16.6 14.8 17.5 14.8 18.4 14.8 19.3 15.1 20 15.8L39.6 34.9C40.4 35.6 41.6 35.6 42.4 34.9 42.7 34.5 42.9 34 42.9 33.6 42.9 33.1 42.7 32.6 42.4 32.2L34.4 24.4C33 23 33 20.8 34.4 19.5 35.8 18.1 38 18.1 39.4 19.5L47.4 27.3C48.2 28 49.4 28 50.2 27.3 50.6 26.9 50.8 26.4 50.8 25.9 50.8 25.4 50.6 24.9 50.2 24.6L46.1 20.6C44.7 19.2 44.7 17 46.1 15.6 47.5 14.3 49.8 14.3 51.2 15.6L55.3 19.6C55.3 19.6 55.3 19.6 55.3 19.6L55.3 19.7C55.3 19.7 55.3 19.7 55.3 19.7 55.3 19.7 55.3 19.7 55.3 19.7L55.3 19.7C55.3 19.7 55.3 19.7 55.3 19.7 56.1 20.4 57.3 20.4 58 19.6 58.8 18.9 58.8 17.7 58 16.9L57.9 16.8C57.2 16.1 56.8 15.2 56.8 14.3 56.8 13.4 57.2 12.5 57.9 11.8 59.3 10.5 61.5 10.5 62.9 11.8L77.5 27.5C80.5 30.6 82.1 34.7 82.1 39 82.1 43.6 80.3 47.9 76.9 51.1Z"/><path d="M33.8 10.1C31 4 24.6 0 17.7 0 7.9 0 0 7.7 0 17.2 0 23.9 4.1 30 10.4 32.8 10.7 32.9 11 33 11.2 33 12 33 12.7 32.6 13 31.9 13.5 30.9 13 29.8 12.1 29.3 7.1 27.2 3.9 22.4 3.9 17.2 3.9 9.8 10.1 3.8 17.7 3.8 23.1 3.8 28 6.9 30.2 11.7 30.7 12.7 31.9 13.1 32.8 12.7 33.8 12.2 34.3 11.1 33.8 10.1Z"/></g></g></svg>