<svg xmlns="http://www.w3.org/2000/svg" width="86" height="82" viewBox="0 0 86 82"><g fill="none"><g fill="#E84118"><path d="M74.6 64.4C74.3 64.2 73.9 64 73.5 64 73.1 64 72.7 64.2 72.4 64.4 72.2 64.7 72 65.1 72 65.5 72 65.9 72.2 66.3 72.4 66.6 72.7 66.8 73.1 67 73.5 67 73.9 67 74.3 66.8 74.6 66.6 74.8 66.3 75 65.9 75 65.5 75 65.1 74.8 64.7 74.6 64.4Z"/><path d="M79.6 9C76.1 9 73.3 11.7 73.3 15.1L73.3 41 68.6 45.5C68.4 44.9 68.1 44.3 67.6 43.8 66.6 42.6 65 41.9 63.4 41.8 61.8 41.8 60.2 42.4 59.1 43.5L47.5 54.5C47.2 54.8 47 55.2 47 55.6L47 73.4C47 74.3 47.7 75 48.7 75L50.3 75 50.3 80.4C50.3 81.3 51 82 52 82 52.9 82 53.6 81.3 53.6 80.4L53.6 75 57.7 75 57.7 80.4C57.7 81.3 58.4 82 59.3 82 60.3 82 61 81.3 61 80.4L61 75 65 75 65 80.4C65 81.3 65.8 82 66.7 82 67.6 82 68.3 81.3 68.3 80.4L68.3 75 69.4 75C70 75 70.6 74.6 70.8 74.1L72.3 71.4C72.7 70.6 72.4 69.7 71.6 69.3 70.7 68.9 69.7 69.2 69.3 70L68.3 71.8 62.1 71.8 69.1 59.5C69.9 58 71.5 57.2 73.2 57.2L76.1 57.2 75.1 59.1C74.7 59.9 75 60.8 75.8 61.2 76.7 61.6 77.7 61.3 78.1 60.5L85.8 46C85.9 45.8 86 45.5 86 45.3L86 15.1C86 11.7 83.1 9 79.6 9ZM82.7 44.9L77.8 54 73.2 54C70.3 54 67.6 55.5 66.2 58L58.3 71.8 50.3 71.8 50.3 56.3 55.1 51.8 56.1 52.7C56.4 53 56.8 53.2 57.2 53.2 57.7 53.2 58.1 53 58.4 52.7 59.1 52.1 59.1 51.1 58.4 50.5L57.4 49.5 61.4 45.7C61.9 45.2 62.6 45 63.3 45 64 45.1 64.6 45.3 65 45.8 65.9 46.8 65.8 48.2 64.9 49L55.7 57.8C55.3 58.1 55.2 58.5 55.2 58.9L55.2 63C55.2 63.9 55.9 64.6 56.8 64.6 57.8 64.6 58.5 63.9 58.5 63L58.5 59.6 67.3 51.3 76.1 42.8C76.5 42.5 76.6 42.1 76.6 41.7L76.6 40.3 79.5 40.3C80.4 40.3 81.1 39.6 81.1 38.7 81.1 37.8 80.4 37.1 79.5 37.1L76.6 37.1 76.6 27.2 79.5 27.2C80.4 27.2 81.1 26.5 81.1 25.6 81.1 24.7 80.4 24 79.5 24L76.6 24 76.6 15.1C76.6 13.5 78 12.2 79.6 12.2 81.3 12.2 82.7 13.5 82.7 15.1L82.7 44.9Z"/><path d="M50.5 14C49.7 14 49 14.7 49 15.6L49 25.4C49 26.3 49.7 27 50.5 27 51.3 27 52 26.3 52 25.4L52 15.6C52 14.7 51.3 14 50.5 14Z"/><path d="M44.9 24.9L40.6 15C40.4 14.4 39.7 14 39 14 38.3 14 37.6 14.4 37.4 15L33.1 24.9C32.8 25.7 33.2 26.6 34.1 26.9 35 27.2 36.1 26.8 36.4 26L36.9 24.9 41.1 24.9 41.6 26C41.9 26.6 42.5 27 43.2 27 43.4 27 43.7 27 43.9 26.9 44.8 26.6 45.2 25.7 44.9 24.9ZM38.2 21.8L39 19.9 39.8 21.8 38.2 21.8Z"/><path d="M63.3 22.6C64.2 22.6 65 21.9 65 21 65 20.1 64.2 19.4 63.3 19.4L58.2 19.4 58.2 16.2 63.3 16.2C64.2 16.2 65 15.4 65 14.5 65 13.6 64.2 12.9 63.3 12.9L58.2 12.9 58.2 10.8C58.2 8.4 56.2 6.5 53.7 6.5L51.5 6.5 51.5 1.6C51.5 0.7 50.7 0 49.8 0 48.8 0 48.1 0.7 48.1 1.6L48.1 6.5 44.7 6.5 44.7 1.6C44.7 0.7 43.9 0 43 0 42.1 0 41.3 0.7 41.3 1.6L41.3 6.5 37.9 6.5 37.9 1.6C37.9 0.7 37.2 0 36.2 0 35.3 0 34.5 0.7 34.5 1.6L34.5 6.5 32.3 6.5C29.8 6.5 27.8 8.4 27.8 10.8L27.8 12.9 22.7 12.9C21.8 12.9 21 13.6 21 14.5 21 15.4 21.8 16.2 22.7 16.2L27.8 16.2 27.8 19.4 22.7 19.4C21.8 19.4 21 20.1 21 21 21 21.9 21.8 22.6 22.7 22.6L27.8 22.6 27.8 25.8 22.7 25.8C21.8 25.8 21 26.6 21 27.5 21 28.4 21.8 29.1 22.7 29.1L27.8 29.1 27.8 31.2C27.8 33.6 29.8 35.5 32.3 35.5L34.5 35.5 34.5 40.4C34.5 41.3 35.3 42 36.2 42 37.2 42 37.9 41.3 37.9 40.4L37.9 35.5 41.3 35.5 41.3 40.4C41.3 41.3 42.1 42 43 42 43.9 42 44.7 41.3 44.7 40.4L44.7 35.5 48.1 35.5 48.1 40.4C48.1 41.3 48.8 42 49.8 42 50.7 42 51.5 41.3 51.5 40.4L51.5 35.5 53.7 35.5C56.2 35.5 58.2 33.6 58.2 31.2L58.2 29.1 63.3 29.1C64.2 29.1 65 28.4 65 27.5 65 26.6 64.2 25.8 63.3 25.8L58.2 25.8 58.2 22.6 63.3 22.6ZM54.8 31.2C54.8 31.8 54.3 32.3 53.7 32.3L32.3 32.3C31.7 32.3 31.2 31.8 31.2 31.2L31.2 10.8C31.2 10.2 31.7 9.7 32.3 9.7L53.7 9.7C54.3 9.7 54.8 10.2 54.8 10.8L54.8 31.2Z"/><path d="M38.5 54.5L26.9 43.5C25.8 42.4 24.2 41.8 22.6 41.8 21 41.9 19.4 42.6 18.4 43.8 17.9 44.3 17.6 44.9 17.4 45.5L12.7 41 12.7 15.1C12.7 11.7 9.9 9 6.4 9 2.9 9 0 11.7 0 15.1L0 45.3C0 45.5 0.1 45.8 0.2 46L7.9 60.5C8.3 61.3 9.3 61.6 10.2 61.2 11 60.8 11.3 59.9 10.9 59.1L9.9 57.2 12.8 57.2C14.5 57.2 16.1 58 16.9 59.5L23.9 71.8 17.7 71.8 16.7 70C16.3 69.2 15.3 68.9 14.4 69.3 13.6 69.7 13.3 70.6 13.7 71.4L15.2 74.1C15.4 74.6 16 75 16.6 75L17.7 75 17.7 80.4C17.7 81.3 18.4 82 19.3 82 20.2 82 21 81.3 21 80.4L21 75 25 75 25 80.4C25 81.3 25.7 82 26.7 82 27.6 82 28.3 81.3 28.3 80.4L28.3 75 32.4 75 32.4 80.4C32.4 81.3 33.1 82 34 82 35 82 35.7 81.3 35.7 80.4L35.7 75 37.3 75C38.3 75 39 74.3 39 73.4L39 55.6C39 55.2 38.8 54.8 38.5 54.5ZM35.7 71.8L27.7 71.8 19.8 58C18.4 55.5 15.7 54 12.8 54L8.2 54 3.3 44.9 3.3 15.1C3.3 13.5 4.7 12.2 6.4 12.2 8 12.2 9.4 13.5 9.4 15.1L9.4 24 6.8 24C5.9 24 5.1 24.7 5.1 25.6 5.1 26.5 5.9 27.2 6.8 27.2L9.4 27.2 9.4 37.1 6.8 37.1C5.9 37.1 5.1 37.8 5.1 38.7 5.1 39.6 5.9 40.3 6.8 40.3L9.4 40.3 9.4 41.7C9.4 42.1 9.5 42.5 9.9 42.8L18.7 51.3 27.5 59.6 27.5 63C27.5 63.9 28.2 64.6 29.2 64.6 30.1 64.6 30.8 63.9 30.8 63L30.8 58.9C30.8 58.5 30.7 58.1 30.3 57.8L21.1 49C20.2 48.2 20.1 46.8 21 45.8 21.4 45.3 22 45.1 22.7 45 23.4 45 24.1 45.2 24.6 45.7L28.7 49.7 27.9 50.5C27.2 51.1 27.2 52.1 27.9 52.7 28.2 53 28.6 53.2 29 53.2 29.5 53.2 29.9 53 30.2 52.7L31.1 51.9 35.7 56.3 35.7 71.8Z"/><path d="M13.6 64.4C13.3 64.2 12.9 64 12.5 64 12.1 64 11.7 64.2 11.4 64.4 11.2 64.7 11 65.1 11 65.5 11 65.9 11.2 66.3 11.4 66.6 11.7 66.8 12.1 67 12.5 67 12.9 67 13.3 66.8 13.6 66.6 13.8 66.3 14 65.9 14 65.5 14 65.1 13.8 64.7 13.6 64.4Z"/></g></g></svg>