<svg xmlns="http://www.w3.org/2000/svg" width="52" height="52" viewBox="0 0 52 52"><g fill="none"><g fill="#E84118"><path d="M49 33.8L49 4.6C49 2.1 46.9 0 44.4 0L10.8 0C8.2 0 6.2 2.1 6.2 4.6L6.2 6.2 4.6 6.2C2.1 6.2 0 8.2 0 10.8 0 13.3 2.1 15.3 4.6 15.3L6.2 15.3 6.2 21.4 4.6 21.4C2.1 21.4 0 23.5 0 26 0 28.5 2.1 30.6 4.6 30.6L6.2 30.6 6.2 36.7 4.6 36.7C2.1 36.7 0 38.7 0 41.2 0 43.8 2.1 45.8 4.6 45.8L6.2 45.8 6.2 47.3C6.2 48.5 6.7 49.7 7.5 50.6 8.4 51.5 9.5 52 10.8 52L41.3 52C47.2 52 52 47.2 52 41.2 52 38.3 50.8 35.7 49 33.8ZM4.6 12.3C3.7 12.3 3 11.6 3 10.8 3 9.9 3.7 9.2 4.6 9.2L7.7 9.2C8.6 9.2 9.2 9.9 9.2 10.8 9.2 11.6 8.6 12.3 7.7 12.3L4.6 12.3ZM4.6 27.5C3.7 27.5 3 26.8 3 26 3 25.2 3.7 24.5 4.6 24.5L7.7 24.5C8.6 24.5 9.2 25.2 9.2 26 9.2 26.8 8.6 27.5 7.7 27.5L4.6 27.5ZM7.7 42.8L4.6 42.8C3.7 42.8 3 42.1 3 41.2 3 40.4 3.7 39.7 4.6 39.7L7.7 39.7C8.6 39.7 9.2 40.4 9.2 41.2 9.2 42.1 8.6 42.8 7.7 42.8ZM10.8 49C10 49 9.2 48.2 9.2 47.3L9.2 45.5C11 44.9 12.3 43.2 12.3 41.2 12.3 39.2 11 37.6 9.2 36.9L9.2 30.3C11 29.7 12.3 28 12.3 26 12.3 24 11 22.3 9.2 21.7L9.2 15.1C11 14.4 12.3 12.8 12.3 10.8 12.3 8.8 11 7.1 9.2 6.5L9.2 4.6C9.2 3.7 9.9 3 10.8 3L44.4 3C45.2 3 45.9 3.7 45.9 4.6L45.9 31.6C44.5 30.9 43 30.6 41.3 30.6 35.5 30.6 30.7 35.4 30.7 41.2 30.7 44.3 31.9 47 33.9 49L10.8 49ZM41.3 49C37.1 49 33.7 45.5 33.7 41.2 33.7 37 37.1 33.6 41.3 33.6 45.5 33.6 49 37 49 41.2 49 45.5 45.5 49 41.3 49Z"/><path d="M41.4 13L31.6 13C30.7 13 30 13.7 30 14.5 30 15.3 30.7 16 31.6 16L41.4 16C42.3 16 43 15.3 43 14.5 43 13.7 42.3 13 41.4 13Z"/><path d="M41.4 25L31.6 25C30.7 25 30 25.7 30 26.5 30 27.3 30.7 28 31.6 28L41.4 28C42.3 28 43 27.3 43 26.5 43 25.7 42.3 25 41.4 25Z"/><path d="M43.5 40L42 40 42 38.5C42 37.7 41.3 37 40.5 37 39.7 37 39 37.7 39 38.5L39 41.5C39 42.3 39.7 43 40.5 43L43.5 43C44.3 43 45 42.3 45 41.5 45 40.7 44.3 40 43.5 40Z"/><path d="M27.5 9.4C26.9 8.9 25.9 8.9 25.3 9.4L20.2 14.4 17.7 12C17.1 11.4 16.1 11.4 15.5 12 14.8 12.6 14.8 13.6 15.5 14.1L19 17.6C19.3 17.9 19.7 18 20.2 18 20.6 18 21 17.9 21.3 17.6L27.5 11.6C28.2 11 28.2 10 27.5 9.4Z"/><path d="M27.5 22.4C26.9 21.9 25.9 21.9 25.3 22.4L20.2 27.4 17.7 25C17.1 24.4 16.1 24.4 15.5 25 14.8 25.6 14.8 26.6 15.5 27.1L19 30.6C19.3 30.9 19.7 31 20.2 31 20.6 31 21 30.9 21.3 30.6L27.5 24.6C28.2 24 28.2 23 27.5 22.4Z"/><path d="M27.5 34.4C26.9 33.9 25.9 33.9 25.3 34.4L20.2 39.4 17.7 37C17.1 36.4 16.1 36.4 15.5 37 14.8 37.6 14.8 38.6 15.5 39.1L19 42.6C19.3 42.9 19.7 43 20.2 43 20.6 43 21 42.9 21.3 42.6L27.5 36.6C28.2 36 28.2 35 27.5 34.4Z"/></g></g></svg>