<svg xmlns="http://www.w3.org/2000/svg" width="73" height="73" viewBox="0 0 73 73"><g fill="none"><g fill="#E84118"><path d="M58.7 44.5L54.7 48.5 62.1 55.9 53.5 55.9C49.7 55.9 46.1 54.1 43.9 51L35.7 36.5 43.8 22C46.1 18.9 49.7 17.1 53.5 17.1L62.1 17.1 54.7 24.5 58.7 28.5 73 14.3 58.7 0 54.7 4 62.1 11.4 53.5 11.4C47.8 11.4 42.4 14.2 39.1 18.8 39 18.9 39 19 38.9 19.1L32.4 30.7 25.9 19.1C25.8 19 25.7 18.9 25.7 18.8 22.4 14.2 17 11.4 11.3 11.4L0 11.4 0 17.1 11.3 17.1C15.1 17.1 18.7 18.9 21 22L29.1 36.5 21 51C18.8 54.1 15.2 55.9 11.4 55.9L0 55.9 0 61.6 11.4 61.6C17.1 61.6 22.4 58.8 25.7 54.2 25.8 54.1 25.9 54 25.9 53.9L32.4 42.3 39 54C39 54 39.1 54.1 39.2 54.2 42.4 58.8 47.8 61.6 53.5 61.6L62.1 61.6 54.7 69 58.7 73 73 58.7 58.7 44.5Z"/></g></g></svg>