<svg xmlns="http://www.w3.org/2000/svg" width="72" height="81" viewBox="0 0 72 81"><g fill="none"><g fill="#E84118"><g transform="translate(-260 -7004)translate(260 7004)"><polygon points="36.5 0 19 19.5 23 23.9 33.7 12 33.7 42 39.3 42 39.3 12 50 23.9 54 19.5"/><path d="M66.4 31L66.4 50.9 43.3 50.9 43.3 54C43.3 58.6 40 62.2 36 62.2 32 62.2 28.7 58.6 28.7 54L28.7 50.9 5.6 50.9 5.6 31 0 31 0 71.5C0 76.8 3.8 81 8.4 81L63.6 81C68.2 81 72 76.8 72 71.5L72 31 66.4 31ZM66.4 71.5C66.4 73.3 65.1 74.7 63.6 74.7L8.4 74.7C6.9 74.7 5.6 73.3 5.6 71.5L5.6 57.2 23.4 57.2C24.7 63.7 29.8 68.5 36 68.5 42.2 68.5 47.3 63.7 48.6 57.2L66.4 57.2 66.4 71.5Z"/></g></g></g></svg>