<svg xmlns="http://www.w3.org/2000/svg" width="66" height="67" viewBox="0 0 66 67"><g fill="none"><g fill="#E84118"><path d="M33.5 15C23.9 15 16 22.8 16 32.4 16 36.3 17.3 40 19.7 43.1 20.2 43.7 20.7 44.3 21.3 44.9L21.3 45C22.9 46.9 24.6 48.8 25.3 51.1 25.4 51.7 25.4 52.7 25.4 53.5L25.4 54.8C25.4 56 26.4 57 27.7 57L39.3 57C40.5 57 41.5 56 41.5 54.8L41.5 53.5C41.5 52.4 41.5 51.7 41.6 51.3 42.3 49 44.1 46.8 45.8 44.8L45.9 44.8C46.4 44.2 46.8 43.7 47.3 43.1 49.7 40 51 36.3 51 32.4 51 22.8 43.1 15 33.5 15ZM43.8 40.4C43.4 40.9 43 41.4 42.5 41.9L42.4 42C40.5 44.3 38.3 46.9 37.3 50.1 37.2 50.6 37.1 51.3 37 52.6L29.9 52.6C29.8 51.2 29.7 50.5 29.6 50 28.7 46.7 26.4 44.2 24.7 42.1L24.6 42.1C24.1 41.5 23.6 40.9 23.2 40.4 21.4 38.1 20.4 35.3 20.4 32.4 20.4 25.2 26.3 19.4 33.5 19.4 40.7 19.4 46.6 25.2 46.6 32.4 46.6 35.3 45.6 38.1 43.8 40.4Z"/><path d="M38.8 58L27.2 58C26 58 25 58.9 25 60 25 61.1 26 62 27.2 62L38.8 62C40 62 41 61.1 41 60 41 58.9 40 58 38.8 58Z"/><path d="M35.8 63L30.2 63C29 63 28 63.9 28 65 28 66.1 29 67 30.2 67L35.8 67C37 67 38 66.1 38 65 38 63.9 37 63 35.8 63Z"/><path d="M63.8 31L56.2 31C55 31 54 31.9 54 33 54 34.1 55 35 56.2 35L63.8 35C65 35 66 34.1 66 33 66 31.9 65 31 63.8 31Z"/><path d="M12 33C12 31.9 11 31 9.8 31L2.2 31C1 31 0 31.9 0 33 0 34.1 1 35 2.2 35L9.8 35C11 35 12 34.1 12 33Z"/><path d="M33 12C34.1 12 35 11 35 9.8L35 2.2C35 1 34.1 0 33 0 31.9 0 31 1 31 2.2L31 9.8C31 11 31.9 12 33 12Z"/><path d="M50.8 47.7C50 46.8 48.5 46.8 47.7 47.7 46.8 48.5 46.8 50 47.7 50.8L53.2 56.3C53.6 56.8 54.2 57 54.7 57 55.3 57 55.9 56.8 56.3 56.3 57.2 55.5 57.2 54 56.3 53.2L50.8 47.7Z"/><path d="M15.2 18.3C15.6 18.8 16.2 19 16.7 19 17.3 19 17.9 18.8 18.3 18.3 19.2 17.5 19.2 16 18.3 15.2L12.8 9.7C12 8.8 10.5 8.8 9.7 9.7 8.8 10.5 8.8 12 9.7 12.8L15.2 18.3Z"/><path d="M15.2 47.7L9.7 53.2C8.8 54 8.8 55.5 9.7 56.3 10.1 56.8 10.7 57 11.3 57 11.8 57 12.4 56.8 12.8 56.3L18.3 50.8C19.2 50 19.2 48.5 18.3 47.7 17.5 46.8 16 46.8 15.2 47.7Z"/><path d="M49.3 19C49.8 19 50.4 18.8 50.8 18.3L56.3 12.8C57.2 12 57.2 10.5 56.3 9.7 55.5 8.8 54 8.8 53.2 9.7L47.7 15.2C46.8 16 46.8 17.5 47.7 18.3 48.1 18.8 48.7 19 49.3 19Z"/></g></g></svg>