<svg xmlns="http://www.w3.org/2000/svg" width="55" height="85" viewBox="0 0 55 85"><g fill="none"><g fill="#E84118"><path d="M55 27.4C55 12.3 42.7 0 27.5 0 12.3 0 0 12.3 0 27.4 0 39.9 8.5 50.5 20 53.7L20 65.1 12.5 65.1C11.5 65.1 10.6 65.7 10.2 66.6 9.8 67.5 10 68.6 10.7 69.3L25.7 84.3C26.2 84.8 26.9 85 27.5 85 28.1 85 28.8 84.8 29.3 84.3L44.3 69.3C45 68.6 45.2 67.5 44.8 66.6 44.4 65.7 43.5 65.1 42.5 65.1L35 65.1 35 53.7C46.5 50.5 55 39.9 55 27.4L55 27.4ZM5 27.4C5 15 15.1 5 27.5 5 39.9 5 50 15 50 27.4 50 39.8 39.9 49.8 27.5 49.8 15.1 49.8 5 39.8 5 27.4ZM32.5 70.1L36.5 70.1 27.5 79 18.5 70.1 22.5 70.1C23.9 70.1 25 68.9 25 67.6L25 54.7C25.8 54.7 26.7 54.8 27.5 54.8 28.3 54.8 29.2 54.7 30 54.7L30 67.6C30 68.9 31.1 70.1 32.5 70.1Z"/><path d="M30 42.5L30 38.8C32.9 37.8 35 35 35 31.8 35 27.6 31.6 24.3 27.5 24.3 26.1 24.3 25 23.1 25 21.8 25 20.4 26.1 19.3 27.5 19.3 28.9 19.3 30 20.4 30 21.8 30 23.1 31.1 24.3 32.5 24.3 33.9 24.3 35 23.1 35 21.8 35 18.5 32.9 15.7 30 14.7L30 12.5C30 11.1 28.9 10 27.5 10 26.1 10 25 11.1 25 12.5L25 14.7C22.1 15.7 20 18.5 20 21.8 20 25.9 23.4 29.3 27.5 29.3 28.9 29.3 30 30.4 30 31.8 30 33.1 28.9 34.3 27.5 34.3 26.1 34.3 25 33.1 25 31.8 25 30.4 23.9 29.3 22.5 29.3 21.1 29.3 20 30.4 20 31.8 20 35 22.1 37.8 25 38.8L25 42.5C25 43.9 26.1 45 27.5 45 28.9 45 30 43.9 30 42.5Z"/></g></g></svg>