<svg xmlns="http://www.w3.org/2000/svg" width="51" height="76" viewBox="0 0 51 76"><g fill="none"><g fill="#E84118"><path d="M51 25.4C50.9 11.4 39.5 0 25.5 0 11.5 0 0.1 11.4 0 25.4L0 25.5 0 25.5C0 35.7 4.3 41.4 8.1 46.4 11.3 50.5 13.8 53.8 13.8 59.3L13.8 67.1C13.8 72 17.8 76 22.7 76L28.3 76C33.2 76 37.2 72 37.2 67.1L37.2 59.3C37.2 53.8 39.7 50.5 42.9 46.4 46.7 41.4 51 35.7 51 25.5L51 25.4 51 25.4ZM31.3 67.1C31.3 68.7 30 70.1 28.3 70.1L22.7 70.1C21 70.1 19.7 68.7 19.7 67.1L19.7 61.3 31.3 61.3 31.3 67.1ZM38.2 42.8C35.4 46.4 32.6 50.1 31.6 55.4L19.4 55.4C18.4 50.1 15.6 46.4 12.8 42.8 9.3 38.1 6 33.7 5.9 25.5 6 14.7 14.7 5.9 25.5 5.9 36.3 5.9 45 14.7 45.1 25.5 45 33.7 41.7 38.1 38.2 42.8Z"/></g></g></svg>