<svg xmlns="http://www.w3.org/2000/svg" width="52" height="38" viewBox="0 0 52 38"><g fill="none"><g fill="#E84118"><g transform="translate(-901 -545)translate(830 545)translate(71 0)"><path d="M45.9 0L6.1 0C2.7 0 0 2.7 0 6.1L0 31.9C0 35.3 2.7 38 6.1 38L45.9 38C49.3 38 52 35.3 52 31.9L52 6.1C52 2.7 49.3 0 45.9 0ZM47.9 31.9C47.9 33.1 47 34 45.9 34L6.1 34C5 34 4.1 33.1 4.1 31.9L4.1 6.1C4.1 4.9 5 4 6.1 4L45.9 4C47 4 47.9 4.9 47.9 6.1L47.9 31.9Z"/><polygon points="47.6 3 26 19 4.4 3 2 6.2 26 24 50 6.2"/></g></g></g></svg>