<svg xmlns="http://www.w3.org/2000/svg" width="42" height="52" viewBox="0 0 42 52"><g fill="none"><g fill="#E84118"><path d="M21.5 11C16.3 11 12 15.3 12 20.5 12 25.7 16.3 30 21.5 30 26.7 30 31 25.7 31 20.5 31 15.3 26.7 11 21.5 11ZM21.5 26C18.5 26 16 23.5 16 20.5 16 17.5 18.5 15 21.5 15 24.5 15 27 17.5 27 20.5 27 23.5 24.5 26 21.5 26Z"/><path d="M21 0C9.4 0 0 9.3 0 20.8L0 21.4C0 27.2 3.4 34 10 41.5 14.8 47 19.5 50.8 19.7 51L21 52 22.3 51C22.5 50.8 27.2 47 32 41.5 38.6 34 42 27.2 42 21.4L42 20.8C42 9.3 32.6 0 21 0ZM37.9 21.4C37.9 31.2 25.2 43.1 21 46.7 16.8 43.1 4.1 31.2 4.1 21.4L4.1 20.8C4.1 11.6 11.7 4.1 21 4.1 30.3 4.1 37.9 11.6 37.9 20.8L37.9 21.4 37.9 21.4Z"/></g></g></svg>