<svg xmlns="http://www.w3.org/2000/svg" width="65" height="59" viewBox="0 0 65 59"><g fill="none"><g fill="#E84118"><path d="M57.4 10.2L43.9 10.2 43.9 7.7C43.9 3.4 40.5 0 36.3 0L28.7 0C24.5 0 21.1 3.4 21.1 7.7L21.1 10.2 7.6 10.2C3.4 10.2 0 13.7 0 17.9L0 51.3C0 55.6 3.4 59 7.6 59L57.4 59C61.6 59 65 55.6 65 51.3L65 17.9C65 13.7 61.6 10.2 57.4 10.2ZM26 7.5C26 6.1 27.2 5 28.6 5L36.4 5C37.8 5 39 6.1 39 7.5L39 10 26 10 26 7.5 26 7.5ZM60 51.5C60 52.9 58.9 54 57.5 54L7.5 54C6.1 54 5 52.9 5 51.5L5 30 13.3 30 13.3 36.9 18.4 36.9 18.4 30 30 30 30 48.7 35 48.7 35 30 46.6 30 46.6 36.9 51.7 36.9 51.7 30 60 30 60 51.5ZM60 24L5 24 5 17.5C5 16.1 6.1 15 7.5 15L57.5 15C58.9 15 60 16.1 60 17.5L60 24Z"/></g></g></svg>