<svg xmlns="http://www.w3.org/2000/svg" width="76" height="76" viewBox="0 0 76 76"><g fill="none"><g fill="#E84118"><path d="M64.9 11.1C57.7 4 48.2 0 38 0 27.8 0 18.3 4 11.1 11.1 4 18.3 0 27.8 0 38 0 48.2 4 57.7 11.1 64.9 18.3 72 27.8 76 38 76 48.2 76 57.7 72 64.9 64.9 72 57.7 76 48.2 76 38 76 27.8 72 18.3 64.9 11.1ZM38 70.1C20.3 70.1 5.9 55.7 5.9 38 5.9 20.3 20.3 5.9 38 5.9 55.7 5.9 70.1 20.3 70.1 38 70.1 55.7 55.7 70.1 38 70.1Z"/><path d="M55.3 42.1C55.3 42.1 54.2 45.3 51.6 48.3 48.2 52.2 43.9 54.1 38.8 54.1 33.7 54.1 29.3 52.2 25.7 48.2 22.8 45.2 21.6 42 21.6 42L16 44C16.1 44.2 17.6 48.1 21.1 52 25.8 57.2 31.9 60 38.8 60 45.8 60 51.8 57.2 56.3 51.9 59.6 48 60.9 44.1 61 43.9L55.3 42.1Z"/><circle cx="25" cy="27" r="5"/><circle cx="51" cy="27" r="5"/></g></g></svg>