<svg xmlns="http://www.w3.org/2000/svg" width="60" height="60" viewBox="0 0 60 60"><g fill="none"><g fill="#E84118"><path d="M30 13C20.6 13 13 20.6 13 30 13 39.4 20.6 47 30 47 39.4 47 47 39.4 47 30 47 20.6 39.4 13 30 13L30 13ZM30 43.5C22.6 43.5 16.5 37.4 16.5 30 16.5 22.6 22.6 16.5 30 16.5 37.4 16.5 43.5 22.6 43.5 30 43.5 37.4 37.4 43.5 30 43.5L30 43.5Z"/><path d="M60 37L60 23 53.9 23C53.4 21.3 52.7 19.6 51.8 18L56.1 13.7 46.3 3.9 42 8.2C40.4 7.3 38.7 6.6 37 6.1L37 0 23 0 23 6.1C21.3 6.6 19.6 7.3 18 8.2L13.7 3.9 3.9 13.7 8.2 18C7.3 19.6 6.6 21.3 6.1 23L0 23 0 37 6.1 37C6.6 38.7 7.3 40.4 8.2 42L3.9 46.3 13.7 56.1 18 51.8C19.6 52.7 21.3 53.4 23 53.9L23 60 37 60 37 53.9C38.7 53.4 40.4 52.7 42 51.8L46.3 56.1 56.1 46.3 51.8 42C52.7 40.4 53.4 38.7 53.9 37L60 37ZM51.2 46.3L46.3 51.2 42.5 47.4 41.3 48.1C39.3 49.4 37.1 50.3 34.8 50.8L33.4 51.1 33.4 56.5 26.6 56.5 26.6 51.1 25.2 50.8C22.9 50.3 20.7 49.4 18.7 48.1L17.5 47.4 13.7 51.2 8.8 46.3 12.6 42.5 11.9 41.3C10.6 39.3 9.7 37.1 9.2 34.8L8.9 33.4 3.5 33.4 3.5 26.6 8.9 26.6 9.2 25.2C9.7 22.9 10.6 20.7 11.9 18.7L12.6 17.5 8.8 13.7 13.7 8.8 17.5 12.6 18.7 11.9C20.7 10.6 22.9 9.7 25.2 9.2L26.6 8.9 26.6 3.5 33.4 3.5 33.4 8.9 34.8 9.2C37.1 9.7 39.3 10.6 41.3 11.9L42.5 12.6 46.3 8.8 51.2 13.7 47.4 17.5 48.1 18.7C49.4 20.7 50.3 22.9 50.8 25.2L51.1 26.6 56.5 26.6 56.5 33.4 51.1 33.4 50.8 34.8C50.3 37.1 49.4 39.3 48.1 41.3L47.4 42.5 51.2 46.3Z"/><path d="M36.2 25.9C35.6 26.6 34.7 26.6 34.1 25.9 33.4 25.3 33.4 24.4 34.1 23.8L35.3 22.5 32.9 20 31.6 21.3C30.1 22.8 29.7 25.1 30.6 27L26 31.6C24.1 30.7 21.8 31.1 20.3 32.6L19 33.9 21.5 36.3 22.8 35.1C23.1 34.8 23.4 34.6 23.9 34.6 24.3 34.6 24.7 34.8 24.9 35.1 25.2 35.3 25.4 35.7 25.4 36.1 25.4 36.6 25.2 36.9 24.9 37.2L23.7 38.5 26.1 41 27.4 39.7C28.9 38.2 29.3 35.9 28.4 34L33 29.4C33.7 29.7 34.4 29.9 35.1 29.9 36.4 29.9 37.7 29.4 38.7 28.4L40 27.1 37.5 24.7 36.2 25.9Z"/></g></g></svg>