<svg xmlns="http://www.w3.org/2000/svg" width="72" height="72" viewBox="0 0 72 72"><g fill="none"><g fill="#E84118"><path d="M36 0C16.1 0 0 16.1 0 36 0 55.9 16.1 72 36 72 55.9 72 72 55.9 72 36 72 16.1 55.9 0 36 0ZM36 66.4C19.3 66.4 5.6 52.7 5.6 36 5.6 19.3 19.3 5.6 36 5.6 52.7 5.6 66.4 19.3 66.4 36 66.4 52.7 52.7 66.4 36 66.4Z"/><path d="M18.2 37.8L24.7 33.7C25.8 33 25.5 31.3 24.2 31L21.8 30.4C24 24.7 29.4 20.7 35.7 20.7 41.8 20.7 47.3 24.5 49.6 30.3 50.2 31.8 51.8 32.5 53.2 31.9 54.7 31.3 55.4 29.7 54.8 28.2 51.6 20.2 44.1 15 35.7 15 26.8 15 19.1 20.8 16.2 29.1L13.8 28.5C12.5 28.2 11.5 29.6 12.2 30.7L16.2 37.3C16.7 38 17.6 38.2 18.2 37.8Z"/><path d="M59.8 42.4L55.8 35.7C55.4 35 54.5 34.8 53.8 35.2L47.2 39.2C46.1 39.9 46.3 41.6 47.6 41.9L50.1 42.6C47.6 47.9 42.2 51.4 36.2 51.2 30.2 51.1 24.8 47.5 22.5 41.9 21.9 40.4 20.2 39.8 18.7 40.4 17.3 41 16.6 42.7 17.2 44.1 20.4 51.8 27.8 56.8 36.1 57 36.2 57 36.3 57 36.5 57 45.1 57 52.6 51.8 55.7 44L58.2 44.6C59.4 44.9 60.5 43.5 59.8 42.4Z"/></g></g></svg>