<svg xmlns="http://www.w3.org/2000/svg" width="46" height="46" viewBox="0 0 46 46"><g fill="none"><g fill="#E84118"><path d="M35.6 16.9C34.3 14.8 28.8 5.6 27.6 3.4 26.4 1.3 24.6-0.9 20.9 0.3 19.5 0.8 18.5 1.7 18 2.9 17.5 4.1 17.5 5.4 18 7.2L18 7.3 20.5 14.1C20.5 14.1 20.5 14.1 20.5 14.1 20.4 15.1 19.1 15.7 18.2 15.7L6.4 15.7C3.6 15.7 1.3 18 1.3 20.8 1.3 21.8 1.5 22.7 2 23.5 0.8 24.4 0 25.9 0 27.5 0 29.2 0.8 30.6 2 31.6 1.6 32.3 1.4 33.2 1.4 34.1 1.4 35.5 1.9 36.8 2.9 37.8 3.2 38.1 3.6 38.4 4.1 38.6 3.8 39.3 3.6 40 3.6 40.7 3.6 43.8 5.8 46 8.7 46L46 46 46 16.9 35.6 16.9ZM32.5 42.4L8.7 42.4C7.3 42.4 7.2 41.2 7.2 40.7 7.2 39.9 8.1 39.3 8.9 39.3L9.1 39.3 9.1 39.3 10.5 39.3 10.5 35.7 6.5 35.7C6.1 35.7 5.7 35.5 5.4 35.2 5.1 34.9 4.9 34.5 4.9 34.1 4.9 33.3 5.6 32.6 6.5 32.6L6.5 32.6 9.7 32.6 9.7 29 5.1 29C4.3 29 3.6 28.3 3.6 27.5 3.6 26.6 4.3 26 5.1 26L9.1 26 9.1 22.4 6.4 22.4C5.5 22.4 4.9 21.7 4.9 20.8 4.9 20 5.5 19.3 6.4 19.3L18.2 19.3C20.9 19.3 24 17.4 24.1 14.2 24.1 13.8 24 13.3 23.9 12.9L21.4 6.3C21.1 5 21.2 4.5 21.3 4.3 21.3 4.2 21.4 4 22.1 3.8 22.9 3.5 23.1 3.6 23.2 3.7 23.5 3.8 23.9 4.1 24.5 5.2 25.8 7.4 31.3 16.6 32.5 18.7L32.5 42.4ZM42.4 42.4L36.1 42.4 36.1 20.5 42.4 20.5 42.4 42.4Z"/></g></g></svg>