<svg xmlns="http://www.w3.org/2000/svg" width="70" height="81" viewBox="0 0 70 81"><g fill="none"><g fill="#E84118"><path d="M69.9 22L69.9 21.9C69.9 21.1 69.9 20.3 69.8 19.4 69.8 14.9 66.2 11.2 61.6 11 52.2 10.5 44.9 7.4 38.6 1.4L38.6 1.4C36.5-0.5 33.5-0.5 31.4 1.4L31.4 1.4C25.1 7.4 17.8 10.5 8.4 11 3.8 11.2 0.2 14.9 0.2 19.4 0.1 20.3 0.1 21.1 0.1 21.9L0.1 22.1C-0.1 31.6-0.3 43.4 3.7 54.1 5.9 60 9.2 65.1 13.6 69.3 18.6 74.1 25.1 78 33 80.7 33.3 80.8 33.6 80.8 33.8 80.9 34.2 81 34.6 81 35 81 35.4 81 35.8 81 36.2 80.9 36.4 80.8 36.7 80.8 37 80.7 44.9 78 51.4 74.1 56.4 69.3 60.8 65.1 64.1 60 66.3 54.1 70.3 43.3 70.1 31.5 69.9 22ZM61.8 52.4C57.5 63.8 48.9 71.5 35.4 76.2 35.3 76.2 35.3 76.2 35.2 76.2 35.1 76.3 34.9 76.3 34.8 76.2 34.7 76.2 34.7 76.2 34.6 76.2 21.1 71.5 12.4 63.8 8.2 52.5 4.5 42.6 4.7 31.7 4.9 22.2L4.9 22.1C4.9 21.3 5 20.4 5 19.5 5 17.5 6.6 15.8 8.6 15.7 14 15.4 18.7 14.4 23 12.6 27.3 10.8 31.1 8.3 34.7 4.9 34.9 4.7 35.1 4.7 35.3 4.9 38.9 8.3 42.7 10.8 47 12.6 51.3 14.4 56 15.4 61.4 15.7 63.4 15.8 65 17.5 65 19.5 65 20.4 65.1 21.3 65.1 22.1 65.3 31.7 65.5 42.5 61.8 52.4Z"/><path d="M35.5 20C24.2 20 15 29.2 15 40.5 15 51.8 24.2 61 35.5 61 46.8 61 56 51.8 56 40.5 56 29.2 46.8 20 35.5 20ZM35.5 56.2C26.9 56.2 19.8 49.1 19.8 40.5 19.8 31.9 26.9 24.8 35.5 24.8 44.1 24.8 51.2 31.9 51.2 40.5 51.2 49.1 44.1 56.2 35.5 56.2Z"/><path d="M41 33.7L31.6 43.8 29 41.1C28.1 40.1 26.6 40.1 25.7 41.1 24.8 42.1 24.8 43.7 25.7 44.7L29.9 49.3C30.4 49.8 31 50 31.6 50 32.2 50 32.8 49.8 33.3 49.3L44.3 37.4C45.2 36.4 45.2 34.7 44.3 33.7 43.4 32.8 41.9 32.8 41 33.7Z"/></g></g></svg>