<svg xmlns="http://www.w3.org/2000/svg" width="62" height="52" viewBox="0 0 62 52"><g fill="none"><g fill="#E84118"><path d="M53.5 3C48.8 3 45 7 45 12 45 17 48.8 21 53.5 21 58.2 21 62 17 62 12 62 7 58.2 3 53.5 3ZM53.5 17.2C50.8 17.2 48.6 14.9 48.6 12 48.6 9.1 50.8 6.8 53.5 6.8 56.2 6.8 58.4 9.1 58.4 12 58.4 14.9 56.2 17.2 53.5 17.2Z"/><path d="M2.5 15.5C2.9 15.8 3.4 16 3.9 16 4.3 16 4.8 15.8 5.2 15.5L10 10.6 14.8 15.5C15.2 15.8 15.7 16 16.1 16 16.6 16 17.1 15.8 17.5 15.5 18.2 14.7 18.2 13.6 17.5 12.8L12.6 8 17.5 3.2C18.2 2.4 18.2 1.3 17.5 0.5 16.7-0.2 15.6-0.2 14.8 0.5L10 5.4 5.2 0.5C4.4-0.2 3.3-0.2 2.5 0.5 1.8 1.3 1.8 2.4 2.5 3.2L7.4 8 2.5 12.8C1.8 13.6 1.8 14.7 2.5 15.5L2.5 15.5Z"/><path d="M40.5 36.5C39.7 35.8 38.6 35.8 37.8 36.5L33 41.4 28.2 36.5C27.4 35.8 26.3 35.8 25.5 36.5 24.8 37.3 24.8 38.4 25.5 39.2L30.4 44 25.5 48.8C24.8 49.6 24.8 50.7 25.5 51.5 25.9 51.8 26.4 52 26.9 52 27.3 52 27.8 51.8 28.2 51.5L33 46.6 37.8 51.5C38.2 51.8 38.7 52 39.1 52 39.6 52 40.1 51.8 40.5 51.5 41.2 50.7 41.2 49.6 40.5 48.8L35.6 44 40.5 39.2C41.2 38.4 41.2 37.3 40.5 36.5L40.5 36.5Z"/><path d="M40.4 11.8L33.2 5.4C32.4 4.8 31.3 4.9 30.6 5.6 30 6.4 30.1 7.5 30.8 8.2L34.6 11.5C23.4 13 16.7 18.9 12.9 24 9.7 28.4 8.2 32.7 7.6 34.8 3.3 35.3 0 39 0 43.4 0 48.1 3.8 52 8.6 52 13.3 52 17.1 48.1 17.1 43.4 17.1 39.6 14.6 36.3 11.2 35.2 11.8 33.2 13.2 29.6 15.9 26 20.6 19.8 27 16.1 35.2 15.1L31.6 19.2C30.9 19.9 31 21.1 31.8 21.7 32.1 22 32.5 22.2 32.9 22.2 33.4 22.2 33.9 22 34.3 21.6L40.6 14.3C41.2 13.5 41.1 12.4 40.4 11.8ZM13.5 43.4C13.5 46.2 11.3 48.4 8.6 48.4 5.8 48.4 3.6 46.2 3.6 43.4 3.6 40.6 5.8 38.4 8.6 38.4 11.3 38.4 13.5 40.6 13.5 43.4Z"/></g></g></svg>