<?xml version="1.0" encoding="UTF-8"?>
<svg width="81px" height="71px" viewBox="0 0 81 71" version="1.1" xmlns="http://www.w3.org/2000/svg" xmlns:xlink="http://www.w3.org/1999/xlink">
    <!-- Generator: Sketch 63 (92445) - https://sketch.com -->
    <title>coffee-cup</title>
    <desc>Created with Sketch.</desc>
    <g id="Page-1" stroke="none" stroke-width="1" fill="none" fill-rule="evenodd">
        <g id="Relia_07_Career" transform="translate(-261.000000, -2247.000000)" fill="#E84118" fill-rule="nonzero">
            <g id="coffee-cup" transform="translate(261.000000, 2247.000000)">
                <path d="M62.8823576,27 L15.1176424,27 C12.2960622,27 10,29.324728 10,32.1815349 L10,35.6358376 C10,47.960928 16.7245821,59.1392799 27.5466364,64.8078791 C28.3825713,65.2431281 29.4128167,64.9149102 29.8462171,64.0651385 C30.276099,63.2187671 29.9519284,62.1756594 29.112635,61.7368482 C19.4300557,56.6659066 13.4117083,46.6655442 13.4117083,35.6356756 L13.4117083,32.181373 C13.4117083,31.2279706 14.1759962,30.4541407 15.1176424,30.4541407 L62.8823576,30.4541407 C63.8240038,30.4541407 64.5882917,31.2279706 64.5882917,32.181373 L64.5882917,35.6356756 C64.5882917,46.6653823 58.5699443,56.6657447 48.8840065,61.7332858 C48.0447132,62.1719352 47.7205425,63.2152048 48.1504245,64.0615762 C48.4541246,64.6556715 49.0511295,64.9976528 49.6686051,64.9976528 C49.9347225,64.9976528 50.2008399,64.9354744 50.4498452,64.8041549 C61.2754179,59.1389561 68,47.9641664 68,35.6355137 L68,32.1812111 C68,29.324728 65.7037778,27 62.8823576,27 Z" id="Path"></path>
                <path d="M76.8712799,62.0296461 C76.6101595,61.406579 76.0008262,61 75.3246436,61 L1.67535062,61 C0.999168028,61 0.389834772,61.406579 0.128714366,62.0296461 C-0.13240604,62.6527131 0.0114926453,63.3691856 0.490265698,63.8457405 L4.24308692,67.5844553 C6.45931498,69.7869795 9.39848879,71 12.5286383,71 L64.4647652,71 C67.5949147,71 70.5375408,69.7871357 72.7570643,67.5844553 L76.5098855,63.8457405 C76.9885016,63.3691856 77.1324003,62.6527131 76.8712799,62.0296461 Z M70.3868944,65.2285464 C68.8068335,66.8012871 66.7010795,67.667708 64.4682175,67.667708 L12.5286383,67.667708 C10.2957763,67.667708 8.19002229,66.8012871 6.60996137,65.2285464 L5.71283074,64.3355721 L71.2840251,64.3355721 L70.3868944,65.2285464 Z" id="Shape"></path>
                <path d="M77.713068,35.2327819 C73.1341811,32.2939218 65.8188931,35.483957 64.9995502,35.8538 C64.1462672,36.2440043 63.7655963,37.2485457 64.1564652,38.1037182 C64.5473341,38.9588907 65.5502404,39.3355738 66.4102158,38.9453695 C68.0487421,38.2021839 73.304041,36.4409358 75.8739285,38.0935375 C77.0331505,38.8367232 77.600731,40.2790314 77.600731,42.4915675 C77.600731,49.285385 63.8742684,53.3916764 58.5746721,54.4028988 L57.3713121,54.6403937 C56.4501489,54.8203045 55.8518151,55.7126999 56.0320323,56.6324557 C56.1918535,57.4400656 56.9022056,58 57.697647,58 C57.8064784,58 57.9151505,57.9898194 58.0273281,57.9661176 L59.2204902,57.7319632 C60.1110595,57.5622331 81,53.4731214 81,42.4915675 C81,39.0777176 79.8920866,36.6377082 77.713068,35.2327819 Z" id="Path"></path>
                <path d="M52.1727664,12.5241841 C54.6090779,9.18555789 54.6090779,3.95758497 52.1727664,0.618958735 C51.6542917,-0.0908170294 50.7163735,-0.20911299 50.066138,0.36265082 C49.4188522,0.931179975 49.3139212,1.96288095 49.8323959,2.67265671 C51.3757397,4.78550267 51.3757397,8.35748617 49.829446,10.4769555 C47.3901847,13.8155817 47.3901847,19.0435546 49.829446,22.3821809 C50.1261186,22.7895934 50.5605923,23 51.0011062,23 C51.3276989,23 51.6603319,22.881704 51.9360744,22.6384888 C52.5833602,22.0699596 52.6882912,21.03487 52.1698165,20.3284829 C50.6235229,18.2154829 50.6235229,14.6436534 52.1727664,12.5241841 Z" id="Path"></path>
                <path d="M42.170554,12.5235648 C44.6098153,9.18474121 44.6098153,3.95645923 42.170554,0.617635617 C41.6551696,-0.0921821082 40.7112113,-0.207250216 40.0639256,0.361312549 C39.4166398,0.929875315 39.3117088,1.96502616 39.8301835,2.671455 C41.3764771,4.78442586 41.3764771,8.35662054 39.8272336,10.4762151 C37.3909221,13.8150387 37.3909221,19.0433207 39.8272336,22.3821443 C40.1239062,22.7895809 40.5583799,23 40.9988938,23 C41.3254865,23 41.6551696,22.881697 41.933862,22.6384674 C42.5811478,22.0699046 42.6860788,21.0381427 42.1676041,20.328325 C40.6242603,18.2152 40.6242603,14.6431594 42.170554,12.5235648 Z" id="Path"></path>
                <path d="M31.1727664,12.5259457 C33.6090779,9.18684991 33.6090779,3.95814163 31.1727664,0.619045796 C30.657382,-0.0908298034 29.7163735,-0.209142403 29.066138,0.36270183 C28.4218021,0.927921789 28.3170115,1.96315704 28.8323959,2.66979753 C30.3757397,4.78294067 30.3757397,8.3554266 28.829446,10.475194 C26.3901847,13.8142898 26.3901847,19.0429981 28.829446,22.382094 C29.1261186,22.7895638 29.5605923,23 30.0011062,23 C30.3276989,23 30.6603319,22.8816874 30.9360744,22.6418271 C31.5833602,22.073218 31.6882912,21.0379827 31.1698165,20.3314963 C29.6235229,18.2148099 29.6235229,14.6457132 31.1727664,12.5259457 Z" id="Path"></path>
            </g>
        </g>
    </g>
</svg>