<?xml version="1.0" encoding="UTF-8"?>
<svg width="75px" height="75px" viewBox="0 0 75 75" version="1.1" xmlns="http://www.w3.org/2000/svg" xmlns:xlink="http://www.w3.org/1999/xlink">
    <!-- Generator: Sketch 63 (92445) - https://sketch.com -->
    <title>desk</title>
    <desc>Created with Sketch.</desc>
    <g id="Page-1" stroke="none" stroke-width="1" fill="none" fill-rule="evenodd">
        <g id="Relia_07_Career" transform="translate(-263.000000, -1921.000000)" fill="#E84118" fill-rule="nonzero">
            <g id="desk" transform="translate(263.000000, 1921.000000)">
                <path d="M73.75,32.5 L72.2747803,32.5 L69.9749756,20.9997559 C69.855957,20.4180908 69.343872,20 68.75,20 L53.75,20 C53.7084961,20 53.6724853,20.022583 53.6309814,20.0262452 C53.5150147,20.0354003 53.4014892,20.0610352 53.2922363,20.1025391 C53.2415772,20.1239014 53.1915283,20.147705 53.1439209,20.1751709 C53.0413819,20.234375 52.9473877,20.3082275 52.8649903,20.3936767 C52.8411866,20.4187013 52.8063966,20.4302978 52.7838134,20.4577637 C52.7612305,20.4852295 52.7685547,20.4937744 52.7575684,20.5102539 C52.6843263,20.6121827 52.6269531,20.7250977 52.5885009,20.8447266 C52.5689697,20.8856202 52.5512695,20.9271241 52.5360108,20.9698486 C52.5317383,20.9796142 52.5280763,20.9899903 52.5250244,20.9997559 L50.2252197,32.5 L32.5,32.5 L32.5,31.25 C32.5,29.1790772 30.8209228,27.5 28.75,27.5 L28.75,25 L38.75,25 C40.8209228,25 42.5,23.3209228 42.5,21.25 L42.5,3.75 C42.5,1.67907719 40.8209228,0 38.75,0 L8.75,0 C6.67907719,0 5,1.67907719 5,3.75 L5,21.25 C5,23.3209228 6.67907719,25 8.75,25 L18.75,25 L18.75,27.5 C16.6790772,27.5 15,29.1790772 15,31.25 L15,32.5 L1.25,32.5 C0.559692344,32.5 0,33.0596923 0,33.75 L0,73.75 C0,74.4403077 0.559692344,75 1.25,75 L6.25,75 C6.94030766,75 7.5,74.4403077 7.5,73.75 L7.5,65 L67.5,65 L67.5,73.75 C67.5,74.4403077 68.0596923,75 68.75,75 L73.75,75 C74.4403077,75 75,74.4403077 75,73.75 L75,33.75 C75,33.0596923 74.4403077,32.5 73.75,32.5 L73.75,32.5 Z M67.7252197,22.5 L69.7247314,32.5 L57.2747803,32.5 L55.2752686,22.5 L67.7252197,22.5 Z M53.6077881,28.3349609 L54.6490478,32.5 L52.7740478,32.5 L53.6077881,28.3349609 Z M7.5,3.75 C7.5,3.05969234 8.05969234,2.5 8.75,2.5 L38.75,2.5 C39.4403077,2.5 40,3.05969234 40,3.75 L40,17.5 L7.5,17.5 L7.5,3.75 Z M7.5,21.25 L7.5,20 L40,20 L40,21.25 C40,21.9403077 39.4403077,22.5 38.75,22.5 L8.75,22.5 C8.05969234,22.5 7.5,21.9403077 7.5,21.25 Z M21.25,25 L26.25,25 L26.25,27.5 L21.25,27.5 L21.25,25 Z M17.5,31.25 C17.5,30.5596923 18.0596923,30 18.75,30 L28.75,30 C29.4403077,30 30,30.5596923 30,31.25 L30,32.5 L17.5,32.5 L17.5,31.25 Z M7.5,62.5 L7.5,40 L67.5,40 L67.5,62.5 L7.5,62.5 Z M72.5,72.5 L70,72.5 L70,38.75 C70,38.0596923 69.4403077,37.5 68.75,37.5 L6.25,37.5 C5.55969234,37.5 5,38.0596923 5,38.75 L5,72.5 L2.5,72.5 L2.5,35 L72.5,35 L72.5,72.5 Z" id="Shape"></path>
            </g>
        </g>
    </g>
</svg>