<?xml version="1.0" encoding="UTF-8"?>
<svg width="76px" height="76px" viewBox="0 0 76 76" version="1.1" xmlns="http://www.w3.org/2000/svg" xmlns:xlink="http://www.w3.org/1999/xlink">
    <!-- Generator: Sketch 63 (92445) - https://sketch.com -->
    <title>learning</title>
    <desc>Created with Sketch.</desc>
    <g id="Page-1" stroke="none" stroke-width="1" fill="none" fill-rule="evenodd">
        <g id="Relia_07_Career" transform="translate(-749.000000, -2244.000000)" fill="#E84118" fill-rule="nonzero">
            <g id="learning" transform="translate(749.000000, 2244.000000)">
                <path d="M57.0680612,73.7296439 C55.5668776,65.6176671 56.5898028,57.2420649 60,49.7262142 L57.0966495,48.4405946 C53.640443,56.0783126 52.459091,64.5453525 53.6930038,72.833525 L22.8430998,72.833525 L26.9074033,60.6671184 C27.0026977,60.381821 27.0144606,60.0754454 26.9413519,59.7837651 C26.7288754,58.9352947 25.8667594,58.4191765 25.0158107,58.6309973 C24.9491047,58.6436145 19.0424936,60.0813829 14.7843257,58.6642473 C11.6713277,57.6287453 11.9414276,49.8085972 12.5608408,46.1828558 C12.5758794,46.0948322 12.5834732,46.0057695 12.5834732,45.9165584 C12.5833243,45.0421114 11.8720414,44.3333209 10.9948868,44.3336178 L5.23434409,44.3336178 C4.09706572,44.3336178 3.17405072,43.416866 3.1695838,42.2832466 C3.16883932,41.8725192 3.29287085,41.4712919 3.5252997,41.1321115 L11.5157299,29.3932058 C11.7557525,29.0385879 11.8427086,28.6027746 11.7570926,28.1835863 C10.8209746,22.4700673 12.2698953,16.6233996 15.7673464,12.0019375 C20.5606515,6.13879323 29.1069158,3.16692024 41.1711789,3.16692024 L41.1711789,0 C28.1049851,0 18.734276,3.36463938 13.3041366,10.0004023 C9.32068441,15.1544593 7.59868594,21.6961127 8.5298903,28.1359377 L0.896813846,39.352194 C0.31358272,40.2135785 0.00149376355,41.228893 0,42.2681059 C-0.00386654295,45.1537366 2.33962968,47.4962333 5.23419519,47.5000927 L9.1777429,47.5000927 C8.75680994,51.4141004 8.48849682,59.9087497 13.7852241,61.6724876 C16.8006943,62.5086376 19.9613395,62.6883958 23.0525985,62.1997386 L19.1328744,73.9163787 C19.0789735,74.077879 19.0514275,74.2469496 19.0514275,74.4170593 C19.0515764,75.2915063 19.7628593,76 20.6400139,76 L55.5814696,76 C55.6801886,76 55.7787586,75.9907968 55.8756908,75.9726874 C56.7376579,75.8108902 57.304957,74.9830526 57.1426588,74.1237462 L57.0680612,73.7296439 Z" id="Path"></path>
                <rect id="Rectangle" x="36" y="52" width="3" height="3"></rect>
                <rect id="Rectangle" x="40" y="59" width="3" height="3"></rect>
                <rect id="Rectangle" x="43" y="65" width="3" height="3"></rect>
                <path d="M49.5,13 C41.4919219,13 35,19.2680625 35,27 C35,34.7319375 41.4919219,41 49.5,41 C57.504151,40.9905208 63.9901823,34.7281458 64,27 C64,19.2680625 57.5082292,13 49.5,13 Z M49.5,37.8889375 C43.2714948,37.8889375 38.2221719,33.013875 38.2221719,27 C38.2221719,20.9862708 43.2713437,16.1110625 49.5,16.1110625 C55.7256354,16.1179167 60.7707292,20.9890417 60.7778281,27 C60.7778281,33.013875 55.7286562,37.8889375 49.5,37.8889375 Z" id="Shape"></path>
                <path d="M42.3332812,27 L39,27 C39.0054688,32.520625 43.479375,36.9945313 49,37 L49,33.6667188 C45.3179687,33.6667188 42.3332812,30.6820313 42.3332812,27 Z" id="Path"></path>
                <path d="M49,17 L49,20.3332812 C52.3136875,20.3332812 55.0000469,23.3179687 55.0000469,27 L58,27 C57.9950781,21.4795313 53.9685625,17.005625 49,17 Z" id="Path"></path>
                <path d="M74.6734846,22.2590737 L68.8224635,21.2823153 C68.3939405,19.8042237 67.8004406,18.3791391 67.0531311,17.0338628 L70.5058828,12.2008443 C70.9567402,11.5690781 70.8848234,10.7039918 70.3359923,10.1551608 L65.8429036,5.66207203 C65.2942215,5.113241 64.4291351,5.04132418 63.7972201,5.49218158 L58.9642015,8.94493326 C57.6193719,8.19836821 56.194734,7.60531504 54.717238,7.17723875 L53.7421175,1.32621757 C53.6140668,0.561040508 52.9519259,0 52.1761772,0 L45.8233761,0 C45.0474786,0 44.3853376,0.560891612 44.2574358,1.32621757 L43.2823153,7.17723875 C41.8043726,7.60516614 40.3791391,8.19821931 39.0338628,8.94493326 L34.2008443,5.49218158 C33.5690781,5.04132418 32.7039918,5.113241 32.1551608,5.66207203 L27.662072,10.1551608 C27.113241,10.7038429 27.0413242,11.5689292 27.4921816,12.2008443 L30.9449333,17.0338628 C30.1983682,18.3786924 29.605315,19.8033303 29.1772387,21.2808263 L23.3262176,22.2575847 C22.5610405,22.3856354 22,23.0477763 22,23.823525 L22,30.176475 C22.0010423,30.951777 22.5614872,31.6130245 23.3262176,31.7409263 L29.1772387,32.7176847 C29.6057617,34.1957763 30.1992616,35.6208609 30.9465711,36.9661372 L27.4938194,41.7991557 C27.042962,42.4309219 27.1148789,43.2960082 27.6637099,43.8448392 L32.1567986,48.337928 C32.7054808,48.886759 33.5705671,48.9586758 34.2024822,48.5078184 L39.0355007,45.0550667 C40.3803303,45.8016318 41.8049682,46.394685 43.2824642,46.8227613 L44.2575847,52.6737824 C44.3856354,53.4389595 45.0477763,54 45.823525,54 L52.176475,54 C52.951777,53.9989577 53.6130245,53.4385128 53.7409263,52.6737824 L54.7176847,46.8227613 C56.1956274,46.3948339 57.6208609,45.8017807 58.9661372,45.0550667 L63.7991557,48.5078184 C64.4309219,48.9586758 65.2960082,48.886759 65.8448392,48.337928 L70.337928,43.8448392 C70.886759,43.2961571 70.9586758,42.4310708 70.5078184,41.7991557 L67.0550667,36.9661372 C67.8016318,35.6213076 68.394685,34.1966697 68.8227613,32.7191737 L74.6737824,31.7424153 C75.4389595,31.6143646 76,30.9522237 76,30.176475 L76,23.823525 C75.9986599,23.048223 75.4380661,22.3869755 74.6734846,22.2590737 Z M72.8233017,28.8311987 L67.2787087,29.7603104 C66.6459003,29.8661755 66.1390579,30.3424941 65.9938842,30.9674111 C65.5582142,32.8223587 64.8204341,34.5930311 63.8100251,36.2085538 C63.4693508,36.7535135 63.490643,37.4500495 63.8640744,37.9731215 L67.1342795,42.5519744 L64.545423,45.1408309 L59.9665701,41.8706258 C59.4434981,41.4973433 58.7469621,41.4760512 58.2020024,41.8165765 C56.5864797,42.8269855 54.8158073,43.5647657 52.9608596,44.0004357 C52.3359427,44.1456094 51.859773,44.6526006 51.7537589,45.2852601 L50.8310498,50.8234506 L47.1686524,50.8234506 L46.2395407,45.2790065 C46.1336756,44.646198 45.6575059,44.1393557 45.03244,43.994182 C43.1774924,43.558512 41.40682,42.8207319 39.7912973,41.8103229 C39.2463376,41.4696486 38.5498016,41.4909408 38.0267296,41.8643722 L33.4478767,45.1345773 L30.8590202,42.5457208 L34.1292253,37.9668679 C34.5025078,37.4437959 34.5239488,36.7472599 34.1832746,36.2023002 C33.1728656,34.5867775 32.4350854,32.816105 31.9994154,30.9611574 C31.8542417,30.3362405 31.3472505,29.8600708 30.714591,29.7540567 L25.1764005,28.8313476 L25.1764005,25.1689502 L30.714591,24.2398385 C31.3473994,24.1339734 31.8542417,23.6576548 31.9994154,23.0327378 C32.4350854,21.1777902 33.1728656,19.4071178 34.1832746,17.7915951 C34.5239488,17.2466354 34.5026567,16.5500994 34.1292253,16.0270274 L30.8590202,11.4481745 L33.4478767,8.859318 L38.0331321,12.1295231 C38.5562041,12.5028056 39.2527401,12.5240977 39.7976998,12.1835723 C41.4132225,11.1731634 43.183895,10.4353832 45.0388426,9.99971324 C45.6637595,9.85453954 46.1399292,9.34754832 46.2459433,8.71488878 L47.1686524,3.17669831 L50.8310498,3.17669831 L51.7601615,8.71488878 C51.8660266,9.34769721 52.3421963,9.85453954 52.9672622,9.99971324 C54.8222098,10.4353832 56.5928822,11.1731634 58.2084049,12.1835723 C58.7533646,12.5242466 59.4499006,12.5029545 59.9729726,12.1295231 L64.5518255,8.86572053 L67.140682,11.454577 L63.8704769,16.0334299 C63.4971944,16.5565019 63.4759023,17.2530379 63.8164277,17.7979976 C64.8268366,19.4135203 65.5646168,21.1841927 66.0002868,23.0391404 C66.1454605,23.6640573 66.6524517,24.140227 67.2851112,24.2462411 L72.8233017,25.1689502 L72.8233017,28.8311987 L72.8233017,28.8311987 Z" id="Shape"></path>
            </g>
        </g>
    </g>
</svg>