<?xml version="1.0" encoding="UTF-8"?>
<svg width="80px" height="76px" viewBox="0 0 80 76" version="1.1" xmlns="http://www.w3.org/2000/svg" xmlns:xlink="http://www.w3.org/1999/xlink">
    <!-- Generator: Sketch 63 (92445) - https://sketch.com -->
    <title>money</title>
    <desc>Created with Sketch.</desc>
    <g id="Page-1" stroke="none" stroke-width="1" fill="none" fill-rule="evenodd">
        <g id="Relia_07_Career" transform="translate(-1258.000000, -2244.000000)" fill="#E84118" fill-rule="nonzero">
            <g id="money" transform="translate(1258.000000, 2244.000000)">
                <path d="M76.4278756,22.4859586 L69.3635182,17.386632 C68.5879193,16.8273228 67.4991134,16.9930441 66.9356344,17.7664638 C66.3687315,18.5363231 66.5391121,19.6135111 67.318298,20.1763807 L74.3826554,25.2757073 C75.7217333,26.2423606 76.5217888,27.8374275 76.5217888,29.5464277 L76.5217888,67.3689014 C76.5217888,70.2241941 74.3166227,72.54769 71.6069995,72.54769 L8.39300053,72.54769 C5.68337729,72.54769 3.47821125,70.2241941 3.47821125,67.3689014 L3.47821125,29.5462659 C3.47821125,27.8372656 4.27826668,26.2421987 5.61734459,25.2719851 L12.7547456,20.1208706 C13.5303445,19.5615614 13.7043121,18.4809748 13.1374092,17.7109536 C12.5739301,16.9410943 11.4887113,16.7684141 10.7095254,17.3311219 L3.57212442,22.4822364 C1.33565399,24.0981802 0,26.7393625 0,29.5462659 L0,67.3687395 C0,72.1262661 3.76353772,76 8.39300053,76 L71.6069995,76 C76.2330384,76 80,72.1262661 80,67.3687395 L80,29.5462659 C80,26.7359639 78.6645091,24.0947817 76.4278756,22.4859586 Z" id="Path"></path>
                <path d="M55.2849493,6.84224544 L50.5172504,3.39878697 C44.2412078,-1.13292899 35.8152878,-1.13292899 29.5390826,3.39878697 L24.7157961,6.88356759 C23.9390316,7.44141657 23.7691804,8.51918211 24.3309084,9.29058267 C24.6707733,9.75545682 25.1977184,10 25.7352284,10 C26.088909,10 26.4460028,9.8897538 26.7546607,9.66942282 L31.5779472,6.18109108 C36.6334992,2.53102188 43.4228338,2.53102188 48.4783858,6.18109108 L53.2460847,9.62454955 C54.0192734,10.1790088 55.1011199,10.0137202 55.6664237,9.2457094 C56.231565,8.47785996 56.0617138,7.40009443 55.2849493,6.84224544 Z" id="Path"></path>
                <path d="M72.7041222,31.7705087 C72.1645914,30.9729301 71.0714796,30.7623681 70.2603652,31.2906344 L47.4413879,46.1822733 C42.6173481,49.3311547 36.3828256,49.3311547 31.5587859,46.1822733 L8.73964323,31.2906344 C7.92505758,30.7623681 6.83194578,30.9764908 6.29588627,31.7705087 C5.75635551,32.5646884 5.97504399,33.6349779 6.7859931,34.1632442 L29.6049704,49.0548831 C32.6128875,51.0195352 36.0581815,52 39.5034755,52 C42.9487695,52 46.3938981,51.0159746 49.3948727,49.0548831 L72.21385,34.1632442 C73.0249644,33.6349779 73.2436529,32.5646884 72.7041222,31.7705087 Z" id="Path"></path>
                <path d="M68.2644954,8 L12.735342,8 C11.7774631,8 11,8.76413008 11,9.70577887 L11,35.2940612 C11,36.23571 11.7774631,37 12.735342,37 C13.6932208,37 14.4706839,36.23571 14.4706839,35.2940612 L14.4706839,11.4117177 L66.5293161,11.4117177 L66.5293161,35.2940612 C66.5293161,36.23571 67.3067792,37 68.264658,37 C69.2225369,37 70,36.23571 70,35.2940612 L70,9.70577887 C70,8.76413008 69.2223742,8 68.2644954,8 Z" id="Path"></path>
                <path d="M40.2484764,24.2143775 C40.2412204,24.2143775 39.8777446,24.1676339 39.8704885,24.1676339 C34.6615123,23.5304358 34.600258,22.4107831 34.600258,22.3999831 C34.600258,21.9499283 36.5153402,20.5999325 40.003628,20.5999325 C43.369576,20.5999325 45.3459125,21.8743285 45.4107104,22.3962706 C45.5367626,23.3826113 46.4258778,24.0630092 47.4229894,23.958722 C48.4093015,23.8326661 49.1112789,22.9327252 48.9853955,21.9463845 C48.6217509,19.0808497 44.8455848,17 40.003628,17 C34.8702493,17 31.0002613,19.3219927 31.0002613,22.3999831 C31.0002613,26.7091697 37.127208,27.4579111 39.7623233,27.7783663 L40.1438547,27.8288224 C45.3384877,28.4695642 45.399742,29.5892169 45.399742,29.6000169 C45.399742,29.9564158 43.6645415,31.4000675 39.996372,31.4000675 C36.630424,31.4000675 34.6540875,30.1256715 34.5892896,29.6037294 C34.4632374,28.6173887 33.559779,27.9332783 32.5770106,28.041278 C31.5906985,28.1673339 30.8887211,29.0672748 31.0146045,30.0536155 C31.3782491,32.9191503 35.1544152,35 39.996372,35 C45.1297507,35 48.9997387,32.6780073 48.9997387,29.6000169 C49,25.2906616 42.8835917,24.5419202 40.2484764,24.2143775 Z" id="Path"></path>
                <path d="M40.5,13 C39.6720259,13 39,13.7680501 39,14.7143316 L39,35.2856684 C39,36.2319499 39.6720259,37 40.5,37 C41.3279741,37 42,36.2319499 42,35.2856684 L42,14.7143316 C42,13.7680501 41.3279741,13 40.5,13 Z" id="Path"></path>
                <path d="M54.2632693,42 L24.7368935,42 C23.7781583,42 23,42.6720259 23,43.5 C23,44.3279741 23.7781583,45 24.7368935,45 L54.2631065,45 C55.2218417,45 56,44.3279741 56,43.5 C56,42.6720259 55.2220046,42 54.2632693,42 Z" id="Path"></path>
                <path d="M60.3333073,14 L53.6666927,14 C52.7467071,14 52,14.6720259 52,15.5 C52,16.3279741 52.7467071,17 53.6666927,17 L60.3333073,17 C61.2532929,17 62,16.3279741 62,15.5 C62,14.6720259 61.2532929,14 60.3333073,14 Z" id="Path"></path>
                <path d="M26.3333073,35 L19.6666927,35 C18.7467071,35 18,35.6720259 18,36.5 C18,37.3279741 18.7467071,38 19.6666927,38 L26.3333073,38 C27.2532929,38 28,37.3279741 28,36.5 C28,35.6720259 27.2532929,35 26.3333073,35 Z" id="Path"></path>
            </g>
        </g>
    </g>
</svg>