<?xml version="1.0" encoding="UTF-8"?>
<svg width="73px" height="72px" viewBox="0 0 73 72" version="1.1" xmlns="http://www.w3.org/2000/svg" xmlns:xlink="http://www.w3.org/1999/xlink">
    <!-- Generator: Sketch 63 (92445) - https://sketch.com -->
    <title>shirts</title>
    <desc>Created with Sketch.</desc>
    <g id="Page-1" stroke="none" stroke-width="1" fill="none" fill-rule="evenodd">
        <g id="Relia_07_Career" transform="translate(-750.000000, -1921.000000)" fill="#E84118" fill-rule="nonzero">
            <g id="shirts" transform="translate(750.000000, 1921.000000)">
                <path d="M47.4754395,29 L37.5245605,29 C36.6825675,29 36,29.6715714 36,30.5 C36,31.3284286 36.6825675,32 37.5245605,32 L47.4754395,32 C48.3174325,32 49,31.3284286 49,30.5 C49,29.6715714 48.3174325,29 47.4754395,29 Z" id="Path"></path>
                <path d="M49.5070712,12.8155664 L42.9792975,12.8155664 C42.1049169,12.8155664 41.3960941,13.5179959 41.3960941,14.3844901 C41.3960941,14.623863 41.3835793,14.8603969 41.3641285,15.0948389 L34.0687273,15.0948389 L34.0687273,13.0574795 C36.9920747,12.351165 39.1683008,9.73405083 39.1683008,6.62265102 C39.1683008,2.97094378 36.1704675,0 32.485524,0 C28.8005804,0 25.8025963,2.97094378 25.8025963,6.62265102 C25.8025963,7.48914516 26.5114191,8.19157471 27.3857997,8.19157471 C28.2601803,8.19157471 28.9690031,7.48914516 28.9690031,6.62265102 C28.9690031,4.70109306 30.5464768,3.13784738 32.485524,3.13784738 C34.4244204,3.13784738 36.0018941,4.70109306 36.0018941,6.62265102 C36.0018941,8.54405957 34.4244204,10.1073052 32.485524,10.1073052 C31.6111434,10.1073052 30.9023206,10.8097348 30.9023206,11.6762289 L30.9023206,15.0948389 L24.0737382,15.0948389 C24.0542875,14.8603969 24.0417726,14.623863 24.0417726,14.3844901 C24.0417726,13.5179959 23.3329498,12.8155664 22.4585692,12.8155664 L4.6645695,12.8155664 C2.09254252,12.8155664 0,14.8892352 0,17.4382133 L0,29.5000986 C0,32.0489272 2.09254252,34.122596 4.6645695,34.122596 L9.52334528,34.122596 L9.52334528,61.2575048 C9.52334528,63.7130945 11.5392909,65.7110067 14.0173812,65.7111562 L18.4967913,65.7111562 L18.4967913,67.5463486 C18.4967913,70.0019383 20.5127369,72 22.9909779,72 L60.2686323,72 C62.7467226,72 64.762819,70.0020877 64.762819,67.5463486 L64.762819,40.4114399 L68.3354305,40.4114399 C70.9074575,40.4114399 73,38.337771 73,35.7889424 L73,23.7270571 C73,21.1780791 70.9074575,19.1045596 68.3354305,19.1045596 L65.6923855,19.1045596 L65.6923855,17.4382133 C65.6923855,14.8892352 63.599843,12.8155664 61.027816,12.8155664 L53.9878384,12.8155664 C54.5437689,11.8411901 54.8528705,10.7250129 54.8528705,9.55220511 C54.8528705,5.90034844 51.8550372,2.92955408 48.1700937,2.92955408 C44.4851501,2.92955408 41.487166,5.90049786 41.487166,9.55220511 C41.487166,10.4186992 42.1959888,11.1211288 43.0703694,11.1211288 C43.94475,11.1211288 44.6535728,10.4186992 44.6535728,9.55220511 C44.6535728,7.63064714 46.2310465,6.06740146 48.1700937,6.06740146 C50.1089901,6.06740146 51.6864638,7.63064714 51.6864638,9.55220511 C51.686313,10.8799628 50.9705543,12.2954308 49.5070712,12.8155664 Z M40.4751221,18.2326863 C39.047525,21.0467377 36.1078933,22.9833873 32.7187826,22.9833873 C29.3296719,22.9833873 26.3900402,21.0468872 24.9624431,18.2326863 L40.4751221,18.2326863 Z M12.689752,61.2573554 L12.689752,32.5535229 C12.689752,31.6870288 11.9809293,30.9845992 11.1065487,30.9845992 L4.6645695,30.9845992 C3.8384389,30.9845992 3.16640676,30.3184791 3.16640676,29.4999492 L3.16640676,17.4380638 C3.16640676,16.6193845 3.83858968,15.9532643 4.6645695,15.9532643 L20.9804604,15.9532643 C21.7568332,21.6856632 26.7250762,26.1210852 32.7187826,26.1210852 C38.712489,26.1210852 43.6805812,21.6855138 44.4571048,15.9532643 L61.0276653,15.9532643 C61.8537959,15.9532643 62.525828,16.6193845 62.525828,17.4380638 L62.525828,29.4999492 C62.525828,30.3186285 61.8537959,30.9845992 61.0276653,30.9845992 L54.3311673,30.9845992 C53.4567867,30.9845992 52.7479639,31.6870288 52.7479639,32.5535229 L52.7479639,61.2573554 C52.7479639,61.9827958 52.1522271,62.5731594 51.420184,62.5731594 L14.0175319,62.5731594 C13.2853381,62.5731594 12.689752,61.9829452 12.689752,61.2573554 Z M69.8335932,35.7889424 C69.8335932,36.6076217 69.1615611,37.2735925 68.3354305,37.2735925 L63.1796156,37.2735925 C62.305235,37.2735925 61.5964122,37.976022 61.5964122,38.8425162 L61.5964122,67.5463486 C61.5964122,68.2717891 61.0008262,68.8621526 60.2686323,68.8621526 L22.9911287,68.8621526 C22.2589348,68.8621526 21.663198,68.2717891 21.663198,67.5463486 L21.663198,65.7111562 L51.420184,65.7111562 C53.8982743,65.7111562 55.9143707,63.7132439 55.9143707,61.2575048 L55.9143707,34.122596 L61.0276653,34.122596 C63.599843,34.122596 65.6922348,32.0489272 65.6922348,29.5000986 L65.6922348,22.242407 L68.3352797,22.242407 C69.1614103,22.242407 69.8335932,22.9085272 69.8335932,23.7270571 L69.8335932,35.7889424 L69.8335932,35.7889424 Z" id="Shape"></path>
            </g>
        </g>
    </g>
</svg>