<?xml version="1.0" encoding="UTF-8"?>
<svg width="73px" height="73px" viewBox="0 0 73 73" version="1.1" xmlns="http://www.w3.org/2000/svg" xmlns:xlink="http://www.w3.org/1999/xlink">
    <!-- Generator: Sketch 63 (92445) - https://sketch.com -->
    <title>stethoscope</title>
    <desc>Created with Sketch.</desc>
    <g id="Page-1" stroke="none" stroke-width="1" fill="none" fill-rule="evenodd">
        <g id="Relia_07_Career" transform="translate(-1258.000000, -1924.000000)" fill="#E84118" fill-rule="nonzero">
            <g id="stethoscope" transform="translate(1258.000000, 1924.000000)">
                <path d="M71.1247974,6.53834766 C69.3575916,4.19536133 66.6609452,2.85170508 63.7262,2.85170508 L62.4838094,2.85170508 L62.4838094,2.13881445 C62.4838094,0.957697266 61.5262817,0 60.345198,0 C59.1641142,0 58.2065866,0.957697266 58.2065866,2.13881445 L58.2065866,7.84193945 C58.2065866,9.02305664 59.1641142,9.98061133 60.345198,9.98061133 C61.5262817,9.98061133 62.4838094,9.02305664 62.4838094,7.84193945 L62.4838094,7.12904883 L63.7262,7.12904883 C65.3063487,7.12904883 66.7584658,7.85263281 67.7100053,9.11416406 C68.6615448,10.3756953 68.9583841,11.9707168 68.524246,13.4901719 L62.8480862,33.357293 C61.264088,38.9014434 56.1308503,42.7734375 50.3650114,42.7734375 C44.5991725,42.7734375 39.4659348,38.9013008 37.8819367,33.357293 L32.2059194,13.4900293 C31.7717813,11.9705742 32.0686206,10.3755527 33.0201601,9.11402148 C33.9716996,7.85234766 35.4238167,7.12890625 37.0039654,7.12890625 L38.2462135,7.12890625 L38.2462135,7.84179688 C38.2462135,9.02291406 39.2037411,9.98046875 40.3848249,9.98046875 C41.5659087,9.98046875 42.5234363,9.02291406 42.5234363,7.84179688 L42.5234363,2.13867188 C42.5234363,0.957554687 41.5659087,0 40.3848249,0 C39.2037411,0 38.2462135,0.957554688 38.2462135,2.13867188 L38.2462135,2.8515625 L37.0039654,2.8515625 C34.0693628,2.8515625 31.3725738,4.19536133 29.6053679,6.53820508 C27.8380195,8.88119141 27.2869706,11.843252 28.0932271,14.6650156 L33.7693869,34.5321367 C34.8081818,38.1678789 36.9527813,41.2930488 39.97136,43.5701641 C40.6183612,44.058209 41.2931644,44.4937852 41.9892111,44.8818828 L48.2265426,59.6042148 L48.2265426,61.1477656 C48.2265426,65.3245918 44.8285742,68.7226562 40.6518661,68.7226562 C36.4751581,68.7226562 33.0771897,65.3245918 33.0771897,61.1477656 L33.0771897,46.4804688 C33.0771897,39.7194141 27.5766812,34.21875 20.8158177,34.21875 C14.0549541,34.21875 8.55444561,39.7194141 8.55444561,46.4804688 L8.55444561,51.5432754 C3.67955221,52.5367598 0,56.8573047 0,62.0214844 C0,67.9178027 4.79690538,72.7148438 10.693057,72.7148438 C16.5892087,72.7148438 21.386114,67.9178027 21.386114,62.0214844 C21.386114,56.8574473 17.7065618,52.5369023 12.8316684,51.5432754 L12.8316684,46.4804688 C12.8316684,42.0779414 16.4134148,38.4960938 20.8158177,38.4960938 C25.2182205,38.4960938 28.7999669,42.0779414 28.7999669,46.4804688 L28.7999669,61.1477656 C28.7999669,67.6831191 34.1166974,73 40.6518661,73 C47.1870349,73 52.5037654,67.6831191 52.5037654,61.1477656 L52.5037654,59.6042148 L58.7412394,44.8818828 C59.4372861,44.4937852 60.1120893,44.058209 60.758948,43.5701641 C63.7775267,41.2931914 65.9221262,38.1678789 66.960921,34.5321367 L72.6370809,14.6650156 C73.4433374,11.8433945 72.8920033,8.88119141 71.1247974,6.53834766 Z M17.1088912,62.0214844 C17.1088912,65.5592754 14.230748,68.4375 10.693057,68.4375 C7.15536603,68.4375 4.27722281,65.5592754 4.27722281,62.0214844 C4.27722281,58.4836934 7.15536603,55.6054687 10.693057,55.6054687 C14.230748,55.6054687 17.1088912,58.4836934 17.1088912,62.0214844 Z M50.365154,53.6876504 L47.4492286,46.8049766 C48.4040473,46.9668027 49.3781135,47.0507812 50.3652966,47.0507812 C51.3524796,47.0507812 52.3264032,46.9668027 53.2812219,46.8049766 L50.365154,53.6876504 Z" id="Shape"></path>
                <circle id="Oval" cx="10" cy="62" r="2"></circle>
            </g>
        </g>
    </g>
</svg>