<?xml version="1.0" standalone="no"?>
<!DOCTYPE svg PUBLIC "-//W3C//DTD SVG 1.1//EN" "http://www.w3.org/Graphics/SVG/1.1/DTD/svg11.dtd" >
<svg xmlns="http://www.w3.org/2000/svg" xmlns:xlink="http://www.w3.org/1999/xlink" version="1.1">
<metadata>
Created by FontForge 20170924 at Sun Feb 19 12:30:40 2017
 By www-data
Copyright \(c\)2016. HK Nova is a trademark of Alfredo Marco Pradil. All rights reserved.
</metadata>
<defs>
<font id="HKNova-Regular" horiz-adv-x="0" >
  <font-face 
    font-family="HK Nova"
    font-weight="400"
    font-stretch="normal"
    units-per-em="2048"
    panose-1="0 0 5 0 0 0 0 0 0 0"
    ascent="1536"
    descent="-512"
    x-height="1059"
    cap-height="1536"
    bbox="-1634 -582 2943 2514"
    underline-thickness="102"
    underline-position="-100"
    stemh="174"
    stemv="174"
    unicode-range="U+0020-FB02"
  />
<missing-glyph horiz-adv-x="1188" 
d="M174 0v1536h840v-1536h-840zM305 131h578v1274h-578v-1274z" />
    <glyph glyph-name="f_f" unicode="ff" horiz-adv-x="1292" 
d="M215 0v915h-178v144h178v186c0 191 119 311 301 311c55 0 113 -12 139 -30v-160c-30 25 -80 41 -120 41c-95 0 -160 -72 -160 -180v-168h448v186c0 191 119 311 301 311c56 0 113 -12 140 -30v-160c-31 25 -80 41 -121 41c-94 0 -160 -72 -160 -180v-168h281v-144h-281
v-915h-160v915h-448v-915h-160z" />
    <glyph glyph-name="fi" unicode="fi" horiz-adv-x="1192" 
d="M215 1245c0 191 119 311 297 311c45 0 92 -8 143 -22v-148c-43 17 -82 25 -118 25c-99 0 -162 -65 -162 -184v-168h280v-144h-280v-915h-160v915h-178v144h178v186zM938 1556c61 0 115 -49 115 -114c0 -62 -54 -113 -115 -113s-115 51 -115 113c0 65 54 114 115 114z
M858 0v1059h160v-1059h-160z" />
    <glyph glyph-name="fl" unicode="fl" horiz-adv-x="1192" 
d="M215 1245c0 191 119 311 297 311c45 0 92 -8 143 -22v-148c-43 17 -82 25 -118 25c-99 0 -162 -65 -162 -184v-168h280v-144h-280v-915h-160v915h-178v144h178v186zM858 1536h160v-1536h-160v1536z" />
    <glyph glyph-name=".notdef" horiz-adv-x="1188" 
d="M174 0v1536h840v-1536h-840zM305 131h578v1274h-578v-1274z" />
    <glyph glyph-name="A" unicode="A" horiz-adv-x="1544" 
d="M1307 0l-140 348h-789l-140 -348h-179l633 1536h160l633 -1536h-178zM445 512h656l-328 815z" />
    <glyph glyph-name="Aacute" unicode="&#xc1;" horiz-adv-x="1544" 
d="M1069 1939l-232 -243h-131l263 321zM1307 0l-140 348h-789l-140 -348h-179l633 1536h160l633 -1536h-178zM445 512h656l-328 815z" />
    <glyph glyph-name="Abreve" unicode="&#x102;" horiz-adv-x="1544" 
d="M769 1698c-194 0 -337 120 -337 315h104c0 -135 98 -229 233 -229c138 0 236 94 236 229h104c0 -195 -143 -315 -340 -315zM1307 0l-140 348h-789l-140 -348h-179l633 1536h160l633 -1536h-178zM445 512h656l-328 815z" />
    <glyph glyph-name="uni1EAE" unicode="&#x1eae;" horiz-adv-x="1544" 
d="M1069 2416l-232 -243h-131l263 321zM769 1698c-194 0 -337 120 -337 315h104c0 -135 98 -229 233 -229c138 0 236 94 236 229h104c0 -195 -143 -315 -340 -315zM1307 0l-140 348h-789l-140 -348h-179l633 1536h160l633 -1536h-178zM445 512h656l-328 815z" />
    <glyph glyph-name="uni1EB6" unicode="&#x1eb6;" horiz-adv-x="1544" 
d="M769 1698c-194 0 -337 120 -337 315h104c0 -135 98 -229 233 -229c138 0 236 94 236 229h104c0 -195 -143 -315 -340 -315zM1485 0h-178l-140 348h-789l-140 -348h-179l633 1536h160zM445 512h656l-328 815zM772 -283c61 0 115 -53 115 -114c0 -64 -54 -115 -115 -115
s-115 51 -115 115c0 61 54 114 115 114z" />
    <glyph glyph-name="uni1EB0" unicode="&#x1eb0;" horiz-adv-x="1544" 
d="M837 2173h-131l-231 243l100 78zM769 1698c-194 0 -337 120 -337 315h104c0 -135 98 -229 233 -229c138 0 236 94 236 229h104c0 -195 -143 -315 -340 -315zM1307 0l-140 348h-789l-140 -348h-179l633 1536h160l633 -1536h-178zM445 512h656l-328 815z" />
    <glyph glyph-name="uni1EB2" unicode="&#x1eb2;" horiz-adv-x="1544" 
d="M764 2410c-35 0 -64 -12 -92 -31l-56 78c41 33 91 53 144 53c106 0 192 -75 192 -180c0 -71 -43 -137 -133 -164v-75h-92v129c76 16 123 49 123 110c0 45 -35 80 -86 80zM769 1698c-194 0 -337 120 -337 315h104c0 -135 98 -229 233 -229c138 0 236 94 236 229h104
c0 -195 -143 -315 -340 -315zM1307 0l-140 348h-789l-140 -348h-179l633 1536h160l633 -1536h-178zM445 512h656l-328 815z" />
    <glyph glyph-name="uni1EB4" unicode="&#x1eb4;" horiz-adv-x="1544" 
d="M629 2404c-72 0 -113 -70 -113 -162h-92c0 146 78 252 203 252c82 0 139 -45 180 -108c25 -39 57 -66 107 -66c69 0 112 59 112 162h90c0 -144 -73 -252 -202 -252c-86 0 -144 47 -183 108c-30 50 -61 66 -102 66zM769 1784c138 0 236 94 236 229h104
c0 -195 -143 -315 -340 -315c-194 0 -337 120 -337 315h104c0 -135 98 -229 233 -229zM1307 0l-140 348h-789l-140 -348h-179l633 1536h160l633 -1536h-178zM445 512h656l-328 815z" />
    <glyph glyph-name="uni01CD" unicode="&#x1cd;" horiz-adv-x="1544" 
d="M856 1716h-172l-201 297h121l168 -227l163 227h123zM1307 0l-140 348h-789l-140 -348h-179l633 1536h160l633 -1536h-178zM445 512h656l-328 815z" />
    <glyph glyph-name="Acircumflex" unicode="&#xc2;" horiz-adv-x="1544" 
d="M772 1943l-168 -227h-121l201 297h172l202 -297h-123zM1307 0l-140 348h-789l-140 -348h-179l633 1536h160l633 -1536h-178zM445 512h656l-328 815z" />
    <glyph glyph-name="uni1EA4" unicode="&#x1ea4;" horiz-adv-x="1544" 
d="M1067 2416l-232 -243h-131l263 321zM772 1943l-168 -227h-121l201 297h172l202 -297h-123zM1307 0l-140 348h-789l-140 -348h-179l633 1536h160l633 -1536h-178zM445 512h656l-328 815z" />
    <glyph glyph-name="uni1EAC" unicode="&#x1eac;" horiz-adv-x="1544" 
d="M772 1943l-168 -227h-121l201 297h172l202 -297h-123zM1485 0h-178l-140 348h-789l-140 -348h-179l633 1536h160zM445 512h656l-328 815zM772 -283c61 0 115 -53 115 -114c0 -64 -54 -115 -115 -115s-115 51 -115 115c0 61 54 114 115 114z" />
    <glyph glyph-name="uni1EA6" unicode="&#x1ea6;" horiz-adv-x="1544" 
d="M835 2173h-131l-231 243l100 78zM483 1716l201 297h172l202 -297h-123l-163 227l-168 -227h-121zM1307 0l-140 348h-789l-140 -348h-179l633 1536h160l633 -1536h-178zM445 512h656l-328 815z" />
    <glyph glyph-name="uni1EA8" unicode="&#x1ea8;" horiz-adv-x="1544" 
d="M762 2410c-35 0 -64 -12 -92 -31l-56 78c41 33 91 53 144 53c106 0 192 -75 192 -180c0 -71 -43 -137 -133 -164v-75h-92v129c76 16 123 49 123 110c0 45 -35 80 -86 80zM772 1943l-168 -227h-121l201 297h172l202 -297h-123zM1307 0l-140 348h-789l-140 -348h-179
l633 1536h160l633 -1536h-178zM445 512h656l-328 815z" />
    <glyph glyph-name="uni1EAA" unicode="&#x1eaa;" horiz-adv-x="1544" 
d="M627 2404c-72 0 -113 -70 -113 -162h-92c0 146 78 252 203 252c82 0 139 -45 180 -108c25 -39 57 -66 107 -66c69 0 112 59 112 162h90c0 -144 -73 -252 -202 -252c-86 0 -144 47 -183 108c-30 50 -61 66 -102 66zM684 2013h172l202 -297h-123l-163 227l-168 -227h-121z
M1307 0l-140 348h-789l-140 -348h-179l633 1536h160l633 -1536h-178zM445 512h656l-328 815z" />
    <glyph glyph-name="Adieresis" unicode="&#xc4;" horiz-adv-x="1544" 
d="M584 1806c-61 0 -115 51 -115 113c0 65 54 114 115 114s115 -49 115 -114c0 -62 -54 -113 -115 -113zM961 1806c-62 0 -115 51 -115 113c0 65 53 114 115 114c63 0 114 -49 114 -114c0 -62 -51 -113 -114 -113zM1307 0l-140 348h-789l-140 -348h-179l633 1536h160
l633 -1536h-178zM445 512h656l-328 815z" />
    <glyph glyph-name="uni1EA0" unicode="&#x1ea0;" horiz-adv-x="1544" 
d="M1485 0h-178l-140 348h-789l-140 -348h-179l633 1536h160zM445 512h656l-328 815zM772 -283c61 0 115 -53 115 -114c0 -64 -54 -115 -115 -115s-115 51 -115 115c0 61 54 114 115 114z" />
    <glyph glyph-name="Agrave" unicode="&#xc0;" horiz-adv-x="1544" 
d="M837 1696h-131l-231 243l100 78zM1307 0l-140 348h-789l-140 -348h-179l633 1536h160l633 -1536h-178zM445 512h656l-328 815z" />
    <glyph glyph-name="uni1EA2" unicode="&#x1ea2;" horiz-adv-x="1544" 
d="M764 1933c-35 0 -64 -12 -92 -31l-56 78c41 33 91 53 144 53c106 0 192 -75 192 -180c0 -71 -43 -137 -133 -164v-75h-92v129c76 16 123 49 123 110c0 45 -35 80 -86 80zM1307 0l-140 348h-789l-140 -348h-179l633 1536h160l633 -1536h-178zM445 512h656l-328 815z" />
    <glyph glyph-name="Amacron" unicode="&#x100;" horiz-adv-x="1544" 
d="M1090 1839v-115h-635v115h635zM1307 0l-140 348h-789l-140 -348h-179l633 1536h160l633 -1536h-178zM445 512h656l-328 815z" />
    <glyph glyph-name="Aogonek" unicode="&#x104;" horiz-adv-x="1544" 
d="M1221 -281c0 -77 53 -110 119 -110c46 0 100 16 145 46v-161c-49 -19 -101 -27 -153 -24c-138 6 -230 81 -230 211c0 132 95 240 251 319h-46l-140 348h-789l-140 -348h-179l633 1536h160l633 -1536c-141 -59 -264 -162 -264 -281zM445 512h656l-328 815z" />
    <glyph glyph-name="Aring" unicode="&#xc5;" horiz-adv-x="1544" 
d="M772 1673c-119 0 -217 99 -217 215c0 119 98 215 217 215c117 0 213 -96 213 -215c0 -116 -96 -215 -213 -215zM772 2015c-70 0 -123 -59 -123 -127c0 -71 53 -125 123 -125c67 0 123 54 123 125c0 68 -56 127 -123 127zM1307 0l-140 348h-789l-140 -348h-179l633 1536
h160l633 -1536h-178zM445 512h656l-328 815z" />
    <glyph glyph-name="Atilde" unicode="&#xc3;" horiz-adv-x="1544" 
d="M629 1927c-72 0 -113 -70 -113 -162h-92c0 146 78 252 203 252c82 0 139 -45 180 -108c25 -39 57 -66 107 -66c69 0 112 59 112 162h90c0 -144 -73 -252 -202 -252c-86 0 -144 47 -183 108c-30 50 -61 66 -102 66zM1307 0l-140 348h-789l-140 -348h-179l633 1536h160
l633 -1536h-178zM445 512h656l-328 815z" />
    <glyph glyph-name="AE" unicode="&#xc6;" horiz-adv-x="1915" 
d="M59 0l633 1536h1108v-164h-670v-524h584v-164h-584v-520h670v-164h-844v348h-571l-137 -348h-189zM451 512h505v858h-165z" />
    <glyph glyph-name="B" unicode="B" horiz-adv-x="1362" 
d="M956 788c184 -44 301 -181 301 -382c0 -240 -188 -406 -421 -406h-617v1536h502c235 0 426 -168 426 -410c0 -156 -69 -272 -191 -338zM973 1112c0 148 -78 260 -271 260h-311v-522h311c150 0 271 113 271 262zM813 164c170 0 270 115 270 262s-120 260 -270 260h-422
v-522h422z" />
    <glyph glyph-name="C" unicode="C" horiz-adv-x="1534" 
d="M901 -20c-438 0 -788 350 -788 788s350 788 788 788c199 0 418 -92 557 -231l-125 -123c-110 113 -272 180 -432 180c-342 0 -614 -270 -614 -614s272 -614 614 -614c160 0 322 67 432 180l125 -123c-139 -139 -358 -231 -557 -231z" />
    <glyph glyph-name="Cacute" unicode="&#x106;" horiz-adv-x="1534" 
d="M835 1696l263 321l100 -78l-232 -243h-131zM901 -20c-438 0 -788 350 -788 788s350 788 788 788c199 0 418 -92 557 -231l-125 -123c-110 113 -272 180 -432 180c-342 0 -614 -270 -614 -614s272 -614 614 -614c160 0 322 67 432 180l125 -123
c-139 -139 -358 -231 -557 -231z" />
    <glyph glyph-name="Ccaron" unicode="&#x10c;" horiz-adv-x="1534" 
d="M813 1716l-201 297h121l168 -227l163 227h123l-202 -297h-172zM901 -20c-438 0 -788 350 -788 788s350 788 788 788c199 0 418 -92 557 -231l-125 -123c-110 113 -272 180 -432 180c-342 0 -614 -270 -614 -614s272 -614 614 -614c160 0 322 67 432 180l125 -123
c-139 -139 -358 -231 -557 -231z" />
    <glyph glyph-name="Ccedilla" unicode="&#xc7;" horiz-adv-x="1534" 
d="M1458 211c-133 -133 -338 -222 -529 -230l-55 -116c19 4 37 6 54 6c114 0 198 -78 198 -190c0 -119 -92 -213 -211 -213c-94 0 -198 59 -237 135l92 37c29 -41 94 -72 145 -72c62 0 111 49 111 113c0 67 -47 106 -115 106c-24 0 -53 -6 -84 -18l-79 51l82 163
c-404 36 -717 371 -717 785c0 438 350 788 788 788c199 0 418 -92 557 -231l-125 -123c-110 113 -272 180 -432 180c-342 0 -614 -270 -614 -614s272 -614 614 -614c160 0 322 67 432 180z" />
    <glyph glyph-name="Cdotaccent" unicode="&#x10a;" horiz-adv-x="1534" 
d="M901 1806c-61 0 -115 51 -115 113c0 65 54 114 115 114s115 -49 115 -114c0 -62 -54 -113 -115 -113zM901 -20c-438 0 -788 350 -788 788s350 788 788 788c199 0 418 -92 557 -231l-125 -123c-110 113 -272 180 -432 180c-342 0 -614 -270 -614 -614s272 -614 614 -614
c160 0 322 67 432 180l125 -123c-139 -139 -358 -231 -557 -231z" />
    <glyph glyph-name="D" unicode="D" horiz-adv-x="1573" 
d="M219 0v1536h465c485 0 768 -303 768 -768s-283 -768 -768 -768h-465zM391 164h291c395 0 596 221 596 604s-201 604 -596 604h-291v-1208z" />
    <glyph glyph-name="Eth" unicode="&#xd0;" horiz-adv-x="1573" 
d="M684 1536c485 0 768 -303 768 -768s-283 -768 -768 -768h-465v709h-155v119h155v708h465zM682 164c395 0 596 221 596 604s-201 604 -596 604h-291v-544h275v-119h-275v-545h291z" />
    <glyph glyph-name="Dcaron" unicode="&#x10e;" horiz-adv-x="1573" 
d="M553 1716l-201 297h121l168 -227l163 227h123l-202 -297h-172zM219 0v1536h465c485 0 768 -303 768 -768s-283 -768 -768 -768h-465zM391 164h291c395 0 596 221 596 604s-201 604 -596 604h-291v-1208z" />
    <glyph glyph-name="Dcroat" unicode="&#x110;" horiz-adv-x="1573" 
d="M684 1536c485 0 768 -303 768 -768s-283 -768 -768 -768h-465v709h-155v119h155v708h465zM682 164c395 0 596 221 596 604s-201 604 -596 604h-291v-544h275v-119h-275v-545h291z" />
    <glyph glyph-name="E" unicode="E" horiz-adv-x="1178" 
d="M1063 1372h-670v-524h584v-164h-584v-520h670v-164h-844v1536h844v-164z" />
    <glyph glyph-name="Eacute" unicode="&#xc9;" horiz-adv-x="1178" 
d="M938 1939l-232 -243h-131l263 321zM1063 1372h-670v-524h584v-164h-584v-520h670v-164h-844v1536h844v-164z" />
    <glyph glyph-name="Ecaron" unicode="&#x11a;" horiz-adv-x="1178" 
d="M725 1716h-172l-201 297h121l168 -227l163 227h123zM1063 1372h-670v-524h584v-164h-584v-520h670v-164h-844v1536h844v-164z" />
    <glyph glyph-name="Ecircumflex" unicode="&#xca;" horiz-adv-x="1178" 
d="M641 1943l-168 -227h-121l201 297h172l202 -297h-123zM1063 1372h-670v-524h584v-164h-584v-520h670v-164h-844v1536h844v-164z" />
    <glyph glyph-name="uni1EBE" unicode="&#x1ebe;" horiz-adv-x="1178" 
d="M936 2416l-232 -243h-131l263 321zM641 1943l-168 -227h-121l201 297h172l202 -297h-123zM1063 1372h-670v-524h584v-164h-584v-520h670v-164h-844v1536h844v-164z" />
    <glyph glyph-name="uni1EC6" unicode="&#x1ec6;" horiz-adv-x="1178" 
d="M641 1943l-168 -227h-121l201 297h172l202 -297h-123zM1063 1372h-670v-524h584v-164h-584v-520h670v-164h-844v1536h844v-164zM641 -283c61 0 115 -53 115 -114c0 -64 -54 -115 -115 -115s-115 51 -115 115c0 61 54 114 115 114z" />
    <glyph glyph-name="uni1EC0" unicode="&#x1ec0;" horiz-adv-x="1178" 
d="M704 2173h-131l-231 243l100 78zM352 1716l201 297h172l202 -297h-123l-163 227l-168 -227h-121zM1063 1372h-670v-524h584v-164h-584v-520h670v-164h-844v1536h844v-164z" />
    <glyph glyph-name="uni1EC2" unicode="&#x1ec2;" horiz-adv-x="1178" 
d="M631 2410c-35 0 -64 -12 -92 -31l-56 78c41 33 91 53 144 53c106 0 192 -75 192 -180c0 -71 -43 -137 -133 -164v-75h-92v129c76 16 123 49 123 110c0 45 -35 80 -86 80zM641 1943l-168 -227h-121l201 297h172l202 -297h-123zM1063 1372h-670v-524h584v-164h-584v-520
h670v-164h-844v1536h844v-164z" />
    <glyph glyph-name="uni1EC4" unicode="&#x1ec4;" horiz-adv-x="1178" 
d="M496 2404c-72 0 -113 -70 -113 -162h-92c0 146 78 252 203 252c82 0 139 -45 180 -108c25 -39 57 -66 107 -66c69 0 112 59 112 162h90c0 -144 -73 -252 -202 -252c-86 0 -144 47 -183 108c-30 50 -61 66 -102 66zM553 2013h172l202 -297h-123l-163 227l-168 -227h-121z
M1063 1372h-670v-524h584v-164h-584v-520h670v-164h-844v1536h844v-164z" />
    <glyph glyph-name="Edieresis" unicode="&#xcb;" horiz-adv-x="1178" 
d="M453 1806c-61 0 -115 51 -115 113c0 65 54 114 115 114s115 -49 115 -114c0 -62 -54 -113 -115 -113zM830 1806c-62 0 -115 51 -115 113c0 65 53 114 115 114c63 0 114 -49 114 -114c0 -62 -51 -113 -114 -113zM1063 1372h-670v-524h584v-164h-584v-520h670v-164h-844
v1536h844v-164z" />
    <glyph glyph-name="Edotaccent" unicode="&#x116;" horiz-adv-x="1178" 
d="M641 1806c-61 0 -115 51 -115 113c0 65 54 114 115 114s115 -49 115 -114c0 -62 -54 -113 -115 -113zM1063 1372h-670v-524h584v-164h-584v-520h670v-164h-844v1536h844v-164z" />
    <glyph glyph-name="uni1EB8" unicode="&#x1eb8;" horiz-adv-x="1178" 
d="M1063 1372h-670v-524h584v-164h-584v-520h670v-164h-844v1536h844v-164zM641 -283c61 0 115 -53 115 -114c0 -64 -54 -115 -115 -115s-115 51 -115 115c0 61 54 114 115 114z" />
    <glyph glyph-name="Egrave" unicode="&#xc8;" horiz-adv-x="1178" 
d="M706 1696h-131l-231 243l100 78zM1063 1372h-670v-524h584v-164h-584v-520h670v-164h-844v1536h844v-164z" />
    <glyph glyph-name="uni1EBA" unicode="&#x1eba;" horiz-adv-x="1178" 
d="M633 1933c-35 0 -64 -12 -92 -31l-56 78c41 33 91 53 144 53c106 0 192 -75 192 -180c0 -71 -43 -137 -133 -164v-75h-92v129c76 16 123 49 123 110c0 45 -35 80 -86 80zM1063 1372h-670v-524h584v-164h-584v-520h670v-164h-844v1536h844v-164z" />
    <glyph glyph-name="Emacron" unicode="&#x112;" horiz-adv-x="1178" 
d="M959 1839v-115h-635v115h635zM1063 1372h-670v-524h584v-164h-584v-520h670v-164h-844v1536h844v-164z" />
    <glyph glyph-name="Eogonek" unicode="&#x118;" horiz-adv-x="1178" 
d="M1063 1372h-670v-524h584v-164h-584v-520h670v-164c-141 -59 -264 -162 -264 -281c0 -77 53 -110 119 -110c46 0 100 16 145 46v-161c-49 -19 -101 -27 -153 -24c-138 6 -230 81 -230 211c0 132 95 240 251 319h-712v1536h844v-164z" />
    <glyph glyph-name="uni1EBC" unicode="&#x1ebc;" horiz-adv-x="1178" 
d="M498 1927c-72 0 -113 -70 -113 -162h-92c0 146 78 252 203 252c82 0 139 -45 180 -108c25 -39 57 -66 107 -66c69 0 112 59 112 162h90c0 -144 -73 -252 -202 -252c-86 0 -144 47 -183 108c-30 50 -61 66 -102 66zM1063 1372h-670v-524h584v-164h-584v-520h670v-164h-844
v1536h844v-164z" />
    <glyph glyph-name="F" unicode="F" horiz-adv-x="1143" 
d="M1063 1372h-670v-522h584v-164h-584v-686h-174v1536h844v-164z" />
    <glyph glyph-name="G" unicode="G" horiz-adv-x="1778" 
d="M1690 803v-33c0 -438 -351 -790 -789 -790c-436 0 -788 352 -788 788s352 788 788 788c281 0 526 -145 666 -364l-152 -86c-108 166 -297 276 -514 276c-340 0 -614 -272 -614 -614s274 -614 614 -614c299 0 543 205 602 485h-428v164h615z" />
    <glyph glyph-name="Gbreve" unicode="&#x11e;" horiz-adv-x="1778" 
d="M886 1698c-194 0 -337 120 -337 315h104c0 -135 98 -229 233 -229c138 0 236 94 236 229h104c0 -195 -143 -315 -340 -315zM1690 803v-33c0 -438 -351 -790 -789 -790c-436 0 -788 352 -788 788s352 788 788 788c281 0 526 -145 666 -364l-152 -86
c-108 166 -297 276 -514 276c-340 0 -614 -272 -614 -614s274 -614 614 -614c299 0 543 205 602 485h-428v164h615z" />
    <glyph glyph-name="Gcommaaccent" unicode="&#x122;" horiz-adv-x="1778" 
d="M1690 803v-33c0 -438 -351 -790 -789 -790c-436 0 -788 352 -788 788s352 788 788 788c281 0 526 -145 666 -364l-152 -86c-108 166 -297 276 -514 276c-340 0 -614 -272 -614 -614s274 -614 614 -614c299 0 543 205 602 485h-428v164h615zM641 -545l164 381h168
l-240 -418z" />
    <glyph glyph-name="Gdotaccent" unicode="&#x120;" horiz-adv-x="1778" 
d="M889 1806c-61 0 -115 51 -115 113c0 65 54 114 115 114s115 -49 115 -114c0 -62 -54 -113 -115 -113zM1690 803v-33c0 -438 -351 -790 -789 -790c-436 0 -788 352 -788 788s352 788 788 788c281 0 526 -145 666 -364l-152 -86c-108 166 -297 276 -514 276
c-340 0 -614 -272 -614 -614s274 -614 614 -614c299 0 543 205 602 485h-428v164h615z" />
    <glyph glyph-name="H" unicode="H" horiz-adv-x="1620" 
d="M1227 1536h174v-1536h-174v688h-834v-688h-174v1536h174v-686h834v686z" />
    <glyph glyph-name="Hbar" unicode="&#x126;" horiz-adv-x="1620" 
d="M1540 1258v-119h-139v-1139h-174v688h-834v-688h-174v1139h-143v119h143v278h174v-278h834v278h174v-278h139zM1227 850v289h-834v-289h834z" />
    <glyph glyph-name="I" unicode="I" horiz-adv-x="612" 
d="M219 0v1536h174v-1536h-174z" />
    <glyph glyph-name="Iacute" unicode="&#xcd;" horiz-adv-x="612" 
d="M239 1696l263 321l100 -78l-232 -243h-131zM219 0v1536h174v-1536h-174z" />
    <glyph glyph-name="uni01CF" unicode="&#x1cf;" horiz-adv-x="612" 
d="M217 1716l-201 297h121l168 -227l163 227h123l-202 -297h-172zM219 0v1536h174v-1536h-174z" />
    <glyph glyph-name="Icircumflex" unicode="&#xce;" horiz-adv-x="612" 
d="M137 1716h-121l201 297h172l202 -297h-123l-163 227zM219 0v1536h174v-1536h-174z" />
    <glyph glyph-name="Idieresis" unicode="&#xcf;" horiz-adv-x="612" 
d="M117 1806c-61 0 -115 51 -115 113c0 65 54 114 115 114s115 -49 115 -114c0 -62 -54 -113 -115 -113zM494 1806c-62 0 -115 51 -115 113c0 65 53 114 115 114c63 0 114 -49 114 -114c0 -62 -51 -113 -114 -113zM219 0v1536h174v-1536h-174z" />
    <glyph glyph-name="Idotaccent" unicode="&#x130;" horiz-adv-x="612" 
d="M305 1806c-61 0 -115 51 -115 113c0 65 54 114 115 114s115 -49 115 -114c0 -62 -54 -113 -115 -113zM219 0v1536h174v-1536h-174z" />
    <glyph glyph-name="uni1ECA" unicode="&#x1eca;" horiz-adv-x="612" 
d="M219 0v1536h174v-1536h-174zM305 -512c-61 0 -115 51 -115 115c0 61 54 114 115 114s115 -53 115 -114c0 -64 -54 -115 -115 -115z" />
    <glyph glyph-name="Igrave" unicode="&#xcc;" horiz-adv-x="612" 
d="M239 1696l-231 243l100 78l262 -321h-131zM219 0v1536h174v-1536h-174z" />
    <glyph glyph-name="uni1EC8" unicode="&#x1ec8;" horiz-adv-x="612" 
d="M260 1614v129c76 16 123 49 123 110c0 45 -35 80 -86 80c-35 0 -64 -12 -92 -31l-56 78c41 33 91 53 144 53c106 0 192 -75 192 -180c0 -71 -43 -137 -133 -164v-75h-92zM219 0v1536h174v-1536h-174z" />
    <glyph glyph-name="Imacron" unicode="&#x12a;" horiz-adv-x="612" 
d="M-12 1724v115h635v-115h-635zM219 0v1536h174v-1536h-174z" />
    <glyph glyph-name="Iogonek" unicode="&#x12e;" horiz-adv-x="612" 
d="M393 0c-141 -59 -264 -162 -264 -281c0 -77 53 -110 119 -110c46 0 100 16 145 46v-161c-49 -19 -101 -27 -153 -24c-138 6 -230 81 -230 211c0 132 95 240 251 319h-42v1536h174v-1536z" />
    <glyph glyph-name="Itilde" unicode="&#x128;" horiz-adv-x="612" 
d="M447 1753c-86 0 -144 47 -183 108c-30 50 -61 66 -102 66c-72 0 -113 -70 -113 -162h-92c0 146 78 252 203 252c82 0 139 -45 180 -108c25 -39 57 -66 107 -66c69 0 112 59 112 162h90c0 -144 -73 -252 -202 -252zM219 0v1536h174v-1536h-174z" />
    <glyph glyph-name="J" unicode="J" horiz-adv-x="1067" 
d="M369 -20c-113 0 -224 28 -314 81l80 156c66 -45 168 -67 246 -67c205 0 319 157 319 342v1044h174v-1073c0 -281 -206 -483 -505 -483z" />
    <glyph glyph-name="K" unicode="K" horiz-adv-x="1323" 
d="M1270 0h-221l-656 794v-794h-174v1536h174v-661l590 661h221l-635 -700z" />
    <glyph glyph-name="Kcommaaccent" unicode="&#x136;" horiz-adv-x="1323" 
d="M569 836l701 -836h-221l-656 794v-794h-174v1536h174v-661l590 661h221zM414 -545l164 381h168l-240 -418z" />
    <glyph glyph-name="L" unicode="L" horiz-adv-x="1024" 
d="M393 164h568v-164h-742v1536h174v-1372z" />
    <glyph glyph-name="Lacute" unicode="&#x139;" horiz-adv-x="1024" 
d="M602 1939l-232 -243h-131l263 321zM393 164h568v-164h-742v1536h174v-1372z" />
    <glyph glyph-name="Lcaron" unicode="&#x13d;" horiz-adv-x="1057" 
d="M933 1537l-168 -627h-124l100 627h192zM393 164h568v-164h-742v1536h174v-1372z" />
    <glyph glyph-name="Lcommaaccent" unicode="&#x13b;" horiz-adv-x="1024" 
d="M393 164h568v-164h-742v1536h174v-1372zM342 -545l164 381h168l-240 -418z" />
    <glyph glyph-name="Lslash" unicode="&#x141;" horiz-adv-x="1024" 
d="M393 164h568v-164h-742v578l-138 -103v154l138 103v804h174v-674l267 199v-154l-267 -199v-544z" />
    <glyph glyph-name="M" unicode="M" horiz-adv-x="1939" 
d="M1524 1536h196v-1536h-174v1206l-538 -1206h-78l-537 1206v-1206h-174v1536h197l554 -1234z" />
    <glyph glyph-name="N" unicode="N" horiz-adv-x="1767" 
d="M1384 1536h164v-1536h-116l-1049 1233v-1233h-164v1536h117l1048 -1232v1232z" />
    <glyph glyph-name="Nacute" unicode="&#x143;" horiz-adv-x="1767" 
d="M1180 1939l-232 -243h-131l263 321zM1384 1536h164v-1536h-116l-1049 1233v-1233h-164v1536h117l1048 -1232v1232z" />
    <glyph glyph-name="Ncaron" unicode="&#x147;" horiz-adv-x="1767" 
d="M967 1716h-172l-201 297h121l168 -227l163 227h123zM1384 1536h164v-1536h-116l-1049 1233v-1233h-164v1536h117l1048 -1232v1232z" />
    <glyph glyph-name="Ncommaaccent" unicode="&#x145;" horiz-adv-x="1767" 
d="M1384 1536h164v-1536h-116l-1049 1233v-1233h-164v1536h117l1048 -1232v1232zM639 -545l164 381h168l-240 -418z" />
    <glyph glyph-name="Eng" unicode="&#x14a;" horiz-adv-x="1767" 
d="M1384 1536h164v-1536c0 -274 -180 -498 -520 -498v156c246 0 361 147 361 342v51l-1006 1182v-1233h-164v1536h117l1048 -1232v1232z" />
    <glyph glyph-name="Ntilde" unicode="&#xd1;" horiz-adv-x="1767" 
d="M740 1927c-72 0 -113 -70 -113 -162h-92c0 146 78 252 203 252c82 0 139 -45 180 -108c25 -39 57 -66 107 -66c69 0 112 59 112 162h90c0 -144 -73 -252 -202 -252c-86 0 -144 47 -183 108c-30 50 -61 66 -102 66zM1384 1536h164v-1536h-116l-1049 1233v-1233h-164v1536
h117l1048 -1232v1232z" />
    <glyph glyph-name="O" unicode="O" horiz-adv-x="1802" 
d="M901 -20c-436 0 -788 352 -788 788s352 788 788 788s789 -352 789 -788s-353 -788 -789 -788zM901 154c342 0 615 272 615 614s-273 614 -615 614c-340 0 -614 -272 -614 -614s274 -614 614 -614z" />
    <glyph glyph-name="Oacute" unicode="&#xd3;" horiz-adv-x="1802" 
d="M835 1696l263 321l100 -78l-232 -243h-131zM901 -20c-436 0 -788 352 -788 788s352 788 788 788s789 -352 789 -788s-353 -788 -789 -788zM901 154c342 0 615 272 615 614s-273 614 -615 614c-340 0 -614 -272 -614 -614s274 -614 614 -614z" />
    <glyph glyph-name="uni01D1" unicode="&#x1d1;" horiz-adv-x="1802" 
d="M813 1716l-201 297h121l168 -227l163 227h123l-202 -297h-172zM901 -20c-436 0 -788 352 -788 788s352 788 788 788s789 -352 789 -788s-353 -788 -789 -788zM901 154c342 0 615 272 615 614s-273 614 -615 614c-340 0 -614 -272 -614 -614s274 -614 614 -614z" />
    <glyph glyph-name="Ocircumflex" unicode="&#xd4;" horiz-adv-x="1802" 
d="M733 1716h-121l201 297h172l202 -297h-123l-163 227zM901 -20c-436 0 -788 352 -788 788s352 788 788 788s789 -352 789 -788s-353 -788 -789 -788zM901 154c342 0 615 272 615 614s-273 614 -615 614c-340 0 -614 -272 -614 -614s274 -614 614 -614z" />
    <glyph glyph-name="uni1ED0" unicode="&#x1ed0;" horiz-adv-x="1802" 
d="M833 2173l263 321l100 -78l-232 -243h-131zM733 1716h-121l201 297h172l202 -297h-123l-163 227zM901 -20c-436 0 -788 352 -788 788s352 788 788 788s789 -352 789 -788s-353 -788 -789 -788zM901 154c342 0 615 272 615 614s-273 614 -615 614
c-340 0 -614 -272 -614 -614s274 -614 614 -614z" />
    <glyph glyph-name="uni1ED8" unicode="&#x1ed8;" horiz-adv-x="1802" 
d="M733 1716h-121l201 297h172l202 -297h-123l-163 227zM901 -20c-436 0 -788 352 -788 788s352 788 788 788s789 -352 789 -788s-353 -788 -789 -788zM901 154c342 0 615 272 615 614s-273 614 -615 614c-340 0 -614 -272 -614 -614s274 -614 614 -614zM901 -512
c-61 0 -115 51 -115 115c0 61 54 114 115 114s115 -53 115 -114c0 -64 -54 -115 -115 -115z" />
    <glyph glyph-name="uni1ED2" unicode="&#x1ed2;" horiz-adv-x="1802" 
d="M833 2173l-231 243l100 78l262 -321h-131zM733 1716h-121l201 297h172l202 -297h-123l-163 227zM901 -20c-436 0 -788 352 -788 788s352 788 788 788s789 -352 789 -788s-353 -788 -789 -788zM901 154c342 0 615 272 615 614s-273 614 -615 614
c-340 0 -614 -272 -614 -614s274 -614 614 -614z" />
    <glyph glyph-name="uni1ED4" unicode="&#x1ed4;" horiz-adv-x="1802" 
d="M854 2091v129c76 16 123 49 123 110c0 45 -35 80 -86 80c-35 0 -64 -12 -92 -31l-56 78c41 33 91 53 144 53c106 0 192 -75 192 -180c0 -71 -43 -137 -133 -164v-75h-92zM733 1716h-121l201 297h172l202 -297h-123l-163 227zM901 -20c-436 0 -788 352 -788 788
s352 788 788 788s789 -352 789 -788s-353 -788 -789 -788zM901 154c342 0 615 272 615 614s-273 614 -615 614c-340 0 -614 -272 -614 -614s274 -614 614 -614z" />
    <glyph glyph-name="uni1ED6" unicode="&#x1ed6;" horiz-adv-x="1802" 
d="M1041 2230c-86 0 -144 47 -183 108c-30 50 -61 66 -102 66c-72 0 -113 -70 -113 -162h-92c0 146 78 252 203 252c82 0 139 -45 180 -108c25 -39 57 -66 107 -66c69 0 112 59 112 162h90c0 -144 -73 -252 -202 -252zM733 1716h-121l201 297h172l202 -297h-123l-163 227z
M901 -20c-436 0 -788 352 -788 788s352 788 788 788s789 -352 789 -788s-353 -788 -789 -788zM901 154c342 0 615 272 615 614s-273 614 -615 614c-340 0 -614 -272 -614 -614s274 -614 614 -614z" />
    <glyph glyph-name="Odieresis" unicode="&#xd6;" horiz-adv-x="1802" 
d="M713 1806c-61 0 -115 51 -115 113c0 65 54 114 115 114s115 -49 115 -114c0 -62 -54 -113 -115 -113zM1090 1806c-62 0 -115 51 -115 113c0 65 53 114 115 114c63 0 114 -49 114 -114c0 -62 -51 -113 -114 -113zM901 -20c-436 0 -788 352 -788 788s352 788 788 788
s789 -352 789 -788s-353 -788 -789 -788zM901 154c342 0 615 272 615 614s-273 614 -615 614c-340 0 -614 -272 -614 -614s274 -614 614 -614z" />
    <glyph glyph-name="uni1ECC" unicode="&#x1ecc;" horiz-adv-x="1802" 
d="M901 -20c-436 0 -788 352 -788 788s352 788 788 788s789 -352 789 -788s-353 -788 -789 -788zM901 154c342 0 615 272 615 614s-273 614 -615 614c-340 0 -614 -272 -614 -614s274 -614 614 -614zM901 -512c-61 0 -115 51 -115 115c0 61 54 114 115 114s115 -53 115 -114
c0 -64 -54 -115 -115 -115z" />
    <glyph glyph-name="Ograve" unicode="&#xd2;" horiz-adv-x="1802" 
d="M835 1696l-231 243l100 78l262 -321h-131zM901 -20c-436 0 -788 352 -788 788s352 788 788 788s789 -352 789 -788s-353 -788 -789 -788zM901 154c342 0 615 272 615 614s-273 614 -615 614c-340 0 -614 -272 -614 -614s274 -614 614 -614z" />
    <glyph glyph-name="uni1ECE" unicode="&#x1ece;" horiz-adv-x="1802" 
d="M856 1614v129c76 16 123 49 123 110c0 45 -35 80 -86 80c-35 0 -64 -12 -92 -31l-56 78c41 33 91 53 144 53c106 0 192 -75 192 -180c0 -71 -43 -137 -133 -164v-75h-92zM901 -20c-436 0 -788 352 -788 788s352 788 788 788s789 -352 789 -788s-353 -788 -789 -788z
M901 154c342 0 615 272 615 614s-273 614 -615 614c-340 0 -614 -272 -614 -614s274 -614 614 -614z" />
    <glyph glyph-name="Ohorn" unicode="&#x1a0;" horiz-adv-x="1802" 
d="M1647 1504h141v-125c0 -177 -90 -245 -185 -250c55 -108 87 -231 87 -361c0 -436 -353 -788 -789 -788s-788 352 -788 788s352 788 788 788c273 0 514 -138 655 -349c70 6 91 84 91 133v164zM901 154c342 0 615 272 615 614s-273 614 -615 614
c-340 0 -614 -272 -614 -614s274 -614 614 -614z" />
    <glyph glyph-name="uni1EDA" unicode="&#x1eda;" horiz-adv-x="1802" 
d="M1198 1939l-232 -243h-131l263 321zM1647 1504h141v-125c0 -177 -90 -245 -185 -250c55 -108 87 -231 87 -361c0 -436 -353 -788 -789 -788s-788 352 -788 788s352 788 788 788c273 0 514 -138 655 -349c70 6 91 84 91 133v164zM901 154c342 0 615 272 615 614
s-273 614 -615 614c-340 0 -614 -272 -614 -614s274 -614 614 -614z" />
    <glyph glyph-name="uni1EE2" unicode="&#x1ee2;" horiz-adv-x="1802" 
d="M1647 1504h141v-125c0 -177 -90 -245 -185 -250c55 -108 87 -231 87 -361c0 -436 -353 -788 -789 -788s-788 352 -788 788s352 788 788 788c273 0 514 -138 655 -349c70 6 91 84 91 133v164zM901 154c342 0 615 272 615 614s-273 614 -615 614
c-340 0 -614 -272 -614 -614s274 -614 614 -614zM901 -283c61 0 115 -53 115 -114c0 -64 -54 -115 -115 -115s-115 51 -115 115c0 61 54 114 115 114z" />
    <glyph glyph-name="uni1EDC" unicode="&#x1edc;" horiz-adv-x="1802" 
d="M966 1696h-131l-231 243l100 78zM1647 1504h141v-125c0 -177 -90 -245 -185 -250c55 -108 87 -231 87 -361c0 -436 -353 -788 -789 -788s-788 352 -788 788s352 788 788 788c273 0 514 -138 655 -349c70 6 91 84 91 133v164zM901 154c342 0 615 272 615 614
s-273 614 -615 614c-340 0 -614 -272 -614 -614s274 -614 614 -614z" />
    <glyph glyph-name="uni1EDE" unicode="&#x1ede;" horiz-adv-x="1802" 
d="M893 1933c-35 0 -64 -12 -92 -31l-56 78c41 33 91 53 144 53c106 0 192 -75 192 -180c0 -71 -43 -137 -133 -164v-75h-92v129c76 16 123 49 123 110c0 45 -35 80 -86 80zM1647 1504h141v-125c0 -177 -90 -245 -185 -250c55 -108 87 -231 87 -361
c0 -436 -353 -788 -789 -788s-788 352 -788 788s352 788 788 788c273 0 514 -138 655 -349c70 6 91 84 91 133v164zM901 154c342 0 615 272 615 614s-273 614 -615 614c-340 0 -614 -272 -614 -614s274 -614 614 -614z" />
    <glyph glyph-name="uni1EE0" unicode="&#x1ee0;" horiz-adv-x="1802" 
d="M758 1927c-72 0 -113 -70 -113 -162h-92c0 146 78 252 203 252c82 0 139 -45 180 -108c25 -39 57 -66 107 -66c69 0 112 59 112 162h90c0 -144 -73 -252 -202 -252c-86 0 -144 47 -183 108c-30 50 -61 66 -102 66zM1647 1504h141v-125c0 -177 -90 -245 -185 -250
c55 -108 87 -231 87 -361c0 -436 -353 -788 -789 -788s-788 352 -788 788s352 788 788 788c273 0 514 -138 655 -349c70 6 91 84 91 133v164zM901 154c342 0 615 272 615 614s-273 614 -615 614c-340 0 -614 -272 -614 -614s274 -614 614 -614z" />
    <glyph glyph-name="Ohungarumlaut" unicode="&#x150;" horiz-adv-x="1802" 
d="M661 1696l262 321l101 -78l-232 -243h-131zM1010 1696l262 321l100 -78l-231 -243h-131zM901 -20c-436 0 -788 352 -788 788s352 788 788 788s789 -352 789 -788s-353 -788 -789 -788zM901 154c342 0 615 272 615 614s-273 614 -615 614c-340 0 -614 -272 -614 -614
s274 -614 614 -614z" />
    <glyph glyph-name="Omacron" unicode="&#x14c;" horiz-adv-x="1802" 
d="M584 1724v115h635v-115h-635zM901 -20c-436 0 -788 352 -788 788s352 788 788 788s789 -352 789 -788s-353 -788 -789 -788zM901 154c342 0 615 272 615 614s-273 614 -615 614c-340 0 -614 -272 -614 -614s274 -614 614 -614z" />
    <glyph glyph-name="Oslash" unicode="&#xd8;" horiz-adv-x="1802" 
d="M1409 1371c172 -144 281 -361 281 -603c0 -436 -353 -788 -789 -788c-140 0 -272 36 -386 100l-108 -156l-129 78l114 164c-171 145 -279 360 -279 602c0 436 352 788 788 788c140 0 271 -36 385 -100l108 156l127 -80zM287 768c0 -183 79 -347 204 -459l696 1004
c-85 44 -183 69 -286 69c-340 0 -614 -272 -614 -614zM901 154c342 0 615 272 615 614c0 184 -79 348 -206 460l-695 -1004c85 -45 183 -70 286 -70z" />
    <glyph glyph-name="Otilde" unicode="&#xd5;" horiz-adv-x="1802" 
d="M1043 1753c-86 0 -144 47 -183 108c-30 50 -61 66 -102 66c-72 0 -113 -70 -113 -162h-92c0 146 78 252 203 252c82 0 139 -45 180 -108c25 -39 57 -66 107 -66c69 0 112 59 112 162h90c0 -144 -73 -252 -202 -252zM901 -20c-436 0 -788 352 -788 788s352 788 788 788
s789 -352 789 -788s-353 -788 -789 -788zM901 154c342 0 615 272 615 614s-273 614 -615 614c-340 0 -614 -272 -614 -614s274 -614 614 -614z" />
    <glyph glyph-name="OE" unicode="&#x152;" horiz-adv-x="2132" 
d="M881 0c-486 0 -768 303 -768 768s282 768 768 768h1136v-164h-669v-524h583v-164h-583v-520h669v-164h-1136zM883 164h291v1208h-291c-396 0 -596 -221 -596 -604s200 -604 596 -604z" />
    <glyph glyph-name="P" unicode="P" horiz-adv-x="1378" 
d="M815 1536c281 0 471 -209 471 -467c0 -260 -190 -463 -471 -463h-422v-606h-174v1536h596zM799 762c192 0 313 115 313 305c0 184 -121 313 -313 313h-406v-618h406z" />
    <glyph glyph-name="Thorn" unicode="&#xde;" horiz-adv-x="1286" 
d="M770 1323c236 0 428 -193 428 -432c0 -236 -192 -422 -428 -422h-385v-469h-168v1528h168v-205h385zM756 633c155 0 268 108 268 262s-113 264 -268 264h-371v-526h371z" />
    <glyph glyph-name="Q" unicode="Q" horiz-adv-x="1835" 
d="M1729 0l-156 -78l-209 208c-130 -94 -290 -150 -463 -150c-436 0 -788 352 -788 788s352 788 788 788s789 -352 789 -788c0 -204 -77 -390 -205 -530zM901 154c126 0 242 37 339 100l-308 307l149 72l281 -274c96 108 154 251 154 409c0 342 -273 614 -615 614
c-340 0 -614 -272 -614 -614s274 -614 614 -614z" />
    <glyph glyph-name="R" unicode="R" horiz-adv-x="1395" 
d="M1135 0l-387 682h-355v-682h-174v1536h576c239 0 430 -193 430 -430c0 -198 -130 -358 -310 -408l408 -698h-188zM393 1372v-526h385c152 0 273 92 273 258c0 160 -121 268 -273 268h-385z" />
    <glyph glyph-name="Racute" unicode="&#x154;" horiz-adv-x="1395" 
d="M1010 1939l-232 -243h-131l263 321zM1135 0l-387 682h-355v-682h-174v1536h576c239 0 430 -193 430 -430c0 -198 -130 -358 -310 -408l408 -698h-188zM393 1372v-526h385c152 0 273 92 273 258c0 160 -121 268 -273 268h-385z" />
    <glyph glyph-name="Rcaron" unicode="&#x158;" horiz-adv-x="1395" 
d="M797 1716h-172l-201 297h121l168 -227l163 227h123zM1135 0l-387 682h-355v-682h-174v1536h576c239 0 430 -193 430 -430c0 -198 -130 -358 -310 -408l408 -698h-188zM393 1372v-526h385c152 0 273 92 273 258c0 160 -121 268 -273 268h-385z" />
    <glyph glyph-name="Rcommaaccent" unicode="&#x156;" horiz-adv-x="1395" 
d="M915 698l408 -698h-188l-387 682h-355v-682h-174v1536h576c239 0 430 -193 430 -430c0 -198 -130 -358 -310 -408zM393 1372v-526h385c152 0 273 92 273 258c0 160 -121 268 -273 268h-385zM465 -545l164 381h168l-240 -418z" />
    <glyph glyph-name="S" unicode="S" horiz-adv-x="1171" 
d="M600 -20c-217 0 -410 106 -518 241l125 125c92 -127 217 -209 381 -209c178 0 313 103 313 262c0 176 -162 246 -334 318c-211 88 -411 176 -411 436c0 248 186 403 426 403c198 0 344 -92 444 -208l-106 -111c-121 127 -215 162 -334 162c-142 0 -264 -82 -264 -234
c0 -174 165 -237 342 -309c194 -80 403 -174 403 -450c0 -279 -213 -426 -467 -426z" />
    <glyph glyph-name="Sacute" unicode="&#x15a;" horiz-adv-x="1171" 
d="M524 1696l263 321l100 -78l-232 -243h-131zM600 -20c-217 0 -410 106 -518 241l125 125c92 -127 217 -209 381 -209c178 0 313 103 313 262c0 176 -162 246 -334 318c-211 88 -411 176 -411 436c0 248 186 403 426 403c198 0 344 -92 444 -208l-106 -111
c-121 127 -215 162 -334 162c-142 0 -264 -82 -264 -234c0 -174 165 -237 342 -309c194 -80 403 -174 403 -450c0 -279 -213 -426 -467 -426z" />
    <glyph glyph-name="Scaron" unicode="&#x160;" horiz-adv-x="1171" 
d="M502 1716l-201 297h121l168 -227l163 227h123l-202 -297h-172zM600 -20c-217 0 -410 106 -518 241l125 125c92 -127 217 -209 381 -209c178 0 313 103 313 262c0 176 -162 246 -334 318c-211 88 -411 176 -411 436c0 248 186 403 426 403c198 0 344 -92 444 -208
l-106 -111c-121 127 -215 162 -334 162c-142 0 -264 -82 -264 -234c0 -174 165 -237 342 -309c194 -80 403 -174 403 -450c0 -279 -213 -426 -467 -426z" />
    <glyph glyph-name="Scedilla" unicode="&#x15e;" horiz-adv-x="1171" 
d="M1067 406c0 -275 -207 -422 -456 -426l-55 -115c19 4 37 6 54 6c114 0 198 -78 198 -190c0 -119 -92 -213 -211 -213c-94 0 -198 59 -237 135l92 37c29 -41 94 -72 145 -72c62 0 111 49 111 113c0 67 -47 106 -115 106c-24 0 -53 -6 -84 -18l-79 51l83 166
c-181 23 -338 118 -431 235l125 125c92 -127 217 -209 381 -209c178 0 313 103 313 262c0 176 -162 246 -334 318c-211 88 -411 176 -411 436c0 248 186 403 426 403c198 0 344 -92 444 -208l-106 -111c-121 127 -215 162 -334 162c-142 0 -264 -82 -264 -234
c0 -174 165 -237 342 -309c194 -80 403 -174 403 -450z" />
    <glyph glyph-name="Scommaaccent" unicode="&#x218;" horiz-adv-x="1171" 
d="M600 -20c-217 0 -410 106 -518 241l125 125c92 -127 217 -209 381 -209c178 0 313 103 313 262c0 176 -162 246 -334 318c-211 88 -411 176 -411 436c0 248 186 403 426 403c198 0 344 -92 444 -208l-106 -111c-121 127 -215 162 -334 162c-142 0 -264 -82 -264 -234
c0 -174 165 -237 342 -309c194 -80 403 -174 403 -450c0 -279 -213 -426 -467 -426zM415 -582l-92 37l164 381h168z" />
    <glyph glyph-name="T" unicode="T" horiz-adv-x="1145" 
d="M1081 1536v-164h-422v-1372h-174v1372h-422v164h1018z" />
    <glyph glyph-name="Tbar" unicode="&#x166;" horiz-adv-x="1145" 
d="M1081 1372h-422v-544h213v-119h-213v-709h-174v709h-215v119h215v544h-422v164h1018v-164z" />
    <glyph glyph-name="Tcaron" unicode="&#x164;" horiz-adv-x="1145" 
d="M655 1716h-172l-201 297h121l168 -227l163 227h123zM1081 1536v-164h-422v-1372h-174v1372h-422v164h1018z" />
    <glyph glyph-name="uni0162" unicode="&#x162;" horiz-adv-x="1145" 
d="M659 0h-39l-64 -135c19 4 37 6 54 6c114 0 198 -78 198 -190c0 -119 -92 -213 -211 -213c-94 0 -198 59 -237 135l92 37c29 -41 94 -72 145 -72c62 0 111 49 111 113c0 67 -47 106 -115 106c-24 0 -53 -6 -84 -18l-79 51l90 180h-35v1372h-422v164h1018v-164h-422v-1372z
" />
    <glyph glyph-name="uni021A" unicode="&#x21a;" horiz-adv-x="1145" 
d="M1081 1536v-164h-422v-1372h-174v1372h-422v164h1018zM323 -545l164 381h168l-240 -418z" />
    <glyph glyph-name="U" unicode="U" horiz-adv-x="1538" 
d="M768 -20c-336 0 -580 221 -580 524v1032h174v-993c0 -281 170 -400 406 -400s408 119 408 400v993h174v-1032c0 -303 -244 -524 -582 -524z" />
    <glyph glyph-name="Uacute" unicode="&#xda;" horiz-adv-x="1538" 
d="M702 1696l263 321l100 -78l-232 -243h-131zM768 -20c-336 0 -580 221 -580 524v1032h174v-993c0 -281 170 -400 406 -400s408 119 408 400v993h174v-1032c0 -303 -244 -524 -582 -524z" />
    <glyph glyph-name="uni01D3" unicode="&#x1d3;" horiz-adv-x="1538" 
d="M680 1716l-201 297h121l168 -227l163 227h123l-202 -297h-172zM768 -20c-336 0 -580 221 -580 524v1032h174v-993c0 -281 170 -400 406 -400s408 119 408 400v993h174v-1032c0 -303 -244 -524 -582 -524z" />
    <glyph glyph-name="Ucircumflex" unicode="&#xdb;" horiz-adv-x="1538" 
d="M600 1716h-121l201 297h172l202 -297h-123l-163 227zM768 -20c-336 0 -580 221 -580 524v1032h174v-993c0 -281 170 -400 406 -400s408 119 408 400v993h174v-1032c0 -303 -244 -524 -582 -524z" />
    <glyph glyph-name="Udieresis" unicode="&#xdc;" horiz-adv-x="1538" 
d="M580 1806c-61 0 -115 51 -115 113c0 65 54 114 115 114s115 -49 115 -114c0 -62 -54 -113 -115 -113zM957 1806c-62 0 -115 51 -115 113c0 65 53 114 115 114c63 0 114 -49 114 -114c0 -62 -51 -113 -114 -113zM768 -20c-336 0 -580 221 -580 524v1032h174v-993
c0 -281 170 -400 406 -400s408 119 408 400v993h174v-1032c0 -303 -244 -524 -582 -524z" />
    <glyph glyph-name="uni01D7" unicode="&#x1d7;" horiz-adv-x="1538" 
d="M702 2193l263 321l100 -78l-232 -243h-131zM580 1806c-61 0 -115 51 -115 113c0 65 54 114 115 114s115 -49 115 -114c0 -62 -54 -113 -115 -113zM957 1806c-62 0 -115 51 -115 113c0 65 53 114 115 114c63 0 114 -49 114 -114c0 -62 -51 -113 -114 -113zM768 -20
c-336 0 -580 221 -580 524v1032h174v-993c0 -281 170 -400 406 -400s408 119 408 400v993h174v-1032c0 -303 -244 -524 -582 -524z" />
    <glyph glyph-name="uni01D9" unicode="&#x1d9;" horiz-adv-x="1538" 
d="M680 2213l-201 297h121l168 -227l163 227h123l-202 -297h-172zM580 1806c-61 0 -115 51 -115 113c0 65 54 114 115 114s115 -49 115 -114c0 -62 -54 -113 -115 -113zM957 1806c-62 0 -115 51 -115 113c0 65 53 114 115 114c63 0 114 -49 114 -114
c0 -62 -51 -113 -114 -113zM768 -20c-336 0 -580 221 -580 524v1032h174v-993c0 -281 170 -400 406 -400s408 119 408 400v993h174v-1032c0 -303 -244 -524 -582 -524z" />
    <glyph glyph-name="uni01DB" unicode="&#x1db;" horiz-adv-x="1538" 
d="M702 2193l-231 243l100 78l262 -321h-131zM580 1806c-61 0 -115 51 -115 113c0 65 54 114 115 114s115 -49 115 -114c0 -62 -54 -113 -115 -113zM957 1806c-62 0 -115 51 -115 113c0 65 53 114 115 114c63 0 114 -49 114 -114c0 -62 -51 -113 -114 -113zM768 -20
c-336 0 -580 221 -580 524v1032h174v-993c0 -281 170 -400 406 -400s408 119 408 400v993h174v-1032c0 -303 -244 -524 -582 -524z" />
    <glyph glyph-name="uni01D5" unicode="&#x1d5;" horiz-adv-x="1538" 
d="M451 2221v115h635v-115h-635zM580 1806c-61 0 -115 51 -115 113c0 65 54 114 115 114s115 -49 115 -114c0 -62 -54 -113 -115 -113zM957 1806c-62 0 -115 51 -115 113c0 65 53 114 115 114c63 0 114 -49 114 -114c0 -62 -51 -113 -114 -113zM768 -20
c-336 0 -580 221 -580 524v1032h174v-993c0 -281 170 -400 406 -400s408 119 408 400v993h174v-1032c0 -303 -244 -524 -582 -524z" />
    <glyph glyph-name="uni1EE4" unicode="&#x1ee4;" horiz-adv-x="1538" 
d="M768 -20c-336 0 -580 221 -580 524v1032h174v-993c0 -281 170 -400 406 -400s408 119 408 400v993h174v-1032c0 -303 -244 -524 -582 -524zM768 -512c-61 0 -115 51 -115 115c0 61 54 114 115 114s115 -53 115 -114c0 -64 -54 -115 -115 -115z" />
    <glyph glyph-name="Ugrave" unicode="&#xd9;" horiz-adv-x="1538" 
d="M702 1696l-231 243l100 78l262 -321h-131zM768 -20c-336 0 -580 221 -580 524v1032h174v-993c0 -281 170 -400 406 -400s408 119 408 400v993h174v-1032c0 -303 -244 -524 -582 -524z" />
    <glyph glyph-name="uni1EE6" unicode="&#x1ee6;" horiz-adv-x="1538" 
d="M723 1614v129c76 16 123 49 123 110c0 45 -35 80 -86 80c-35 0 -64 -12 -92 -31l-56 78c41 33 91 53 144 53c106 0 192 -75 192 -180c0 -71 -43 -137 -133 -164v-75h-92zM768 -20c-336 0 -580 221 -580 524v1032h174v-993c0 -281 170 -400 406 -400s408 119 408 400v993
h174v-1032c0 -303 -244 -524 -582 -524z" />
    <glyph glyph-name="Uhorn" unicode="&#x1af;" horiz-adv-x="1538" 
d="M1520 1645h141v-125c0 -184 -98 -250 -197 -250c-33 0 -73 7 -114 21v-787c0 -303 -244 -524 -582 -524c-336 0 -580 221 -580 524v1032h174v-993c0 -281 170 -400 406 -400s408 119 408 400v993h174v-171c30 -13 54 -17 71 -17c76 0 99 82 99 133v164z" />
    <glyph glyph-name="uni1EE8" unicode="&#x1ee8;" horiz-adv-x="1538" 
d="M1065 1939l-232 -243h-131l263 321zM1520 1645h141v-125c0 -184 -98 -250 -197 -250c-33 0 -73 7 -114 21v-787c0 -303 -244 -524 -582 -524c-336 0 -580 221 -580 524v1032h174v-993c0 -281 170 -400 406 -400s408 119 408 400v993h174v-171c30 -13 54 -17 71 -17
c76 0 99 82 99 133v164z" />
    <glyph glyph-name="uni1EF0" unicode="&#x1ef0;" horiz-adv-x="1538" 
d="M1520 1645h141v-125c0 -184 -98 -250 -197 -250c-33 0 -73 7 -114 21v-787c0 -303 -244 -524 -582 -524c-336 0 -580 221 -580 524v1032h174v-993c0 -281 170 -400 406 -400s408 119 408 400v993h174v-171c30 -13 54 -17 71 -17c76 0 99 82 99 133v164zM768 -283
c61 0 115 -53 115 -114c0 -64 -54 -115 -115 -115s-115 51 -115 115c0 61 54 114 115 114z" />
    <glyph glyph-name="uni1EEA" unicode="&#x1eea;" horiz-adv-x="1538" 
d="M833 1696h-131l-231 243l100 78zM1520 1645h141v-125c0 -184 -98 -250 -197 -250c-33 0 -73 7 -114 21v-787c0 -303 -244 -524 -582 -524c-336 0 -580 221 -580 524v1032h174v-993c0 -281 170 -400 406 -400s408 119 408 400v993h174v-171c30 -13 54 -17 71 -17
c76 0 99 82 99 133v164z" />
    <glyph glyph-name="uni1EEC" unicode="&#x1eec;" horiz-adv-x="1538" 
d="M760 1933c-35 0 -64 -12 -92 -31l-56 78c41 33 91 53 144 53c106 0 192 -75 192 -180c0 -71 -43 -137 -133 -164v-75h-92v129c76 16 123 49 123 110c0 45 -35 80 -86 80zM1520 1645h141v-125c0 -184 -98 -250 -197 -250c-33 0 -73 7 -114 21v-787
c0 -303 -244 -524 -582 -524c-336 0 -580 221 -580 524v1032h174v-993c0 -281 170 -400 406 -400s408 119 408 400v993h174v-171c30 -13 54 -17 71 -17c76 0 99 82 99 133v164z" />
    <glyph glyph-name="uni1EEE" unicode="&#x1eee;" horiz-adv-x="1538" 
d="M625 1927c-72 0 -113 -70 -113 -162h-92c0 146 78 252 203 252c82 0 139 -45 180 -108c25 -39 57 -66 107 -66c69 0 112 59 112 162h90c0 -144 -73 -252 -202 -252c-86 0 -144 47 -183 108c-30 50 -61 66 -102 66zM1520 1645h141v-125c0 -184 -98 -250 -197 -250
c-33 0 -73 7 -114 21v-787c0 -303 -244 -524 -582 -524c-336 0 -580 221 -580 524v1032h174v-993c0 -281 170 -400 406 -400s408 119 408 400v993h174v-171c30 -13 54 -17 71 -17c76 0 99 82 99 133v164z" />
    <glyph glyph-name="Uhungarumlaut" unicode="&#x170;" horiz-adv-x="1538" 
d="M528 1696l262 321l101 -78l-232 -243h-131zM877 1696l262 321l100 -78l-231 -243h-131zM768 -20c-336 0 -580 221 -580 524v1032h174v-993c0 -281 170 -400 406 -400s408 119 408 400v993h174v-1032c0 -303 -244 -524 -582 -524z" />
    <glyph glyph-name="Umacron" unicode="&#x16a;" horiz-adv-x="1538" 
d="M451 1724v115h635v-115h-635zM768 -20c-336 0 -580 221 -580 524v1032h174v-993c0 -281 170 -400 406 -400s408 119 408 400v993h174v-1032c0 -303 -244 -524 -582 -524z" />
    <glyph glyph-name="Uogonek" unicode="&#x172;" horiz-adv-x="1538" 
d="M1176 1536h174v-1032c0 -258 -176 -456 -437 -510c-124 -60 -225 -155 -225 -263c0 -77 53 -110 119 -110c46 0 100 16 145 46v-161c-49 -19 -101 -27 -153 -24c-138 6 -230 81 -230 211c0 115 72 212 193 287c-333 2 -574 223 -574 524v1032h174v-993
c0 -281 170 -400 406 -400s408 119 408 400v993z" />
    <glyph glyph-name="Uring" unicode="&#x16e;" horiz-adv-x="1538" 
d="M768 1673c-119 0 -217 99 -217 215c0 119 98 215 217 215c117 0 213 -96 213 -215c0 -116 -96 -215 -213 -215zM768 1763c67 0 123 54 123 125c0 68 -56 127 -123 127c-70 0 -123 -59 -123 -127c0 -71 53 -125 123 -125zM768 -20c-336 0 -580 221 -580 524v1032h174v-993
c0 -281 170 -400 406 -400s408 119 408 400v993h174v-1032c0 -303 -244 -524 -582 -524z" />
    <glyph glyph-name="Utilde" unicode="&#x168;" horiz-adv-x="1538" 
d="M910 1753c-86 0 -144 47 -183 108c-30 50 -61 66 -102 66c-72 0 -113 -70 -113 -162h-92c0 146 78 252 203 252c82 0 139 -45 180 -108c25 -39 57 -66 107 -66c69 0 112 59 112 162h90c0 -144 -73 -252 -202 -252zM768 -20c-336 0 -580 221 -580 524v1032h174v-993
c0 -281 170 -400 406 -400s408 119 408 400v993h174v-1032c0 -303 -244 -524 -582 -524z" />
    <glyph glyph-name="V" unicode="V" horiz-adv-x="1491" 
d="M1260 1536h172l-623 -1536h-127l-623 1536h172l514 -1292z" />
    <glyph glyph-name="W" unicode="W" horiz-adv-x="2193" 
d="M553 0l-485 1536h178l379 -1206l387 1206h170l387 -1206l379 1206h178l-486 -1536h-131l-411 1274l-414 -1274h-131z" />
    <glyph glyph-name="Wacute" unicode="&#x1e82;" horiz-adv-x="2193" 
d="M1032 1696l263 321l100 -78l-232 -243h-131zM553 0l-485 1536h178l379 -1206l387 1206h170l387 -1206l379 1206h178l-486 -1536h-131l-411 1274l-414 -1274h-131z" />
    <glyph glyph-name="Wcircumflex" unicode="&#x174;" horiz-adv-x="2193" 
d="M930 1716h-121l201 297h172l202 -297h-123l-163 227zM553 0l-485 1536h178l379 -1206l387 1206h170l387 -1206l379 1206h178l-486 -1536h-131l-411 1274l-414 -1274h-131z" />
    <glyph glyph-name="Wdieresis" unicode="&#x1e84;" horiz-adv-x="2193" 
d="M910 1806c-61 0 -115 51 -115 113c0 65 54 114 115 114s115 -49 115 -114c0 -62 -54 -113 -115 -113zM1287 1806c-62 0 -115 51 -115 113c0 65 53 114 115 114c63 0 114 -49 114 -114c0 -62 -51 -113 -114 -113zM553 0l-485 1536h178l379 -1206l387 1206h170l387 -1206
l379 1206h178l-486 -1536h-131l-411 1274l-414 -1274h-131z" />
    <glyph glyph-name="Wgrave" unicode="&#x1e80;" horiz-adv-x="2193" 
d="M1032 1696l-231 243l100 78l262 -321h-131zM553 0l-485 1536h178l379 -1206l387 1206h170l387 -1206l379 1206h178l-486 -1536h-131l-411 1274l-414 -1274h-131z" />
    <glyph glyph-name="X" unicode="X" horiz-adv-x="1368" 
d="M1303 0h-211l-409 636l-407 -636h-210l523 780l-509 756h209l395 -611l395 611h209l-510 -756z" />
    <glyph glyph-name="Y" unicode="Y" horiz-adv-x="1343" 
d="M1294 1536l-534 -808v-728h-174v723l-537 813h217l407 -648l408 648h213z" />
    <glyph glyph-name="Yacute" unicode="&#xdd;" horiz-adv-x="1343" 
d="M971 1939l-232 -243h-131l263 321zM1294 1536l-534 -808v-728h-174v723l-537 813h217l407 -648l408 648h213z" />
    <glyph glyph-name="Ycircumflex" unicode="&#x176;" horiz-adv-x="1343" 
d="M674 1943l-168 -227h-121l201 297h172l202 -297h-123zM1294 1536l-534 -808v-728h-174v723l-537 813h217l407 -648l408 648h213z" />
    <glyph glyph-name="Ydieresis" unicode="&#x178;" horiz-adv-x="1343" 
d="M486 1806c-61 0 -115 51 -115 113c0 65 54 114 115 114s115 -49 115 -114c0 -62 -54 -113 -115 -113zM863 1806c-62 0 -115 51 -115 113c0 65 53 114 115 114c63 0 114 -49 114 -114c0 -62 -51 -113 -114 -113zM1294 1536l-534 -808v-728h-174v723l-537 813h217l407 -648
l408 648h213z" />
    <glyph glyph-name="uni1EF4" unicode="&#x1ef4;" horiz-adv-x="1343" 
d="M586 0v723l-537 813h217l407 -648l408 648h213l-534 -808v-728h-174zM674 -283c61 0 115 -53 115 -114c0 -64 -54 -115 -115 -115s-115 51 -115 115c0 61 54 114 115 114z" />
    <glyph glyph-name="Ygrave" unicode="&#x1ef2;" horiz-adv-x="1343" 
d="M739 1696h-131l-231 243l100 78zM1294 1536l-534 -808v-728h-174v723l-537 813h217l407 -648l408 648h213z" />
    <glyph glyph-name="uni1EF6" unicode="&#x1ef6;" horiz-adv-x="1343" 
d="M666 1933c-35 0 -64 -12 -92 -31l-56 78c41 33 91 53 144 53c106 0 192 -75 192 -180c0 -71 -43 -137 -133 -164v-75h-92v129c76 16 123 49 123 110c0 45 -35 80 -86 80zM1294 1536l-534 -808v-728h-174v723l-537 813h217l407 -648l408 648h213z" />
    <glyph glyph-name="uni1EF8" unicode="&#x1ef8;" horiz-adv-x="1343" 
d="M531 1927c-72 0 -113 -70 -113 -162h-92c0 146 78 252 203 252c82 0 139 -45 180 -108c25 -39 57 -66 107 -66c69 0 112 59 112 162h90c0 -144 -73 -252 -202 -252c-86 0 -144 47 -183 108c-30 50 -61 66 -102 66zM1294 1536l-534 -808v-728h-174v723l-537 813h217
l407 -648l408 648h213z" />
    <glyph glyph-name="Z" unicode="Z" horiz-adv-x="1257" 
d="M1157 1536v-152l-832 -1220h832v-164h-1057v147l836 1225h-836v164h1057z" />
    <glyph glyph-name="Zacute" unicode="&#x179;" horiz-adv-x="1257" 
d="M950 1939l-232 -243h-131l263 321zM1157 1536v-152l-832 -1220h832v-164h-1057v147l836 1225h-836v164h1057z" />
    <glyph glyph-name="Zcaron" unicode="&#x17d;" horiz-adv-x="1257" 
d="M737 1716h-172l-201 297h121l168 -227l163 227h123zM1157 1536v-152l-832 -1220h832v-164h-1057v147l836 1225h-836v164h1057z" />
    <glyph glyph-name="Zdotaccent" unicode="&#x17b;" horiz-adv-x="1257" 
d="M653 1806c-61 0 -115 51 -115 113c0 65 54 114 115 114s115 -49 115 -114c0 -62 -54 -113 -115 -113zM1157 1536v-152l-832 -1220h832v-164h-1057v147l836 1225h-836v164h1057z" />
    <glyph glyph-name="a" unicode="a" horiz-adv-x="1364" 
d="M616 -20c-286 0 -532 245 -532 550c0 304 246 549 532 549c179 0 322 -75 414 -194v174h160v-1059h-160v174c-92 -119 -235 -194 -414 -194zM637 135c219 0 393 176 393 395c0 218 -174 394 -393 394c-217 0 -393 -176 -393 -394c0 -219 176 -395 393 -395z" />
    <glyph glyph-name="a.ss01" horiz-adv-x="1126" 
d="M541 1077c258 0 438 -139 438 -426v-651h-148l-7 111h-5c-98 -80 -221 -131 -364 -131c-217 0 -373 114 -373 337c0 209 137 336 395 336h342c-1 194 -124 279 -297 279c-94 0 -205 -27 -319 -76l-43 139c135 56 266 82 381 82zM487 123c136 0 252 60 332 152v235h-311
c-184 0 -266 -57 -266 -191c0 -141 114 -196 245 -196z" />
    <glyph glyph-name="aacute" unicode="&#xe1;" horiz-adv-x="1364" 
d="M616 1219l263 321l100 -78l-232 -243h-131zM616 -20c-286 0 -532 245 -532 550c0 304 246 549 532 549c179 0 322 -75 414 -194v174h160v-1059h-160v174c-92 -119 -235 -194 -414 -194zM637 135c219 0 393 176 393 395c0 218 -174 394 -393 394
c-217 0 -393 -176 -393 -394c0 -219 176 -395 393 -395z" />
    <glyph glyph-name="aacute.ss01" horiz-adv-x="1126" 
d="M860 1462l-232 -243h-131l263 321zM541 1077c258 0 438 -139 438 -426v-651h-148l-7 111h-5c-98 -80 -221 -131 -364 -131c-217 0 -373 114 -373 337c0 209 137 336 395 336h342c-1 194 -124 279 -297 279c-94 0 -205 -27 -319 -76l-43 139c135 56 266 82 381 82z
M487 123c136 0 252 60 332 152v235h-311c-184 0 -266 -57 -266 -191c0 -141 114 -196 245 -196z" />
    <glyph glyph-name="abreve" unicode="&#x103;" horiz-adv-x="1364" 
d="M679 1221c-194 0 -337 120 -337 315h104c0 -135 98 -229 233 -229c138 0 236 94 236 229h104c0 -195 -143 -315 -340 -315zM616 -20c-286 0 -532 245 -532 550c0 304 246 549 532 549c179 0 322 -75 414 -194v174h160v-1059h-160v174c-92 -119 -235 -194 -414 -194z
M637 135c219 0 393 176 393 395c0 218 -174 394 -393 394c-217 0 -393 -176 -393 -394c0 -219 176 -395 393 -395z" />
    <glyph glyph-name="abreve.ss01" horiz-adv-x="1126" 
d="M560 1221c-194 0 -337 120 -337 315h104c0 -135 98 -229 233 -229c138 0 236 94 236 229h104c0 -195 -143 -315 -340 -315zM541 1077c258 0 438 -139 438 -426v-651h-148l-7 111h-5c-98 -80 -221 -131 -364 -131c-217 0 -373 114 -373 337c0 209 137 336 395 336h342
c-1 194 -124 279 -297 279c-94 0 -205 -27 -319 -76l-43 139c135 56 266 82 381 82zM487 123c136 0 252 60 332 152v235h-311c-184 0 -266 -57 -266 -191c0 -141 114 -196 245 -196z" />
    <glyph glyph-name="uni1EAF" unicode="&#x1eaf;" horiz-adv-x="1364" 
d="M616 1696l263 321l100 -78l-232 -243h-131zM679 1221c-194 0 -337 120 -337 315h104c0 -135 98 -229 233 -229c138 0 236 94 236 229h104c0 -195 -143 -315 -340 -315zM616 -20c-286 0 -532 245 -532 550c0 304 246 549 532 549c179 0 322 -75 414 -194v174h160v-1059
h-160v174c-92 -119 -235 -194 -414 -194zM637 135c219 0 393 176 393 395c0 218 -174 394 -393 394c-217 0 -393 -176 -393 -394c0 -219 176 -395 393 -395z" />
    <glyph glyph-name="uni1EAF.ss01" horiz-adv-x="1126" 
d="M860 1939l-232 -243h-131l263 321zM560 1221c-194 0 -337 120 -337 315h104c0 -135 98 -229 233 -229c138 0 236 94 236 229h104c0 -195 -143 -315 -340 -315zM541 1077c258 0 438 -139 438 -426v-651h-148l-7 111h-5c-98 -80 -221 -131 -364 -131
c-217 0 -373 114 -373 337c0 209 137 336 395 336h342c-1 194 -124 279 -297 279c-94 0 -205 -27 -319 -76l-43 139c135 56 266 82 381 82zM487 123c136 0 252 60 332 152v235h-311c-184 0 -266 -57 -266 -191c0 -141 114 -196 245 -196z" />
    <glyph glyph-name="uni1EB7" unicode="&#x1eb7;" horiz-adv-x="1364" 
d="M679 1221c-194 0 -337 120 -337 315h104c0 -135 98 -229 233 -229c138 0 236 94 236 229h104c0 -195 -143 -315 -340 -315zM616 -20c-286 0 -532 245 -532 550c0 304 246 549 532 549c179 0 322 -75 414 -194v174h160v-1059h-160v174c-92 -119 -235 -194 -414 -194z
M637 135c219 0 393 176 393 395c0 218 -174 394 -393 394c-217 0 -393 -176 -393 -394c0 -219 176 -395 393 -395zM682 -512c-61 0 -115 51 -115 115c0 61 54 114 115 114s115 -53 115 -114c0 -64 -54 -115 -115 -115z" />
    <glyph glyph-name="uni1EB7.ss01" horiz-adv-x="1126" 
d="M560 1221c-194 0 -337 120 -337 315h104c0 -135 98 -229 233 -229c138 0 236 94 236 229h104c0 -195 -143 -315 -340 -315zM541 1077c258 0 438 -139 438 -426v-651h-148l-7 111h-5c-98 -80 -221 -131 -364 -131c-217 0 -373 114 -373 337c0 209 137 336 395 336h342
c-1 194 -124 279 -297 279c-94 0 -205 -27 -319 -76l-43 139c135 56 266 82 381 82zM487 123c136 0 252 60 332 152v235h-311c-184 0 -266 -57 -266 -191c0 -141 114 -196 245 -196zM563 -283c61 0 115 -53 115 -114c0 -64 -54 -115 -115 -115s-115 51 -115 115
c0 61 54 114 115 114z" />
    <glyph glyph-name="uni1EB1" unicode="&#x1eb1;" horiz-adv-x="1364" 
d="M616 1696l-231 243l100 78l262 -321h-131zM679 1221c-194 0 -337 120 -337 315h104c0 -135 98 -229 233 -229c138 0 236 94 236 229h104c0 -195 -143 -315 -340 -315zM616 -20c-286 0 -532 245 -532 550c0 304 246 549 532 549c179 0 322 -75 414 -194v174h160v-1059
h-160v174c-92 -119 -235 -194 -414 -194zM637 135c219 0 393 176 393 395c0 218 -174 394 -393 394c-217 0 -393 -176 -393 -394c0 -219 176 -395 393 -395z" />
    <glyph glyph-name="uni1EB1.ss01" horiz-adv-x="1126" 
d="M628 1696h-131l-231 243l100 78zM560 1221c-194 0 -337 120 -337 315h104c0 -135 98 -229 233 -229c138 0 236 94 236 229h104c0 -195 -143 -315 -340 -315zM541 1077c258 0 438 -139 438 -426v-651h-148l-7 111h-5c-98 -80 -221 -131 -364 -131
c-217 0 -373 114 -373 337c0 209 137 336 395 336h342c-1 194 -124 279 -297 279c-94 0 -205 -27 -319 -76l-43 139c135 56 266 82 381 82zM487 123c136 0 252 60 332 152v235h-311c-184 0 -266 -57 -266 -191c0 -141 114 -196 245 -196z" />
    <glyph glyph-name="uni1EB3" unicode="&#x1eb3;" horiz-adv-x="1364" 
d="M637 1614v129c76 16 123 49 123 110c0 45 -35 80 -86 80c-35 0 -64 -12 -92 -31l-56 78c41 33 91 53 144 53c106 0 192 -75 192 -180c0 -71 -43 -137 -133 -164v-75h-92zM679 1221c-194 0 -337 120 -337 315h104c0 -135 98 -229 233 -229c138 0 236 94 236 229h104
c0 -195 -143 -315 -340 -315zM616 -20c-286 0 -532 245 -532 550c0 304 246 549 532 549c179 0 322 -75 414 -194v174h160v-1059h-160v174c-92 -119 -235 -194 -414 -194zM637 135c219 0 393 176 393 395c0 218 -174 394 -393 394c-217 0 -393 -176 -393 -394
c0 -219 176 -395 393 -395z" />
    <glyph glyph-name="uni1EB3.ss01" horiz-adv-x="1126" 
d="M555 1933c-35 0 -64 -12 -92 -31l-56 78c41 33 91 53 144 53c106 0 192 -75 192 -180c0 -71 -43 -137 -133 -164v-75h-92v129c76 16 123 49 123 110c0 45 -35 80 -86 80zM560 1221c-194 0 -337 120 -337 315h104c0 -135 98 -229 233 -229c138 0 236 94 236 229h104
c0 -195 -143 -315 -340 -315zM541 1077c258 0 438 -139 438 -426v-651h-148l-7 111h-5c-98 -80 -221 -131 -364 -131c-217 0 -373 114 -373 337c0 209 137 336 395 336h342c-1 194 -124 279 -297 279c-94 0 -205 -27 -319 -76l-43 139c135 56 266 82 381 82zM487 123
c136 0 252 60 332 152v235h-311c-184 0 -266 -57 -266 -191c0 -141 114 -196 245 -196z" />
    <glyph glyph-name="uni1EB5" unicode="&#x1eb5;" horiz-adv-x="1364" 
d="M824 1753c-86 0 -144 47 -183 108c-30 50 -61 66 -102 66c-72 0 -113 -70 -113 -162h-92c0 146 78 252 203 252c82 0 139 -45 180 -108c25 -39 57 -66 107 -66c69 0 112 59 112 162h90c0 -144 -73 -252 -202 -252zM679 1221c-194 0 -337 120 -337 315h104
c0 -135 98 -229 233 -229c138 0 236 94 236 229h104c0 -195 -143 -315 -340 -315zM616 -20c-286 0 -532 245 -532 550c0 304 246 549 532 549c179 0 322 -75 414 -194v174h160v-1059h-160v174c-92 -119 -235 -194 -414 -194zM637 135c219 0 393 176 393 395
c0 218 -174 394 -393 394c-217 0 -393 -176 -393 -394c0 -219 176 -395 393 -395z" />
    <glyph glyph-name="uni1EB5.ss01" horiz-adv-x="1126" 
d="M420 1927c-72 0 -113 -70 -113 -162h-92c0 146 78 252 203 252c82 0 139 -45 180 -108c25 -39 57 -66 107 -66c69 0 112 59 112 162h90c0 -144 -73 -252 -202 -252c-86 0 -144 47 -183 108c-30 50 -61 66 -102 66zM560 1307c138 0 236 94 236 229h104
c0 -195 -143 -315 -340 -315c-194 0 -337 120 -337 315h104c0 -135 98 -229 233 -229zM541 1077c258 0 438 -139 438 -426v-651h-148l-7 111h-5c-98 -80 -221 -131 -364 -131c-217 0 -373 114 -373 337c0 209 137 336 395 336h342c-1 194 -124 279 -297 279
c-94 0 -205 -27 -319 -76l-43 139c135 56 266 82 381 82zM487 123c136 0 252 60 332 152v235h-311c-184 0 -266 -57 -266 -191c0 -141 114 -196 245 -196z" />
    <glyph glyph-name="uni01CE" unicode="&#x1ce;" horiz-adv-x="1364" 
d="M594 1239l-201 297h121l168 -227l163 227h123l-202 -297h-172zM616 -20c-286 0 -532 245 -532 550c0 304 246 549 532 549c179 0 322 -75 414 -194v174h160v-1059h-160v174c-92 -119 -235 -194 -414 -194zM637 135c219 0 393 176 393 395c0 218 -174 394 -393 394
c-217 0 -393 -176 -393 -394c0 -219 176 -395 393 -395z" />
    <glyph glyph-name="uni01CE.ss01" horiz-adv-x="1126" 
d="M647 1239h-172l-201 297h121l168 -227l163 227h123zM541 1077c258 0 438 -139 438 -426v-651h-148l-7 111h-5c-98 -80 -221 -131 -364 -131c-217 0 -373 114 -373 337c0 209 137 336 395 336h342c-1 194 -124 279 -297 279c-94 0 -205 -27 -319 -76l-43 139
c135 56 266 82 381 82zM487 123c136 0 252 60 332 152v235h-311c-184 0 -266 -57 -266 -191c0 -141 114 -196 245 -196z" />
    <glyph glyph-name="acircumflex" unicode="&#xe2;" horiz-adv-x="1364" 
d="M514 1239h-121l201 297h172l202 -297h-123l-163 227zM616 -20c-286 0 -532 245 -532 550c0 304 246 549 532 549c179 0 322 -75 414 -194v174h160v-1059h-160v174c-92 -119 -235 -194 -414 -194zM637 135c219 0 393 176 393 395c0 218 -174 394 -393 394
c-217 0 -393 -176 -393 -394c0 -219 176 -395 393 -395z" />
    <glyph glyph-name="acircumflex.ss01" horiz-adv-x="1126" 
d="M563 1466l-168 -227h-121l201 297h172l202 -297h-123zM541 1077c258 0 438 -139 438 -426v-651h-148l-7 111h-5c-98 -80 -221 -131 -364 -131c-217 0 -373 114 -373 337c0 209 137 336 395 336h342c-1 194 -124 279 -297 279c-94 0 -205 -27 -319 -76l-43 139
c135 56 266 82 381 82zM487 123c136 0 252 60 332 152v235h-311c-184 0 -266 -57 -266 -191c0 -141 114 -196 245 -196z" />
    <glyph glyph-name="uni1EA5" unicode="&#x1ea5;" horiz-adv-x="1364" 
d="M614 1696l263 321l100 -78l-232 -243h-131zM514 1239h-121l201 297h172l202 -297h-123l-163 227zM616 -20c-286 0 -532 245 -532 550c0 304 246 549 532 549c179 0 322 -75 414 -194v174h160v-1059h-160v174c-92 -119 -235 -194 -414 -194zM637 135
c219 0 393 176 393 395c0 218 -174 394 -393 394c-217 0 -393 -176 -393 -394c0 -219 176 -395 393 -395z" />
    <glyph glyph-name="uni1EA5.ss01" horiz-adv-x="1126" 
d="M858 1939l-232 -243h-131l263 321zM563 1466l-168 -227h-121l201 297h172l202 -297h-123zM541 1077c258 0 438 -139 438 -426v-651h-148l-7 111h-5c-98 -80 -221 -131 -364 -131c-217 0 -373 114 -373 337c0 209 137 336 395 336h342c-1 194 -124 279 -297 279
c-94 0 -205 -27 -319 -76l-43 139c135 56 266 82 381 82zM487 123c136 0 252 60 332 152v235h-311c-184 0 -266 -57 -266 -191c0 -141 114 -196 245 -196z" />
    <glyph glyph-name="uni1EAD" unicode="&#x1ead;" horiz-adv-x="1364" 
d="M514 1239h-121l201 297h172l202 -297h-123l-163 227zM616 -20c-286 0 -532 245 -532 550c0 304 246 549 532 549c179 0 322 -75 414 -194v174h160v-1059h-160v174c-92 -119 -235 -194 -414 -194zM637 135c219 0 393 176 393 395c0 218 -174 394 -393 394
c-217 0 -393 -176 -393 -394c0 -219 176 -395 393 -395zM682 -512c-61 0 -115 51 -115 115c0 61 54 114 115 114s115 -53 115 -114c0 -64 -54 -115 -115 -115z" />
    <glyph glyph-name="uni1EAD.ss01" horiz-adv-x="1126" 
d="M563 1466l-168 -227h-121l201 297h172l202 -297h-123zM541 1077c258 0 438 -139 438 -426v-651h-148l-7 111h-5c-98 -80 -221 -131 -364 -131c-217 0 -373 114 -373 337c0 209 137 336 395 336h342c-1 194 -124 279 -297 279c-94 0 -205 -27 -319 -76l-43 139
c135 56 266 82 381 82zM487 123c136 0 252 60 332 152v235h-311c-184 0 -266 -57 -266 -191c0 -141 114 -196 245 -196zM563 -283c61 0 115 -53 115 -114c0 -64 -54 -115 -115 -115s-115 51 -115 115c0 61 54 114 115 114z" />
    <glyph glyph-name="uni1EA7" unicode="&#x1ea7;" horiz-adv-x="1364" 
d="M614 1696l-231 243l100 78l262 -321h-131zM514 1239h-121l201 297h172l202 -297h-123l-163 227zM616 -20c-286 0 -532 245 -532 550c0 304 246 549 532 549c179 0 322 -75 414 -194v174h160v-1059h-160v174c-92 -119 -235 -194 -414 -194zM637 135c219 0 393 176 393 395
c0 218 -174 394 -393 394c-217 0 -393 -176 -393 -394c0 -219 176 -395 393 -395z" />
    <glyph glyph-name="uni1EA7.ss01" horiz-adv-x="1126" 
d="M626 1696h-131l-231 243l100 78zM274 1239l201 297h172l202 -297h-123l-163 227l-168 -227h-121zM541 1077c258 0 438 -139 438 -426v-651h-148l-7 111h-5c-98 -80 -221 -131 -364 -131c-217 0 -373 114 -373 337c0 209 137 336 395 336h342c-1 194 -124 279 -297 279
c-94 0 -205 -27 -319 -76l-43 139c135 56 266 82 381 82zM487 123c136 0 252 60 332 152v235h-311c-184 0 -266 -57 -266 -191c0 -141 114 -196 245 -196z" />
    <glyph glyph-name="uni1EA9" unicode="&#x1ea9;" horiz-adv-x="1364" 
d="M635 1614v129c76 16 123 49 123 110c0 45 -35 80 -86 80c-35 0 -64 -12 -92 -31l-56 78c41 33 91 53 144 53c106 0 192 -75 192 -180c0 -71 -43 -137 -133 -164v-75h-92zM514 1239h-121l201 297h172l202 -297h-123l-163 227zM616 -20c-286 0 -532 245 -532 550
c0 304 246 549 532 549c179 0 322 -75 414 -194v174h160v-1059h-160v174c-92 -119 -235 -194 -414 -194zM637 135c219 0 393 176 393 395c0 218 -174 394 -393 394c-217 0 -393 -176 -393 -394c0 -219 176 -395 393 -395z" />
    <glyph glyph-name="uni1EA9.ss01" horiz-adv-x="1126" 
d="M553 1933c-35 0 -64 -12 -92 -31l-56 78c41 33 91 53 144 53c106 0 192 -75 192 -180c0 -71 -43 -137 -133 -164v-75h-92v129c76 16 123 49 123 110c0 45 -35 80 -86 80zM563 1466l-168 -227h-121l201 297h172l202 -297h-123zM541 1077c258 0 438 -139 438 -426v-651
h-148l-7 111h-5c-98 -80 -221 -131 -364 -131c-217 0 -373 114 -373 337c0 209 137 336 395 336h342c-1 194 -124 279 -297 279c-94 0 -205 -27 -319 -76l-43 139c135 56 266 82 381 82zM487 123c136 0 252 60 332 152v235h-311c-184 0 -266 -57 -266 -191
c0 -141 114 -196 245 -196z" />
    <glyph glyph-name="uni1EAB" unicode="&#x1eab;" horiz-adv-x="1364" 
d="M822 1753c-86 0 -144 47 -183 108c-30 50 -61 66 -102 66c-72 0 -113 -70 -113 -162h-92c0 146 78 252 203 252c82 0 139 -45 180 -108c25 -39 57 -66 107 -66c69 0 112 59 112 162h90c0 -144 -73 -252 -202 -252zM514 1239h-121l201 297h172l202 -297h-123l-163 227z
M616 -20c-286 0 -532 245 -532 550c0 304 246 549 532 549c179 0 322 -75 414 -194v174h160v-1059h-160v174c-92 -119 -235 -194 -414 -194zM637 135c219 0 393 176 393 395c0 218 -174 394 -393 394c-217 0 -393 -176 -393 -394c0 -219 176 -395 393 -395z" />
    <glyph glyph-name="uni1EAB.ss01" horiz-adv-x="1126" 
d="M418 1927c-72 0 -113 -70 -113 -162h-92c0 146 78 252 203 252c82 0 139 -45 180 -108c25 -39 57 -66 107 -66c69 0 112 59 112 162h90c0 -144 -73 -252 -202 -252c-86 0 -144 47 -183 108c-30 50 -61 66 -102 66zM475 1536h172l202 -297h-123l-163 227l-168 -227h-121z
M541 1077c258 0 438 -139 438 -426v-651h-148l-7 111h-5c-98 -80 -221 -131 -364 -131c-217 0 -373 114 -373 337c0 209 137 336 395 336h342c-1 194 -124 279 -297 279c-94 0 -205 -27 -319 -76l-43 139c135 56 266 82 381 82zM487 123c136 0 252 60 332 152v235h-311
c-184 0 -266 -57 -266 -191c0 -141 114 -196 245 -196z" />
    <glyph glyph-name="adieresis" unicode="&#xe4;" horiz-adv-x="1364" 
d="M494 1329c-61 0 -115 51 -115 113c0 65 54 114 115 114s115 -49 115 -114c0 -62 -54 -113 -115 -113zM871 1329c-62 0 -115 51 -115 113c0 65 53 114 115 114c63 0 114 -49 114 -114c0 -62 -51 -113 -114 -113zM616 -20c-286 0 -532 245 -532 550c0 304 246 549 532 549
c179 0 322 -75 414 -194v174h160v-1059h-160v174c-92 -119 -235 -194 -414 -194zM637 135c219 0 393 176 393 395c0 218 -174 394 -393 394c-217 0 -393 -176 -393 -394c0 -219 176 -395 393 -395z" />
    <glyph glyph-name="adieresis.ss01" horiz-adv-x="1126" 
d="M375 1329c-61 0 -115 51 -115 113c0 65 54 114 115 114s115 -49 115 -114c0 -62 -54 -113 -115 -113zM752 1329c-62 0 -115 51 -115 113c0 65 53 114 115 114c63 0 114 -49 114 -114c0 -62 -51 -113 -114 -113zM541 1077c258 0 438 -139 438 -426v-651h-148l-7 111h-5
c-98 -80 -221 -131 -364 -131c-217 0 -373 114 -373 337c0 209 137 336 395 336h342c-1 194 -124 279 -297 279c-94 0 -205 -27 -319 -76l-43 139c135 56 266 82 381 82zM487 123c136 0 252 60 332 152v235h-311c-184 0 -266 -57 -266 -191c0 -141 114 -196 245 -196z" />
    <glyph glyph-name="uni1EA1" unicode="&#x1ea1;" horiz-adv-x="1364" 
d="M616 -20c-286 0 -532 245 -532 550c0 304 246 549 532 549c179 0 322 -75 414 -194v174h160v-1059h-160v174c-92 -119 -235 -194 -414 -194zM637 135c219 0 393 176 393 395c0 218 -174 394 -393 394c-217 0 -393 -176 -393 -394c0 -219 176 -395 393 -395zM682 -512
c-61 0 -115 51 -115 115c0 61 54 114 115 114s115 -53 115 -114c0 -64 -54 -115 -115 -115z" />
    <glyph glyph-name="uni1EA1.ss01" horiz-adv-x="1126" 
d="M541 1077c258 0 438 -139 438 -426v-651h-148l-7 111h-5c-98 -80 -221 -131 -364 -131c-217 0 -373 114 -373 337c0 209 137 336 395 336h342c-1 194 -124 279 -297 279c-94 0 -205 -27 -319 -76l-43 139c135 56 266 82 381 82zM487 123c136 0 252 60 332 152v235h-311
c-184 0 -266 -57 -266 -191c0 -141 114 -196 245 -196zM563 -283c61 0 115 -53 115 -114c0 -64 -54 -115 -115 -115s-115 51 -115 115c0 61 54 114 115 114z" />
    <glyph glyph-name="agrave" unicode="&#xe0;" horiz-adv-x="1364" 
d="M616 1219l-231 243l100 78l262 -321h-131zM616 -20c-286 0 -532 245 -532 550c0 304 246 549 532 549c179 0 322 -75 414 -194v174h160v-1059h-160v174c-92 -119 -235 -194 -414 -194zM637 135c219 0 393 176 393 395c0 218 -174 394 -393 394
c-217 0 -393 -176 -393 -394c0 -219 176 -395 393 -395z" />
    <glyph glyph-name="agrave.ss01" horiz-adv-x="1126" 
d="M628 1219h-131l-231 243l100 78zM541 1077c258 0 438 -139 438 -426v-651h-148l-7 111h-5c-98 -80 -221 -131 -364 -131c-217 0 -373 114 -373 337c0 209 137 336 395 336h342c-1 194 -124 279 -297 279c-94 0 -205 -27 -319 -76l-43 139c135 56 266 82 381 82zM487 123
c136 0 252 60 332 152v235h-311c-184 0 -266 -57 -266 -191c0 -141 114 -196 245 -196z" />
    <glyph glyph-name="uni1EA3" unicode="&#x1ea3;" horiz-adv-x="1364" 
d="M637 1137v129c76 16 123 49 123 110c0 45 -35 80 -86 80c-35 0 -64 -12 -92 -31l-56 78c41 33 91 53 144 53c106 0 192 -75 192 -180c0 -71 -43 -137 -133 -164v-75h-92zM616 -20c-286 0 -532 245 -532 550c0 304 246 549 532 549c179 0 322 -75 414 -194v174h160v-1059
h-160v174c-92 -119 -235 -194 -414 -194zM637 135c219 0 393 176 393 395c0 218 -174 394 -393 394c-217 0 -393 -176 -393 -394c0 -219 176 -395 393 -395z" />
    <glyph glyph-name="uni1EA3.ss01" horiz-adv-x="1126" 
d="M555 1456c-35 0 -64 -12 -92 -31l-56 78c41 33 91 53 144 53c106 0 192 -75 192 -180c0 -71 -43 -137 -133 -164v-75h-92v129c76 16 123 49 123 110c0 45 -35 80 -86 80zM541 1077c258 0 438 -139 438 -426v-651h-148l-7 111h-5c-98 -80 -221 -131 -364 -131
c-217 0 -373 114 -373 337c0 209 137 336 395 336h342c-1 194 -124 279 -297 279c-94 0 -205 -27 -319 -76l-43 139c135 56 266 82 381 82zM487 123c136 0 252 60 332 152v235h-311c-184 0 -266 -57 -266 -191c0 -141 114 -196 245 -196z" />
    <glyph glyph-name="amacron" unicode="&#x101;" horiz-adv-x="1364" 
d="M365 1247v115h635v-115h-635zM616 -20c-286 0 -532 245 -532 550c0 304 246 549 532 549c179 0 322 -75 414 -194v174h160v-1059h-160v174c-92 -119 -235 -194 -414 -194zM637 135c219 0 393 176 393 395c0 218 -174 394 -393 394c-217 0 -393 -176 -393 -394
c0 -219 176 -395 393 -395z" />
    <glyph glyph-name="amacron.ss01" horiz-adv-x="1126" 
d="M881 1362v-115h-635v115h635zM541 1077c258 0 438 -139 438 -426v-651h-148l-7 111h-5c-98 -80 -221 -131 -364 -131c-217 0 -373 114 -373 337c0 209 137 336 395 336h342c-1 194 -124 279 -297 279c-94 0 -205 -27 -319 -76l-43 139c135 56 266 82 381 82zM487 123
c136 0 252 60 332 152v235h-311c-184 0 -266 -57 -266 -191c0 -141 114 -196 245 -196z" />
    <glyph glyph-name="aogonek" unicode="&#x105;" horiz-adv-x="1364" 
d="M1190 0c-141 -59 -264 -162 -264 -281c0 -77 53 -110 119 -110c46 0 100 16 145 46v-161c-49 -19 -101 -27 -153 -24c-138 6 -230 81 -230 211c0 132 95 240 251 319h-28v174c-92 -119 -235 -194 -414 -194c-286 0 -532 245 -532 550c0 304 246 549 532 549
c179 0 322 -75 414 -194v174h160v-1059zM637 135c219 0 393 176 393 395c0 218 -174 394 -393 394c-217 0 -393 -176 -393 -394c0 -219 176 -395 393 -395z" />
    <glyph glyph-name="aogonek.ss01" horiz-adv-x="1126" 
d="M979 0c-141 -59 -264 -162 -264 -281c0 -77 53 -110 119 -110c46 0 100 16 145 46v-161c-49 -19 -101 -27 -153 -24c-138 6 -230 81 -230 211c0 132 95 240 251 319h-16l-7 111h-5c-98 -80 -221 -131 -364 -131c-217 0 -373 114 -373 337c0 209 137 336 395 336h342
c-1 194 -124 279 -297 279c-94 0 -205 -27 -319 -76l-43 139c135 56 266 82 381 82c258 0 438 -139 438 -426v-651zM487 123c136 0 252 60 332 152v235h-311c-184 0 -266 -57 -266 -191c0 -141 114 -196 245 -196z" />
    <glyph glyph-name="aring" unicode="&#xe5;" horiz-adv-x="1364" 
d="M682 1196c-119 0 -217 99 -217 215c0 119 98 215 217 215c117 0 213 -96 213 -215c0 -116 -96 -215 -213 -215zM682 1286c67 0 123 54 123 125c0 68 -56 127 -123 127c-70 0 -123 -59 -123 -127c0 -71 53 -125 123 -125zM616 -20c-286 0 -532 245 -532 550
c0 304 246 549 532 549c179 0 322 -75 414 -194v174h160v-1059h-160v174c-92 -119 -235 -194 -414 -194zM637 135c219 0 393 176 393 395c0 218 -174 394 -393 394c-217 0 -393 -176 -393 -394c0 -219 176 -395 393 -395z" />
    <glyph glyph-name="aring.ss01" horiz-adv-x="1126" 
d="M563 1196c-119 0 -217 99 -217 215c0 119 98 215 217 215c117 0 213 -96 213 -215c0 -116 -96 -215 -213 -215zM563 1538c-70 0 -123 -59 -123 -127c0 -71 53 -125 123 -125c67 0 123 54 123 125c0 68 -56 127 -123 127zM541 1077c258 0 438 -139 438 -426v-651h-148
l-7 111h-5c-98 -80 -221 -131 -364 -131c-217 0 -373 114 -373 337c0 209 137 336 395 336h342c-1 194 -124 279 -297 279c-94 0 -205 -27 -319 -76l-43 139c135 56 266 82 381 82zM487 123c136 0 252 60 332 152v235h-311c-184 0 -266 -57 -266 -191
c0 -141 114 -196 245 -196z" />
    <glyph glyph-name="atilde" unicode="&#xe3;" horiz-adv-x="1364" 
d="M824 1276c-86 0 -144 47 -183 108c-30 50 -61 66 -102 66c-72 0 -113 -70 -113 -162h-92c0 146 78 252 203 252c82 0 139 -45 180 -108c25 -39 57 -66 107 -66c69 0 112 59 112 162h90c0 -144 -73 -252 -202 -252zM616 -20c-286 0 -532 245 -532 550
c0 304 246 549 532 549c179 0 322 -75 414 -194v174h160v-1059h-160v174c-92 -119 -235 -194 -414 -194zM637 135c219 0 393 176 393 395c0 218 -174 394 -393 394c-217 0 -393 -176 -393 -394c0 -219 176 -395 393 -395z" />
    <glyph glyph-name="atilde.ss01" horiz-adv-x="1126" 
d="M420 1450c-72 0 -113 -70 -113 -162h-92c0 146 78 252 203 252c82 0 139 -45 180 -108c25 -39 57 -66 107 -66c69 0 112 59 112 162h90c0 -144 -73 -252 -202 -252c-86 0 -144 47 -183 108c-30 50 -61 66 -102 66zM541 1077c258 0 438 -139 438 -426v-651h-148l-7 111h-5
c-98 -80 -221 -131 -364 -131c-217 0 -373 114 -373 337c0 209 137 336 395 336h342c-1 194 -124 279 -297 279c-94 0 -205 -27 -319 -76l-43 139c135 56 266 82 381 82zM487 123c136 0 252 60 332 152v235h-311c-184 0 -266 -57 -266 -191c0 -141 114 -196 245 -196z" />
    <glyph glyph-name="ae" unicode="&#xe6;" horiz-adv-x="1909" 
d="M1843 543l-2 -31h-950c7 -217 186 -387 401 -387c138 0 262 68 336 180l135 -57c-96 -166 -270 -268 -469 -268c-185 0 -345 86 -445 220c-94 -138 -223 -220 -398 -220c-205 0 -367 112 -367 313c0 178 127 336 408 338l259 3c7 39 19 76 34 112
c-27 123 -117 192 -263 192c-116 0 -225 -43 -332 -139l-81 123c102 92 245 159 413 159c185 0 306 -81 362 -181c100 110 245 179 408 179c303 0 541 -233 551 -536zM1292 934c-185 0 -337 -121 -385 -293h769c-48 170 -198 293 -384 293zM459 117c142 0 253 72 328 191
c-27 61 -43 128 -45 198h-199c-242 0 -301 -111 -301 -209c0 -121 88 -180 217 -180z" />
    <glyph glyph-name="b" unicode="b" horiz-adv-x="1364" 
d="M748 -20c-179 0 -322 75 -414 194v-174h-160v1536h160v-651c92 119 235 194 414 194c286 0 532 -245 532 -549c0 -305 -246 -550 -532 -550zM727 135c217 0 393 176 393 395c0 218 -176 394 -393 394c-219 0 -393 -176 -393 -394c0 -219 174 -395 393 -395z" />
    <glyph glyph-name="c" unicode="c" horiz-adv-x="1147" 
d="M637 -18c-307 0 -553 243 -553 548c0 306 246 549 553 549c188 0 354 -92 455 -233l-131 -96c-70 106 -185 174 -324 174c-223 0 -393 -172 -393 -394c0 -221 170 -393 393 -393c139 0 254 68 324 174l131 -96c-101 -141 -267 -233 -455 -233z" />
    <glyph glyph-name="cacute" unicode="&#x107;" horiz-adv-x="1147" 
d="M571 1219l263 321l100 -78l-232 -243h-131zM637 -18c-307 0 -553 243 -553 548c0 306 246 549 553 549c188 0 354 -92 455 -233l-131 -96c-70 106 -185 174 -324 174c-223 0 -393 -172 -393 -394c0 -221 170 -393 393 -393c139 0 254 68 324 174l131 -96
c-101 -141 -267 -233 -455 -233z" />
    <glyph glyph-name="ccaron" unicode="&#x10d;" horiz-adv-x="1147" 
d="M549 1239l-201 297h121l168 -227l163 227h123l-202 -297h-172zM637 -18c-307 0 -553 243 -553 548c0 306 246 549 553 549c188 0 354 -92 455 -233l-131 -96c-70 106 -185 174 -324 174c-223 0 -393 -172 -393 -394c0 -221 170 -393 393 -393c139 0 254 68 324 174
l131 -96c-101 -141 -267 -233 -455 -233z" />
    <glyph glyph-name="ccedilla" unicode="&#xe7;" horiz-adv-x="1147" 
d="M637 137c139 0 254 68 324 174l131 -96c-93 -130 -240 -218 -410 -231l-56 -119c19 4 37 6 54 6c114 0 198 -78 198 -190c0 -119 -92 -213 -211 -213c-94 0 -198 59 -237 135l92 37c29 -41 94 -72 145 -72c62 0 111 49 111 113c0 67 -47 106 -115 106
c-24 0 -53 -6 -84 -18l-79 51l82 165c-281 26 -498 258 -498 545c0 306 246 549 553 549c188 0 354 -92 455 -233l-131 -96c-70 106 -185 174 -324 174c-223 0 -393 -172 -393 -394c0 -221 170 -393 393 -393z" />
    <glyph glyph-name="cdotaccent" unicode="&#x10b;" horiz-adv-x="1147" 
d="M637 1329c-61 0 -115 51 -115 113c0 65 54 114 115 114s115 -49 115 -114c0 -62 -54 -113 -115 -113zM637 -18c-307 0 -553 243 -553 548c0 306 246 549 553 549c188 0 354 -92 455 -233l-131 -96c-70 106 -185 174 -324 174c-223 0 -393 -172 -393 -394
c0 -221 170 -393 393 -393c139 0 254 68 324 174l131 -96c-101 -141 -267 -233 -455 -233z" />
    <glyph glyph-name="d" unicode="d" horiz-adv-x="1364" 
d="M616 -20c-286 0 -532 245 -532 550c0 304 246 549 532 549c179 0 322 -75 414 -194v651h160v-1536h-160v174c-92 -119 -235 -194 -414 -194zM637 135c219 0 393 176 393 395c0 218 -174 394 -393 394c-217 0 -393 -176 -393 -394c0 -219 176 -395 393 -395z" />
    <glyph glyph-name="eth" unicode="&#xf0;" horiz-adv-x="1237" 
d="M1006 879c133 -183 157 -258 151 -396c-12 -288 -258 -499 -557 -499c-293 0 -532 252 -520 544c12 306 285 496 489 496c67 0 111 -9 148 -23l-200 238l-275 -74l-25 97l229 61l-178 213h215l133 -167l267 71l24 -97l-222 -59c146 -182 249 -308 321 -405zM985 485
c12 215 -133 392 -367 392c-192 0 -356 -136 -368 -351c-12 -202 137 -372 352 -372c213 0 371 127 383 331z" />
    <glyph glyph-name="dcaron" unicode="&#x10f;" horiz-adv-x="1520" 
d="M1451 910h-124l100 627h192zM616 -20c-286 0 -532 245 -532 550c0 304 246 549 532 549c179 0 322 -75 414 -194v651h160v-1536h-160v174c-92 -119 -235 -194 -414 -194zM637 135c219 0 393 176 393 395c0 218 -174 394 -393 394c-217 0 -393 -176 -393 -394
c0 -219 176 -395 393 -395z" />
    <glyph glyph-name="dcroat" unicode="&#x111;" horiz-adv-x="1364" 
d="M1327 1371v-119h-137v-1252h-160v174c-92 -119 -235 -194 -414 -194c-286 0 -532 245 -532 550c0 304 246 549 532 549c179 0 322 -75 414 -194v367h-305v119h305v165h160v-165h137zM637 135c219 0 393 176 393 395c0 218 -174 394 -393 394c-217 0 -393 -176 -393 -394
c0 -219 176 -395 393 -395z" />
    <glyph glyph-name="e" unicode="e" horiz-adv-x="1251" 
d="M1186 543l-2 -31h-951c7 -217 187 -387 402 -387c137 0 262 68 336 180l135 -57c-96 -166 -270 -268 -469 -268c-311 0 -553 245 -553 550c0 304 244 549 551 549c303 0 541 -233 551 -536zM635 934c-185 0 -338 -121 -386 -293h769c-48 170 -197 293 -383 293z" />
    <glyph glyph-name="eacute" unicode="&#xe9;" horiz-adv-x="1251" 
d="M942 1474l-232 -243h-131l263 321zM1186 543l-2 -31h-951c7 -217 187 -387 402 -387c137 0 262 68 336 180l135 -57c-96 -166 -270 -268 -469 -268c-311 0 -553 245 -553 550c0 304 244 549 551 549c303 0 541 -233 551 -536zM635 934c-185 0 -338 -121 -386 -293h769
c-48 170 -197 293 -383 293z" />
    <glyph glyph-name="ecaron" unicode="&#x11b;" horiz-adv-x="1251" 
d="M729 1251h-172l-201 297h121l168 -227l163 227h123zM1186 543l-2 -31h-951c7 -217 187 -387 402 -387c137 0 262 68 336 180l135 -57c-96 -166 -270 -268 -469 -268c-311 0 -553 245 -553 550c0 304 244 549 551 549c303 0 541 -233 551 -536zM635 934
c-185 0 -338 -121 -386 -293h769c-48 170 -197 293 -383 293z" />
    <glyph glyph-name="ecircumflex" unicode="&#xea;" horiz-adv-x="1251" 
d="M645 1478l-168 -227h-121l201 297h172l202 -297h-123zM1186 543l-2 -31h-951c7 -217 187 -387 402 -387c137 0 262 68 336 180l135 -57c-96 -166 -270 -268 -469 -268c-311 0 -553 245 -553 550c0 304 244 549 551 549c303 0 541 -233 551 -536zM635 934
c-185 0 -338 -121 -386 -293h769c-48 170 -197 293 -383 293z" />
    <glyph glyph-name="uni1EBF" unicode="&#x1ebf;" horiz-adv-x="1251" 
d="M940 1951l-232 -243h-131l263 321zM645 1478l-168 -227h-121l201 297h172l202 -297h-123zM1186 543l-2 -31h-951c7 -217 187 -387 402 -387c137 0 262 68 336 180l135 -57c-96 -166 -270 -268 -469 -268c-311 0 -553 245 -553 550c0 304 244 549 551 549
c303 0 541 -233 551 -536zM635 934c-185 0 -338 -121 -386 -293h769c-48 170 -197 293 -383 293z" />
    <glyph glyph-name="uni1EC7" unicode="&#x1ec7;" horiz-adv-x="1251" 
d="M645 1478l-168 -227h-121l201 297h172l202 -297h-123zM1186 543l-2 -31h-951c7 -217 187 -387 402 -387c137 0 262 68 336 180l135 -57c-96 -166 -270 -268 -469 -268c-311 0 -553 245 -553 550c0 304 244 549 551 549c303 0 541 -233 551 -536zM635 934
c-185 0 -338 -121 -386 -293h769c-48 170 -197 293 -383 293zM645 -283c61 0 115 -53 115 -114c0 -64 -54 -115 -115 -115s-115 51 -115 115c0 61 54 114 115 114z" />
    <glyph glyph-name="uni1EC1" unicode="&#x1ec1;" horiz-adv-x="1251" 
d="M708 1708h-131l-231 243l100 78zM356 1251l201 297h172l202 -297h-123l-163 227l-168 -227h-121zM1186 543l-2 -31h-951c7 -217 187 -387 402 -387c137 0 262 68 336 180l135 -57c-96 -166 -270 -268 -469 -268c-311 0 -553 245 -553 550c0 304 244 549 551 549
c303 0 541 -233 551 -536zM635 934c-185 0 -338 -121 -386 -293h769c-48 170 -197 293 -383 293z" />
    <glyph glyph-name="uni1EC3" unicode="&#x1ec3;" horiz-adv-x="1251" 
d="M635 1945c-35 0 -64 -12 -92 -31l-56 78c41 33 91 53 144 53c106 0 192 -75 192 -180c0 -71 -43 -137 -133 -164v-75h-92v129c76 16 123 49 123 110c0 45 -35 80 -86 80zM645 1478l-168 -227h-121l201 297h172l202 -297h-123zM1186 543l-2 -31h-951
c7 -217 187 -387 402 -387c137 0 262 68 336 180l135 -57c-96 -166 -270 -268 -469 -268c-311 0 -553 245 -553 550c0 304 244 549 551 549c303 0 541 -233 551 -536zM635 934c-185 0 -338 -121 -386 -293h769c-48 170 -197 293 -383 293z" />
    <glyph glyph-name="uni1EC5" unicode="&#x1ec5;" horiz-adv-x="1251" 
d="M500 1939c-72 0 -113 -70 -113 -162h-92c0 146 78 252 203 252c82 0 139 -45 180 -108c25 -39 57 -66 107 -66c69 0 112 59 112 162h90c0 -144 -73 -252 -202 -252c-86 0 -144 47 -183 108c-30 50 -61 66 -102 66zM557 1548h172l202 -297h-123l-163 227l-168 -227h-121z
M1186 543l-2 -31h-951c7 -217 187 -387 402 -387c137 0 262 68 336 180l135 -57c-96 -166 -270 -268 -469 -268c-311 0 -553 245 -553 550c0 304 244 549 551 549c303 0 541 -233 551 -536zM635 934c-185 0 -338 -121 -386 -293h769c-48 170 -197 293 -383 293z" />
    <glyph glyph-name="edieresis" unicode="&#xeb;" horiz-adv-x="1251" 
d="M457 1341c-61 0 -115 51 -115 113c0 65 54 114 115 114s115 -49 115 -114c0 -62 -54 -113 -115 -113zM834 1341c-62 0 -115 51 -115 113c0 65 53 114 115 114c63 0 114 -49 114 -114c0 -62 -51 -113 -114 -113zM1186 543l-2 -31h-951c7 -217 187 -387 402 -387
c137 0 262 68 336 180l135 -57c-96 -166 -270 -268 -469 -268c-311 0 -553 245 -553 550c0 304 244 549 551 549c303 0 541 -233 551 -536zM635 934c-185 0 -338 -121 -386 -293h769c-48 170 -197 293 -383 293z" />
    <glyph glyph-name="edotaccent" unicode="&#x117;" horiz-adv-x="1251" 
d="M645 1341c-61 0 -115 51 -115 113c0 65 54 114 115 114s115 -49 115 -114c0 -62 -54 -113 -115 -113zM1186 543l-2 -31h-951c7 -217 187 -387 402 -387c137 0 262 68 336 180l135 -57c-96 -166 -270 -268 -469 -268c-311 0 -553 245 -553 550c0 304 244 549 551 549
c303 0 541 -233 551 -536zM635 934c-185 0 -338 -121 -386 -293h769c-48 170 -197 293 -383 293z" />
    <glyph glyph-name="uni1EB9" unicode="&#x1eb9;" horiz-adv-x="1251" 
d="M1186 543l-2 -31h-951c7 -217 187 -387 402 -387c137 0 262 68 336 180l135 -57c-96 -166 -270 -268 -469 -268c-311 0 -553 245 -553 550c0 304 244 549 551 549c303 0 541 -233 551 -536zM635 934c-185 0 -338 -121 -386 -293h769c-48 170 -197 293 -383 293zM645 -283
c61 0 115 -53 115 -114c0 -64 -54 -115 -115 -115s-115 51 -115 115c0 61 54 114 115 114z" />
    <glyph glyph-name="egrave" unicode="&#xe8;" horiz-adv-x="1251" 
d="M710 1231h-131l-231 243l100 78zM1186 543l-2 -31h-951c7 -217 187 -387 402 -387c137 0 262 68 336 180l135 -57c-96 -166 -270 -268 -469 -268c-311 0 -553 245 -553 550c0 304 244 549 551 549c303 0 541 -233 551 -536zM635 934c-185 0 -338 -121 -386 -293h769
c-48 170 -197 293 -383 293z" />
    <glyph glyph-name="uni1EBB" unicode="&#x1ebb;" horiz-adv-x="1251" 
d="M637 1468c-35 0 -64 -12 -92 -31l-56 78c41 33 91 53 144 53c106 0 192 -75 192 -180c0 -71 -43 -137 -133 -164v-75h-92v129c76 16 123 49 123 110c0 45 -35 80 -86 80zM1186 543l-2 -31h-951c7 -217 187 -387 402 -387c137 0 262 68 336 180l135 -57
c-96 -166 -270 -268 -469 -268c-311 0 -553 245 -553 550c0 304 244 549 551 549c303 0 541 -233 551 -536zM635 934c-185 0 -338 -121 -386 -293h769c-48 170 -197 293 -383 293z" />
    <glyph glyph-name="emacron" unicode="&#x113;" horiz-adv-x="1251" 
d="M963 1374v-115h-635v115h635zM1186 543l-2 -31h-951c7 -217 187 -387 402 -387c137 0 262 68 336 180l135 -57c-96 -166 -270 -268 -469 -268c-311 0 -553 245 -553 550c0 304 244 549 551 549c303 0 541 -233 551 -536zM635 934c-185 0 -338 -121 -386 -293h769
c-48 170 -197 293 -383 293z" />
    <glyph glyph-name="eogonek" unicode="&#x119;" horiz-adv-x="1251" 
d="M1186 543l-2 -31h-951c7 -217 187 -387 402 -387c137 0 262 68 336 180l135 -57c-67 -116 -173 -201 -298 -242c-78 -56 -132 -128 -132 -207c0 -77 53 -110 119 -110c46 0 100 16 145 46v-161c-49 -19 -101 -27 -153 -24c-138 6 -230 81 -230 211c0 83 38 157 104 220
c-8 -1 -16 -1 -24 -1c-311 0 -553 245 -553 550c0 304 244 549 551 549c303 0 541 -233 551 -536zM635 934c-185 0 -338 -121 -386 -293h769c-48 170 -197 293 -383 293z" />
    <glyph glyph-name="uni1EBD" unicode="&#x1ebd;" horiz-adv-x="1251" 
d="M502 1462c-72 0 -113 -70 -113 -162h-92c0 146 78 252 203 252c82 0 139 -45 180 -108c25 -39 57 -66 107 -66c69 0 112 59 112 162h90c0 -144 -73 -252 -202 -252c-86 0 -144 47 -183 108c-30 50 -61 66 -102 66zM1186 543l-2 -31h-951c7 -217 187 -387 402 -387
c137 0 262 68 336 180l135 -57c-96 -166 -270 -268 -469 -268c-311 0 -553 245 -553 550c0 304 244 549 551 549c303 0 541 -233 551 -536zM635 934c-185 0 -338 -121 -386 -293h769c-48 170 -197 293 -383 293z" />
    <glyph glyph-name="f" unicode="f" horiz-adv-x="684" 
d="M537 1411c-99 0 -162 -65 -162 -184v-168h280v-144h-280v-915h-160v915h-178v144h178v186c0 191 119 311 297 311c45 0 92 -8 143 -22v-148c-43 17 -82 25 -118 25z" />
    <glyph glyph-name="g" unicode="g" horiz-adv-x="1331" 
d="M637 -498c-195 0 -391 74 -502 291l129 90c78 -170 217 -225 369 -225c250 0 362 147 362 346v189c-82 -111 -211 -181 -377 -181c-303 0 -536 238 -536 535s233 532 536 532c166 0 293 -69 377 -180v160h162v-1055c0 -278 -180 -502 -520 -502zM618 168
c209 0 379 170 379 379s-170 379 -379 379c-208 0 -376 -170 -376 -379s168 -379 376 -379z" />
    <glyph glyph-name="gbreve" unicode="&#x11f;" horiz-adv-x="1331" 
d="M618 1221c-194 0 -337 120 -337 315h104c0 -135 98 -229 233 -229c138 0 236 94 236 229h104c0 -195 -143 -315 -340 -315zM637 -498c-195 0 -391 74 -502 291l129 90c78 -170 217 -225 369 -225c250 0 362 147 362 346v189c-82 -111 -211 -181 -377 -181
c-303 0 -536 238 -536 535s233 532 536 532c166 0 293 -69 377 -180v160h162v-1055c0 -278 -180 -502 -520 -502zM618 168c209 0 379 170 379 379s-170 379 -379 379c-208 0 -376 -170 -376 -379s168 -379 376 -379z" />
    <glyph glyph-name="gcommaaccent" unicode="&#x123;" horiz-adv-x="1331" 
d="M642 1538h124l-100 -306h-192zM637 -498c-195 0 -391 74 -502 291l129 90c78 -170 217 -225 369 -225c250 0 362 147 362 346v189c-82 -111 -211 -181 -377 -181c-303 0 -536 238 -536 535s233 532 536 532c166 0 293 -69 377 -180v160h162v-1055
c0 -278 -180 -502 -520 -502zM618 168c209 0 379 170 379 379s-170 379 -379 379c-208 0 -376 -170 -376 -379s168 -379 376 -379z" />
    <glyph glyph-name="gdotaccent" unicode="&#x121;" horiz-adv-x="1331" 
d="M621 1329c-61 0 -115 51 -115 113c0 65 54 114 115 114s115 -49 115 -114c0 -62 -54 -113 -115 -113zM637 -498c-195 0 -391 74 -502 291l129 90c78 -170 217 -225 369 -225c250 0 362 147 362 346v189c-82 -111 -211 -181 -377 -181c-303 0 -536 238 -536 535
s233 532 536 532c166 0 293 -69 377 -180v160h162v-1055c0 -278 -180 -502 -520 -502zM618 168c209 0 379 170 379 379s-170 379 -379 379c-208 0 -376 -170 -376 -379s168 -379 376 -379z" />
    <glyph glyph-name="h" unicode="h" horiz-adv-x="1210" 
d="M641 1079c236 0 424 -151 424 -465v-614h-150v602c0 240 -131 330 -294 330c-164 0 -293 -108 -295 -320v-612h-152v1536h152v-628c66 111 176 171 315 171z" />
    <glyph glyph-name="hbar" unicode="&#x127;" horiz-adv-x="1210" 
d="M641 1079c236 0 424 -151 424 -465v-614h-150v602c0 240 -131 330 -294 330c-164 0 -293 -108 -295 -320v-612h-152v1252h-135v119h135v165h152v-165h315v-119h-315v-344c66 111 176 171 315 171z" />
    <glyph glyph-name="i" unicode="i" horiz-adv-x="508" 
d="M254 1329c-61 0 -115 51 -115 113c0 65 54 114 115 114s115 -49 115 -114c0 -62 -54 -113 -115 -113zM174 0v1059h160v-1059h-160z" />
    <glyph glyph-name="dotlessi" unicode="&#x131;" horiz-adv-x="508" 
d="M174 0v1059h160v-1059h-160z" />
    <glyph glyph-name="iacute" unicode="&#xed;" horiz-adv-x="508" 
d="M188 1219l263 321l100 -78l-232 -243h-131zM174 0v1059h160v-1059h-160z" />
    <glyph glyph-name="uni01D0" unicode="&#x1d0;" horiz-adv-x="508" 
d="M166 1239l-201 297h121l168 -227l163 227h123l-202 -297h-172zM174 0v1059h160v-1059h-160z" />
    <glyph glyph-name="icircumflex" unicode="&#xee;" horiz-adv-x="508" 
d="M86 1239h-121l201 297h172l202 -297h-123l-163 227zM174 0v1059h160v-1059h-160z" />
    <glyph glyph-name="idieresis" unicode="&#xef;" horiz-adv-x="508" 
d="M66 1329c-61 0 -115 51 -115 113c0 65 54 114 115 114s115 -49 115 -114c0 -62 -54 -113 -115 -113zM443 1329c-62 0 -115 51 -115 113c0 65 53 114 115 114c63 0 114 -49 114 -114c0 -62 -51 -113 -114 -113zM174 0v1059h160v-1059h-160z" />
    <glyph glyph-name="i.loclTRK" horiz-adv-x="508" 
d="M254 1329c-61 0 -115 51 -115 113c0 65 54 114 115 114s115 -49 115 -114c0 -62 -54 -113 -115 -113zM174 0v1059h160v-1059h-160z" />
    <glyph glyph-name="uni1ECB" unicode="&#x1ecb;" horiz-adv-x="508" 
d="M254 1329c-61 0 -115 51 -115 113c0 65 54 114 115 114s115 -49 115 -114c0 -62 -54 -113 -115 -113zM174 0v1059h160v-1059h-160zM254 -512c-61 0 -115 51 -115 115c0 61 54 114 115 114s115 -53 115 -114c0 -64 -54 -115 -115 -115z" />
    <glyph glyph-name="igrave" unicode="&#xec;" horiz-adv-x="508" 
d="M188 1219l-231 243l100 78l262 -321h-131zM174 0v1059h160v-1059h-160z" />
    <glyph glyph-name="uni1EC9" unicode="&#x1ec9;" horiz-adv-x="508" 
d="M209 1137v129c76 16 123 49 123 110c0 45 -35 80 -86 80c-35 0 -64 -12 -92 -31l-56 78c41 33 91 53 144 53c106 0 192 -75 192 -180c0 -71 -43 -137 -133 -164v-75h-92zM174 0v1059h160v-1059h-160z" />
    <glyph glyph-name="imacron" unicode="&#x12b;" horiz-adv-x="508" 
d="M-63 1247v115h635v-115h-635zM174 0v1059h160v-1059h-160z" />
    <glyph glyph-name="iogonek" unicode="&#x12f;" horiz-adv-x="508" 
d="M254 1556c61 0 115 -49 115 -114c0 -62 -54 -113 -115 -113s-115 51 -115 113c0 65 54 114 115 114zM174 0v1059h160v-1059c-141 -59 -264 -162 -264 -281c0 -77 53 -110 119 -110c46 0 100 16 145 46v-161c-49 -19 -101 -27 -153 -24c-138 6 -230 81 -230 211
c0 132 95 240 251 319h-28z" />
    <glyph glyph-name="itilde" unicode="&#x129;" horiz-adv-x="508" 
d="M396 1276c-86 0 -144 47 -183 108c-30 50 -61 66 -102 66c-72 0 -113 -70 -113 -162h-92c0 146 78 252 203 252c82 0 139 -45 180 -108c25 -39 57 -66 107 -66c69 0 112 59 112 162h90c0 -144 -73 -252 -202 -252zM174 0v1059h160v-1059h-160z" />
    <glyph glyph-name="j" unicode="j" horiz-adv-x="508" 
d="M254 1329c-61 0 -115 51 -115 113c0 65 54 114 115 114s115 -49 115 -114c0 -62 -54 -113 -115 -113zM-186 -498v156c245 0 360 147 360 346v1055h160v-1055c0 -278 -180 -502 -520 -502z" />
    <glyph glyph-name="uni0237" unicode="&#x237;" horiz-adv-x="508" 
d="M-186 -498v156c245 0 360 147 360 346v1055h160v-1055c0 -278 -180 -502 -520 -502z" />
    <glyph glyph-name="k" unicode="k" horiz-adv-x="1081" 
d="M1067 0h-217l-516 549v-549h-160v1536h160v-943l436 466h217l-469 -480z" />
    <glyph glyph-name="kcommaaccent" unicode="&#x137;" horiz-adv-x="1081" 
d="M518 579l549 -579h-217l-516 549v-549h-160v1536h160v-943l436 466h217zM287 -545l164 381h168l-240 -418z" />
    <glyph glyph-name="l" unicode="l" horiz-adv-x="508" 
d="M174 0v1536h160v-1536h-160z" />
    <glyph glyph-name="lacute" unicode="&#x13a;" horiz-adv-x="508" 
d="M188 1696l263 321l100 -78l-232 -243h-131zM174 0v1536h160v-1536h-160z" />
    <glyph glyph-name="lcaron" unicode="&#x13e;" horiz-adv-x="643" 
d="M575 910h-124l100 627h192zM174 0v1536h160v-1536h-160z" />
    <glyph glyph-name="lcommaaccent" unicode="&#x13c;" horiz-adv-x="508" 
d="M174 0v1536h160v-1536h-160zM98 -582l-92 37l164 381h168z" />
    <glyph glyph-name="lslash" unicode="&#x142;" horiz-adv-x="508" 
d="M543 1059v-154l-209 -156v-749h-160v630l-210 -157v154l210 157v752h160v-633z" />
    <glyph glyph-name="m" unicode="m" horiz-adv-x="1739" 
d="M1223 1079c215 0 364 -155 364 -358v-721h-160v657c0 201 -106 267 -227 267c-137 0 -239 -86 -239 -269v-655h-160v657c0 201 -107 267 -228 267c-139 0 -239 -86 -239 -269v-655h-160v1059h160v-147c59 106 160 167 295 167c122 0 231 -49 289 -165
c64 106 172 165 305 165z" />
    <glyph glyph-name="n" unicode="n" horiz-adv-x="1219" 
d="M649 1079c236 0 424 -151 424 -465v-614h-160v602c0 240 -120 330 -284 330s-293 -108 -295 -320v-612h-160v1059h160v-151c66 111 176 171 315 171z" />
    <glyph glyph-name="nacute" unicode="&#x144;" horiz-adv-x="1219" 
d="M909 1462l-232 -243h-131l263 321zM649 1079c236 0 424 -151 424 -465v-614h-160v602c0 240 -120 330 -284 330s-293 -108 -295 -320v-612h-160v1059h160v-151c66 111 176 171 315 171z" />
    <glyph glyph-name="ncaron" unicode="&#x148;" horiz-adv-x="1219" 
d="M696 1239h-172l-201 297h121l168 -227l163 227h123zM649 1079c236 0 424 -151 424 -465v-614h-160v602c0 240 -120 330 -284 330s-293 -108 -295 -320v-612h-160v1059h160v-151c66 111 176 171 315 171z" />
    <glyph glyph-name="ncommaaccent" unicode="&#x146;" horiz-adv-x="1219" 
d="M649 1079c236 0 424 -151 424 -465v-614h-160v602c0 240 -120 330 -284 330s-293 -108 -295 -320v-612h-160v1059h160v-151c66 111 176 171 315 171zM364 -545l164 381h168l-240 -418z" />
    <glyph glyph-name="eng" unicode="&#x14b;" horiz-adv-x="1219" 
d="M649 1079c236 0 424 -151 424 -465v-800c0 -191 -119 -311 -301 -311c-55 0 -113 -1 -139 -1v129h121c94 0 159 72 159 181v790c0 240 -120 330 -284 330s-293 -108 -295 -320v-612h-160v1059h160v-118c78 90 190 138 315 138z" />
    <glyph glyph-name="ntilde" unicode="&#xf1;" horiz-adv-x="1219" 
d="M469 1450c-72 0 -113 -70 -113 -162h-92c0 146 78 252 203 252c82 0 139 -45 180 -108c25 -39 57 -66 107 -66c69 0 112 59 112 162h90c0 -144 -73 -252 -202 -252c-86 0 -144 47 -183 108c-30 50 -61 66 -102 66zM649 1079c236 0 424 -151 424 -465v-614h-160v602
c0 240 -120 330 -284 330s-293 -108 -295 -320v-612h-160v1059h160v-151c66 111 176 171 315 171z" />
    <glyph glyph-name="o" unicode="o" horiz-adv-x="1274" 
d="M637 -20c-307 0 -553 245 -553 550c0 304 246 549 553 549s553 -245 553 -549c0 -305 -246 -550 -553 -550zM637 135c217 0 393 176 393 395c0 218 -176 394 -393 394c-219 0 -393 -176 -393 -394c0 -219 174 -395 393 -395z" />
    <glyph glyph-name="oacute" unicode="&#xf3;" horiz-adv-x="1274" 
d="M571 1219l263 321l100 -78l-232 -243h-131zM637 -20c-307 0 -553 245 -553 550c0 304 246 549 553 549s553 -245 553 -549c0 -305 -246 -550 -553 -550zM637 135c217 0 393 176 393 395c0 218 -176 394 -393 394c-219 0 -393 -176 -393 -394c0 -219 174 -395 393 -395z
" />
    <glyph glyph-name="uni01D2" unicode="&#x1d2;" horiz-adv-x="1274" 
d="M549 1239l-201 297h121l168 -227l163 227h123l-202 -297h-172zM637 -20c-307 0 -553 245 -553 550c0 304 246 549 553 549s553 -245 553 -549c0 -305 -246 -550 -553 -550zM637 135c217 0 393 176 393 395c0 218 -176 394 -393 394c-219 0 -393 -176 -393 -394
c0 -219 174 -395 393 -395z" />
    <glyph glyph-name="ocircumflex" unicode="&#xf4;" horiz-adv-x="1274" 
d="M469 1239h-121l201 297h172l202 -297h-123l-163 227zM637 -20c-307 0 -553 245 -553 550c0 304 246 549 553 549s553 -245 553 -549c0 -305 -246 -550 -553 -550zM637 135c217 0 393 176 393 395c0 218 -176 394 -393 394c-219 0 -393 -176 -393 -394
c0 -219 174 -395 393 -395z" />
    <glyph glyph-name="uni1ED1" unicode="&#x1ed1;" horiz-adv-x="1274" 
d="M569 1696l263 321l100 -78l-232 -243h-131zM469 1239h-121l201 297h172l202 -297h-123l-163 227zM637 -20c-307 0 -553 245 -553 550c0 304 246 549 553 549s553 -245 553 -549c0 -305 -246 -550 -553 -550zM637 135c217 0 393 176 393 395c0 218 -176 394 -393 394
c-219 0 -393 -176 -393 -394c0 -219 174 -395 393 -395z" />
    <glyph glyph-name="uni1ED9" unicode="&#x1ed9;" horiz-adv-x="1274" 
d="M469 1239h-121l201 297h172l202 -297h-123l-163 227zM637 -20c-307 0 -553 245 -553 550c0 304 246 549 553 549s553 -245 553 -549c0 -305 -246 -550 -553 -550zM637 135c217 0 393 176 393 395c0 218 -176 394 -393 394c-219 0 -393 -176 -393 -394
c0 -219 174 -395 393 -395zM637 -512c-61 0 -115 51 -115 115c0 61 54 114 115 114s115 -53 115 -114c0 -64 -54 -115 -115 -115z" />
    <glyph glyph-name="uni1ED3" unicode="&#x1ed3;" horiz-adv-x="1274" 
d="M569 1696l-231 243l100 78l262 -321h-131zM469 1239h-121l201 297h172l202 -297h-123l-163 227zM637 -20c-307 0 -553 245 -553 550c0 304 246 549 553 549s553 -245 553 -549c0 -305 -246 -550 -553 -550zM637 135c217 0 393 176 393 395c0 218 -176 394 -393 394
c-219 0 -393 -176 -393 -394c0 -219 174 -395 393 -395z" />
    <glyph glyph-name="uni1ED5" unicode="&#x1ed5;" horiz-adv-x="1274" 
d="M590 1614v129c76 16 123 49 123 110c0 45 -35 80 -86 80c-35 0 -64 -12 -92 -31l-56 78c41 33 91 53 144 53c106 0 192 -75 192 -180c0 -71 -43 -137 -133 -164v-75h-92zM469 1239h-121l201 297h172l202 -297h-123l-163 227zM637 -20c-307 0 -553 245 -553 550
c0 304 246 549 553 549s553 -245 553 -549c0 -305 -246 -550 -553 -550zM637 135c217 0 393 176 393 395c0 218 -176 394 -393 394c-219 0 -393 -176 -393 -394c0 -219 174 -395 393 -395z" />
    <glyph glyph-name="uni1ED7" unicode="&#x1ed7;" horiz-adv-x="1274" 
d="M777 1753c-86 0 -144 47 -183 108c-30 50 -61 66 -102 66c-72 0 -113 -70 -113 -162h-92c0 146 78 252 203 252c82 0 139 -45 180 -108c25 -39 57 -66 107 -66c69 0 112 59 112 162h90c0 -144 -73 -252 -202 -252zM469 1239h-121l201 297h172l202 -297h-123l-163 227z
M637 -20c-307 0 -553 245 -553 550c0 304 246 549 553 549s553 -245 553 -549c0 -305 -246 -550 -553 -550zM637 135c217 0 393 176 393 395c0 218 -176 394 -393 394c-219 0 -393 -176 -393 -394c0 -219 174 -395 393 -395z" />
    <glyph glyph-name="odieresis" unicode="&#xf6;" horiz-adv-x="1274" 
d="M449 1329c-61 0 -115 51 -115 113c0 65 54 114 115 114s115 -49 115 -114c0 -62 -54 -113 -115 -113zM826 1329c-62 0 -115 51 -115 113c0 65 53 114 115 114c63 0 114 -49 114 -114c0 -62 -51 -113 -114 -113zM637 -20c-307 0 -553 245 -553 550c0 304 246 549 553 549
s553 -245 553 -549c0 -305 -246 -550 -553 -550zM637 135c217 0 393 176 393 395c0 218 -176 394 -393 394c-219 0 -393 -176 -393 -394c0 -219 174 -395 393 -395z" />
    <glyph glyph-name="uni1ECD" unicode="&#x1ecd;" horiz-adv-x="1274" 
d="M637 -20c-307 0 -553 245 -553 550c0 304 246 549 553 549s553 -245 553 -549c0 -305 -246 -550 -553 -550zM637 135c217 0 393 176 393 395c0 218 -176 394 -393 394c-219 0 -393 -176 -393 -394c0 -219 174 -395 393 -395zM637 -512c-61 0 -115 51 -115 115
c0 61 54 114 115 114s115 -53 115 -114c0 -64 -54 -115 -115 -115z" />
    <glyph glyph-name="ograve" unicode="&#xf2;" horiz-adv-x="1274" 
d="M571 1219l-231 243l100 78l262 -321h-131zM637 -20c-307 0 -553 245 -553 550c0 304 246 549 553 549s553 -245 553 -549c0 -305 -246 -550 -553 -550zM637 135c217 0 393 176 393 395c0 218 -176 394 -393 394c-219 0 -393 -176 -393 -394c0 -219 174 -395 393 -395z
" />
    <glyph glyph-name="uni1ECF" unicode="&#x1ecf;" horiz-adv-x="1274" 
d="M592 1137v129c76 16 123 49 123 110c0 45 -35 80 -86 80c-35 0 -64 -12 -92 -31l-56 78c41 33 91 53 144 53c106 0 192 -75 192 -180c0 -71 -43 -137 -133 -164v-75h-92zM637 -20c-307 0 -553 245 -553 550c0 304 246 549 553 549s553 -245 553 -549
c0 -305 -246 -550 -553 -550zM637 135c217 0 393 176 393 395c0 218 -176 394 -393 394c-219 0 -393 -176 -393 -394c0 -219 174 -395 393 -395z" />
    <glyph glyph-name="ohorn" unicode="&#x1a1;" horiz-adv-x="1274" 
d="M1141 1250h141v-125c0 -184 -98 -250 -197 -250c-6 0 -12 0 -18 1c77 -95 123 -215 123 -346c0 -305 -246 -550 -553 -550s-553 245 -553 550c0 304 246 549 553 549c124 0 238 -40 330 -108c31 -14 57 -18 75 -18c76 0 99 82 99 133v164zM637 135c217 0 393 176 393 395
c0 218 -176 394 -393 394c-219 0 -393 -176 -393 -394c0 -219 174 -395 393 -395z" />
    <glyph glyph-name="uni1EDB" unicode="&#x1edb;" horiz-adv-x="1274" 
d="M934 1462l-232 -243h-131l263 321zM1141 1250h141v-125c0 -184 -98 -250 -197 -250c-6 0 -12 0 -18 1c77 -95 123 -215 123 -346c0 -305 -246 -550 -553 -550s-553 245 -553 550c0 304 246 549 553 549c124 0 238 -40 330 -108c31 -14 57 -18 75 -18c76 0 99 82 99 133
v164zM637 135c217 0 393 176 393 395c0 218 -176 394 -393 394c-219 0 -393 -176 -393 -394c0 -219 174 -395 393 -395z" />
    <glyph glyph-name="uni1EE3" unicode="&#x1ee3;" horiz-adv-x="1274" 
d="M1141 1250h141v-125c0 -184 -98 -250 -197 -250c-6 0 -12 0 -18 1c77 -95 123 -215 123 -346c0 -305 -246 -550 -553 -550s-553 245 -553 550c0 304 246 549 553 549c124 0 238 -40 330 -108c31 -14 57 -18 75 -18c76 0 99 82 99 133v164zM637 135c217 0 393 176 393 395
c0 218 -176 394 -393 394c-219 0 -393 -176 -393 -394c0 -219 174 -395 393 -395zM637 -283c61 0 115 -53 115 -114c0 -64 -54 -115 -115 -115s-115 51 -115 115c0 61 54 114 115 114z" />
    <glyph glyph-name="uni1EDD" unicode="&#x1edd;" horiz-adv-x="1274" 
d="M702 1219h-131l-231 243l100 78zM1141 1250h141v-125c0 -184 -98 -250 -197 -250c-6 0 -12 0 -18 1c77 -95 123 -215 123 -346c0 -305 -246 -550 -553 -550s-553 245 -553 550c0 304 246 549 553 549c124 0 238 -40 330 -108c31 -14 57 -18 75 -18c76 0 99 82 99 133v164
zM637 135c217 0 393 176 393 395c0 218 -176 394 -393 394c-219 0 -393 -176 -393 -394c0 -219 174 -395 393 -395z" />
    <glyph glyph-name="uni1EDF" unicode="&#x1edf;" horiz-adv-x="1274" 
d="M629 1456c-35 0 -64 -12 -92 -31l-56 78c41 33 91 53 144 53c106 0 192 -75 192 -180c0 -71 -43 -137 -133 -164v-75h-92v129c76 16 123 49 123 110c0 45 -35 80 -86 80zM1141 1250h141v-125c0 -184 -98 -250 -197 -250c-6 0 -12 0 -18 1c77 -95 123 -215 123 -346
c0 -305 -246 -550 -553 -550s-553 245 -553 550c0 304 246 549 553 549c124 0 238 -40 330 -108c31 -14 57 -18 75 -18c76 0 99 82 99 133v164zM637 135c217 0 393 176 393 395c0 218 -176 394 -393 394c-219 0 -393 -176 -393 -394c0 -219 174 -395 393 -395z" />
    <glyph glyph-name="uni1EE1" unicode="&#x1ee1;" horiz-adv-x="1274" 
d="M494 1450c-72 0 -113 -70 -113 -162h-92c0 146 78 252 203 252c82 0 139 -45 180 -108c25 -39 57 -66 107 -66c69 0 112 59 112 162h90c0 -144 -73 -252 -202 -252c-86 0 -144 47 -183 108c-30 50 -61 66 -102 66zM1141 1250h141v-125c0 -184 -98 -250 -197 -250
c-6 0 -12 0 -18 1c77 -95 123 -215 123 -346c0 -305 -246 -550 -553 -550s-553 245 -553 550c0 304 246 549 553 549c124 0 238 -40 330 -108c31 -14 57 -18 75 -18c76 0 99 82 99 133v164zM637 135c217 0 393 176 393 395c0 218 -176 394 -393 394
c-219 0 -393 -176 -393 -394c0 -219 174 -395 393 -395z" />
    <glyph glyph-name="ohungarumlaut" unicode="&#x151;" horiz-adv-x="1274" 
d="M397 1219l262 321l101 -78l-232 -243h-131zM746 1219l262 321l100 -78l-231 -243h-131zM637 -20c-307 0 -553 245 -553 550c0 304 246 549 553 549s553 -245 553 -549c0 -305 -246 -550 -553 -550zM637 135c217 0 393 176 393 395c0 218 -176 394 -393 394
c-219 0 -393 -176 -393 -394c0 -219 174 -395 393 -395z" />
    <glyph glyph-name="omacron" unicode="&#x14d;" horiz-adv-x="1274" 
d="M320 1247v115h635v-115h-635zM637 -20c-307 0 -553 245 -553 550c0 304 246 549 553 549s553 -245 553 -549c0 -305 -246 -550 -553 -550zM637 135c217 0 393 176 393 395c0 218 -176 394 -393 394c-219 0 -393 -176 -393 -394c0 -219 174 -395 393 -395z" />
    <glyph glyph-name="oslash" unicode="&#xf8;" horiz-adv-x="1274" 
d="M1004 942c114 -101 186 -248 186 -412c0 -305 -246 -550 -553 -550c-94 0 -182 23 -260 64l-76 -110l-111 68l81 115c-115 101 -187 248 -187 413c0 304 246 549 553 549c95 0 184 -23 261 -65l77 110l108 -68zM244 530c0 -111 45 -211 118 -283l446 638
c-52 25 -110 39 -171 39c-219 0 -393 -176 -393 -394zM637 135c217 0 393 176 393 395c0 110 -45 210 -118 281l-444 -638c51 -24 108 -38 169 -38z" />
    <glyph glyph-name="otilde" unicode="&#xf5;" horiz-adv-x="1274" 
d="M779 1276c-86 0 -144 47 -183 108c-30 50 -61 66 -102 66c-72 0 -113 -70 -113 -162h-92c0 146 78 252 203 252c82 0 139 -45 180 -108c25 -39 57 -66 107 -66c69 0 112 59 112 162h90c0 -144 -73 -252 -202 -252zM637 -20c-307 0 -553 245 -553 550
c0 304 246 549 553 549s553 -245 553 -549c0 -305 -246 -550 -553 -550zM637 135c217 0 393 176 393 395c0 218 -176 394 -393 394c-219 0 -393 -176 -393 -394c0 -219 174 -395 393 -395z" />
    <glyph glyph-name="oe" unicode="&#x153;" horiz-adv-x="2202" 
d="M2134 512h-944l-3 -43c27 -196 197 -344 398 -344c137 0 262 68 336 180l135 -57c-96 -166 -270 -268 -469 -268c-205 0 -380 106 -475 266c-97 -160 -273 -266 -475 -266c-307 0 -553 245 -553 550c0 304 246 549 553 549c202 0 378 -107 475 -266
c95 159 271 266 473 266c303 0 541 -233 551 -536zM1585 934c-185 0 -338 -121 -386 -293h769c-48 170 -197 293 -383 293zM637 135c217 0 393 176 393 395c0 218 -176 394 -393 394c-219 0 -393 -176 -393 -394c0 -219 174 -395 393 -395z" />
    <glyph glyph-name="p" unicode="p" horiz-adv-x="1364" 
d="M174 -498v1557h160v-174c92 119 235 194 414 194c286 0 532 -245 532 -549c0 -305 -246 -550 -532 -550c-179 0 -322 75 -414 194v-672h-160zM727 135c217 0 393 176 393 395c0 218 -176 394 -393 394c-219 0 -393 -176 -393 -394c0 -219 174 -395 393 -395z" />
    <glyph glyph-name="thorn" unicode="&#xfe;" horiz-adv-x="1366" 
d="M176 -498v2034h160v-651c92 119 235 194 414 194c286 0 532 -245 532 -549c0 -305 -246 -550 -532 -550c-179 0 -322 75 -414 194v-672h-160zM729 135c217 0 393 176 393 395c0 218 -176 394 -393 394c-219 0 -393 -176 -393 -394c0 -219 174 -395 393 -395z" />
    <glyph glyph-name="q" unicode="q" horiz-adv-x="1364" 
d="M1190 -498h-160v672c-92 -119 -235 -194 -414 -194c-286 0 -532 245 -532 550c0 304 246 549 532 549c179 0 322 -75 414 -194v174h160v-1557zM637 135c219 0 393 176 393 395c0 218 -174 394 -393 394c-217 0 -393 -176 -393 -394c0 -219 176 -395 393 -395z" />
    <glyph glyph-name="r" unicode="r" horiz-adv-x="733" 
d="M334 888c70 114 199 181 371 181v-154c-211 0 -371 -77 -371 -335v-580h-160v1059h160v-171z" />
    <glyph glyph-name="racute" unicode="&#x155;" horiz-adv-x="733" 
d="M664 1462l-232 -243h-131l263 321zM334 888c70 114 199 181 371 181v-154c-211 0 -371 -77 -371 -335v-580h-160v1059h160v-171z" />
    <glyph glyph-name="rcaron" unicode="&#x159;" horiz-adv-x="733" 
d="M451 1239h-172l-201 297h121l168 -227l163 227h123zM334 888c70 114 199 181 371 181v-154c-211 0 -371 -77 -371 -335v-580h-160v1059h160v-171z" />
    <glyph glyph-name="rcommaaccent" unicode="&#x157;" horiz-adv-x="733" 
d="M334 888c70 114 199 181 371 181v-154c-211 0 -371 -77 -371 -335v-580h-160v1059h160v-171zM14 -545l164 381h168l-240 -418z" />
    <glyph glyph-name="s" unicode="s" horiz-adv-x="936" 
d="M467 -20c-178 0 -313 71 -401 141l92 135c73 -68 190 -125 315 -125c129 0 215 59 215 164c0 111 -110 143 -237 180c-158 47 -334 96 -334 301c0 199 174 303 372 303c123 0 242 -39 336 -106l-96 -127c-88 65 -176 88 -254 88c-117 0 -201 -51 -201 -143
c0 -109 132 -140 267 -179c149 -43 311 -102 311 -307c0 -207 -158 -325 -385 -325z" />
    <glyph glyph-name="sacute" unicode="&#x15b;" horiz-adv-x="936" 
d="M407 1219l263 321l100 -78l-232 -243h-131zM467 -20c-178 0 -313 71 -401 141l92 135c73 -68 190 -125 315 -125c129 0 215 59 215 164c0 111 -110 143 -237 180c-158 47 -334 96 -334 301c0 199 174 303 372 303c123 0 242 -39 336 -106l-96 -127
c-88 65 -176 88 -254 88c-117 0 -201 -51 -201 -143c0 -109 132 -140 267 -179c149 -43 311 -102 311 -307c0 -207 -158 -325 -385 -325z" />
    <glyph glyph-name="scaron" unicode="&#x161;" horiz-adv-x="936" 
d="M385 1239l-201 297h121l168 -227l163 227h123l-202 -297h-172zM467 -20c-178 0 -313 71 -401 141l92 135c73 -68 190 -125 315 -125c129 0 215 59 215 164c0 111 -110 143 -237 180c-158 47 -334 96 -334 301c0 199 174 303 372 303c123 0 242 -39 336 -106l-96 -127
c-88 65 -176 88 -254 88c-117 0 -201 -51 -201 -143c0 -109 132 -140 267 -179c149 -43 311 -102 311 -307c0 -207 -158 -325 -385 -325z" />
    <glyph glyph-name="scedilla" unicode="&#x15f;" horiz-adv-x="936" 
d="M852 305c0 -191 -134 -306 -332 -323l-56 -117c19 4 37 6 54 6c114 0 198 -78 198 -190c0 -119 -92 -213 -211 -213c-94 0 -198 59 -237 135l92 37c29 -41 94 -72 145 -72c62 0 111 49 111 113c0 67 -47 106 -115 106c-24 0 -53 -6 -84 -18l-79 51l81 162
c-154 11 -273 75 -353 139l92 135c73 -68 190 -125 315 -125c129 0 215 59 215 164c0 111 -110 143 -237 180c-158 47 -334 96 -334 301c0 199 174 303 372 303c123 0 242 -39 336 -106l-96 -127c-88 65 -176 88 -254 88c-117 0 -201 -51 -201 -143
c0 -109 132 -140 267 -179c149 -43 311 -102 311 -307z" />
    <glyph glyph-name="scommaaccent" unicode="&#x219;" horiz-adv-x="936" 
d="M467 -20c-178 0 -313 71 -401 141l92 135c73 -68 190 -125 315 -125c129 0 215 59 215 164c0 111 -110 143 -237 180c-158 47 -334 96 -334 301c0 199 174 303 372 303c123 0 242 -39 336 -106l-96 -127c-88 65 -176 88 -254 88c-117 0 -201 -51 -201 -143
c0 -109 132 -140 267 -179c149 -43 311 -102 311 -307c0 -207 -158 -325 -385 -325zM323 -582l-92 37l164 381h168z" />
    <glyph glyph-name="germandbls" unicode="&#xdf;" horiz-adv-x="1274" 
d="M938 796c149 -70 250 -216 250 -393c0 -237 -178 -405 -393 -403h-195v154h166c137 0 260 77 260 258c0 163 -129 293 -289 293h-96v135h29c155 0 278 131 278 295c0 165 -123 278 -299 278c-180 0 -315 -119 -315 -405v-1008h-160v1008c0 372 205 548 473 548
c264 0 455 -174 455 -417c0 -141 -64 -264 -164 -343z" />
    <glyph glyph-name="t" unicode="t" horiz-adv-x="727" 
d="M653 915h-280v-606c0 -108 65 -170 159 -170h121v-139h-139c-176 0 -301 100 -301 291v624h-178v144h178v293h160v-293h280v-144z" />
    <glyph glyph-name="tbar" unicode="&#x167;" horiz-adv-x="817" 
d="M700 915h-280v-325h264v-119h-264v-162c0 -108 65 -170 160 -170h120v-139h-139c-176 0 -301 100 -301 291v180h-178v119h178v325h-178v144h178v293h160v-293h280v-144z" />
    <glyph glyph-name="tcaron" unicode="&#x165;" horiz-adv-x="729" 
d="M629 1841h192l-168 -627h-125zM373 1352v-293h280v-144h-280v-606c0 -108 65 -170 159 -170h121v-139h-139c-176 0 -301 100 -301 291v624h-178v144h178v293h160z" />
    <glyph glyph-name="uni0163" unicode="&#x163;" horiz-adv-x="727" 
d="M571 -129c114 0 198 -78 198 -190c0 -119 -92 -213 -211 -213c-94 0 -198 59 -237 135l92 37c29 -41 94 -72 145 -72c62 0 111 49 111 113c0 67 -47 106 -115 106c-24 0 -53 -6 -84 -18l-79 51l91 181c-159 12 -269 111 -269 290v624h-178v144h178v293h160v-293h280v-144
h-280v-606c0 -108 65 -170 159 -170h121v-139h-72l-64 -135c19 4 37 6 54 6z" />
    <glyph glyph-name="uni021B" unicode="&#x21b;" horiz-adv-x="727" 
d="M653 915h-280v-606c0 -108 65 -170 159 -170h121v-139h-139c-176 0 -301 100 -301 291v624h-178v144h178v293h160v-293h280v-144zM284 -545l164 381h168l-240 -418z" />
    <glyph glyph-name="u" unicode="u" horiz-adv-x="1143" 
d="M571 -20c-249 0 -421 139 -421 380v699h155v-694c0 -158 115 -230 266 -230c154 0 267 72 267 230v694h155v-699c0 -241 -172 -380 -422 -380z" />
    <glyph glyph-name="uacute" unicode="&#xfa;" horiz-adv-x="1143" 
d="M505 1219l263 321l100 -78l-232 -243h-131zM571 -20c-249 0 -421 139 -421 380v699h155v-694c0 -158 115 -230 266 -230c154 0 267 72 267 230v694h155v-699c0 -241 -172 -380 -422 -380z" />
    <glyph glyph-name="uni01D4" unicode="&#x1d4;" horiz-adv-x="1143" 
d="M483 1239l-201 297h121l168 -227l163 227h123l-202 -297h-172zM571 -20c-249 0 -421 139 -421 380v699h155v-694c0 -158 115 -230 266 -230c154 0 267 72 267 230v694h155v-699c0 -241 -172 -380 -422 -380z" />
    <glyph glyph-name="ucircumflex" unicode="&#xfb;" horiz-adv-x="1143" 
d="M403 1239h-121l201 297h172l202 -297h-123l-163 227zM571 -20c-249 0 -421 139 -421 380v699h155v-694c0 -158 115 -230 266 -230c154 0 267 72 267 230v694h155v-699c0 -241 -172 -380 -422 -380z" />
    <glyph glyph-name="udieresis" unicode="&#xfc;" horiz-adv-x="1143" 
d="M383 1329c-61 0 -115 51 -115 113c0 65 54 114 115 114s115 -49 115 -114c0 -62 -54 -113 -115 -113zM760 1329c-62 0 -115 51 -115 113c0 65 53 114 115 114c63 0 114 -49 114 -114c0 -62 -51 -113 -114 -113zM571 -20c-249 0 -421 139 -421 380v699h155v-694
c0 -158 115 -230 266 -230c154 0 267 72 267 230v694h155v-699c0 -241 -172 -380 -422 -380z" />
    <glyph glyph-name="uni01D8" unicode="&#x1d8;" horiz-adv-x="1143" 
d="M505 1716l263 321l100 -78l-232 -243h-131zM383 1329c-61 0 -115 51 -115 113c0 65 54 114 115 114s115 -49 115 -114c0 -62 -54 -113 -115 -113zM760 1329c-62 0 -115 51 -115 113c0 65 53 114 115 114c63 0 114 -49 114 -114c0 -62 -51 -113 -114 -113zM571 -20
c-249 0 -421 139 -421 380v699h155v-694c0 -158 115 -230 266 -230c154 0 267 72 267 230v694h155v-699c0 -241 -172 -380 -422 -380z" />
    <glyph glyph-name="uni01DA" unicode="&#x1da;" horiz-adv-x="1143" 
d="M483 1736l-201 297h121l168 -227l163 227h123l-202 -297h-172zM383 1329c-61 0 -115 51 -115 113c0 65 54 114 115 114s115 -49 115 -114c0 -62 -54 -113 -115 -113zM760 1329c-62 0 -115 51 -115 113c0 65 53 114 115 114c63 0 114 -49 114 -114
c0 -62 -51 -113 -114 -113zM571 -20c-249 0 -421 139 -421 380v699h155v-694c0 -158 115 -230 266 -230c154 0 267 72 267 230v694h155v-699c0 -241 -172 -380 -422 -380z" />
    <glyph glyph-name="uni01DC" unicode="&#x1dc;" horiz-adv-x="1143" 
d="M505 1716l-231 243l100 78l262 -321h-131zM383 1329c-61 0 -115 51 -115 113c0 65 54 114 115 114s115 -49 115 -114c0 -62 -54 -113 -115 -113zM760 1329c-62 0 -115 51 -115 113c0 65 53 114 115 114c63 0 114 -49 114 -114c0 -62 -51 -113 -114 -113zM571 -20
c-249 0 -421 139 -421 380v699h155v-694c0 -158 115 -230 266 -230c154 0 267 72 267 230v694h155v-699c0 -241 -172 -380 -422 -380z" />
    <glyph glyph-name="uni01D6" unicode="&#x1d6;" horiz-adv-x="1143" 
d="M254 1744v115h635v-115h-635zM383 1329c-61 0 -115 51 -115 113c0 65 54 114 115 114s115 -49 115 -114c0 -62 -54 -113 -115 -113zM760 1329c-62 0 -115 51 -115 113c0 65 53 114 115 114c63 0 114 -49 114 -114c0 -62 -51 -113 -114 -113zM571 -20
c-249 0 -421 139 -421 380v699h155v-694c0 -158 115 -230 266 -230c154 0 267 72 267 230v694h155v-699c0 -241 -172 -380 -422 -380z" />
    <glyph glyph-name="uni1EE5" unicode="&#x1ee5;" horiz-adv-x="1143" 
d="M571 -20c-249 0 -421 139 -421 380v699h155v-694c0 -158 115 -230 266 -230c154 0 267 72 267 230v694h155v-699c0 -241 -172 -380 -422 -380zM569 -512c-61 0 -115 51 -115 115c0 61 54 114 115 114s115 -53 115 -114c0 -64 -54 -115 -115 -115z" />
    <glyph glyph-name="ugrave" unicode="&#xf9;" horiz-adv-x="1143" 
d="M505 1219l-231 243l100 78l262 -321h-131zM571 -20c-249 0 -421 139 -421 380v699h155v-694c0 -158 115 -230 266 -230c154 0 267 72 267 230v694h155v-699c0 -241 -172 -380 -422 -380z" />
    <glyph glyph-name="uni1EE7" unicode="&#x1ee7;" horiz-adv-x="1143" 
d="M526 1137v129c76 16 123 49 123 110c0 45 -35 80 -86 80c-35 0 -64 -12 -92 -31l-56 78c41 33 91 53 144 53c106 0 192 -75 192 -180c0 -71 -43 -137 -133 -164v-75h-92zM571 -20c-249 0 -421 139 -421 380v699h155v-694c0 -158 115 -230 266 -230c154 0 267 72 267 230
v694h155v-699c0 -241 -172 -380 -422 -380z" />
    <glyph glyph-name="uhorn" unicode="&#x1b0;" horiz-adv-x="1143" 
d="M1149 1168h141v-125c0 -184 -98 -250 -197 -250c-29 0 -64 6 -100 17v-450c0 -241 -172 -380 -422 -380c-249 0 -421 139 -421 380v699h155v-694c0 -158 115 -230 266 -230c154 0 267 72 267 230v694h155v-177c23 -8 42 -11 57 -11c76 0 99 82 99 133v164z" />
    <glyph glyph-name="uni1EE9" unicode="&#x1ee9;" horiz-adv-x="1143" 
d="M868 1462l-232 -243h-131l263 321zM1149 1168h141v-125c0 -184 -98 -250 -197 -250c-29 0 -64 6 -100 17v-450c0 -241 -172 -380 -422 -380c-249 0 -421 139 -421 380v699h155v-694c0 -158 115 -230 266 -230c154 0 267 72 267 230v694h155v-177c23 -8 42 -11 57 -11
c76 0 99 82 99 133v164z" />
    <glyph glyph-name="uni1EF1" unicode="&#x1ef1;" horiz-adv-x="1143" 
d="M1149 1168h141v-125c0 -184 -98 -250 -197 -250c-29 0 -64 6 -100 17v-450c0 -241 -172 -380 -422 -380c-249 0 -421 139 -421 380v699h155v-694c0 -158 115 -230 266 -230c154 0 267 72 267 230v694h155v-177c23 -8 42 -11 57 -11c76 0 99 82 99 133v164zM569 -283
c61 0 115 -53 115 -114c0 -64 -54 -115 -115 -115s-115 51 -115 115c0 61 54 114 115 114z" />
    <glyph glyph-name="uni1EEB" unicode="&#x1eeb;" horiz-adv-x="1143" 
d="M636 1219h-131l-231 243l100 78zM1149 1168h141v-125c0 -184 -98 -250 -197 -250c-29 0 -64 6 -100 17v-450c0 -241 -172 -380 -422 -380c-249 0 -421 139 -421 380v699h155v-694c0 -158 115 -230 266 -230c154 0 267 72 267 230v694h155v-177c23 -8 42 -11 57 -11
c76 0 99 82 99 133v164z" />
    <glyph glyph-name="uni1EED" unicode="&#x1eed;" horiz-adv-x="1143" 
d="M563 1456c-35 0 -64 -12 -92 -31l-56 78c41 33 91 53 144 53c106 0 192 -75 192 -180c0 -71 -43 -137 -133 -164v-75h-92v129c76 16 123 49 123 110c0 45 -35 80 -86 80zM1149 1168h141v-125c0 -184 -98 -250 -197 -250c-29 0 -64 6 -100 17v-450
c0 -241 -172 -380 -422 -380c-249 0 -421 139 -421 380v699h155v-694c0 -158 115 -230 266 -230c154 0 267 72 267 230v694h155v-177c23 -8 42 -11 57 -11c76 0 99 82 99 133v164z" />
    <glyph glyph-name="uni1EEF" unicode="&#x1eef;" horiz-adv-x="1143" 
d="M428 1450c-72 0 -113 -70 -113 -162h-92c0 146 78 252 203 252c82 0 139 -45 180 -108c25 -39 57 -66 107 -66c69 0 112 59 112 162h90c0 -144 -73 -252 -202 -252c-86 0 -144 47 -183 108c-30 50 -61 66 -102 66zM1149 1168h141v-125c0 -184 -98 -250 -197 -250
c-29 0 -64 6 -100 17v-450c0 -241 -172 -380 -422 -380c-249 0 -421 139 -421 380v699h155v-694c0 -158 115 -230 266 -230c154 0 267 72 267 230v694h155v-177c23 -8 42 -11 57 -11c76 0 99 82 99 133v164z" />
    <glyph glyph-name="uhungarumlaut" unicode="&#x171;" horiz-adv-x="1143" 
d="M331 1219l262 321l101 -78l-232 -243h-131zM680 1219l262 321l100 -78l-231 -243h-131zM571 -20c-249 0 -421 139 -421 380v699h155v-694c0 -158 115 -230 266 -230c154 0 267 72 267 230v694h155v-699c0 -241 -172 -380 -422 -380z" />
    <glyph glyph-name="umacron" unicode="&#x16b;" horiz-adv-x="1143" 
d="M254 1247v115h635v-115h-635zM571 -20c-249 0 -421 139 -421 380v699h155v-694c0 -158 115 -230 266 -230c154 0 267 72 267 230v694h155v-699c0 -241 -172 -380 -422 -380z" />
    <glyph glyph-name="uogonek" unicode="&#x173;" horiz-adv-x="1143" 
d="M838 1059h155v-699c0 -214 -135 -347 -340 -375c-126 -60 -231 -156 -231 -266c0 -77 53 -110 119 -110c46 0 100 16 145 46v-161c-49 -19 -101 -27 -153 -24c-138 6 -230 81 -230 211c0 122 81 224 217 301c-221 18 -370 154 -370 378v699h155v-694
c0 -158 115 -230 266 -230c154 0 267 72 267 230v694z" />
    <glyph glyph-name="uring" unicode="&#x16f;" horiz-adv-x="1143" 
d="M571 1196c-119 0 -217 99 -217 215c0 119 98 215 217 215c117 0 213 -96 213 -215c0 -116 -96 -215 -213 -215zM571 1286c67 0 123 54 123 125c0 68 -56 127 -123 127c-70 0 -123 -59 -123 -127c0 -71 53 -125 123 -125zM571 -20c-249 0 -421 139 -421 380v699h155v-694
c0 -158 115 -230 266 -230c154 0 267 72 267 230v694h155v-699c0 -241 -172 -380 -422 -380z" />
    <glyph glyph-name="utilde" unicode="&#x169;" horiz-adv-x="1143" 
d="M713 1276c-86 0 -144 47 -183 108c-30 50 -61 66 -102 66c-72 0 -113 -70 -113 -162h-92c0 146 78 252 203 252c82 0 139 -45 180 -108c25 -39 57 -66 107 -66c69 0 112 59 112 162h90c0 -144 -73 -252 -202 -252zM571 -20c-249 0 -421 139 -421 380v699h155v-694
c0 -158 115 -230 266 -230c154 0 267 72 267 230v694h155v-699c0 -241 -172 -380 -422 -380z" />
    <glyph glyph-name="v" unicode="v" horiz-adv-x="1118" 
d="M920 1059h172l-484 -1059h-100l-481 1059h172l360 -838z" />
    <glyph glyph-name="w" unicode="w" horiz-adv-x="1749" 
d="M1542 1059h174l-403 -1059h-101l-337 791l-338 -791h-101l-403 1059h174l290 -799l337 799h81l337 -799z" />
    <glyph glyph-name="wacute" unicode="&#x1e83;" horiz-adv-x="1749" 
d="M1171 1462l-232 -243h-131l263 321zM1542 1059h174l-403 -1059h-101l-337 791l-338 -791h-101l-403 1059h174l290 -799l337 799h81l337 -799z" />
    <glyph glyph-name="wcircumflex" unicode="&#x175;" horiz-adv-x="1749" 
d="M874 1466l-168 -227h-121l201 297h172l202 -297h-123zM1542 1059h174l-403 -1059h-101l-337 791l-338 -791h-101l-403 1059h174l290 -799l337 799h81l337 -799z" />
    <glyph glyph-name="wdieresis" unicode="&#x1e85;" horiz-adv-x="1749" 
d="M686 1329c-61 0 -115 51 -115 113c0 65 54 114 115 114s115 -49 115 -114c0 -62 -54 -113 -115 -113zM1063 1329c-62 0 -115 51 -115 113c0 65 53 114 115 114c63 0 114 -49 114 -114c0 -62 -51 -113 -114 -113zM1542 1059h174l-403 -1059h-101l-337 791l-338 -791h-101
l-403 1059h174l290 -799l337 799h81l337 -799z" />
    <glyph glyph-name="wgrave" unicode="&#x1e81;" horiz-adv-x="1749" 
d="M939 1219h-131l-231 243l100 78zM1542 1059h174l-403 -1059h-101l-337 791l-338 -791h-101l-403 1059h174l290 -799l337 799h81l337 -799z" />
    <glyph glyph-name="x" unicode="x" horiz-adv-x="1141" 
d="M33 0l440 530l-440 529h194l342 -414l344 414h195l-440 -529l440 -530h-195l-342 414l-344 -414h-194z" />
    <glyph glyph-name="y" unicode="y" horiz-adv-x="1067" 
d="M856 1059h180l-624 -1557h-170l208 526l-419 1031h178l331 -848z" />
    <glyph glyph-name="yacute" unicode="&#xfd;" horiz-adv-x="1067" 
d="M832 1462l-232 -243h-131l263 321zM856 1059h180l-624 -1557h-170l208 526l-419 1031h178l331 -848z" />
    <glyph glyph-name="ycircumflex" unicode="&#x177;" horiz-adv-x="1067" 
d="M535 1466l-168 -227h-121l201 297h172l202 -297h-123zM856 1059h180l-624 -1557h-170l208 526l-419 1031h178l331 -848z" />
    <glyph glyph-name="ydieresis" unicode="&#xff;" horiz-adv-x="1067" 
d="M347 1329c-61 0 -115 51 -115 113c0 65 54 114 115 114s115 -49 115 -114c0 -62 -54 -113 -115 -113zM724 1329c-62 0 -115 51 -115 113c0 65 53 114 115 114c63 0 114 -49 114 -114c0 -62 -51 -113 -114 -113zM856 1059h180l-624 -1557h-170l208 526l-419 1031h178
l331 -848z" />
    <glyph glyph-name="uni1EF5" unicode="&#x1ef5;" horiz-adv-x="1067" 
d="M856 1059h180l-624 -1557h-170l208 526l-419 1031h178l331 -848zM819 -283c61 0 115 -53 115 -114c0 -64 -54 -115 -115 -115s-115 51 -115 115c0 61 54 114 115 114z" />
    <glyph glyph-name="ygrave" unicode="&#x1ef3;" horiz-adv-x="1067" 
d="M600 1219h-131l-231 243l100 78zM856 1059h180l-624 -1557h-170l208 526l-419 1031h178l331 -848z" />
    <glyph glyph-name="uni1EF7" unicode="&#x1ef7;" horiz-adv-x="1067" 
d="M527 1456c-35 0 -64 -12 -92 -31l-56 78c41 33 91 53 144 53c106 0 192 -75 192 -180c0 -71 -43 -137 -133 -164v-75h-92v129c76 16 123 49 123 110c0 45 -35 80 -86 80zM856 1059h180l-624 -1557h-170l208 526l-419 1031h178l331 -848z" />
    <glyph glyph-name="uni1EF9" unicode="&#x1ef9;" horiz-adv-x="1067" 
d="M392 1450c-72 0 -113 -70 -113 -162h-92c0 146 78 252 203 252c82 0 139 -45 180 -108c25 -39 57 -66 107 -66c69 0 112 59 112 162h90c0 -144 -73 -252 -202 -252c-86 0 -144 47 -183 108c-30 50 -61 66 -102 66zM856 1059h180l-624 -1557h-170l208 526l-419 1031h178
l331 -848z" />
    <glyph glyph-name="z" unicode="z" horiz-adv-x="1020" 
d="M961 1059l-622 -912h622v-147h-914l620 911h-581v148h875z" />
    <glyph glyph-name="zacute" unicode="&#x17a;" horiz-adv-x="1020" 
d="M823 1462l-232 -243h-131l263 321zM961 1059l-622 -912h622v-147h-914l620 911h-581v148h875z" />
    <glyph glyph-name="zcaron" unicode="&#x17e;" horiz-adv-x="1020" 
d="M610 1239h-172l-201 297h121l168 -227l163 227h123zM961 1059l-622 -912h622v-147h-914l620 911h-581v148h875z" />
    <glyph glyph-name="zdotaccent" unicode="&#x17c;" horiz-adv-x="1020" 
d="M526 1329c-61 0 -115 51 -115 113c0 65 54 114 115 114s115 -49 115 -114c0 -62 -54 -113 -115 -113zM961 1059l-622 -912h622v-147h-914l620 911h-581v148h875z" />
    <glyph glyph-name="f_t" horiz-adv-x="1354" 
d="M213 0v915h-178v144h178v186c0 191 119 311 301 311c55 0 113 -12 139 -30v-160c-30 25 -80 41 -121 41c-94 0 -159 -72 -159 -180v-168h467v293h159v-293h281v-144h-281v-606c0 -108 66 -170 160 -170h121v-139h-139c-176 0 -301 100 -301 291v624h-467v-915h-160z" />
    <glyph glyph-name="t_t" horiz-adv-x="1397" 
d="M514 0c-176 0 -301 100 -301 291v624h-178v144h178v293h160v-293h510v293h159v-293h281v-144h-281v-606c0 -108 66 -170 160 -170h121v-139h-139c-176 0 -301 100 -301 291v624h-510v-606c0 -108 65 -170 159 -170h121v-139h-139z" />
    <glyph glyph-name="ordfeminine" unicode="&#xaa;" horiz-adv-x="1028" 
d="M698 1536h115v-614h-115v118c-52 -80 -138 -131 -241 -131c-170 0 -310 142 -310 320c0 176 140 319 310 319c103 0 189 -52 241 -131v119zM479 1010c121 0 219 98 219 219c0 119 -98 215 -219 215s-217 -96 -217 -215c0 -121 96 -219 217 -219z" />
    <glyph glyph-name="ordmasculine" unicode="&#xba;" horiz-adv-x="868" 
d="M432 909c-184 0 -332 142 -332 320c0 176 148 319 332 319c186 0 334 -143 334 -319c0 -178 -148 -320 -334 -320zM432 1010c121 0 219 98 219 219c0 119 -98 215 -219 215s-217 -96 -217 -215c0 -121 96 -219 217 -219z" />
    <glyph glyph-name="uni0394" unicode="&#x394;" horiz-adv-x="1546" 
d="M870 1536l617 -1536h-1428l617 1536h194zM310 154h926l-462 1184z" />
    <glyph glyph-name="uni03A9" unicode="&#x3a9;" horiz-adv-x="1817" 
d="M123 0v143h334v15c-154 123 -299 358 -299 649c0 414 315 731 755 731c459 0 746 -348 746 -727c0 -289 -150 -537 -303 -653v-15h338v-143h-607v106c195 103 381 340 381 674c0 303 -196 613 -553 613c-340 0 -567 -273 -567 -617c0 -323 191 -573 381 -670v-106h-606z
" />
    <glyph glyph-name="uni03BC" unicode="&#x3bc;" horiz-adv-x="1184" 
d="M850 963h166v-963h-166v140c-71 -97 -181 -158 -307 -158c-95 0 -182 35 -248 94v-557h-127v1444h168v-582c0 -139 113 -252 254 -252c143 0 260 113 260 252v582z" />
    <glyph glyph-name="pi" unicode="&#x3c0;" horiz-adv-x="1268" 
d="M162 0c76 197 141 551 153 813c-135 0 -184 -12 -245 -45l-25 141c53 31 143 54 307 54h877l-15 -150h-178v-526c0 -146 11 -226 29 -287h-156c-22 39 -30 133 -30 270v543l-406 2c-12 -235 -78 -643 -158 -815h-153z" />
    <glyph glyph-name="zero" unicode="0" horiz-adv-x="1290" 
d="M645 -20c-317 0 -553 276 -553 788s215 788 553 788c336 0 553 -276 553 -788s-237 -788 -553 -788zM647 143c232 0 377 203 377 625c0 463 -166 625 -377 625c-213 0 -379 -162 -379 -625c0 -422 146 -625 379 -625z" />
    <glyph glyph-name="one" unicode="1" horiz-adv-x="1290" 
d="M754 164h336v-164h-844v164h336v1154l-336 -263v192l368 289h140v-1372z" />
    <glyph glyph-name="two" unicode="2" horiz-adv-x="1290" 
d="M402 164h755v-164h-999v152c645 563 743 790 743 958c0 201 -127 285 -274 285c-174 0 -281 -117 -281 -295l-188 2c0 274 209 459 477 457c254 -3 440 -170 440 -416c0 -318 -315 -690 -673 -979z" />
    <glyph glyph-name="three" unicode="3" horiz-adv-x="1290" 
d="M846 840c194 -60 313 -205 313 -404c0 -278 -233 -456 -530 -456c-289 0 -523 178 -523 446l175 2c0 -176 151 -285 348 -285c209 0 356 113 356 301c0 191 -149 297 -356 297h-152v164h152c162 0 262 111 262 250s-100 238 -262 238c-164 0 -273 -93 -273 -226h-174
c0 232 195 389 447 389c241 0 436 -155 436 -391c0 -153 -82 -266 -219 -325z" />
    <glyph glyph-name="four" unicode="4" horiz-adv-x="1290" 
d="M1239 487v-163h-272v-324h-174v324h-742v112l699 1100h217v-1049h272zM259 487h534v870z" />
    <glyph glyph-name="five" unicode="5" horiz-adv-x="1290" 
d="M596 958c385 0 557 -186 557 -462c0 -312 -213 -512 -518 -512c-252 0 -494 151 -520 448h184c33 -203 190 -285 338 -285c199 0 342 129 342 340c0 189 -117 308 -373 308h-442l139 741h799v-164h-661l-77 -414h232z" />
    <glyph glyph-name="six" unicode="6" horiz-adv-x="1290" 
d="M1184 528c12 -292 -228 -544 -520 -544c-299 0 -545 211 -558 499c-6 144 50 267 132 369l542 684h215l-449 -535c36 14 81 23 148 23c205 0 477 -190 490 -496zM662 154c215 0 364 170 352 372c-13 215 -176 351 -369 351c-233 0 -379 -177 -366 -392
c12 -204 170 -331 383 -331z" />
    <glyph glyph-name="seven" unicode="7" horiz-adv-x="1290" 
d="M129 1536h1036v-164l-766 -1372h-204l783 1372h-849v164z" />
    <glyph glyph-name="eight" unicode="8" horiz-adv-x="1290" 
d="M629 -20c-297 0 -531 178 -531 456c0 199 119 344 314 404c-138 59 -219 172 -219 325c0 236 194 391 436 391c241 0 436 -155 436 -391c0 -153 -82 -266 -219 -325c194 -60 313 -205 313 -404c0 -278 -233 -456 -530 -456zM629 905c162 0 262 111 262 250
s-100 238 -262 238s-262 -99 -262 -238s100 -250 262 -250zM629 143c209 0 356 113 356 301c0 191 -149 297 -356 297s-357 -106 -357 -297c0 -188 148 -301 357 -301z" />
    <glyph glyph-name="nine" unicode="9" horiz-adv-x="1290" 
d="M1184 1053c6 -144 -49 -267 -131 -369l-543 -684h-215l449 535c-37 -14 -81 -23 -148 -23c-205 0 -477 190 -490 496c-12 292 228 544 521 544c299 0 544 -211 557 -499zM645 659c234 0 379 177 367 392c-13 204 -170 331 -383 331c-215 0 -365 -170 -353 -372
c13 -215 177 -351 369 -351z" />
    <glyph glyph-name="zero.subs" horiz-adv-x="829" 
d="M414 -381c-201 0 -336 195 -336 473c0 279 135 473 336 473c200 0 338 -194 338 -473c0 -278 -138 -473 -338 -473zM414 -252c112 0 200 143 200 344s-88 344 -200 344c-117 0 -203 -143 -203 -344s86 -344 203 -344z" />
    <glyph glyph-name="one.subs" horiz-adv-x="508" 
d="M240 553h118v-922h-131v772l-204 -159v139z" />
    <glyph glyph-name="two.subs" horiz-adv-x="733" 
d="M195 -260h473v-109h-615v123c400 355 455 441 455 535c0 110 -72 155 -148 155c-94 0 -151 -63 -153 -157h-135c4 170 123 280 290 280c156 0 273 -100 277 -264c4 -152 -90 -274 -444 -563z" />
    <glyph glyph-name="three.subs" horiz-adv-x="713" 
d="M491 147c90 -46 150 -132 150 -241c0 -158 -131 -287 -299 -287c-162 0 -293 115 -293 272l133 3c0 -87 76 -150 162 -150c92 0 164 72 164 166s-70 160 -162 160h-70v112h60c74 0 133 60 133 133c0 76 -59 127 -131 127s-123 -49 -125 -120l-131 2
c0 141 113 241 256 241c141 0 252 -104 252 -237c0 -78 -38 -142 -99 -181z" />
    <glyph glyph-name="four.subs" horiz-adv-x="758" 
d="M686 -61v-113h-92v-195h-131v195h-440v88l397 639h174v-614h92zM162 -61h301v496z" />
    <glyph glyph-name="five.subs" horiz-adv-x="786" 
d="M383 223c221 0 328 -108 328 -291c0 -188 -136 -313 -318 -313c-162 0 -303 90 -319 260h135c20 -96 98 -137 176 -137c117 0 188 78 188 184c0 111 -59 183 -206 183h-271l84 444h494v-119h-396l-38 -211h143z" />
    <glyph glyph-name="six.subs" horiz-adv-x="745" 
d="M698 -53c7 -180 -143 -324 -321 -326c-180 -2 -332 131 -336 307c-2 82 29 154 76 215l315 410h158l-247 -305c17 3 37 5 60 4c148 -6 289 -133 295 -305zM377 -258c115 4 198 96 192 205c-6 110 -94 194 -202 190c-119 -4 -197 -94 -193 -207c4 -110 90 -192 203 -188z
" />
    <glyph glyph-name="seven.subs" horiz-adv-x="680" 
d="M41 553h623v-94l-459 -828h-154l453 801h-463v121z" />
    <glyph glyph-name="eight.subs" horiz-adv-x="754" 
d="M535 142c89 -48 147 -135 147 -240c0 -160 -133 -283 -305 -283c-176 0 -307 123 -307 283c0 105 57 192 146 240c-60 41 -93 108 -93 188c0 133 108 235 254 235c141 0 252 -102 252 -235c0 -79 -34 -146 -94 -188zM377 451c-78 0 -135 -58 -135 -136
c0 -75 57 -133 135 -133c74 0 133 58 133 133c0 78 -59 136 -133 136zM377 -264c94 0 170 78 170 178c0 94 -76 168 -170 168c-98 0 -174 -74 -174 -168c0 -100 76 -178 174 -178z" />
    <glyph glyph-name="nine.subs" horiz-adv-x="745" 
d="M702 256c3 -82 -28 -154 -75 -215l-316 -410h-157l247 306c-18 -4 -38 -6 -61 -5c-147 7 -291 134 -297 306c-6 178 143 323 322 325c184 2 333 -131 337 -307zM377 47c119 4 196 94 192 207s-90 192 -202 188c-115 -4 -197 -96 -191 -204c6 -113 92 -195 201 -191z" />
    <glyph glyph-name="zero.dnom" horiz-adv-x="829" 
d="M414 -12c-201 0 -336 194 -336 473c0 278 135 473 336 473c200 0 338 -195 338 -473c0 -279 -138 -473 -338 -473zM414 117c112 0 200 143 200 344s-88 344 -200 344c-117 0 -203 -143 -203 -344s86 -344 203 -344z" />
    <glyph glyph-name="one.dnom" horiz-adv-x="508" 
d="M240 922h118v-922h-131v771l-204 -159v140z" />
    <glyph glyph-name="two.dnom" horiz-adv-x="733" 
d="M196 109h472v-109h-615v123c400 354 455 440 455 534c0 111 -72 156 -148 156c-94 0 -151 -63 -153 -158h-135c4 170 123 281 290 281c156 0 273 -100 277 -264c4 -152 -90 -274 -443 -563z" />
    <glyph glyph-name="three.dnom" horiz-adv-x="713" 
d="M491 515c90 -45 150 -132 150 -241c0 -157 -131 -286 -299 -286c-162 0 -293 114 -293 272l133 2c0 -86 76 -149 162 -149c92 0 164 71 164 166c0 94 -70 159 -162 159h-70v113h60c74 0 133 59 133 133c0 76 -59 127 -131 127s-123 -49 -125 -121l-131 2
c0 142 113 242 256 242c141 0 252 -105 252 -238c0 -78 -38 -142 -99 -181z" />
    <glyph glyph-name="four.dnom" horiz-adv-x="758" 
d="M686 307v-112h-92v-195h-131v195h-440v88l397 639h174v-615h92zM162 307h301v497z" />
    <glyph glyph-name="five.dnom" horiz-adv-x="786" 
d="M383 592c221 0 328 -109 328 -291c0 -188 -136 -313 -318 -313c-162 0 -303 90 -319 260h135c20 -96 98 -137 176 -137c117 0 188 77 188 184c0 111 -59 182 -206 182h-271l84 445h494v-119h-396l-38 -211h143z" />
    <glyph glyph-name="six.dnom" horiz-adv-x="745" 
d="M698 315c7 -180 -143 -323 -321 -325c-180 -2 -332 131 -336 307c-2 82 29 154 76 215l315 410h158l-247 -305c17 4 37 5 60 4c148 -7 289 -134 295 -306zM377 111c115 4 198 96 192 204c-6 111 -94 195 -202 191c-119 -4 -197 -94 -193 -207c4 -111 90 -193 203 -188z
" />
    <glyph glyph-name="seven.dnom" horiz-adv-x="680" 
d="M41 922h623v-95l-459 -827h-154l453 801h-463v121z" />
    <glyph glyph-name="eight.dnom" horiz-adv-x="754" 
d="M535 511c89 -48 147 -136 147 -241c0 -159 -133 -282 -305 -282c-176 0 -307 123 -307 282c0 105 57 193 146 240c-60 42 -93 109 -93 188c0 133 108 236 254 236c141 0 252 -103 252 -236c0 -79 -34 -146 -94 -187zM377 819c-78 0 -135 -57 -135 -135
c0 -76 57 -133 135 -133c74 0 133 57 133 133c0 78 -59 135 -133 135zM377 104c94 0 170 78 170 179c0 94 -76 168 -170 168c-98 0 -174 -74 -174 -168c0 -101 76 -179 174 -179z" />
    <glyph glyph-name="nine.dnom" horiz-adv-x="745" 
d="M702 625c3 -82 -28 -154 -75 -215l-316 -410h-157l245 304c-17 -3 -37 -4 -59 -3c-147 6 -291 133 -297 305c-6 178 143 324 322 326c184 2 333 -131 337 -307zM377 416c119 4 196 94 192 207c-4 112 -90 192 -202 188c-115 -4 -197 -96 -191 -205
c6 -112 92 -194 201 -190z" />
    <glyph glyph-name="zero.numr" horiz-adv-x="829" 
d="M414 610c-201 0 -336 195 -336 473c0 279 135 473 336 473c200 0 338 -194 338 -473c0 -278 -138 -473 -338 -473zM414 739c112 0 200 144 200 344c0 201 -88 342 -200 342c-117 0 -203 -141 -203 -342c0 -200 86 -344 203 -344z" />
    <glyph glyph-name="one.numr" horiz-adv-x="508" 
d="M240 1536h120v-922h-133v778l-204 -159v133z" />
    <glyph glyph-name="two.numr" horiz-adv-x="733" 
d="M195 723h473v-109h-615v123c400 355 455 441 455 535c0 110 -72 155 -148 155c-94 0 -151 -63 -153 -157h-135c4 170 123 280 290 280c156 0 273 -100 277 -264c4 -152 -92 -274 -444 -563z" />
    <glyph glyph-name="three.numr" horiz-adv-x="713" 
d="M491 1130c90 -46 150 -132 150 -241c0 -160 -131 -287 -299 -287c-162 0 -293 115 -293 272l135 3c0 -86 74 -150 160 -150c92 0 162 72 162 166s-70 160 -164 160h-66v112h60c74 0 131 60 131 133c0 74 -57 127 -129 127s-123 -49 -123 -120l-133 2
c0 141 113 241 256 241c141 0 252 -104 252 -237c0 -78 -38 -142 -99 -181z" />
    <glyph glyph-name="four.numr" horiz-adv-x="758" 
d="M686 922v-113h-92v-195h-131v195h-440v88l397 639h174v-614h92zM162 922h301v496z" />
    <glyph glyph-name="five.numr" horiz-adv-x="786" 
d="M383 1206c221 0 328 -108 328 -291c0 -188 -136 -313 -318 -313c-162 0 -303 90 -319 260h135c20 -96 98 -137 176 -137c117 0 188 78 188 184c0 109 -59 183 -206 183h-271l84 444h494v-119h-396l-38 -211h143z" />
    <glyph glyph-name="six.numr" horiz-adv-x="745" 
d="M698 930c7 -180 -143 -324 -321 -326c-180 -2 -332 131 -336 307c-2 82 29 154 76 215l315 410h158l-247 -305c17 3 37 5 60 4c148 -6 289 -133 295 -305zM377 725c115 4 198 96 192 205c-6 110 -94 194 -202 190c-119 -4 -197 -94 -193 -207c4 -110 90 -192 203 -188z
" />
    <glyph glyph-name="seven.numr" horiz-adv-x="680" 
d="M41 1536h623v-94l-459 -828h-154l453 801h-463v121z" />
    <glyph glyph-name="eight.numr" horiz-adv-x="754" 
d="M535 1125c89 -48 147 -135 147 -240c0 -160 -133 -283 -305 -283c-176 0 -307 123 -307 283c0 105 57 192 146 240c-60 41 -93 108 -93 188c0 133 108 235 254 235c141 0 252 -102 252 -235c0 -79 -34 -146 -94 -188zM377 1434c-78 0 -135 -60 -135 -136
c0 -75 57 -133 135 -133c74 0 133 58 133 133c0 76 -59 136 -133 136zM377 719c94 0 170 78 170 178c0 94 -76 168 -170 168c-98 0 -174 -74 -174 -168c0 -100 76 -178 174 -178z" />
    <glyph glyph-name="nine.numr" horiz-adv-x="745" 
d="M702 1239c3 -82 -28 -154 -75 -215l-316 -410h-157l246 305c-17 -4 -37 -5 -60 -4c-147 7 -291 134 -297 306c-6 178 143 323 322 325c184 2 333 -131 337 -307zM377 1030c119 4 196 94 192 207s-90 193 -202 188c-115 -4 -197 -96 -191 -204c6 -113 92 -195 201 -191z
" />
    <glyph glyph-name="zero.sups" horiz-adv-x="829" 
d="M414 979c-201 0 -336 195 -336 473c0 279 135 473 336 473c200 0 338 -194 338 -473c0 -278 -138 -473 -338 -473zM414 1108c112 0 200 143 200 344s-88 342 -200 342c-117 0 -203 -141 -203 -342s86 -344 203 -344z" />
    <glyph glyph-name="one.sups" horiz-adv-x="508" 
d="M240 1905h120v-922h-133v778l-204 -159v133z" />
    <glyph glyph-name="two.sups" horiz-adv-x="733" 
d="M196 1092h472v-109h-615v123c400 354 455 440 455 534c0 111 -72 156 -148 156c-94 0 -151 -63 -153 -158h-135c4 170 123 281 290 281c156 0 273 -100 277 -264c4 -152 -91 -274 -443 -563z" />
    <glyph glyph-name="three.sups" horiz-adv-x="713" 
d="M491 1498c90 -45 150 -132 150 -241c0 -159 -131 -286 -299 -286c-162 0 -293 114 -293 272l135 2c0 -86 74 -149 160 -149c92 0 162 71 162 166c0 94 -70 159 -164 159h-66v113h60c74 0 131 59 131 133s-57 127 -129 127s-123 -49 -123 -121l-133 2
c0 142 113 242 256 242c141 0 252 -105 252 -238c0 -78 -38 -142 -99 -181z" />
    <glyph glyph-name="four.sups" horiz-adv-x="758" 
d="M686 1290v-112h-92v-195h-131v195h-440v88l397 639h174v-615h92zM162 1290h301v497z" />
    <glyph glyph-name="five.sups" horiz-adv-x="786" 
d="M383 1575c221 0 328 -109 328 -291c0 -188 -136 -313 -318 -313c-162 0 -303 90 -319 260h135c20 -96 98 -137 176 -137c117 0 188 77 188 184c0 108 -59 182 -206 182h-271l84 445h494v-119h-396l-38 -211h143z" />
    <glyph glyph-name="six.sups" horiz-adv-x="745" 
d="M698 1298c7 -180 -143 -323 -321 -325c-180 -2 -332 131 -336 307c-2 82 29 154 76 215l315 410h158l-246 -305c17 3 36 5 59 4c148 -7 289 -134 295 -306zM377 1094c115 4 198 96 192 204c-6 111 -94 195 -202 191c-119 -4 -197 -94 -193 -207c4 -111 90 -192 203 -188z
" />
    <glyph glyph-name="seven.sups" horiz-adv-x="680" 
d="M41 1905h623v-95l-459 -827h-154l453 801h-463v121z" />
    <glyph glyph-name="eight.sups" horiz-adv-x="754" 
d="M535 1494c89 -48 147 -136 147 -241c0 -159 -133 -282 -305 -282c-176 0 -307 123 -307 282c0 105 57 193 146 240c-60 42 -93 109 -93 188c0 134 108 236 254 236c141 0 252 -102 252 -236c0 -79 -34 -146 -94 -187zM377 1802c-78 0 -135 -59 -135 -135
s57 -133 135 -133c74 0 133 57 133 133s-59 135 -133 135zM377 1087c94 0 170 78 170 179c0 94 -76 168 -170 168c-98 0 -174 -74 -174 -168c0 -101 76 -179 174 -179z" />
    <glyph glyph-name="nine.sups" horiz-adv-x="745" 
d="M702 1608c3 -82 -28 -154 -75 -215l-316 -410h-157l247 305c-18 -4 -38 -5 -61 -4c-147 6 -291 133 -297 305c-6 178 143 324 322 326c184 2 333 -131 337 -307zM377 1399c119 4 196 94 192 207c-4 112 -90 192 -202 188c-115 -4 -197 -96 -191 -205
c6 -112 92 -194 201 -190z" />
    <glyph glyph-name="fraction" unicode="&#x2044;" horiz-adv-x="408" 
d="M-307 0l866 1536h156l-867 -1536h-155z" />
    <glyph glyph-name="onehalf" unicode="&#xbd;" horiz-adv-x="1649" 
d="M227 614v778l-204 -159v133l217 170h120v-922h-133zM1067 1536h156l-867 -1536h-155zM1112 109h472v-109h-615v123c400 354 455 440 455 534c0 111 -72 156 -148 156c-94 0 -151 -63 -153 -158h-135c4 170 123 281 290 281c156 0 273 -100 277 -264
c4 -152 -90 -274 -443 -563z" />
    <glyph glyph-name="onequarter" unicode="&#xbc;" horiz-adv-x="1592" 
d="M227 614v778l-204 -159v133l217 170h120v-922h-133zM1067 1536h156l-867 -1536h-155zM1520 307v-112h-92v-195h-131v195h-440v88l397 639h174v-615h92zM996 307h301v497z" />
    <glyph glyph-name="threequarters" unicode="&#xbe;" horiz-adv-x="1797" 
d="M641 889c0 -160 -131 -287 -299 -287c-162 0 -293 115 -293 272l135 3c0 -86 74 -150 160 -150c92 0 162 72 162 166s-70 160 -164 160h-66v112h60c74 0 131 60 131 133c0 74 -57 127 -129 127s-123 -49 -123 -120l-133 2c0 141 113 241 256 241c141 0 252 -104 252 -237
c0 -78 -38 -142 -99 -181c90 -46 150 -132 150 -241zM1272 1536h156l-867 -1536h-155zM1725 307v-112h-92v-195h-131v195h-440v88l397 639h174v-615h92zM1201 307h301v497z" />
    <glyph glyph-name="asterisk" unicode="*" horiz-adv-x="971" 
d="M354 930l-82 49l191 256l-322 -31v94l322 -34l-191 260l82 45l131 -289l129 289l84 -45l-192 -260l321 34v-94l-321 31l192 -256l-84 -49l-129 291z" />
    <glyph glyph-name="backslash" unicode="\" horiz-adv-x="1169" 
d="M1001 -348l-995 1884h164l993 -1884h-162z" />
    <glyph glyph-name="periodcentered" unicode="&#xb7;" horiz-adv-x="614" 
d="M307 645c-49 0 -92 39 -92 92c0 49 43 92 92 92s94 -43 94 -92c0 -53 -45 -92 -94 -92z" />
    <glyph glyph-name="bullet" unicode="&#x2022;" horiz-adv-x="866" 
d="M434 414c-135 0 -252 108 -252 250c0 135 117 251 252 251c133 0 250 -116 250 -251c0 -142 -117 -250 -250 -250z" />
    <glyph glyph-name="colon" unicode=":" horiz-adv-x="623" 
d="M311 815c-61 0 -114 51 -114 115c0 61 53 114 114 114c62 0 115 -53 115 -114c0 -64 -53 -115 -115 -115zM311 -20c-61 0 -114 51 -114 114c0 62 53 115 114 115c62 0 115 -53 115 -115c0 -63 -53 -114 -115 -114z" />
    <glyph glyph-name="comma" unicode="," horiz-adv-x="647" 
d="M319 -377h-124l100 627h192z" />
    <glyph glyph-name="ellipsis" unicode="&#x2026;" horiz-adv-x="1780" 
d="M324 -20c-62 0 -115 51 -115 114c0 62 53 115 115 115c61 0 114 -53 114 -115c0 -63 -53 -114 -114 -114zM883 -20c-62 0 -115 51 -115 114c0 62 53 115 115 115c61 0 114 -53 114 -115c0 -63 -53 -114 -114 -114zM1457 -20c-62 0 -115 51 -115 114c0 62 53 115 115 115
c61 0 114 -53 114 -115c0 -63 -53 -114 -114 -114z" />
    <glyph glyph-name="exclam" unicode="!" horiz-adv-x="635" 
d="M225 442v1094h168v-1094h-168zM309 -20c-61 0 -114 53 -114 114c0 64 53 115 114 115c62 0 115 -51 115 -115c0 -61 -53 -114 -115 -114z" />
    <glyph glyph-name="exclamdown" unicode="&#xa1;" horiz-adv-x="635" 
d="M309 1044c62 0 115 -53 115 -114c0 -64 -53 -115 -115 -115c-61 0 -114 51 -114 115c0 61 53 114 114 114zM225 582h168v-1094h-168v1094z" />
    <glyph glyph-name="numbersign" unicode="#" horiz-adv-x="1532" 
d="M344 0l51 358h-289l17 127h289l71 478h-290l20 124h285l53 361h123l-49 -361h387l51 361h125l-51 -361h290l-20 -124h-287l-67 -478h286l-16 -127h-287l-55 -358h-123l51 358h-391l-49 -358h-125zM539 485h387l69 478h-389z" />
    <glyph glyph-name="period" unicode="." horiz-adv-x="647" 
d="M324 -20c-62 0 -115 51 -115 114c0 62 53 115 115 115c61 0 114 -53 114 -115c0 -63 -53 -114 -114 -114z" />
    <glyph glyph-name="question" unicode="?" horiz-adv-x="1098" 
d="M461 430v418c162 0 370 -10 370 274c0 160 -122 275 -294 275c-164 0 -285 -117 -291 -275h-152c2 242 191 422 443 422c258 0 444 -178 444 -422c0 -329 -244 -397 -367 -397v-295h-153zM545 -20c-62 0 -115 51 -115 114c0 62 53 115 115 115c63 0 114 -53 114 -115
c0 -63 -51 -114 -114 -114z" />
    <glyph glyph-name="questiondown" unicode="&#xbf;" horiz-adv-x="1098" 
d="M530 1046c62 0 115 -51 115 -114c0 -62 -53 -115 -115 -115c-63 0 -114 53 -114 115c0 63 51 114 114 114zM614 596v-418c-162 0 -370 10 -370 -274c0 -160 122 -275 294 -275c164 0 285 117 291 275h152c-2 -242 -191 -422 -443 -422c-258 0 -444 178 -444 422
c0 329 244 397 367 397v295h153z" />
    <glyph glyph-name="quotedbl" unicode="&#x22;" horiz-adv-x="991" 
d="M244 893v643h159l3 -643h-162zM584 893l2 643h162v-643h-164z" />
    <glyph glyph-name="quotesingle" unicode="'" horiz-adv-x="651" 
d="M244 893v643h164v-643h-164z" />
    <glyph glyph-name="semicolon" unicode=";" horiz-adv-x="647" 
d="M350 815c-63 0 -114 51 -114 115c0 61 51 114 114 114c62 0 115 -53 115 -114c0 -64 -53 -115 -115 -115zM160 -377l100 627h193l-168 -627h-125z" />
    <glyph glyph-name="slash" unicode="/" horiz-adv-x="1169" 
d="M6 -348l995 1884h162l-993 -1884h-164z" />
    <glyph glyph-name="underscore" unicode="_" horiz-adv-x="1364" 
d="M170 -131v131h1024v-131h-1024z" />
    <glyph glyph-name="braceleft" unicode="{" horiz-adv-x="594" 
d="M432 -512c-121 0 -211 115 -211 262v498c0 186 -16 266 -153 332v110c137 66 153 148 153 332v496c0 151 90 264 211 264h90v-121h-55c-84 0 -113 -66 -113 -180v-488c0 -147 -18 -272 -141 -358c123 -86 141 -211 141 -359v-489c0 -115 29 -176 113 -176h55v-123h-90z
" />
    <glyph glyph-name="braceright" unicode="}" horiz-adv-x="594" 
d="M162 -512h-90v123h55c84 0 113 61 113 176v489c0 148 18 273 141 359c-123 86 -141 211 -141 358v488c0 114 -29 180 -113 180h-55v121h90c121 0 211 -113 211 -264v-496c0 -184 16 -266 153 -332v-110c-137 -66 -153 -146 -153 -332v-498c0 -147 -90 -262 -211 -262z
" />
    <glyph glyph-name="bracketleft" unicode="[" horiz-adv-x="645" 
d="M174 -512v2294h412v-129h-264v-2036h264v-129h-412z" />
    <glyph glyph-name="bracketright" unicode="]" horiz-adv-x="645" 
d="M471 -512h-412v129h264v2036h-264v129h412v-2294z" />
    <glyph glyph-name="parenleft" unicode="(" horiz-adv-x="670" 
d="M541 -461c-252 164 -420 541 -420 1108c0 557 168 948 420 1110l75 -102c-219 -152 -362 -492 -362 -1008c0 -526 143 -854 362 -1003z" />
    <glyph glyph-name="parenright" unicode=")" horiz-adv-x="670" 
d="M129 -461l-75 105c219 149 362 477 362 1003c0 516 -143 856 -362 1008l75 102c252 -162 420 -553 420 -1110c0 -567 -168 -944 -420 -1108z" />
    <glyph glyph-name="emdash" unicode="&#x2014;" horiz-adv-x="2040" 
d="M-4 467v131h2048v-131h-2048z" />
    <glyph glyph-name="endash" unicode="&#x2013;" horiz-adv-x="1364" 
d="M170 467v131h1024v-131h-1024z" />
    <glyph glyph-name="hyphen" unicode="-" horiz-adv-x="1057" 
d="M170 467v131h717v-131h-717z" />
    <glyph glyph-name="uni00AD" unicode="&#xad;" horiz-adv-x="1057" 
d="M170 460v144h717v-144h-717z" />
    <glyph glyph-name="guillemotleft" unicode="&#xab;" horiz-adv-x="997" 
d="M387 195l-311 376l311 377h143l-311 -377l311 -376h-143zM764 195l-311 376l311 377h147l-311 -377l311 -376h-147z" />
    <glyph glyph-name="guillemotright" unicode="&#xbb;" horiz-adv-x="997" 
d="M86 195l311 376l-311 377h143l312 -377l-312 -376h-143zM463 195l311 376l-311 377h147l312 -377l-312 -376h-147z" />
    <glyph glyph-name="guilsinglleft" unicode="&#x2039;" horiz-adv-x="616" 
d="M387 195l-311 376l311 377h143l-311 -377l311 -376h-143z" />
    <glyph glyph-name="guilsinglright" unicode="&#x203a;" horiz-adv-x="616" 
d="M86 195l311 376l-311 377h143l312 -377l-312 -376h-143z" />
    <glyph glyph-name="quotedblbase" unicode="&#x201e;" horiz-adv-x="946" 
d="M284 -377h-124l100 627h192zM653 -377h-124l100 627h192z" />
    <glyph glyph-name="quotedblleft" unicode="&#x201c;" horiz-adv-x="944" 
d="M293 1536h124l-100 -627h-192zM660 1536h124l-100 -627h-192z" />
    <glyph glyph-name="quotedblright" unicode="&#x201d;" horiz-adv-x="944" 
d="M284 909h-124l100 627h192zM651 909h-124l100 627h192z" />
    <glyph glyph-name="quoteleft" unicode="&#x2018;" horiz-adv-x="578" 
d="M294 1536h124l-100 -627h-192z" />
    <glyph glyph-name="quoteright" unicode="&#x2019;" horiz-adv-x="578" 
d="M284 909h-124l100 627h192z" />
    <glyph glyph-name="quotesinglbase" unicode="&#x201a;" horiz-adv-x="578" 
d="M284 -377h-124l100 627h192z" />
    <glyph glyph-name="hyphen.subs" horiz-adv-x="946" 
d="M170 51v127h606v-127h-606z" />
    <glyph glyph-name="hyphen.sups" horiz-adv-x="946" 
d="M170 1382v127h606v-127h-606z" />
    <glyph glyph-name="space" unicode=" " horiz-adv-x="594" 
 />
    <glyph glyph-name="cent" unicode="&#xa2;" horiz-adv-x="1356" 
d="M711 377c139 0 254 68 324 174l131 -96c-96 -134 -251 -224 -427 -232v-223h-108v228c-269 38 -473 264 -473 542c0 279 204 505 473 543v223h108v-218c176 -8 331 -98 427 -232l-131 -96c-70 106 -185 174 -324 174c-223 0 -393 -172 -393 -394
c0 -221 170 -393 393 -393z" />
    <glyph glyph-name="currency" unicode="&#xa4;" horiz-adv-x="1393" 
d="M694 295c-94 0 -188 31 -266 90l-104 -106l-93 98l105 102c-60 78 -88 170 -88 264c0 95 28 189 88 265l-103 100l93 98l104 -106c78 61 174 92 268 92c93 0 185 -31 263 -90l102 102l94 -92l-102 -102c59 -78 90 -172 90 -267c0 -94 -31 -188 -90 -266l102 -100l-92 -98
l-104 106c-78 -59 -173 -90 -267 -90zM694 426c176 0 318 141 318 317c0 175 -144 316 -318 316c-176 0 -317 -144 -317 -320s143 -313 317 -313z" />
    <glyph glyph-name="dollar" unicode="$" horiz-adv-x="1270" 
d="M1118 406c0 -257 -181 -403 -409 -423v-159h-166v165c-172 28 -320 120 -410 232l125 125c92 -127 217 -209 381 -209c178 0 313 103 313 262c0 176 -162 246 -334 318c-211 88 -411 176 -411 436c0 216 141 361 336 395v168h166v-165c160 -20 281 -102 368 -203
l-106 -111c-121 127 -215 162 -334 162c-142 0 -264 -82 -264 -234c0 -174 165 -237 342 -309c194 -80 403 -174 403 -450z" />
    <glyph glyph-name="Euro" unicode="&#x20ac;" horiz-adv-x="1657" 
d="M1010 154c143 0 286 67 383 180l129 -123c-127 -139 -326 -231 -512 -231c-318 0 -583 225 -676 540h-174v144h145c-4 34 -6 69 -6 104c0 32 2 63 5 94h-144v144h171c90 320 358 550 679 550c186 0 385 -92 512 -231l-129 -123c-97 113 -240 180 -383 180
c-225 0 -417 -153 -498 -376h557v-144h-592c-4 -31 -6 -62 -6 -94c0 -36 3 -70 7 -104h591v-144h-553c83 -217 272 -366 494 -366z" />
    <glyph glyph-name="florin" unicode="&#x192;" horiz-adv-x="1077" 
d="M829 1403c-104 0 -184 -76 -202 -186l-31 -193h283l-23 -160h-286l-220 -1376h-186l216 1376h-171l24 160h173l34 219c29 176 193 313 369 313c59 0 117 -16 141 -34l-18 -152c-27 23 -68 33 -103 33z" />
    <glyph glyph-name="sterling" unicode="&#xa3;" horiz-adv-x="1407" 
d="M166 0v131l35 2c84 4 129 51 129 135v404h-164v153h164v242c0 285 196 489 477 489c199 0 391 -139 450 -331l-170 -76c-22 133 -149 229 -280 229c-180 0 -299 -125 -299 -311v-242h381v-153h-381v-508h731v-164h-1073z" />
    <glyph glyph-name="yen" unicode="&#xa5;" horiz-adv-x="1495" 
d="M1370 1536l-527 -797h398v-143h-405v-172h403v-143h-403v-281h-174v281h-406v143h406v172h-406v143h396l-527 797h217l407 -648l408 648h213z" />
    <glyph glyph-name="plus" unicode="+" horiz-adv-x="1245" 
d="M543 188v408h-408v160h408v407h159v-407h408v-160h-408v-408h-159z" />
    <glyph glyph-name="minus" unicode="&#x2212;" horiz-adv-x="1239" 
d="M258 596v160h723v-160h-723z" />
    <glyph glyph-name="multiply" unicode="&#xd7;" horiz-adv-x="1077" 
d="M268 283l-110 112l268 269l-268 266l110 112l271 -266l268 266l113 -112l-271 -266l271 -269l-113 -112l-268 268z" />
    <glyph glyph-name="divide" unicode="&#xf7;" horiz-adv-x="997" 
d="M496 913c-64 0 -119 52 -119 119c0 66 55 121 119 121c65 0 122 -55 122 -121c0 -67 -57 -119 -122 -119zM137 596v160h723v-160h-723zM496 199c-64 0 -119 51 -119 120c0 64 55 119 119 119c65 0 122 -55 122 -119c0 -69 -57 -120 -122 -120z" />
    <glyph glyph-name="equal" unicode="=" horiz-adv-x="1243" 
d="M260 805v160h723v-160h-723zM260 391v158h723v-158h-723z" />
    <glyph glyph-name="notequal" unicode="&#x2260;" horiz-adv-x="1149" 
d="M143 0l207 391h-133v158h217l135 256h-352v160h436l207 391h133l-207 -391h154v-160h-238l-135 -256h373v-158h-455l-206 -391h-136z" />
    <glyph glyph-name="greater" unicode="&#x3e;" horiz-adv-x="1409" 
d="M154 1382l1130 -567v-190l-1130 -572v180l963 488l-963 485v176z" />
    <glyph glyph-name="less" unicode="&#x3c;" horiz-adv-x="1409" 
d="M1255 1382v-176l-963 -485l963 -488v-180l-1130 572v190z" />
    <glyph glyph-name="greaterequal" unicode="&#x2265;" horiz-adv-x="1458" 
d="M174 1440l1131 -516v-193l-1131 -522v180l955 439l-955 436v176zM174 0v147h1131v-147h-1131z" />
    <glyph glyph-name="lessequal" unicode="&#x2264;" horiz-adv-x="1458" 
d="M1284 1440v-176l-954 -436l954 -439v-180l-1130 522v193zM154 0v147h1130v-147h-1130z" />
    <glyph glyph-name="plusminus" unicode="&#xb1;" horiz-adv-x="1303" 
d="M575 338v407h-407v160h407v408h160v-408h408v-160h-408v-407h-160zM152 4v160h991v-160h-991z" />
    <glyph glyph-name="approxequal" unicode="&#x2248;" horiz-adv-x="1436" 
d="M934 649c-146 0 -227 96 -281 156c-47 51 -84 78 -135 78c-100 0 -160 -92 -158 -213h-149c-4 217 119 364 309 364c111 0 178 -55 258 -149c37 -43 76 -90 144 -90c90 0 155 84 153 213h150c4 -205 -111 -359 -291 -359zM934 227c-146 0 -225 95 -281 154
c-45 49 -78 80 -135 80c-100 -2 -160 -94 -158 -213h-149c-4 217 119 364 309 364c111 0 180 -53 258 -149c35 -43 76 -90 144 -90c90 0 155 82 153 213h150c4 -205 -111 -359 -291 -359z" />
    <glyph glyph-name="asciitilde" unicode="~" horiz-adv-x="1430" 
d="M930 342c-146 0 -228 96 -281 156c-47 53 -84 80 -135 80c-102 0 -160 -99 -158 -216h-149c-12 216 115 365 309 365c115 0 182 -55 258 -147c39 -48 78 -91 144 -91c90 0 161 82 153 213h150c16 -204 -111 -360 -291 -360z" />
    <glyph glyph-name="logicalnot" unicode="&#xac;" horiz-adv-x="1661" 
d="M1253 225v525h-1112v149h1260v-674h-148z" />
    <glyph glyph-name="emptyset" unicode="&#x2205;" horiz-adv-x="1573" 
d="M1245 1002c96 -108 154 -250 154 -406c0 -338 -275 -612 -613 -612c-155 0 -297 58 -405 153l-88 -88l-53 53l88 88c-96 108 -154 250 -154 406c0 338 275 612 612 612c155 0 298 -58 406 -153l88 88l53 -53zM317 596c0 -117 42 -223 112 -305l662 663
c-82 69 -188 111 -305 111c-260 0 -469 -209 -469 -469zM786 127c261 0 469 209 469 469c0 116 -42 223 -111 305l-662 -663c82 -69 188 -111 304 -111z" />
    <glyph glyph-name="infinity" unicode="&#x221e;" horiz-adv-x="1729" 
d="M487 287c-165 0 -288 131 -294 309c6 178 129 309 294 309c119 0 250 -74 375 -205c123 131 258 205 375 205c172 0 289 -123 295 -309c-6 -186 -123 -309 -295 -309c-117 0 -252 73 -375 205c-125 -132 -256 -205 -375 -205zM487 426c80 0 181 61 283 170
c-102 109 -203 170 -283 170c-84 0 -153 -74 -155 -170c2 -96 71 -170 155 -170zM1237 426c86 0 152 70 156 170c-4 100 -70 170 -156 170c-82 0 -182 -61 -283 -170c101 -109 201 -170 283 -170z" />
    <glyph glyph-name="integral" unicode="&#x222b;" horiz-adv-x="979" 
d="M100 -457v172c217 0 306 86 306 293v1137c0 178 124 303 282 303c68 0 139 -21 199 -70l-88 -135c-33 31 -70 39 -101 39c-65 0 -125 -45 -125 -152v-1124c0 -297 -184 -463 -473 -463z" />
    <glyph glyph-name="product" unicode="&#x220f;" horiz-adv-x="1610" 
d="M1473 1440v-152h-150v-1288h-152v1288h-733v-1288h-151v1288h-150v152h1336z" />
    <glyph glyph-name="summation" unicode="&#x2211;" horiz-adv-x="1440" 
d="M125 -242v123l737 717l-737 717v125h1182v-162h-908l684 -680l-684 -680h908v-162z" />
    <glyph glyph-name="radical" unicode="&#x221a;" horiz-adv-x="1430" 
d="M481 0l-231 713h-139v139h239l203 -623l625 1307h153l-733 -1536h-117z" />
    <glyph glyph-name="uni00B5" unicode="&#xb5;" horiz-adv-x="1366" 
d="M989 1024h168v-1024h-168v152c-74 -105 -193 -172 -327 -172c-105 0 -200 40 -271 106v-598h-129v1536h168v-621c0 -151 123 -274 277 -274c155 0 282 123 282 274v621z" />
    <glyph glyph-name="partialdiff" unicode="&#x2202;" horiz-adv-x="1206" 
d="M383 1446c367 57 653 -291 651 -774c-2 -375 -217 -660 -497 -660c-324 0 -476 262 -349 606c117 314 391 440 646 332c-67 248 -235 387 -451 355v141zM866 672c1 43 -1 84 -5 124c-210 136 -417 49 -517 -221c-90 -245 4 -436 195 -436c174 0 323 230 327 533z" />
    <glyph glyph-name="percent" unicode="%" horiz-adv-x="1616" 
d="M440 928c-174 0 -315 141 -315 317c0 172 141 311 315 311c172 0 312 -139 312 -311c0 -176 -140 -317 -312 -317zM430 0h-184l938 1536h180zM440 1067c97 0 174 80 174 178c0 94 -77 174 -174 174c-98 0 -178 -80 -178 -174c0 -98 80 -178 178 -178zM1178 -16
c-174 0 -314 141 -314 315c0 172 142 311 314 311s313 -139 313 -311c0 -174 -141 -315 -313 -315zM1178 121c98 0 176 80 176 178c0 96 -80 174 -176 174c-99 0 -177 -78 -177 -174c0 -98 78 -178 177 -178z" />
    <glyph glyph-name="perthousand" unicode="&#x2030;" horiz-adv-x="2347" 
d="M440 928c-174 0 -315 141 -315 317c0 172 141 311 315 311c172 0 312 -139 312 -311c0 -176 -140 -317 -312 -317zM430 0h-184l938 1536h180zM440 1067c97 0 174 80 174 178c0 94 -77 174 -174 174c-98 0 -178 -80 -178 -174c0 -98 80 -178 178 -178zM1178 -16
c-174 0 -314 141 -314 315c0 172 142 311 314 311s313 -139 313 -311c0 -174 -141 -315 -313 -315zM1911 -16c-174 0 -314 141 -314 315c0 172 142 311 314 311s313 -139 313 -311c0 -174 -141 -315 -313 -315zM1178 121c98 0 176 80 176 178c0 96 -80 174 -176 174
c-99 0 -177 -78 -177 -174c0 -98 78 -178 177 -178zM1911 121c98 0 176 80 176 178c0 96 -80 174 -176 174c-99 0 -176 -78 -176 -174c0 -98 77 -178 176 -178z" />
    <glyph glyph-name="plus.subs" horiz-adv-x="1114" 
d="M494 -272v323h-324v127h324v324h127v-324h323v-127h-323v-323h-127z" />
    <glyph glyph-name="minus.subs" horiz-adv-x="946" 
d="M170 51v127h606v-127h-606z" />
    <glyph glyph-name="plus.sups" horiz-adv-x="1114" 
d="M494 1059v323h-324v127h324v324h127v-324h323v-127h-323v-323h-127z" />
    <glyph glyph-name="minus.sups" horiz-adv-x="946" 
d="M170 1382v127h606v-127h-606z" />
    <glyph glyph-name="lozenge" unicode="&#x25ca;" horiz-adv-x="1438" 
d="M719 106l-619 617l619 618l616 -616zM721 297l424 428l-424 426l-428 -428z" />
    <glyph glyph-name="uniF8FF" unicode="&#xf8ff;" horiz-adv-x="1864" 
d="M932 0c-428 0 -778 350 -778 778c0 430 350 778 778 778c430 0 778 -348 778 -778c0 -428 -348 -778 -778 -778zM932 74c389 0 704 317 704 704c0 389 -315 705 -704 705c-387 0 -705 -316 -705 -705c0 -387 318 -704 705 -704zM1339 444c-8 0 -18 5 -24 13l-297 295
c-14 16 -14 39 0 53l297 297c14 14 37 14 51 0c14 -15 14 -39 0 -53l-270 -271l270 -270c14 -14 12 -35 0 -51c-6 -8 -16 -13 -27 -13zM524 444c-20 0 -37 17 -37 37v594c0 21 17 37 37 37c21 0 37 -16 37 -37v-594c0 -20 -16 -37 -37 -37zM932 444c-21 0 -37 17 -37 37v594
c0 21 16 37 37 37c20 0 37 -16 37 -37v-594c0 -20 -17 -37 -37 -37zM635 741c-21 0 -37 17 -37 37c0 21 16 37 37 37h186c21 0 37 -16 37 -37c0 -20 -16 -37 -37 -37h-186z" />
    <glyph glyph-name="at" unicode="@" horiz-adv-x="1788" 
d="M920 -229c-435 0 -762 297 -762 745c0 430 338 754 772 754c370 0 704 -221 704 -647c0 -324 -178 -490 -381 -490c-112 0 -174 68 -184 148h-4c-45 -72 -139 -146 -256 -146c-174 0 -283 131 -283 322c0 237 162 450 394 450c104 0 184 -51 217 -121h4l20 95h123
c-24 -133 -53 -279 -78 -398c-28 -137 -26 -229 78 -229c121 0 219 131 219 354c0 338 -233 539 -575 539c-371 0 -623 -266 -623 -633c0 -385 275 -620 629 -620c209 0 369 59 508 178l76 -95c-156 -137 -363 -206 -598 -206zM838 262c166 0 235 178 241 305
c4 113 -32 215 -159 215c-150 0 -238 -176 -238 -331c0 -80 35 -189 156 -189z" />
    <glyph glyph-name="ampersand" unicode="&#x26;" horiz-adv-x="1503" 
d="M575 -25c-262 0 -442 185 -442 443c0 213 127 315 342 479c-115 133 -158 231 -158 336c0 184 138 323 332 323c197 0 334 -137 334 -315c0 -158 -113 -252 -264 -375l305 -395l203 256l129 -102l-226 -283l265 -342l-219 -4l-164 215c-133 -137 -273 -236 -437 -236z
M616 975c113 84 205 147 205 260c0 102 -82 166 -172 170c-104 4 -172 -66 -172 -174c0 -101 60 -160 139 -256zM563 141c125 0 240 95 344 203l-327 426c-164 -121 -281 -211 -281 -352c0 -139 115 -277 264 -277z" />
    <glyph glyph-name="paragraph" unicode="&#xb6;" horiz-adv-x="1192" 
d="M549 -307v1157h-66c-225 0 -364 121 -364 344s139 342 364 342h160v-1843h-94zM836 -307v1843h94v-1843h-94z" />
    <glyph glyph-name="section" unicode="&#xa7;" horiz-adv-x="991" 
d="M707 505c68 -50 116 -118 112 -226c-6 -179 -143 -285 -313 -279c-125 4 -227 63 -287 147l98 76c41 -59 111 -96 191 -98c98 -4 184 45 186 147c11 256 -518 183 -504 549c3 90 39 161 94 211c-69 50 -118 118 -114 228c6 176 145 282 315 276c123 -4 226 -66 285 -145
l-98 -80c-41 65 -109 102 -189 104c-98 2 -184 -45 -188 -151c-10 -254 518 -181 504 -547c-3 -89 -37 -163 -92 -212zM313 821c-4 -137 139 -184 273 -248c53 28 89 77 90 144c4 140 -139 186 -274 249c-52 -28 -88 -79 -89 -145z" />
    <glyph glyph-name="copyright" unicode="&#xa9;" horiz-adv-x="1884" 
d="M942 -20c-434 0 -788 354 -788 788s354 788 788 788s789 -354 789 -788s-355 -788 -789 -788zM942 80c385 0 690 305 690 688s-305 688 -690 688c-383 0 -688 -305 -688 -688s305 -688 688 -688zM944 330c-244 0 -438 194 -438 438s194 438 438 438
c111 0 232 -51 309 -129l-69 -67c-62 63 -152 100 -240 100c-190 0 -342 -149 -342 -342c0 -190 152 -340 342 -340c88 0 178 37 240 100l69 -69c-77 -78 -198 -129 -309 -129z" />
    <glyph glyph-name="registered" unicode="&#xae;" horiz-adv-x="1884" 
d="M942 1556c434 0 789 -354 789 -788s-355 -788 -789 -788s-788 354 -788 788s354 788 788 788zM942 80c385 0 690 305 690 688s-305 688 -690 688c-383 0 -688 -305 -688 -688s305 -688 688 -688zM1298 987c0 -119 -71 -218 -175 -257l206 -458h-121l-196 439h-238v-439
h-112v992h358c156 0 278 -123 278 -277zM774 1155v-336h236c98 0 176 60 176 166c0 102 -78 170 -176 170h-236z" />
    <glyph glyph-name="trademark" unicode="&#x2122;" horiz-adv-x="1714" 
d="M125 1442v94h493v-94h-194v-625h-107v625h-192zM1339 1536h113v-719h-104v554l-267 -396l-264 390v-548h-106v719h114l257 -383z" />
    <glyph glyph-name="degree" unicode="&#xb0;" horiz-adv-x="944" 
d="M471 1008c-152 0 -274 125 -274 274c0 152 122 274 274 274s274 -122 274 -274c0 -149 -122 -274 -274 -274zM471 1106c98 0 176 78 176 176s-78 178 -176 178s-176 -80 -176 -178s78 -176 176 -176z" />
    <glyph glyph-name="bar" unicode="|" horiz-adv-x="637" 
d="M262 -307v1843h113v-1843h-113z" />
    <glyph glyph-name="brokenbar" unicode="&#xa6;" horiz-adv-x="637" 
d="M262 799v737h113v-737h-113zM262 -307v737h113v-737h-113z" />
    <glyph glyph-name="uni2113" unicode="&#x2113;" horiz-adv-x="1266" 
d="M700 -10c-270 0 -391 192 -407 393v23c-45 -29 -94 -70 -143 -107l-54 100c68 56 135 101 195 152v598c0 405 194 532 379 532c215 0 309 -172 309 -362c0 -279 -207 -539 -520 -813v-57c0 -224 139 -322 278 -322c160 0 287 123 348 233l84 -73
c-114 -203 -278 -297 -469 -297zM457 668c219 215 393 428 393 643c0 141 -47 245 -182 245c-93 0 -211 -90 -211 -385v-503z" />
    <glyph glyph-name="dagger" unicode="&#x2020;" horiz-adv-x="1028" 
d="M926 969v-115h-359v-1202h-114v1202h-351v115h351v403h114v-403h359z" />
    <glyph glyph-name="daggerdbl" unicode="&#x2021;" horiz-adv-x="1094" 
d="M958 854h-358v-676h358v-112h-358v-414h-115v414h-350v112h350v676h-350v115h350v403h115v-403h358v-115z" />
    <glyph glyph-name="estimated" unicode="&#x212e;" horiz-adv-x="2023" 
d="M1026 -18c-483 0 -874 352 -874 784c0 438 391 790 874 790c485 0 877 -352 877 -790v-21h-1418c-8 0 -12 -2 -12 -8v-430c0 -18 8 -35 19 -49c137 -141 327 -233 536 -233c227 0 428 102 565 262h125c-155 -185 -409 -305 -692 -305zM485 788h1088c6 0 8 9 8 15v430
c0 18 -6 39 -20 51c-138 135 -324 225 -533 225c-207 0 -395 -92 -534 -231c-13 -14 -21 -33 -21 -53v-422c0 -6 4 -15 12 -15z" />
    <glyph glyph-name="uni2116" unicode="&#x2116;" horiz-adv-x="3097" 
d="M1427 304v1232h164v-1536h-116l-1049 1233v-1233h-164v1536h117zM2390 369c-307 0 -553 245 -553 550c0 304 246 549 553 549s553 -245 553 -549c0 -305 -246 -550 -553 -550zM2390 1313c-219 0 -393 -176 -393 -394c0 -219 174 -395 393 -395c217 0 393 176 393 395
c0 218 -176 394 -393 394zM1929 0v127h924v-127h-924z" />
    <glyph glyph-name="asciicircum" unicode="^" horiz-adv-x="1505" 
d="M1399 406h-146l-500 994l-501 -994h-146l570 1130h153z" />
    <glyph glyph-name="uni0308" unicode="&#x308;" 
d="M-633 1329c-61 0 -115 51 -115 113c0 65 54 114 115 114s115 -49 115 -114c0 -62 -54 -113 -115 -113zM-256 1329c-62 0 -115 51 -115 113c0 65 53 114 115 114c63 0 114 -49 114 -114c0 -62 -51 -113 -114 -113z" />
    <glyph glyph-name="uni0307" unicode="&#x307;" 
d="M-256 1329c-61 0 -115 51 -115 113c0 65 54 114 115 114s115 -49 115 -114c0 -62 -54 -113 -115 -113z" />
    <glyph glyph-name="gravecomb" unicode="&#x300;" 
d="M-191 1219l-231 243l100 78l262 -321h-131z" />
    <glyph glyph-name="acutecomb" unicode="&#x301;" 
d="M-433 1219l263 321l100 -78l-232 -243h-131z" />
    <glyph glyph-name="uni030B" unicode="&#x30b;" 
d="M-787 1219l262 321l101 -78l-232 -243h-131zM-438 1219l262 321l100 -78l-231 -243h-131z" />
    <glyph glyph-name="uni0302" unicode="&#x302;" 
d="M-534 1239h-121l201 297h172l202 -297h-123l-163 227z" />
    <glyph glyph-name="uni030C" unicode="&#x30c;" 
d="M-454 1239l-201 297h121l168 -227l163 227h123l-202 -297h-172z" />
    <glyph glyph-name="uni0306" unicode="&#x306;" 
d="M-451 1221c-194 0 -337 120 -337 315h104c0 -135 98 -229 233 -229c138 0 236 94 236 229h104c0 -195 -143 -315 -340 -315z" />
    <glyph glyph-name="uni030A" unicode="&#x30a;" 
d="M-334 1161c-119 0 -217 99 -217 215c0 119 98 215 217 215c117 0 213 -96 213 -215c0 -116 -96 -215 -213 -215zM-334 1251c67 0 123 54 123 125c0 68 -56 127 -123 127c-70 0 -123 -59 -123 -127c0 -71 53 -125 123 -125z" />
    <glyph glyph-name="tildecomb" unicode="&#x303;" 
d="M-331 1276c-86 0 -144 47 -183 108c-30 50 -61 66 -102 66c-72 0 -113 -70 -113 -162h-92c0 146 78 252 203 252c82 0 139 -45 180 -108c25 -39 57 -66 107 -66c69 0 112 59 112 162h90c0 -144 -73 -252 -202 -252z" />
    <glyph glyph-name="uni0304" unicode="&#x304;" 
d="M-805 1247v115h635v-115h-635z" />
    <glyph glyph-name="hookabovecomb" unicode="&#x309;" 
d="M-360 1137v129c76 16 123 49 123 110c0 45 -35 80 -86 80c-35 0 -64 -12 -92 -31l-56 78c41 33 91 53 144 53c106 0 192 -75 192 -180c0 -71 -43 -137 -133 -164v-75h-92z" />
    <glyph glyph-name="uni0312" unicode="&#x312;" 
d="M-249 1538h124l-100 -306h-192z" />
    <glyph glyph-name="uni031B" unicode="&#x31b;" 
d="M-342 772c-59 0 -141 23 -213 68l74 39c41 -23 74 -29 96 -29c76 0 99 82 99 133v164h141v-125c0 -184 -98 -250 -197 -250z" />
    <glyph glyph-name="dotbelowcomb" unicode="&#x323;" 
d="M-254 -512c-61 0 -115 51 -115 115c0 61 54 114 115 114s115 -53 115 -114c0 -64 -54 -115 -115 -115z" />
    <glyph glyph-name="uni0326" unicode="&#x326;" 
d="M-311 -582l-92 37l164 381h168z" />
    <glyph glyph-name="uni0327" unicode="&#x327;" 
d="M-308 -532c-94 0 -198 59 -237 135l92 37c29 -41 94 -72 145 -72c62 0 111 49 111 113c0 67 -47 106 -115 106c-24 0 -53 -6 -84 -18l-79 51l92 184h100l-66 -139c19 4 37 6 54 6c114 0 198 -78 198 -190c0 -119 -92 -213 -211 -213z" />
    <glyph glyph-name="uni0328" unicode="&#x328;" 
d="M-272 -530c-138 6 -230 81 -230 211c0 151 125 272 324 352l59 -33c-141 -59 -264 -162 -264 -281c0 -77 53 -110 119 -110c46 0 100 16 145 46v-161c-49 -19 -101 -27 -153 -24z" />
    <glyph glyph-name="uni0335" unicode="&#x335;" 
d="M-772 465v119h602v-119h-602z" />
    <glyph glyph-name="uni0336" unicode="&#x336;" 
d="M-1634 473v119h1464v-119h-1464z" />
    <glyph glyph-name="uni0337" unicode="&#x337;" 
d="M-645 227v154l579 432v-154z" />
    <glyph glyph-name="uni0338" unicode="&#x338;" 
d="M-912 246l785 1122l108 -68l-782 -1122z" />
    <glyph glyph-name="uni0338.case" 
d="M-1252 6l1116 1610l127 -80l-1114 -1608z" />
    <glyph glyph-name="acute" unicode="&#xb4;" horiz-adv-x="485" 
d="M59 1219l263 321l100 -78l-232 -243h-131z" />
    <glyph glyph-name="breve" unicode="&#x2d8;" horiz-adv-x="897" 
d="M446 1221c-194 0 -337 120 -337 315h104c0 -135 98 -229 233 -229c138 0 236 94 236 229h104c0 -195 -143 -315 -340 -315z" />
    <glyph glyph-name="caron" unicode="&#x2c7;" horiz-adv-x="735" 
d="M281 1239l-201 297h121l168 -227l163 227h123l-202 -297h-172z" />
    <glyph glyph-name="cedilla" unicode="&#xb8;" horiz-adv-x="625" 
d="M317 -532c-94 0 -198 59 -237 135l92 37c29 -41 94 -72 145 -72c62 0 111 49 111 113c0 67 -47 106 -115 106c-24 0 -53 -6 -84 -18l-79 51l92 184h100l-66 -139c19 4 37 6 54 6c114 0 198 -78 198 -190c0 -119 -92 -213 -211 -213z" />
    <glyph glyph-name="circumflex" unicode="&#x2c6;" horiz-adv-x="735" 
d="M201 1239h-121l201 297h172l202 -297h-123l-163 227z" />
    <glyph glyph-name="dieresis" unicode="&#xa8;" horiz-adv-x="887" 
d="M254 1329c-61 0 -115 51 -115 113c0 65 54 114 115 114s115 -49 115 -114c0 -62 -54 -113 -115 -113zM631 1329c-62 0 -115 51 -115 113c0 65 53 114 115 114c63 0 114 -49 114 -114c0 -62 -51 -113 -114 -113z" />
    <glyph glyph-name="dotaccent" unicode="&#x2d9;" horiz-adv-x="510" 
d="M254 1329c-61 0 -115 51 -115 113c0 65 54 114 115 114s115 -49 115 -114c0 -62 -54 -113 -115 -113z" />
    <glyph glyph-name="grave" unicode="`" horiz-adv-x="492" 
d="M301 1219l-231 243l100 78l262 -321h-131z" />
    <glyph glyph-name="hungarumlaut" unicode="&#x2dd;" horiz-adv-x="899" 
d="M57 1219l262 321l101 -78l-232 -243h-131zM406 1219l262 321l100 -78l-231 -243h-131z" />
    <glyph glyph-name="macron" unicode="&#xaf;" horiz-adv-x="975" 
d="M170 1247v115h635v-115h-635z" />
    <glyph glyph-name="ogonek" unicode="&#x2db;" horiz-adv-x="600" 
d="M328 -530c-138 6 -230 81 -230 211c0 151 125 272 324 352l59 -33c-141 -59 -264 -162 -264 -281c0 -77 53 -110 119 -110c46 0 100 16 145 46v-161c-49 -19 -101 -27 -153 -24z" />
    <glyph glyph-name="ring" unicode="&#x2da;" horiz-adv-x="670" 
d="M336 1161c-119 0 -217 99 -217 215c0 119 98 215 217 215c117 0 213 -96 213 -215c0 -116 -96 -215 -213 -215zM336 1251c67 0 123 54 123 125c0 68 -56 127 -123 127c-70 0 -123 -59 -123 -127c0 -71 53 -125 123 -125z" />
    <glyph glyph-name="tilde" unicode="&#x2dc;" horiz-adv-x="952" 
d="M621 1276c-86 0 -144 47 -183 108c-30 50 -61 66 -102 66c-72 0 -113 -70 -113 -162h-92c0 146 78 252 203 252c82 0 139 -45 180 -108c25 -39 57 -66 107 -66c69 0 112 59 112 162h90c0 -144 -73 -252 -202 -252z" />
    <glyph glyph-name="uni03060301" 
d="M-457 1696l263 321l100 -78l-232 -243h-131zM-394 1221c-194 0 -337 120 -337 315h104c0 -135 98 -229 233 -229c138 0 236 94 236 229h104c0 -195 -143 -315 -340 -315z" />
    <glyph glyph-name="uni03060300" 
d="M-475 1696l-231 243l100 78l262 -321h-131zM-412 1221c-194 0 -337 120 -337 315h104c0 -135 98 -229 233 -229c138 0 236 94 236 229h104c0 -195 -143 -315 -340 -315z" />
    <glyph glyph-name="uni03060309" 
d="M-441 1614v129c76 16 123 49 123 110c0 45 -35 80 -86 80c-35 0 -64 -12 -92 -31l-56 78c41 33 91 53 144 53c106 0 192 -75 192 -180c0 -71 -43 -137 -133 -164v-75h-92zM-399 1221c-194 0 -337 120 -337 315h104c0 -135 98 -229 233 -229c138 0 236 94 236 229h104
c0 -195 -143 -315 -340 -315z" />
    <glyph glyph-name="uni03060303" 
d="M-318 1753c-86 0 -144 47 -183 108c-30 50 -61 66 -102 66c-72 0 -113 -70 -113 -162h-92c0 146 78 252 203 252c82 0 139 -45 180 -108c25 -39 57 -66 107 -66c69 0 112 59 112 162h90c0 -144 -73 -252 -202 -252zM-463 1221c-194 0 -337 120 -337 315h104
c0 -135 98 -229 233 -229c138 0 236 94 236 229h104c0 -195 -143 -315 -340 -315z" />
    <glyph glyph-name="uni03020301" 
d="M-383 1696l263 321l100 -78l-232 -243h-131zM-483 1239h-121l201 297h172l202 -297h-123l-163 227z" />
    <glyph glyph-name="uni03020300" 
d="M-381 1696l-231 243l100 78l262 -321h-131zM-481 1239h-121l201 297h172l202 -297h-123l-163 227z" />
    <glyph glyph-name="uni03020309" 
d="M-387 1614v129c76 16 123 49 123 110c0 45 -35 80 -86 80c-35 0 -64 -12 -92 -31l-56 78c41 33 91 53 144 53c106 0 192 -75 192 -180c0 -71 -43 -137 -133 -164v-75h-92zM-508 1239h-121l201 297h172l202 -297h-123l-163 227z" />
    <glyph glyph-name="uni03020303" 
d="M-272 1753c-86 0 -144 47 -183 108c-30 50 -61 66 -102 66c-72 0 -113 -70 -113 -162h-92c0 146 78 252 203 252c82 0 139 -45 180 -108c25 -39 57 -66 107 -66c69 0 112 59 112 162h90c0 -144 -73 -252 -202 -252zM-580 1239h-121l201 297h172l202 -297h-123l-163 227z
" />
    <glyph glyph-name="number" horiz-adv-x="1229" 
d="M549 1079c254 0 434 -133 434 -428v-651h-147l-8 111h-5c-98 -80 -221 -131 -364 -131c-217 0 -367 116 -367 331c0 217 152 342 389 342h342c-1 198 -124 277 -293 277c-104 0 -223 -31 -344 -74l-43 139c144 52 279 84 406 84zM496 113c129 0 247 51 327 142v280h-311
c-160 0 -260 -68 -260 -216c0 -151 108 -206 244 -206z" />
    </font>
</defs>
</svg>
