<?xml version="1.0" standalone="no"?>
<!DOCTYPE svg PUBLIC "-//W3C//DTD SVG 1.1//EN" "http://www.w3.org/Graphics/SVG/1.1/DTD/svg11.dtd" >
<svg xmlns="http://www.w3.org/2000/svg" xmlns:xlink="http://www.w3.org/1999/xlink" version="1.1">
<metadata>
Created by FontForge 20170924 at Sun Feb 19 12:30:52 2017
 By www-data
Copyright \(c\)2016. HK Nova is a trademark of Alfredo Marco Pradil. All rights reserved.
</metadata>
<defs>
<font id="HKNova-Heavy" horiz-adv-x="0" >
  <font-face 
    font-family="HK Nova Heavy"
    font-weight="900"
    font-stretch="normal"
    units-per-em="2048"
    panose-1="0 0 10 0 0 0 0 0 0 0"
    ascent="1536"
    descent="-512"
    x-height="1059"
    cap-height="1536"
    bbox="-1698 -586 3123 2531"
    underline-thickness="164"
    underline-position="-100"
    stemh="334"
    stemv="381"
    unicode-range="U+0020-FB02"
  />
<missing-glyph horiz-adv-x="1286" 
d="M152 0v1536h983v-1536h-983zM426 274h434v988h-434v-988z" />
    <glyph glyph-name="f_f" unicode="ff" horiz-adv-x="1552" 
d="M199 0v823h-160v236h160v121c0 227 135 376 372 376c56 0 131 -8 207 -32v-285c-35 16 -69 25 -100 25c-64 0 -109 -35 -109 -125v-80h377v121c0 227 135 376 373 376c55 0 131 -8 207 -32v-285c-35 16 -70 25 -101 25c-63 0 -108 -35 -108 -125v-80h215v-236h-215v-823
h-371v823h-377v-823h-370z" />
    <glyph glyph-name="fi" unicode="fi" horiz-adv-x="1475" 
d="M569 1159v-100h215v-236h-215v-823h-370v823h-160v236h160v80c0 288 114 417 372 417c56 0 131 -8 207 -32v-264c-35 10 -69 16 -98 16c-68 0 -111 -33 -111 -117zM1143 1161c-111 0 -201 88 -201 199c0 108 90 196 201 196c107 0 197 -88 197 -196
c0 -111 -90 -199 -197 -199zM957 0v1059h366v-1059h-366z" />
    <glyph glyph-name="fl" unicode="fl" horiz-adv-x="1477" 
d="M569 1159v-100h215v-236h-215v-823h-370v823h-160v236h160v80c0 288 114 417 372 417c56 0 131 -8 207 -32v-264c-35 10 -69 16 -98 16c-68 0 -111 -33 -111 -117zM957 1536h368v-1536h-368v1536z" />
    <glyph glyph-name=".notdef" horiz-adv-x="1286" 
d="M152 0v1536h983v-1536h-983zM426 274h434v988h-434v-988z" />
    <glyph glyph-name="A" unicode="A" horiz-adv-x="1642" 
d="M1210 0l-97 293h-584l-97 -293h-399l553 1536h469l555 -1536h-400zM632 604h378l-189 568z" />
    <glyph glyph-name="Aacute" unicode="&#xc1;" horiz-adv-x="1642" 
d="M1157 1931l-228 -272h-217l271 395zM1210 0l-97 293h-584l-97 -293h-399l553 1536h469l555 -1536h-400zM632 604h378l-189 568z" />
    <glyph glyph-name="Abreve" unicode="&#x102;" horiz-adv-x="1642" 
d="M821 1640c-227 0 -381 117 -381 373h205c0 -123 65 -209 176 -209c113 0 178 86 178 209h205c0 -256 -154 -373 -383 -373zM1210 0l-97 293h-584l-97 -293h-399l553 1536h469l555 -1536h-400zM632 604h378l-189 568z" />
    <glyph glyph-name="uni1EAE" unicode="&#x1eae;" horiz-adv-x="1642" 
d="M1157 2408l-228 -272h-217l271 395zM821 1640c-227 0 -381 117 -381 373h205c0 -123 65 -209 176 -209c113 0 178 86 178 209h205c0 -256 -154 -373 -383 -373zM1210 0l-97 293h-584l-97 -293h-399l553 1536h469l555 -1536h-400zM632 604h378l-189 568z" />
    <glyph glyph-name="uni1EB6" unicode="&#x1eb6;" horiz-adv-x="1642" 
d="M821 1640c-227 0 -381 117 -381 373h205c0 -123 65 -209 176 -209c113 0 178 86 178 209h205c0 -256 -154 -373 -383 -373zM1610 0h-400l-97 293h-584l-97 -293h-399l553 1536h469zM632 604h378l-189 568zM823 -117c107 0 197 -88 197 -196c0 -111 -90 -199 -197 -199
c-110 0 -200 88 -200 199c0 108 90 196 200 196z" />
    <glyph glyph-name="uni1EB0" unicode="&#x1eb0;" horiz-adv-x="1642" 
d="M929 2136h-217l-227 272l174 123zM821 1640c-227 0 -381 117 -381 373h205c0 -123 65 -209 176 -209c113 0 178 86 178 209h205c0 -256 -154 -373 -383 -373zM1210 0l-97 293h-584l-97 -293h-399l553 1536h469l555 -1536h-400zM632 604h378l-189 568z" />
    <glyph glyph-name="uni1EB2" unicode="&#x1eb2;" horiz-adv-x="1642" 
d="M798 2375c-26 0 -59 -12 -86 -43l-78 115c43 37 105 63 189 63c135 0 205 -71 205 -180c0 -106 -66 -139 -125 -157v-89h-154v146c76 12 107 45 107 88c0 33 -17 57 -58 57zM821 1640c-227 0 -381 117 -381 373h205c0 -123 65 -209 176 -209c113 0 178 86 178 209h205
c0 -256 -154 -373 -383 -373zM1210 0l-97 293h-584l-97 -293h-399l553 1536h469l555 -1536h-400zM632 604h378l-189 568z" />
    <glyph glyph-name="uni1EB4" unicode="&#x1eb4;" horiz-adv-x="1642" 
d="M696 2324c-47 0 -65 -61 -65 -141h-185c0 186 91 321 242 321c96 0 166 -55 209 -120c12 -19 25 -35 51 -35c47 0 62 55 62 141h186c0 -180 -82 -322 -244 -322c-88 0 -153 41 -207 121c-16 25 -30 35 -49 35zM821 1640c-227 0 -381 117 -381 373h205
c0 -123 65 -209 176 -209c113 0 178 86 178 209h205c0 -256 -154 -373 -383 -373zM1210 0l-97 293h-584l-97 -293h-399l553 1536h469l555 -1536h-400zM632 604h378l-189 568z" />
    <glyph glyph-name="uni01CD" unicode="&#x1cd;" horiz-adv-x="1642" 
d="M923 1712h-205l-237 301h217l123 -176l122 176h218zM1210 0l-97 293h-584l-97 -293h-399l553 1536h469l555 -1536h-400zM632 604h378l-189 568z" />
    <glyph glyph-name="Acircumflex" unicode="&#xc2;" horiz-adv-x="1642" 
d="M821 1888l-123 -176h-217l237 301h205l238 -301h-218zM1210 0l-97 293h-584l-97 -293h-399l553 1536h469l555 -1536h-400zM632 604h378l-189 568z" />
    <glyph glyph-name="uni1EA4" unicode="&#x1ea4;" horiz-adv-x="1642" 
d="M1157 2408l-228 -272h-217l271 395zM821 1888l-123 -176h-217l237 301h205l238 -301h-218zM1210 0l-97 293h-584l-97 -293h-399l553 1536h469l555 -1536h-400zM632 604h378l-189 568z" />
    <glyph glyph-name="uni1EAC" unicode="&#x1eac;" horiz-adv-x="1642" 
d="M821 1888l-123 -176h-217l237 301h205l238 -301h-218zM1610 0h-400l-97 293h-584l-97 -293h-399l553 1536h469zM632 604h378l-189 568zM823 -117c107 0 197 -88 197 -196c0 -111 -90 -199 -197 -199c-110 0 -200 88 -200 199c0 108 90 196 200 196z" />
    <glyph glyph-name="uni1EA6" unicode="&#x1ea6;" horiz-adv-x="1642" 
d="M929 2136h-217l-227 272l174 123zM821 1888l-123 -176h-217l237 301h205l238 -301h-218zM1210 0l-97 293h-584l-97 -293h-399l553 1536h469l555 -1536h-400zM632 604h378l-189 568z" />
    <glyph glyph-name="uni1EA8" unicode="&#x1ea8;" horiz-adv-x="1642" 
d="M798 2375c-26 0 -59 -12 -86 -43l-78 115c43 37 105 63 189 63c135 0 205 -71 205 -180c0 -106 -66 -139 -125 -157v-89h-154v146c76 12 107 45 107 88c0 33 -17 57 -58 57zM821 1888l-123 -176h-217l237 301h205l238 -301h-218zM1210 0l-97 293h-584l-97 -293h-399
l553 1536h469l555 -1536h-400zM632 604h378l-189 568z" />
    <glyph glyph-name="uni1EAA" unicode="&#x1eaa;" horiz-adv-x="1642" 
d="M696 2324c-47 0 -65 -61 -65 -141h-185c0 186 91 321 242 321c96 0 166 -55 209 -120c12 -19 25 -35 51 -35c47 0 62 55 62 141h186c0 -180 -82 -322 -244 -322c-88 0 -153 41 -207 121c-16 25 -30 35 -49 35zM718 2013h205l238 -301h-218l-122 176l-123 -176h-217z
M1210 0l-97 293h-584l-97 -293h-399l553 1536h469l555 -1536h-400zM632 604h378l-189 568z" />
    <glyph glyph-name="Adieresis" unicode="&#xc4;" horiz-adv-x="1642" 
d="M597 1704c-90 0 -166 73 -166 166c0 90 76 163 166 163s166 -73 166 -163c0 -93 -76 -166 -166 -166zM1046 1704c-92 0 -166 73 -166 166c0 90 74 163 166 163c90 0 164 -73 164 -163c0 -93 -74 -166 -164 -166zM1210 0l-97 293h-584l-97 -293h-399l553 1536h469
l555 -1536h-400zM632 604h378l-189 568z" />
    <glyph glyph-name="uni1EA0" unicode="&#x1ea0;" horiz-adv-x="1642" 
d="M1610 0h-400l-97 293h-584l-97 -293h-399l553 1536h469zM632 604h378l-189 568zM823 -117c107 0 197 -88 197 -196c0 -111 -90 -199 -197 -199c-110 0 -200 88 -200 199c0 108 90 196 200 196z" />
    <glyph glyph-name="Agrave" unicode="&#xc0;" horiz-adv-x="1642" 
d="M929 1659h-217l-227 272l174 123zM1210 0l-97 293h-584l-97 -293h-399l553 1536h469l555 -1536h-400zM632 604h378l-189 568z" />
    <glyph glyph-name="uni1EA2" unicode="&#x1ea2;" horiz-adv-x="1642" 
d="M798 1898c-26 0 -59 -12 -86 -43l-78 115c43 37 105 63 189 63c135 0 205 -71 205 -180c0 -106 -66 -139 -125 -157v-89h-154v146c76 12 107 45 107 88c0 33 -17 57 -58 57zM1210 0l-97 293h-584l-97 -293h-399l553 1536h469l555 -1536h-400zM632 604h378l-189 568z" />
    <glyph glyph-name="Amacron" unicode="&#x100;" horiz-adv-x="1642" 
d="M1159 1896v-209h-676v209h676zM1210 0l-97 293h-584l-97 -293h-399l553 1536h469l555 -1536h-400zM632 604h378l-189 568z" />
    <glyph glyph-name="Aogonek" unicode="&#x104;" horiz-adv-x="1642" 
d="M1415 -248c0 -53 39 -80 86 -80c37 0 78 17 109 47v-219c-47 -20 -98 -30 -148 -30c-188 0 -278 104 -278 225c0 112 77 236 221 305h-195l-97 293h-584l-97 -293h-399l553 1536h469l555 -1536c-117 -61 -195 -174 -195 -248zM632 604h378l-189 568z" />
    <glyph glyph-name="Aring" unicode="&#xc5;" horiz-adv-x="1642" 
d="M821 1634c-143 0 -260 117 -260 260c0 140 117 256 260 256c141 0 256 -116 256 -256c0 -143 -115 -260 -256 -260zM821 2009c-63 0 -110 -55 -110 -115c0 -69 47 -114 110 -114c64 0 113 45 113 114c0 60 -49 115 -113 115zM1210 0l-97 293h-584l-97 -293h-399l553 1536
h469l555 -1536h-400zM632 604h378l-189 568z" />
    <glyph glyph-name="Atilde" unicode="&#xc3;" horiz-adv-x="1642" 
d="M696 1847c-47 0 -65 -61 -65 -141h-185c0 186 91 321 242 321c96 0 166 -55 209 -120c12 -19 25 -35 51 -35c47 0 62 55 62 141h186c0 -180 -82 -322 -244 -322c-88 0 -153 41 -207 121c-16 25 -30 35 -49 35zM1210 0l-97 293h-584l-97 -293h-399l553 1536h469l555 -1536
h-400zM632 604h378l-189 568z" />
    <glyph glyph-name="AE" unicode="&#xc6;" horiz-adv-x="2157" 
d="M33 0l553 1536h1429v-332h-606v-270h520v-332h-520v-270h606v-332h-987v293h-500l-96 -293h-399zM633 604h395v600h-197z" />
    <glyph glyph-name="B" unicode="B" horiz-adv-x="1454" 
d="M1113 808c155 -51 263 -159 263 -372c0 -264 -164 -436 -524 -436h-664v1536h525c364 0 549 -158 549 -428c0 -149 -57 -242 -149 -300zM733 1225h-176v-293h176c141 0 187 65 187 151c0 84 -46 142 -187 142zM799 322c166 0 211 77 211 157s-45 166 -211 166h-242v-323
h242z" />
    <glyph glyph-name="C" unicode="C" horiz-adv-x="1563" 
d="M909 -20c-477 0 -825 331 -825 788s348 788 825 788c248 0 461 -94 609 -247l-269 -248c-80 94 -200 151 -340 151c-254 0 -444 -190 -444 -444s190 -444 444 -444c140 0 260 57 340 151l269 -248c-148 -153 -361 -247 -609 -247z" />
    <glyph glyph-name="Cacute" unicode="&#x106;" horiz-adv-x="1563" 
d="M794 1659l271 395l174 -123l-228 -272h-217zM909 -20c-477 0 -825 331 -825 788s348 788 825 788c248 0 461 -94 609 -247l-269 -248c-80 94 -200 151 -340 151c-254 0 -444 -190 -444 -444s190 -444 444 -444c140 0 260 57 340 151l269 -248
c-148 -153 -361 -247 -609 -247z" />
    <glyph glyph-name="Ccaron" unicode="&#x10c;" horiz-adv-x="1563" 
d="M800 1712l-237 301h217l123 -176l122 176h218l-238 -301h-205zM909 -20c-477 0 -825 331 -825 788s348 788 825 788c248 0 461 -94 609 -247l-269 -248c-80 94 -200 151 -340 151c-254 0 -444 -190 -444 -444s190 -444 444 -444c140 0 260 57 340 151l269 -248
c-148 -153 -361 -247 -609 -247z" />
    <glyph glyph-name="Ccedilla" unicode="&#xc7;" horiz-adv-x="1563" 
d="M909 324c140 0 260 57 340 151l269 -248c-135 -140 -324 -230 -544 -245l-59 -95c13 2 27 4 39 4c111 0 193 -79 193 -192c0 -129 -103 -231 -232 -231s-215 73 -241 165l155 50c13 -39 45 -58 78 -58c39 0 78 27 78 74c0 51 -39 76 -78 76c-29 0 -55 -13 -69 -37
l-125 69l97 178c-425 42 -726 358 -726 783c0 457 348 788 825 788c248 0 461 -94 609 -247l-269 -248c-80 94 -200 151 -340 151c-254 0 -444 -190 -444 -444s190 -444 444 -444z" />
    <glyph glyph-name="Cdotaccent" unicode="&#x10a;" horiz-adv-x="1563" 
d="M905 1638c-111 0 -201 88 -201 199c0 108 90 196 201 196c107 0 197 -88 197 -196c0 -111 -90 -199 -197 -199zM909 -20c-477 0 -825 331 -825 788s348 788 825 788c248 0 461 -94 609 -247l-269 -248c-80 94 -200 151 -340 151c-254 0 -444 -190 -444 -444
s190 -444 444 -444c140 0 260 57 340 151l269 -248c-148 -153 -361 -247 -609 -247z" />
    <glyph glyph-name="D" unicode="D" horiz-adv-x="1636" 
d="M188 0v1536h568c526 0 788 -303 788 -768s-262 -768 -788 -768h-568zM569 332h166c281 0 410 149 410 436s-129 436 -410 436h-166v-872z" />
    <glyph glyph-name="Eth" unicode="&#xd0;" horiz-adv-x="1636" 
d="M756 1536c526 0 788 -303 788 -768s-262 -768 -788 -768h-568v659h-141v217h141v660h568zM735 332c281 0 410 149 410 436s-129 436 -410 436h-166v-328h224v-217h-224v-327h166z" />
    <glyph glyph-name="Dcaron" unicode="&#x10e;" horiz-adv-x="1636" 
d="M612 1712l-237 301h217l123 -176l122 176h218l-238 -301h-205zM188 0v1536h568c526 0 788 -303 788 -768s-262 -768 -788 -768h-568zM569 332h166c281 0 410 149 410 436s-129 436 -410 436h-166v-872z" />
    <glyph glyph-name="Dcroat" unicode="&#x110;" horiz-adv-x="1636" 
d="M756 1536c526 0 788 -303 788 -768s-262 -768 -788 -768h-568v659h-141v217h141v660h568zM735 332c281 0 410 149 410 436s-129 436 -410 436h-166v-328h224v-217h-224v-327h166z" />
    <glyph glyph-name="E" unicode="E" horiz-adv-x="1296" 
d="M1155 1204h-586v-272h521v-328h-521v-272h586v-332h-967v1536h967v-332z" />
    <glyph glyph-name="Eacute" unicode="&#xc9;" horiz-adv-x="1296" 
d="M1018 1931l-228 -272h-217l271 395zM1155 1204h-586v-272h521v-328h-521v-272h586v-332h-967v1536h967v-332z" />
    <glyph glyph-name="Ecaron" unicode="&#x11a;" horiz-adv-x="1296" 
d="M784 1712h-205l-237 301h217l123 -176l122 176h218zM1155 1204h-586v-272h521v-328h-521v-272h586v-332h-967v1536h967v-332z" />
    <glyph glyph-name="Ecircumflex" unicode="&#xca;" horiz-adv-x="1296" 
d="M682 1888l-123 -176h-217l237 301h205l238 -301h-218zM1155 1204h-586v-272h521v-328h-521v-272h586v-332h-967v1536h967v-332z" />
    <glyph glyph-name="uni1EBE" unicode="&#x1ebe;" horiz-adv-x="1296" 
d="M1018 2408l-228 -272h-217l271 395zM682 1888l-123 -176h-217l237 301h205l238 -301h-218zM1155 1204h-586v-272h521v-328h-521v-272h586v-332h-967v1536h967v-332z" />
    <glyph glyph-name="uni1EC6" unicode="&#x1ec6;" horiz-adv-x="1296" 
d="M682 1888l-123 -176h-217l237 301h205l238 -301h-218zM1155 1204h-586v-272h521v-328h-521v-272h586v-332h-967v1536h967v-332zM684 -117c107 0 197 -88 197 -196c0 -111 -90 -199 -197 -199c-110 0 -200 88 -200 199c0 108 90 196 200 196z" />
    <glyph glyph-name="uni1EC0" unicode="&#x1ec0;" horiz-adv-x="1296" 
d="M790 2136h-217l-227 272l174 123zM682 1888l-123 -176h-217l237 301h205l238 -301h-218zM1155 1204h-586v-272h521v-328h-521v-272h586v-332h-967v1536h967v-332z" />
    <glyph glyph-name="uni1EC2" unicode="&#x1ec2;" horiz-adv-x="1296" 
d="M659 2375c-26 0 -59 -12 -86 -43l-78 115c43 37 105 63 189 63c135 0 205 -71 205 -180c0 -106 -66 -139 -125 -157v-89h-154v146c76 12 107 45 107 88c0 33 -17 57 -58 57zM682 1888l-123 -176h-217l237 301h205l238 -301h-218zM1155 1204h-586v-272h521v-328h-521v-272
h586v-332h-967v1536h967v-332z" />
    <glyph glyph-name="uni1EC4" unicode="&#x1ec4;" horiz-adv-x="1296" 
d="M557 2324c-47 0 -65 -61 -65 -141h-185c0 186 91 321 242 321c96 0 166 -55 209 -120c12 -19 25 -35 51 -35c47 0 62 55 62 141h186c0 -180 -82 -322 -244 -322c-88 0 -153 41 -207 121c-16 25 -30 35 -49 35zM579 2013h205l238 -301h-218l-122 176l-123 -176h-217z
M1155 1204h-586v-272h521v-328h-521v-272h586v-332h-967v1536h967v-332z" />
    <glyph glyph-name="Edieresis" unicode="&#xcb;" horiz-adv-x="1296" 
d="M458 1704c-90 0 -166 73 -166 166c0 90 76 163 166 163s166 -73 166 -163c0 -93 -76 -166 -166 -166zM907 1704c-92 0 -166 73 -166 166c0 90 74 163 166 163c90 0 164 -73 164 -163c0 -93 -74 -166 -164 -166zM1155 1204h-586v-272h521v-328h-521v-272h586v-332h-967
v1536h967v-332z" />
    <glyph glyph-name="Edotaccent" unicode="&#x116;" horiz-adv-x="1296" 
d="M684 1638c-111 0 -201 88 -201 199c0 108 90 196 201 196c107 0 197 -88 197 -196c0 -111 -90 -199 -197 -199zM1155 1204h-586v-272h521v-328h-521v-272h586v-332h-967v1536h967v-332z" />
    <glyph glyph-name="uni1EB8" unicode="&#x1eb8;" horiz-adv-x="1296" 
d="M1155 1204h-586v-272h521v-328h-521v-272h586v-332h-967v1536h967v-332zM684 -117c107 0 197 -88 197 -196c0 -111 -90 -199 -197 -199c-110 0 -200 88 -200 199c0 108 90 196 200 196z" />
    <glyph glyph-name="Egrave" unicode="&#xc8;" horiz-adv-x="1296" 
d="M790 1659h-217l-227 272l174 123zM1155 1204h-586v-272h521v-328h-521v-272h586v-332h-967v1536h967v-332z" />
    <glyph glyph-name="uni1EBA" unicode="&#x1eba;" horiz-adv-x="1296" 
d="M659 1898c-26 0 -59 -12 -86 -43l-78 115c43 37 105 63 189 63c135 0 205 -71 205 -180c0 -106 -66 -139 -125 -157v-89h-154v146c76 12 107 45 107 88c0 33 -17 57 -58 57zM1155 1204h-586v-272h521v-328h-521v-272h586v-332h-967v1536h967v-332z" />
    <glyph glyph-name="Emacron" unicode="&#x112;" horiz-adv-x="1296" 
d="M1020 1896v-209h-676v209h676zM1155 1204h-586v-272h521v-328h-521v-272h586v-332h-967v1536h967v-332z" />
    <glyph glyph-name="Eogonek" unicode="&#x118;" horiz-adv-x="1296" 
d="M1155 1204h-586v-272h521v-328h-521v-272h586v-332c-117 -61 -195 -174 -195 -248c0 -53 39 -80 86 -80c37 0 78 17 109 47v-219c-47 -20 -98 -30 -148 -30c-188 0 -278 104 -278 225c0 112 77 236 221 305h-762v1536h967v-332z" />
    <glyph glyph-name="uni1EBC" unicode="&#x1ebc;" horiz-adv-x="1296" 
d="M557 1847c-47 0 -65 -61 -65 -141h-185c0 186 91 321 242 321c96 0 166 -55 209 -120c12 -19 25 -35 51 -35c47 0 62 55 62 141h186c0 -180 -82 -322 -244 -322c-88 0 -153 41 -207 121c-16 25 -30 35 -49 35zM1155 1204h-586v-272h521v-328h-521v-272h586v-332h-967
v1536h967v-332z" />
    <glyph glyph-name="F" unicode="F" horiz-adv-x="1255" 
d="M1176 1204h-607v-272h521v-328h-521v-604h-381v1536h988v-332z" />
    <glyph glyph-name="G" unicode="G" horiz-adv-x="1804" 
d="M1724 901c7 -37 11 -82 11 -131c0 -459 -349 -790 -826 -790s-825 331 -825 788s348 788 825 788c293 0 537 -124 682 -325l-331 -182c-80 100 -205 163 -353 163c-252 0 -442 -184 -442 -456c0 -240 149 -432 450 -432c221 0 363 102 416 276h-383v301h776z" />
    <glyph glyph-name="Gbreve" unicode="&#x11e;" horiz-adv-x="1804" 
d="M864 1640c-227 0 -381 117 -381 373h205c0 -123 65 -209 176 -209c113 0 178 86 178 209h205c0 -256 -154 -373 -383 -373zM1724 901c7 -37 11 -82 11 -131c0 -459 -349 -790 -826 -790s-825 331 -825 788s348 788 825 788c293 0 537 -124 682 -325l-331 -182
c-80 100 -205 163 -353 163c-252 0 -442 -184 -442 -456c0 -240 149 -432 450 -432c221 0 363 102 416 276h-383v301h776z" />
    <glyph glyph-name="Gcommaaccent" unicode="&#x122;" horiz-adv-x="1804" 
d="M1724 901c7 -37 11 -82 11 -131c0 -459 -349 -790 -826 -790s-825 331 -825 788s348 788 825 788c293 0 537 -124 682 -325l-331 -182c-80 100 -205 163 -353 163c-252 0 -442 -184 -442 -456c0 -240 149 -432 450 -432c221 0 363 102 416 276h-383v301h776zM534 -502
l172 379h313l-311 -461z" />
    <glyph glyph-name="Gdotaccent" unicode="&#x120;" horiz-adv-x="1804" 
d="M866 1638c-111 0 -201 88 -201 199c0 108 90 196 201 196c107 0 197 -88 197 -196c0 -111 -90 -199 -197 -199zM1724 901c7 -37 11 -82 11 -131c0 -459 -349 -790 -826 -790s-825 331 -825 788s348 788 825 788c293 0 537 -124 682 -325l-331 -182
c-80 100 -205 163 -353 163c-252 0 -442 -184 -442 -456c0 -240 149 -432 450 -432c221 0 363 102 416 276h-383v301h776z" />
    <glyph glyph-name="H" unicode="H" horiz-adv-x="1706" 
d="M1137 1536h381v-1536h-381v606h-568v-606h-381v1536h381v-602h568v602z" />
    <glyph glyph-name="Hbar" unicode="&#x126;" horiz-adv-x="1706" 
d="M1628 1282v-135h-110v-1147h-381v606h-568v-606h-381v1147h-111v135h111v254h381v-254h568v254h381v-254h110zM1137 934v213h-568v-213h568z" />
    <glyph glyph-name="I" unicode="I" horiz-adv-x="758" 
d="M188 0v1536h381v-1536h-381z" />
    <glyph glyph-name="Iacute" unicode="&#xcd;" horiz-adv-x="758" 
d="M268 1659l271 395l174 -123l-228 -272h-217zM188 0v1536h381v-1536h-381z" />
    <glyph glyph-name="uni01CF" unicode="&#x1cf;" horiz-adv-x="758" 
d="M274 1712l-237 301h217l123 -176l122 176h218l-238 -301h-205zM188 0v1536h381v-1536h-381z" />
    <glyph glyph-name="Icircumflex" unicode="&#xce;" horiz-adv-x="758" 
d="M254 1712h-217l237 301h205l238 -301h-218l-122 176zM188 0v1536h381v-1536h-381z" />
    <glyph glyph-name="Idieresis" unicode="&#xcf;" horiz-adv-x="758" 
d="M153 1704c-90 0 -166 73 -166 166c0 90 76 163 166 163s166 -73 166 -163c0 -93 -76 -166 -166 -166zM602 1704c-92 0 -166 73 -166 166c0 90 74 163 166 163c90 0 164 -73 164 -163c0 -93 -74 -166 -164 -166zM188 0v1536h381v-1536h-381z" />
    <glyph glyph-name="Idotaccent" unicode="&#x130;" horiz-adv-x="758" 
d="M379 1638c-111 0 -201 88 -201 199c0 108 90 196 201 196c107 0 197 -88 197 -196c0 -111 -90 -199 -197 -199zM188 0v1536h381v-1536h-381z" />
    <glyph glyph-name="uni1ECA" unicode="&#x1eca;" horiz-adv-x="758" 
d="M188 0v1536h381v-1536h-381zM379 -512c-110 0 -200 88 -200 199c0 108 90 196 200 196c107 0 197 -88 197 -196c0 -111 -90 -199 -197 -199z" />
    <glyph glyph-name="Igrave" unicode="&#xcc;" horiz-adv-x="758" 
d="M268 1659l-227 272l174 123l270 -395h-217zM188 0v1536h381v-1536h-381z" />
    <glyph glyph-name="uni1EC8" unicode="&#x1ec8;" horiz-adv-x="758" 
d="M305 1607v146c76 12 107 45 107 88c0 33 -17 57 -58 57c-26 0 -59 -12 -86 -43l-78 115c43 37 105 63 189 63c135 0 205 -71 205 -180c0 -106 -66 -139 -125 -157v-89h-154zM188 0v1536h381v-1536h-381z" />
    <glyph glyph-name="Imacron" unicode="&#x12a;" horiz-adv-x="758" 
d="M39 1687v209h676v-209h-676zM188 0v1536h381v-1536h-381z" />
    <glyph glyph-name="Iogonek" unicode="&#x12e;" horiz-adv-x="758" 
d="M569 0c-117 -61 -195 -174 -195 -248c0 -53 39 -80 86 -80c37 0 78 17 109 47v-219c-47 -20 -98 -30 -148 -30c-188 0 -278 104 -278 225c0 112 77 236 221 305h-176v1536h381v-1536z" />
    <glyph glyph-name="Itilde" unicode="&#x128;" horiz-adv-x="758" 
d="M508 1691c-88 0 -153 41 -207 121c-16 25 -30 35 -49 35c-47 0 -65 -61 -65 -141h-185c0 186 91 321 242 321c96 0 166 -55 209 -120c12 -19 25 -35 51 -35c47 0 62 55 62 141h186c0 -180 -82 -322 -244 -322zM188 0v1536h381v-1536h-381z" />
    <glyph glyph-name="J" unicode="J" horiz-adv-x="1159" 
d="M483 -20c-131 0 -290 30 -452 112l162 309c79 -55 155 -84 245 -84c121 0 176 54 176 224v995h381v-1067c0 -326 -211 -489 -512 -489z" />
    <glyph glyph-name="K" unicode="K" horiz-adv-x="1665" 
d="M1634 0h-506l-559 755v-755h-381v1536h381v-693l559 693h486l-627 -735z" />
    <glyph glyph-name="Kcommaaccent" unicode="&#x136;" horiz-adv-x="1665" 
d="M987 801l647 -801h-506l-559 755v-755h-381v1536h381v-693l559 693h486zM483 -502l172 379h313l-311 -461z" />
    <glyph glyph-name="L" unicode="L" horiz-adv-x="1116" 
d="M569 332h494v-332h-875v1536h381v-1204z" />
    <glyph glyph-name="Lacute" unicode="&#x139;" horiz-adv-x="1116" 
d="M715 1931l-228 -272h-217l271 395zM569 332h494v-332h-875v1536h381v-1204z" />
    <glyph glyph-name="Lcaron" unicode="&#x13d;" horiz-adv-x="1235" 
d="M569 1536v-1204h494v-332h-875v1536h381zM1224 1536l-241 -676h-259l127 676h373z" />
    <glyph glyph-name="Lcommaaccent" unicode="&#x13b;" horiz-adv-x="1116" 
d="M569 332h494v-332h-875v1536h381v-1204zM297 -502l172 379h313l-311 -461z" />
    <glyph glyph-name="Lslash" unicode="&#x141;" horiz-adv-x="1116" 
d="M569 332h494v-332h-875v518l-159 -117v217l159 118v800h381v-518l158 117v-220l-158 -116v-467z" />
    <glyph glyph-name="M" unicode="M" horiz-adv-x="2175" 
d="M1446 1536h541v-1536h-381v1086l-416 -1086h-207l-414 1090v-1090h-381v1536h543l355 -915z" />
    <glyph glyph-name="N" unicode="N" horiz-adv-x="1911" 
d="M1339 1536h383v-1536h-391l-762 1004v-1004h-381v1536h390l761 -997v997z" />
    <glyph glyph-name="Nacute" unicode="&#x143;" horiz-adv-x="1911" 
d="M1301 1931l-228 -272h-217l271 395zM1339 1536h383v-1536h-391l-762 1004v-1004h-381v1536h390l761 -997v997z" />
    <glyph glyph-name="Ncaron" unicode="&#x147;" horiz-adv-x="1911" 
d="M1067 1712h-205l-237 301h217l123 -176l122 176h218zM1339 1536h383v-1536h-391l-762 1004v-1004h-381v1536h390l761 -997v997z" />
    <glyph glyph-name="Ncommaaccent" unicode="&#x145;" horiz-adv-x="1911" 
d="M1339 1536h383v-1536h-391l-762 1004v-1004h-381v1536h390l761 -997v997zM616 -502l172 379h313l-311 -461z" />
    <glyph glyph-name="Eng" unicode="&#x14a;" horiz-adv-x="1911" 
d="M1339 1536h383v-1536c0 -309 -237 -498 -614 -498v279c145 0 244 84 244 219h-21l-762 1004v-1004h-381v1536h390l761 -997v997z" />
    <glyph glyph-name="Ntilde" unicode="&#xd1;" horiz-adv-x="1911" 
d="M840 1847c-47 0 -65 -61 -65 -141h-185c0 186 91 321 242 321c96 0 166 -55 209 -120c12 -19 25 -35 51 -35c47 0 62 55 62 141h186c0 -180 -82 -322 -244 -322c-88 0 -153 41 -207 121c-16 25 -30 35 -49 35zM1339 1536h383v-1536h-391l-762 1004v-1004h-381v1536h390
l761 -997v997z" />
    <glyph glyph-name="O" unicode="O" horiz-adv-x="1819" 
d="M909 -20c-477 0 -825 331 -825 788s348 788 825 788s826 -331 826 -788s-349 -788 -826 -788zM909 324c254 0 445 190 445 444s-191 444 -445 444s-444 -190 -444 -444s190 -444 444 -444z" />
    <glyph glyph-name="Oacute" unicode="&#xd3;" horiz-adv-x="1819" 
d="M800 1659l271 395l174 -123l-228 -272h-217zM909 -20c-477 0 -825 331 -825 788s348 788 825 788s826 -331 826 -788s-349 -788 -826 -788zM909 324c254 0 445 190 445 444s-191 444 -445 444s-444 -190 -444 -444s190 -444 444 -444z" />
    <glyph glyph-name="uni01D1" unicode="&#x1d1;" horiz-adv-x="1819" 
d="M806 1712l-237 301h217l123 -176l122 176h218l-238 -301h-205zM909 -20c-477 0 -825 331 -825 788s348 788 825 788s826 -331 826 -788s-349 -788 -826 -788zM909 324c254 0 445 190 445 444s-191 444 -445 444s-444 -190 -444 -444s190 -444 444 -444z" />
    <glyph glyph-name="Ocircumflex" unicode="&#xd4;" horiz-adv-x="1819" 
d="M786 1712h-217l237 301h205l238 -301h-218l-122 176zM909 -20c-477 0 -825 331 -825 788s348 788 825 788s826 -331 826 -788s-349 -788 -826 -788zM909 324c254 0 445 190 445 444s-191 444 -445 444s-444 -190 -444 -444s190 -444 444 -444z" />
    <glyph glyph-name="uni1ED0" unicode="&#x1ed0;" horiz-adv-x="1819" 
d="M800 2136l271 395l174 -123l-228 -272h-217zM786 1712h-217l237 301h205l238 -301h-218l-122 176zM909 -20c-477 0 -825 331 -825 788s348 788 825 788s826 -331 826 -788s-349 -788 -826 -788zM909 324c254 0 445 190 445 444s-191 444 -445 444s-444 -190 -444 -444
s190 -444 444 -444z" />
    <glyph glyph-name="uni1ED8" unicode="&#x1ed8;" horiz-adv-x="1819" 
d="M786 1712h-217l237 301h205l238 -301h-218l-122 176zM909 -20c-477 0 -825 331 -825 788s348 788 825 788s826 -331 826 -788s-349 -788 -826 -788zM909 324c254 0 445 190 445 444s-191 444 -445 444s-444 -190 -444 -444s190 -444 444 -444zM911 -512
c-110 0 -200 88 -200 199c0 108 90 196 200 196c107 0 197 -88 197 -196c0 -111 -90 -199 -197 -199z" />
    <glyph glyph-name="uni1ED2" unicode="&#x1ed2;" horiz-adv-x="1819" 
d="M800 2136l-227 272l174 123l270 -395h-217zM786 1712h-217l237 301h205l238 -301h-218l-122 176zM909 -20c-477 0 -825 331 -825 788s348 788 825 788s826 -331 826 -788s-349 -788 -826 -788zM909 324c254 0 445 190 445 444s-191 444 -445 444s-444 -190 -444 -444
s190 -444 444 -444z" />
    <glyph glyph-name="uni1ED4" unicode="&#x1ed4;" horiz-adv-x="1819" 
d="M837 2084v146c76 12 107 45 107 88c0 33 -17 57 -58 57c-26 0 -59 -12 -86 -43l-78 115c43 37 105 63 189 63c135 0 205 -71 205 -180c0 -106 -66 -139 -125 -157v-89h-154zM786 1712h-217l237 301h205l238 -301h-218l-122 176zM909 -20c-477 0 -825 331 -825 788
s348 788 825 788s826 -331 826 -788s-349 -788 -826 -788zM909 324c254 0 445 190 445 444s-191 444 -445 444s-444 -190 -444 -444s190 -444 444 -444z" />
    <glyph glyph-name="uni1ED6" unicode="&#x1ed6;" horiz-adv-x="1819" 
d="M1040 2168c-88 0 -153 41 -207 121c-16 25 -30 35 -49 35c-47 0 -65 -61 -65 -141h-185c0 186 91 321 242 321c96 0 166 -55 209 -120c12 -19 25 -35 51 -35c47 0 62 55 62 141h186c0 -180 -82 -322 -244 -322zM786 1712h-217l237 301h205l238 -301h-218l-122 176z
M909 -20c-477 0 -825 331 -825 788s348 788 825 788s826 -331 826 -788s-349 -788 -826 -788zM909 324c254 0 445 190 445 444s-191 444 -445 444s-444 -190 -444 -444s190 -444 444 -444z" />
    <glyph glyph-name="Odieresis" unicode="&#xd6;" horiz-adv-x="1819" 
d="M685 1704c-90 0 -166 73 -166 166c0 90 76 163 166 163s166 -73 166 -163c0 -93 -76 -166 -166 -166zM1134 1704c-92 0 -166 73 -166 166c0 90 74 163 166 163c90 0 164 -73 164 -163c0 -93 -74 -166 -164 -166zM909 -20c-477 0 -825 331 -825 788s348 788 825 788
s826 -331 826 -788s-349 -788 -826 -788zM909 324c254 0 445 190 445 444s-191 444 -445 444s-444 -190 -444 -444s190 -444 444 -444z" />
    <glyph glyph-name="uni1ECC" unicode="&#x1ecc;" horiz-adv-x="1819" 
d="M909 -20c-477 0 -825 331 -825 788s348 788 825 788s826 -331 826 -788s-349 -788 -826 -788zM909 324c254 0 445 190 445 444s-191 444 -445 444s-444 -190 -444 -444s190 -444 444 -444zM911 -512c-110 0 -200 88 -200 199c0 108 90 196 200 196
c107 0 197 -88 197 -196c0 -111 -90 -199 -197 -199z" />
    <glyph glyph-name="Ograve" unicode="&#xd2;" horiz-adv-x="1819" 
d="M800 1659l-227 272l174 123l270 -395h-217zM909 -20c-477 0 -825 331 -825 788s348 788 825 788s826 -331 826 -788s-349 -788 -826 -788zM909 324c254 0 445 190 445 444s-191 444 -445 444s-444 -190 -444 -444s190 -444 444 -444z" />
    <glyph glyph-name="uni1ECE" unicode="&#x1ece;" horiz-adv-x="1819" 
d="M837 1607v146c76 12 107 45 107 88c0 33 -17 57 -58 57c-26 0 -59 -12 -86 -43l-78 115c43 37 105 63 189 63c135 0 205 -71 205 -180c0 -106 -66 -139 -125 -157v-89h-154zM909 -20c-477 0 -825 331 -825 788s348 788 825 788s826 -331 826 -788s-349 -788 -826 -788z
M909 324c254 0 445 190 445 444s-191 444 -445 444s-444 -190 -444 -444s190 -444 444 -444z" />
    <glyph glyph-name="Ohorn" unicode="&#x1a0;" horiz-adv-x="1819" 
d="M1782 1397c0 -157 -71 -213 -152 -226c67 -116 105 -253 105 -403c0 -457 -349 -788 -826 -788s-825 331 -825 788s348 788 825 788c243 0 453 -86 600 -230c4 -1 8 -1 12 -1c76 0 99 22 99 133v143h162v-204zM909 324c254 0 445 190 445 444s-191 444 -445 444
s-444 -190 -444 -444s190 -444 444 -444z" />
    <glyph glyph-name="uni1EDA" unicode="&#x1eda;" horiz-adv-x="1819" 
d="M1245 1931l-228 -272h-217l271 395zM1782 1397c0 -157 -71 -213 -152 -226c67 -116 105 -253 105 -403c0 -457 -349 -788 -826 -788s-825 331 -825 788s348 788 825 788c243 0 453 -86 600 -230c4 -1 8 -1 12 -1c76 0 99 22 99 133v143h162v-204zM909 324
c254 0 445 190 445 444s-191 444 -445 444s-444 -190 -444 -444s190 -444 444 -444z" />
    <glyph glyph-name="uni1EE2" unicode="&#x1ee2;" horiz-adv-x="1819" 
d="M1782 1397c0 -157 -71 -213 -152 -226c67 -116 105 -253 105 -403c0 -457 -349 -788 -826 -788s-825 331 -825 788s348 788 825 788c243 0 453 -86 600 -230c4 -1 8 -1 12 -1c76 0 99 22 99 133v143h162v-204zM909 324c254 0 445 190 445 444s-191 444 -445 444
s-444 -190 -444 -444s190 -444 444 -444zM911 -117c107 0 197 -88 197 -196c0 -111 -90 -199 -197 -199c-110 0 -200 88 -200 199c0 108 90 196 200 196z" />
    <glyph glyph-name="uni1EDC" unicode="&#x1edc;" horiz-adv-x="1819" 
d="M1017 1659h-217l-227 272l174 123zM1782 1397c0 -157 -71 -213 -152 -226c67 -116 105 -253 105 -403c0 -457 -349 -788 -826 -788s-825 331 -825 788s348 788 825 788c243 0 453 -86 600 -230c4 -1 8 -1 12 -1c76 0 99 22 99 133v143h162v-204zM909 324
c254 0 445 190 445 444s-191 444 -445 444s-444 -190 -444 -444s190 -444 444 -444z" />
    <glyph glyph-name="uni1EDE" unicode="&#x1ede;" horiz-adv-x="1819" 
d="M886 1898c-26 0 -59 -12 -86 -43l-78 115c43 37 105 63 189 63c135 0 205 -71 205 -180c0 -106 -66 -139 -125 -157v-89h-154v146c76 12 107 45 107 88c0 33 -17 57 -58 57zM1782 1397c0 -157 -71 -213 -152 -226c67 -116 105 -253 105 -403c0 -457 -349 -788 -826 -788
s-825 331 -825 788s348 788 825 788c243 0 453 -86 600 -230c4 -1 8 -1 12 -1c76 0 99 22 99 133v143h162v-204zM909 324c254 0 445 190 445 444s-191 444 -445 444s-444 -190 -444 -444s190 -444 444 -444z" />
    <glyph glyph-name="uni1EE0" unicode="&#x1ee0;" horiz-adv-x="1819" 
d="M784 1847c-47 0 -65 -61 -65 -141h-185c0 186 91 321 242 321c96 0 166 -55 209 -120c12 -19 25 -35 51 -35c47 0 62 55 62 141h186c0 -180 -82 -322 -244 -322c-88 0 -153 41 -207 121c-16 25 -30 35 -49 35zM1782 1397c0 -157 -71 -213 -152 -226
c67 -116 105 -253 105 -403c0 -457 -349 -788 -826 -788s-825 331 -825 788s348 788 825 788c243 0 453 -86 600 -230c4 -1 8 -1 12 -1c76 0 99 22 99 133v143h162v-204zM909 324c254 0 445 190 445 444s-191 444 -445 444s-444 -190 -444 -444s190 -444 444 -444z" />
    <glyph glyph-name="Ohungarumlaut" unicode="&#x150;" horiz-adv-x="1819" 
d="M606 1659l270 395l174 -123l-227 -272h-217zM995 1659l270 395l174 -123l-227 -272h-217zM909 -20c-477 0 -825 331 -825 788s348 788 825 788s826 -331 826 -788s-349 -788 -826 -788zM909 324c254 0 445 190 445 444s-191 444 -445 444s-444 -190 -444 -444
s190 -444 444 -444z" />
    <glyph glyph-name="Omacron" unicode="&#x14c;" horiz-adv-x="1819" 
d="M571 1687v209h676v-209h-676zM909 -20c-477 0 -825 331 -825 788s348 788 825 788s826 -331 826 -788s-349 -788 -826 -788zM909 324c254 0 445 190 445 444s-191 444 -445 444s-444 -190 -444 -444s190 -444 444 -444z" />
    <glyph glyph-name="Oslash" unicode="&#xd8;" horiz-adv-x="1819" 
d="M1437 1388c185 -141 298 -360 298 -620c0 -457 -349 -788 -826 -788c-145 0 -278 31 -393 86l-96 -138l-135 80l97 140c-185 140 -298 360 -298 620c0 457 348 788 825 788c145 0 279 -31 394 -86l96 138l135 -80zM465 768c0 -127 48 -239 128 -318l504 724
c-57 24 -120 38 -188 38c-254 0 -444 -190 -444 -444zM909 324c254 0 445 190 445 444c0 127 -48 239 -128 318l-504 -724c56 -25 119 -38 187 -38z" />
    <glyph glyph-name="Otilde" unicode="&#xd5;" horiz-adv-x="1819" 
d="M1040 1691c-88 0 -153 41 -207 121c-16 25 -30 35 -49 35c-47 0 -65 -61 -65 -141h-185c0 186 91 321 242 321c96 0 166 -55 209 -120c12 -19 25 -35 51 -35c47 0 62 55 62 141h186c0 -180 -82 -322 -244 -322zM909 -20c-477 0 -825 331 -825 788s348 788 825 788
s826 -331 826 -788s-349 -788 -826 -788zM909 324c254 0 445 190 445 444s-191 444 -445 444s-444 -190 -444 -444s190 -444 444 -444z" />
    <glyph glyph-name="OE" unicode="&#x152;" horiz-adv-x="2187" 
d="M872 0c-526 0 -788 303 -788 768s262 768 788 768h1174v-332h-606v-270h520v-332h-520v-270h606v-332h-1174zM893 332h166v872h-166c-281 0 -410 -149 -410 -436s129 -436 410 -436z" />
    <glyph glyph-name="P" unicode="P" horiz-adv-x="1483" 
d="M887 1536c325 0 528 -229 528 -510c0 -287 -203 -500 -528 -500h-318v-526h-381v1536h699zM823 842c158 0 228 71 228 190c0 113 -70 189 -228 189h-254v-379h254z" />
    <glyph glyph-name="Thorn" unicode="&#xde;" horiz-adv-x="1386" 
d="M860 1309c260 0 465 -209 465 -475c0 -254 -205 -453 -465 -453h-303v-381h-369v1538h369v-229h303zM848 705c80 0 143 63 143 141c0 80 -63 139 -143 139h-291v-280h291z" />
    <glyph glyph-name="Q" unicode="Q" horiz-adv-x="1835" 
d="M1737 768c0 -220 -81 -411 -218 -550l193 -218l-252 -121l-165 183c-113 -53 -243 -82 -384 -82c-477 0 -825 331 -825 788s348 788 825 788s826 -331 826 -788zM911 324c46 0 90 6 131 18l-274 303l281 103l221 -249c54 73 86 166 86 269c0 254 -191 444 -445 444
s-444 -190 -444 -444s190 -444 444 -444z" />
    <glyph glyph-name="R" unicode="R" horiz-adv-x="1524" 
d="M1085 0l-336 627h-180v-627h-381v1536h617c366 0 528 -211 528 -471c0 -179 -94 -317 -237 -387l403 -678h-414zM569 1225v-310h213c138 0 187 62 187 156s-49 154 -187 154h-213z" />
    <glyph glyph-name="Racute" unicode="&#x154;" horiz-adv-x="1524" 
d="M1094 1931l-228 -272h-217l271 395zM1085 0l-336 627h-180v-627h-381v1536h617c366 0 528 -211 528 -471c0 -179 -94 -317 -237 -387l403 -678h-414zM569 1225v-310h213c138 0 187 62 187 156s-49 154 -187 154h-213z" />
    <glyph glyph-name="Rcaron" unicode="&#x158;" horiz-adv-x="1524" 
d="M860 1712h-205l-237 301h217l123 -176l122 176h218zM1085 0l-336 627h-180v-627h-381v1536h617c366 0 528 -211 528 -471c0 -179 -94 -317 -237 -387l403 -678h-414zM569 1225v-310h213c138 0 187 62 187 156s-49 154 -187 154h-213z" />
    <glyph glyph-name="Rcommaaccent" unicode="&#x156;" horiz-adv-x="1524" 
d="M1096 678l403 -678h-414l-336 627h-180v-627h-381v1536h617c366 0 528 -211 528 -471c0 -179 -94 -317 -237 -387zM569 1225v-310h213c138 0 187 62 187 156s-49 154 -187 154h-213zM428 -502l172 379h313l-311 -461z" />
    <glyph glyph-name="S" unicode="S" horiz-adv-x="1292" 
d="M682 -18c-213 0 -451 84 -621 245l205 275c111 -117 299 -205 426 -205c80 0 135 35 135 111c0 110 -120 149 -297 229c-194 88 -413 197 -413 475c0 287 229 444 506 444c182 0 381 -67 546 -198l-190 -281c-107 97 -266 162 -371 162c-67 0 -114 -27 -114 -86
c0 -92 110 -131 286 -211c207 -94 434 -215 434 -508c0 -303 -245 -452 -532 -452z" />
    <glyph glyph-name="Sacute" unicode="&#x15a;" horiz-adv-x="1292" 
d="M509 1659l271 395l174 -123l-228 -272h-217zM682 -18c-213 0 -451 84 -621 245l205 275c111 -117 299 -205 426 -205c80 0 135 35 135 111c0 110 -120 149 -297 229c-194 88 -413 197 -413 475c0 287 229 444 506 444c182 0 381 -67 546 -198l-190 -281
c-107 97 -266 162 -371 162c-67 0 -114 -27 -114 -86c0 -92 110 -131 286 -211c207 -94 434 -215 434 -508c0 -303 -245 -452 -532 -452z" />
    <glyph glyph-name="Scaron" unicode="&#x160;" horiz-adv-x="1292" 
d="M515 1712l-237 301h217l123 -176l122 176h218l-238 -301h-205zM682 -18c-213 0 -451 84 -621 245l205 275c111 -117 299 -205 426 -205c80 0 135 35 135 111c0 110 -120 149 -297 229c-194 88 -413 197 -413 475c0 287 229 444 506 444c182 0 381 -67 546 -198l-190 -281
c-107 97 -266 162 -371 162c-67 0 -114 -27 -114 -86c0 -92 110 -131 286 -211c207 -94 434 -215 434 -508c0 -303 -245 -452 -532 -452z" />
    <glyph glyph-name="Scedilla" unicode="&#x15e;" horiz-adv-x="1292" 
d="M1214 434c0 -293 -229 -442 -503 -451l-60 -98c13 2 27 4 39 4c111 0 193 -79 193 -192c0 -129 -103 -231 -232 -231s-215 73 -241 165l155 50c13 -39 45 -58 78 -58c39 0 78 27 78 74c0 51 -39 76 -78 76c-29 0 -55 -13 -69 -37l-125 69l103 187
c-176 27 -355 106 -491 235l205 275c111 -117 299 -205 426 -205c80 0 135 35 135 111c0 110 -120 149 -297 229c-194 88 -413 197 -413 475c0 287 229 444 506 444c182 0 381 -67 546 -198l-190 -281c-107 97 -266 162 -371 162c-67 0 -114 -27 -114 -86
c0 -92 110 -131 286 -211c207 -94 434 -215 434 -508z" />
    <glyph glyph-name="Scommaaccent" unicode="&#x218;" horiz-adv-x="1292" 
d="M682 -18c-213 0 -451 84 -621 245l205 275c111 -117 299 -205 426 -205c80 0 135 35 135 111c0 110 -120 149 -297 229c-194 88 -413 197 -413 475c0 287 229 444 506 444c182 0 381 -67 546 -198l-190 -281c-107 97 -266 162 -371 162c-67 0 -114 -27 -114 -86
c0 -92 110 -131 286 -211c207 -94 434 -215 434 -508c0 -303 -245 -452 -532 -452zM483 -586l-174 82l172 379h313z" />
    <glyph glyph-name="T" unicode="T" horiz-adv-x="1241" 
d="M1188 1536v-332h-377v-1204h-379v1204h-379v332h1135z" />
    <glyph glyph-name="Tbar" unicode="&#x166;" horiz-adv-x="1241" 
d="M1188 1204h-377v-328h183v-217h-183v-659h-379v659h-184v217h184v328h-379v332h1135v-332z" />
    <glyph glyph-name="Tcaron" unicode="&#x164;" horiz-adv-x="1241" 
d="M723 1712h-205l-237 301h217l123 -176l122 176h218zM1188 1536v-332h-377v-1204h-379v1204h-379v332h1135z" />
    <glyph glyph-name="uni0162" unicode="&#x162;" horiz-adv-x="1241" 
d="M811 0h-108l-70 -113c13 2 27 4 39 4c111 0 193 -79 193 -192c0 -129 -103 -231 -232 -231s-215 73 -241 165l155 50c13 -39 45 -58 78 -58c39 0 78 27 78 74c0 51 -39 76 -78 76c-29 0 -55 -13 -69 -37l-125 69l106 193h-105v1204h-379v332h1135v-332h-377v-1204z" />
    <glyph glyph-name="uni021A" unicode="&#x21a;" horiz-adv-x="1241" 
d="M1188 1536v-332h-377v-1204h-379v1204h-379v332h1135zM291 -502l172 379h313l-311 -461z" />
    <glyph glyph-name="U" unicode="U" horiz-adv-x="1624" 
d="M811 -20c-367 0 -653 161 -653 571v985h381v-934c0 -221 120 -291 272 -291c154 0 274 70 274 291v934h381v-985c0 -410 -286 -571 -655 -571z" />
    <glyph glyph-name="Uacute" unicode="&#xda;" horiz-adv-x="1624" 
d="M702 1659l271 395l174 -123l-228 -272h-217zM811 -20c-367 0 -653 161 -653 571v985h381v-934c0 -221 120 -291 272 -291c154 0 274 70 274 291v934h381v-985c0 -410 -286 -571 -655 -571z" />
    <glyph glyph-name="uni01D3" unicode="&#x1d3;" horiz-adv-x="1624" 
d="M708 1712l-237 301h217l123 -176l122 176h218l-238 -301h-205zM811 -20c-367 0 -653 161 -653 571v985h381v-934c0 -221 120 -291 272 -291c154 0 274 70 274 291v934h381v-985c0 -410 -286 -571 -655 -571z" />
    <glyph glyph-name="Ucircumflex" unicode="&#xdb;" horiz-adv-x="1624" 
d="M688 1712h-217l237 301h205l238 -301h-218l-122 176zM811 -20c-367 0 -653 161 -653 571v985h381v-934c0 -221 120 -291 272 -291c154 0 274 70 274 291v934h381v-985c0 -410 -286 -571 -655 -571z" />
    <glyph glyph-name="Udieresis" unicode="&#xdc;" horiz-adv-x="1624" 
d="M587 1704c-90 0 -166 73 -166 166c0 90 76 163 166 163s166 -73 166 -163c0 -93 -76 -166 -166 -166zM1036 1704c-92 0 -166 73 -166 166c0 90 74 163 166 163c90 0 164 -73 164 -163c0 -93 -74 -166 -164 -166zM811 -20c-367 0 -653 161 -653 571v985h381v-934
c0 -221 120 -291 272 -291c154 0 274 70 274 291v934h381v-985c0 -410 -286 -571 -655 -571z" />
    <glyph glyph-name="uni01D7" unicode="&#x1d7;" horiz-adv-x="1624" 
d="M702 2136l271 395l174 -123l-228 -272h-217zM587 1704c-90 0 -166 73 -166 166c0 90 76 163 166 163s166 -73 166 -163c0 -93 -76 -166 -166 -166zM1036 1704c-92 0 -166 73 -166 166c0 90 74 163 166 163c90 0 164 -73 164 -163c0 -93 -74 -166 -164 -166zM811 -20
c-367 0 -653 161 -653 571v985h381v-934c0 -221 120 -291 272 -291c154 0 274 70 274 291v934h381v-985c0 -410 -286 -571 -655 -571z" />
    <glyph glyph-name="uni01D9" unicode="&#x1d9;" horiz-adv-x="1624" 
d="M708 2189l-237 301h217l123 -176l122 176h218l-238 -301h-205zM587 1704c-90 0 -166 73 -166 166c0 90 76 163 166 163s166 -73 166 -163c0 -93 -76 -166 -166 -166zM1036 1704c-92 0 -166 73 -166 166c0 90 74 163 166 163c90 0 164 -73 164 -163
c0 -93 -74 -166 -164 -166zM811 -20c-367 0 -653 161 -653 571v985h381v-934c0 -221 120 -291 272 -291c154 0 274 70 274 291v934h381v-985c0 -410 -286 -571 -655 -571z" />
    <glyph glyph-name="uni01DB" unicode="&#x1db;" horiz-adv-x="1624" 
d="M702 2136l-227 272l174 123l270 -395h-217zM587 1704c-90 0 -166 73 -166 166c0 90 76 163 166 163s166 -73 166 -163c0 -93 -76 -166 -166 -166zM1036 1704c-92 0 -166 73 -166 166c0 90 74 163 166 163c90 0 164 -73 164 -163c0 -93 -74 -166 -164 -166zM811 -20
c-367 0 -653 161 -653 571v985h381v-934c0 -221 120 -291 272 -291c154 0 274 70 274 291v934h381v-985c0 -410 -286 -571 -655 -571z" />
    <glyph glyph-name="uni01D5" unicode="&#x1d5;" horiz-adv-x="1624" 
d="M473 2164v209h676v-209h-676zM587 1704c-90 0 -166 73 -166 166c0 90 76 163 166 163s166 -73 166 -163c0 -93 -76 -166 -166 -166zM1036 1704c-92 0 -166 73 -166 166c0 90 74 163 166 163c90 0 164 -73 164 -163c0 -93 -74 -166 -164 -166zM811 -20
c-367 0 -653 161 -653 571v985h381v-934c0 -221 120 -291 272 -291c154 0 274 70 274 291v934h381v-985c0 -410 -286 -571 -655 -571z" />
    <glyph glyph-name="uni1EE4" unicode="&#x1ee4;" horiz-adv-x="1624" 
d="M811 -20c-367 0 -653 161 -653 571v985h381v-934c0 -221 120 -291 272 -291c154 0 274 70 274 291v934h381v-985c0 -410 -286 -571 -655 -571zM813 -512c-110 0 -200 88 -200 199c0 108 90 196 200 196c107 0 197 -88 197 -196c0 -111 -90 -199 -197 -199z" />
    <glyph glyph-name="Ugrave" unicode="&#xd9;" horiz-adv-x="1624" 
d="M702 1659l-227 272l174 123l270 -395h-217zM811 -20c-367 0 -653 161 -653 571v985h381v-934c0 -221 120 -291 272 -291c154 0 274 70 274 291v934h381v-985c0 -410 -286 -571 -655 -571z" />
    <glyph glyph-name="uni1EE6" unicode="&#x1ee6;" horiz-adv-x="1624" 
d="M739 1607v146c76 12 107 45 107 88c0 33 -17 57 -58 57c-26 0 -59 -12 -86 -43l-78 115c43 37 105 63 189 63c135 0 205 -71 205 -180c0 -106 -66 -139 -125 -157v-89h-154zM811 -20c-367 0 -653 161 -653 571v985h381v-934c0 -221 120 -291 272 -291
c154 0 274 70 274 291v934h381v-985c0 -410 -286 -571 -655 -571z" />
    <glyph glyph-name="Uhorn" unicode="&#x1af;" horiz-adv-x="1624" 
d="M1624 1738h162v-204c0 -185 -99 -230 -197 -230c-35 0 -78 8 -123 24v-777c0 -410 -286 -571 -655 -571c-367 0 -653 161 -653 571v985h381v-934c0 -221 120 -291 272 -291c154 0 274 70 274 291v934h381v-62c24 -9 44 -12 59 -12c76 0 99 22 99 133v143z" />
    <glyph glyph-name="uni1EE8" unicode="&#x1ee8;" horiz-adv-x="1624" 
d="M1147 1931l-228 -272h-217l271 395zM1624 1738h162v-204c0 -185 -99 -230 -197 -230c-35 0 -78 8 -123 24v-777c0 -410 -286 -571 -655 -571c-367 0 -653 161 -653 571v985h381v-934c0 -221 120 -291 272 -291c154 0 274 70 274 291v934h381v-62c24 -9 44 -12 59 -12
c76 0 99 22 99 133v143z" />
    <glyph glyph-name="uni1EF0" unicode="&#x1ef0;" horiz-adv-x="1624" 
d="M1624 1738h162v-204c0 -185 -99 -230 -197 -230c-35 0 -78 8 -123 24v-777c0 -410 -286 -571 -655 -571c-367 0 -653 161 -653 571v985h381v-934c0 -221 120 -291 272 -291c154 0 274 70 274 291v934h381v-62c24 -9 44 -12 59 -12c76 0 99 22 99 133v143zM813 -117
c107 0 197 -88 197 -196c0 -111 -90 -199 -197 -199c-110 0 -200 88 -200 199c0 108 90 196 200 196z" />
    <glyph glyph-name="uni1EEA" unicode="&#x1eea;" horiz-adv-x="1624" 
d="M919 1659h-217l-227 272l174 123zM1624 1738h162v-204c0 -185 -99 -230 -197 -230c-35 0 -78 8 -123 24v-777c0 -410 -286 -571 -655 -571c-367 0 -653 161 -653 571v985h381v-934c0 -221 120 -291 272 -291c154 0 274 70 274 291v934h381v-62c24 -9 44 -12 59 -12
c76 0 99 22 99 133v143z" />
    <glyph glyph-name="uni1EEC" unicode="&#x1eec;" horiz-adv-x="1624" 
d="M788 1898c-26 0 -59 -12 -86 -43l-78 115c43 37 105 63 189 63c135 0 205 -71 205 -180c0 -106 -66 -139 -125 -157v-89h-154v146c76 12 107 45 107 88c0 33 -17 57 -58 57zM1624 1738h162v-204c0 -185 -99 -230 -197 -230c-35 0 -78 8 -123 24v-777
c0 -410 -286 -571 -655 -571c-367 0 -653 161 -653 571v985h381v-934c0 -221 120 -291 272 -291c154 0 274 70 274 291v934h381v-62c24 -9 44 -12 59 -12c76 0 99 22 99 133v143z" />
    <glyph glyph-name="uni1EEE" unicode="&#x1eee;" horiz-adv-x="1624" 
d="M686 1847c-47 0 -65 -61 -65 -141h-185c0 186 91 321 242 321c96 0 166 -55 209 -120c12 -19 25 -35 51 -35c47 0 62 55 62 141h186c0 -180 -82 -322 -244 -322c-88 0 -153 41 -207 121c-16 25 -30 35 -49 35zM1624 1738h162v-204c0 -185 -99 -230 -197 -230
c-35 0 -78 8 -123 24v-777c0 -410 -286 -571 -655 -571c-367 0 -653 161 -653 571v985h381v-934c0 -221 120 -291 272 -291c154 0 274 70 274 291v934h381v-62c24 -9 44 -12 59 -12c76 0 99 22 99 133v143z" />
    <glyph glyph-name="Uhungarumlaut" unicode="&#x170;" horiz-adv-x="1624" 
d="M508 1659l270 395l174 -123l-227 -272h-217zM897 1659l270 395l174 -123l-227 -272h-217zM811 -20c-367 0 -653 161 -653 571v985h381v-934c0 -221 120 -291 272 -291c154 0 274 70 274 291v934h381v-985c0 -410 -286 -571 -655 -571z" />
    <glyph glyph-name="Umacron" unicode="&#x16a;" horiz-adv-x="1624" 
d="M473 1687v209h676v-209h-676zM811 -20c-367 0 -653 161 -653 571v985h381v-934c0 -221 120 -291 272 -291c154 0 274 70 274 291v934h381v-985c0 -410 -286 -571 -655 -571z" />
    <glyph glyph-name="Uogonek" unicode="&#x172;" horiz-adv-x="1624" 
d="M1085 1536h381v-985c0 -285 -138 -450 -346 -524c-71 -61 -115 -138 -115 -193c0 -53 39 -80 86 -80c37 0 78 17 109 47v-219c-47 -20 -98 -30 -148 -30c-188 0 -278 104 -278 225c0 68 29 142 84 204c-15 -1 -31 -1 -47 -1c-367 0 -653 161 -653 571v985h381v-934
c0 -221 120 -291 272 -291c154 0 274 70 274 291v934z" />
    <glyph glyph-name="Uring" unicode="&#x16e;" horiz-adv-x="1624" 
d="M811 1634c-143 0 -260 117 -260 260c0 140 117 256 260 256c141 0 256 -116 256 -256c0 -143 -115 -260 -256 -260zM811 1780c64 0 113 45 113 114c0 60 -49 115 -113 115c-63 0 -110 -55 -110 -115c0 -69 47 -114 110 -114zM811 -20c-367 0 -653 161 -653 571v985h381
v-934c0 -221 120 -291 272 -291c154 0 274 70 274 291v934h381v-985c0 -410 -286 -571 -655 -571z" />
    <glyph glyph-name="Utilde" unicode="&#x168;" horiz-adv-x="1624" 
d="M942 1691c-88 0 -153 41 -207 121c-16 25 -30 35 -49 35c-47 0 -65 -61 -65 -141h-185c0 186 91 321 242 321c96 0 166 -55 209 -120c12 -19 25 -35 51 -35c47 0 62 55 62 141h186c0 -180 -82 -322 -244 -322zM811 -20c-367 0 -653 161 -653 571v985h381v-934
c0 -221 120 -291 272 -291c154 0 274 70 274 291v934h381v-985c0 -410 -286 -571 -655 -571z" />
    <glyph glyph-name="V" unicode="V" horiz-adv-x="1602" 
d="M1159 1536h410l-555 -1536h-428l-553 1536h409l359 -1089z" />
    <glyph glyph-name="W" unicode="W" horiz-adv-x="2322" 
d="M416 0l-367 1536h400l249 -1167l301 1167h324l301 -1167l250 1167h399l-366 -1536h-500l-246 926l-246 -926h-499z" />
    <glyph glyph-name="Wacute" unicode="&#x1e82;" horiz-adv-x="2322" 
d="M1052 1659l271 395l174 -123l-228 -272h-217zM416 0l-367 1536h400l249 -1167l301 1167h324l301 -1167l250 1167h399l-366 -1536h-500l-246 926l-246 -926h-499z" />
    <glyph glyph-name="Wcircumflex" unicode="&#x174;" horiz-adv-x="2322" 
d="M1038 1712h-217l237 301h205l238 -301h-218l-122 176zM416 0l-367 1536h400l249 -1167l301 1167h324l301 -1167l250 1167h399l-366 -1536h-500l-246 926l-246 -926h-499z" />
    <glyph glyph-name="Wdieresis" unicode="&#x1e84;" horiz-adv-x="2322" 
d="M937 1704c-90 0 -166 73 -166 166c0 90 76 163 166 163s166 -73 166 -163c0 -93 -76 -166 -166 -166zM1386 1704c-92 0 -166 73 -166 166c0 90 74 163 166 163c90 0 164 -73 164 -163c0 -93 -74 -166 -164 -166zM416 0l-367 1536h400l249 -1167l301 1167h324l301 -1167
l250 1167h399l-366 -1536h-500l-246 926l-246 -926h-499z" />
    <glyph glyph-name="Wgrave" unicode="&#x1e80;" horiz-adv-x="2322" 
d="M1052 1659l-227 272l174 123l270 -395h-217zM416 0l-367 1536h400l249 -1167l301 1167h324l301 -1167l250 1167h399l-366 -1536h-500l-246 926l-246 -926h-499z" />
    <glyph glyph-name="X" unicode="X" horiz-adv-x="1542" 
d="M1509 0h-434l-304 481l-304 -481h-434l533 795l-498 741h434l268 -425l272 425h433l-500 -741z" />
    <glyph glyph-name="Y" unicode="Y" horiz-adv-x="1495" 
d="M1477 1536l-537 -810v-726h-381v720l-541 816h424l307 -489l308 489h420z" />
    <glyph glyph-name="Yacute" unicode="&#xdd;" horiz-adv-x="1495" 
d="M1086 1931l-228 -272h-217l271 395zM1477 1536l-537 -810v-726h-381v720l-541 816h424l307 -489l308 489h420z" />
    <glyph glyph-name="Ycircumflex" unicode="&#x176;" horiz-adv-x="1495" 
d="M750 1888l-123 -176h-217l237 301h205l238 -301h-218zM1477 1536l-537 -810v-726h-381v720l-541 816h424l307 -489l308 489h420z" />
    <glyph glyph-name="Ydieresis" unicode="&#x178;" horiz-adv-x="1495" 
d="M526 1704c-90 0 -166 73 -166 166c0 90 76 163 166 163s166 -73 166 -163c0 -93 -76 -166 -166 -166zM975 1704c-92 0 -166 73 -166 166c0 90 74 163 166 163c90 0 164 -73 164 -163c0 -93 -74 -166 -164 -166zM1477 1536l-537 -810v-726h-381v720l-541 816h424l307 -489
l308 489h420z" />
    <glyph glyph-name="uni1EF4" unicode="&#x1ef4;" horiz-adv-x="1495" 
d="M559 0v720l-541 816h424l307 -489l308 489h420l-537 -810v-726h-381zM752 -117c107 0 197 -88 197 -196c0 -111 -90 -199 -197 -199c-110 0 -200 88 -200 199c0 108 90 196 200 196z" />
    <glyph glyph-name="Ygrave" unicode="&#x1ef2;" horiz-adv-x="1495" 
d="M858 1659h-217l-227 272l174 123zM1477 1536l-537 -810v-726h-381v720l-541 816h424l307 -489l308 489h420z" />
    <glyph glyph-name="uni1EF6" unicode="&#x1ef6;" horiz-adv-x="1495" 
d="M727 1898c-26 0 -59 -12 -86 -43l-78 115c43 37 105 63 189 63c135 0 205 -71 205 -180c0 -106 -66 -139 -125 -157v-89h-154v146c76 12 107 45 107 88c0 33 -17 57 -58 57zM1477 1536l-537 -810v-726h-381v720l-541 816h424l307 -489l308 489h420z" />
    <glyph glyph-name="uni1EF8" unicode="&#x1ef8;" horiz-adv-x="1495" 
d="M625 1847c-47 0 -65 -61 -65 -141h-185c0 186 91 321 242 321c96 0 166 -55 209 -120c12 -19 25 -35 51 -35c47 0 62 55 62 141h186c0 -180 -82 -322 -244 -322c-88 0 -153 41 -207 121c-16 25 -30 35 -49 35zM1477 1536l-537 -810v-726h-381v720l-541 816h424l307 -489
l308 489h420z" />
    <glyph glyph-name="Z" unicode="Z" horiz-adv-x="1282" 
d="M1174 1536v-297l-619 -907h619v-332h-1065v297l621 907h-621v332h1065z" />
    <glyph glyph-name="Zacute" unicode="&#x179;" horiz-adv-x="1282" 
d="M1012 1931l-228 -272h-217l271 395zM1174 1536v-297l-619 -907h619v-332h-1065v297l621 907h-621v332h1065z" />
    <glyph glyph-name="Zcaron" unicode="&#x17d;" horiz-adv-x="1282" 
d="M778 1712h-205l-237 301h217l123 -176l122 176h218zM1174 1536v-297l-619 -907h619v-332h-1065v297l621 907h-621v332h1065z" />
    <glyph glyph-name="Zdotaccent" unicode="&#x17b;" horiz-adv-x="1282" 
d="M678 1638c-111 0 -201 88 -201 199c0 108 90 196 201 196c107 0 197 -88 197 -196c0 -111 -90 -199 -197 -199zM1174 1536v-297l-619 -907h619v-332h-1065v297l621 907h-621v332h1065z" />
    <glyph glyph-name="a" unicode="a" horiz-adv-x="1397" 
d="M567 -23c-270 0 -499 226 -499 555c0 330 229 555 499 555c144 0 244 -55 310 -135l2 107h368v-1059h-370v109c-66 -78 -164 -132 -310 -132zM684 279c137 0 244 92 244 253c0 162 -107 254 -244 254c-141 0 -248 -92 -248 -254c0 -161 107 -253 248 -253z" />
    <glyph glyph-name="a.ss01" horiz-adv-x="1210" 
d="M606 1079c283 0 484 -98 484 -352v-727h-332l-16 113h-13c-65 -80 -164 -133 -297 -133c-176 0 -366 92 -366 327c0 209 149 330 383 330h270v31c0 104 -84 141 -203 141c-92 0 -205 -23 -313 -51l-82 243c170 54 344 78 485 78zM557 221c61 0 119 37 162 105v112h-133
c-107 0 -152 -47 -152 -112c0 -82 74 -105 123 -105z" />
    <glyph glyph-name="aacute" unicode="&#xe1;" horiz-adv-x="1397" 
d="M591 1182l271 395l174 -123l-228 -272h-217zM567 -23c-270 0 -499 226 -499 555c0 330 229 555 499 555c144 0 244 -55 310 -135l2 107h368v-1059h-370v109c-66 -78 -164 -132 -310 -132zM684 279c137 0 244 92 244 253c0 162 -107 254 -244 254
c-141 0 -248 -92 -248 -254c0 -161 107 -253 248 -253z" />
    <glyph glyph-name="aacute.ss01" horiz-adv-x="1210" 
d="M948 1454l-228 -272h-217l271 395zM606 1079c283 0 484 -98 484 -352v-727h-332l-16 113h-13c-65 -80 -164 -133 -297 -133c-176 0 -366 92 -366 327c0 209 149 330 383 330h270v31c0 104 -84 141 -203 141c-92 0 -205 -23 -313 -51l-82 243c170 54 344 78 485 78z
M557 221c61 0 119 37 162 105v112h-133c-107 0 -152 -47 -152 -112c0 -82 74 -105 123 -105z" />
    <glyph glyph-name="abreve" unicode="&#x103;" horiz-adv-x="1397" 
d="M700 1163c-227 0 -381 117 -381 373h205c0 -123 65 -209 176 -209c113 0 178 86 178 209h205c0 -256 -154 -373 -383 -373zM567 -23c-270 0 -499 226 -499 555c0 330 229 555 499 555c144 0 244 -55 310 -135l2 107h368v-1059h-370v109c-66 -78 -164 -132 -310 -132z
M684 279c137 0 244 92 244 253c0 162 -107 254 -244 254c-141 0 -248 -92 -248 -254c0 -161 107 -253 248 -253z" />
    <glyph glyph-name="abreve.ss01" horiz-adv-x="1210" 
d="M612 1163c-227 0 -381 117 -381 373h205c0 -123 65 -209 176 -209c113 0 178 86 178 209h205c0 -256 -154 -373 -383 -373zM606 1079c283 0 484 -98 484 -352v-727h-332l-16 113h-13c-65 -80 -164 -133 -297 -133c-176 0 -366 92 -366 327c0 209 149 330 383 330h270v31
c0 104 -84 141 -203 141c-92 0 -205 -23 -313 -51l-82 243c170 54 344 78 485 78zM557 221c61 0 119 37 162 105v112h-133c-107 0 -152 -47 -152 -112c0 -82 74 -105 123 -105z" />
    <glyph glyph-name="uni1EAF" unicode="&#x1eaf;" horiz-adv-x="1397" 
d="M591 1659l271 395l174 -123l-228 -272h-217zM700 1163c-227 0 -381 117 -381 373h205c0 -123 65 -209 176 -209c113 0 178 86 178 209h205c0 -256 -154 -373 -383 -373zM567 -23c-270 0 -499 226 -499 555c0 330 229 555 499 555c144 0 244 -55 310 -135l2 107h368v-1059
h-370v109c-66 -78 -164 -132 -310 -132zM684 279c137 0 244 92 244 253c0 162 -107 254 -244 254c-141 0 -248 -92 -248 -254c0 -161 107 -253 248 -253z" />
    <glyph glyph-name="uni1EAF.ss01" horiz-adv-x="1210" 
d="M948 1931l-228 -272h-217l271 395zM612 1163c-227 0 -381 117 -381 373h205c0 -123 65 -209 176 -209c113 0 178 86 178 209h205c0 -256 -154 -373 -383 -373zM606 1079c283 0 484 -98 484 -352v-727h-332l-16 113h-13c-65 -80 -164 -133 -297 -133
c-176 0 -366 92 -366 327c0 209 149 330 383 330h270v31c0 104 -84 141 -203 141c-92 0 -205 -23 -313 -51l-82 243c170 54 344 78 485 78zM557 221c61 0 119 37 162 105v112h-133c-107 0 -152 -47 -152 -112c0 -82 74 -105 123 -105z" />
    <glyph glyph-name="uni1EB7" unicode="&#x1eb7;" horiz-adv-x="1397" 
d="M700 1163c-227 0 -381 117 -381 373h205c0 -123 65 -209 176 -209c113 0 178 86 178 209h205c0 -256 -154 -373 -383 -373zM567 -23c-270 0 -499 226 -499 555c0 330 229 555 499 555c144 0 244 -55 310 -135l2 107h368v-1059h-370v109c-66 -78 -164 -132 -310 -132z
M684 279c137 0 244 92 244 253c0 162 -107 254 -244 254c-141 0 -248 -92 -248 -254c0 -161 107 -253 248 -253zM702 -512c-110 0 -200 88 -200 199c0 108 90 196 200 196c107 0 197 -88 197 -196c0 -111 -90 -199 -197 -199z" />
    <glyph glyph-name="uni1EB7.ss01" horiz-adv-x="1210" 
d="M612 1163c-227 0 -381 117 -381 373h205c0 -123 65 -209 176 -209c113 0 178 86 178 209h205c0 -256 -154 -373 -383 -373zM606 1079c283 0 484 -98 484 -352v-727h-332l-16 113h-13c-65 -80 -164 -133 -297 -133c-176 0 -366 92 -366 327c0 209 149 330 383 330h270v31
c0 104 -84 141 -203 141c-92 0 -205 -23 -313 -51l-82 243c170 54 344 78 485 78zM557 221c61 0 119 37 162 105v112h-133c-107 0 -152 -47 -152 -112c0 -82 74 -105 123 -105zM614 -117c107 0 197 -88 197 -196c0 -111 -90 -199 -197 -199c-110 0 -200 88 -200 199
c0 108 90 196 200 196z" />
    <glyph glyph-name="uni1EB1" unicode="&#x1eb1;" horiz-adv-x="1397" 
d="M591 1659l-227 272l174 123l270 -395h-217zM700 1163c-227 0 -381 117 -381 373h205c0 -123 65 -209 176 -209c113 0 178 86 178 209h205c0 -256 -154 -373 -383 -373zM567 -23c-270 0 -499 226 -499 555c0 330 229 555 499 555c144 0 244 -55 310 -135l2 107h368v-1059
h-370v109c-66 -78 -164 -132 -310 -132zM684 279c137 0 244 92 244 253c0 162 -107 254 -244 254c-141 0 -248 -92 -248 -254c0 -161 107 -253 248 -253z" />
    <glyph glyph-name="uni1EB1.ss01" horiz-adv-x="1210" 
d="M720 1659h-217l-227 272l174 123zM612 1163c-227 0 -381 117 -381 373h205c0 -123 65 -209 176 -209c113 0 178 86 178 209h205c0 -256 -154 -373 -383 -373zM606 1079c283 0 484 -98 484 -352v-727h-332l-16 113h-13c-65 -80 -164 -133 -297 -133
c-176 0 -366 92 -366 327c0 209 149 330 383 330h270v31c0 104 -84 141 -203 141c-92 0 -205 -23 -313 -51l-82 243c170 54 344 78 485 78zM557 221c61 0 119 37 162 105v112h-133c-107 0 -152 -47 -152 -112c0 -82 74 -105 123 -105z" />
    <glyph glyph-name="uni1EB3" unicode="&#x1eb3;" horiz-adv-x="1397" 
d="M628 1607v146c76 12 107 45 107 88c0 33 -17 57 -58 57c-26 0 -59 -12 -86 -43l-78 115c43 37 105 63 189 63c135 0 205 -71 205 -180c0 -106 -66 -139 -125 -157v-89h-154zM700 1163c-227 0 -381 117 -381 373h205c0 -123 65 -209 176 -209c113 0 178 86 178 209h205
c0 -256 -154 -373 -383 -373zM567 -23c-270 0 -499 226 -499 555c0 330 229 555 499 555c144 0 244 -55 310 -135l2 107h368v-1059h-370v109c-66 -78 -164 -132 -310 -132zM684 279c137 0 244 92 244 253c0 162 -107 254 -244 254c-141 0 -248 -92 -248 -254
c0 -161 107 -253 248 -253z" />
    <glyph glyph-name="uni1EB3.ss01" horiz-adv-x="1210" 
d="M589 1898c-26 0 -59 -12 -86 -43l-78 115c43 37 105 63 189 63c135 0 205 -71 205 -180c0 -106 -66 -139 -125 -157v-89h-154v146c76 12 107 45 107 88c0 33 -17 57 -58 57zM612 1163c-227 0 -381 117 -381 373h205c0 -123 65 -209 176 -209c113 0 178 86 178 209h205
c0 -256 -154 -373 -383 -373zM606 1079c283 0 484 -98 484 -352v-727h-332l-16 113h-13c-65 -80 -164 -133 -297 -133c-176 0 -366 92 -366 327c0 209 149 330 383 330h270v31c0 104 -84 141 -203 141c-92 0 -205 -23 -313 -51l-82 243c170 54 344 78 485 78zM557 221
c61 0 119 37 162 105v112h-133c-107 0 -152 -47 -152 -112c0 -82 74 -105 123 -105z" />
    <glyph glyph-name="uni1EB5" unicode="&#x1eb5;" horiz-adv-x="1397" 
d="M831 1691c-88 0 -153 41 -207 121c-16 25 -30 35 -49 35c-47 0 -65 -61 -65 -141h-185c0 186 91 321 242 321c96 0 166 -55 209 -120c12 -19 25 -35 51 -35c47 0 62 55 62 141h186c0 -180 -82 -322 -244 -322zM700 1163c-227 0 -381 117 -381 373h205
c0 -123 65 -209 176 -209c113 0 178 86 178 209h205c0 -256 -154 -373 -383 -373zM567 -23c-270 0 -499 226 -499 555c0 330 229 555 499 555c144 0 244 -55 310 -135l2 107h368v-1059h-370v109c-66 -78 -164 -132 -310 -132zM684 279c137 0 244 92 244 253
c0 162 -107 254 -244 254c-141 0 -248 -92 -248 -254c0 -161 107 -253 248 -253z" />
    <glyph glyph-name="uni1EB5.ss01" horiz-adv-x="1210" 
d="M487 1847c-47 0 -65 -61 -65 -141h-185c0 186 91 321 242 321c96 0 166 -55 209 -120c12 -19 25 -35 51 -35c47 0 62 55 62 141h186c0 -180 -82 -322 -244 -322c-88 0 -153 41 -207 121c-16 25 -30 35 -49 35zM612 1163c-227 0 -381 117 -381 373h205
c0 -123 65 -209 176 -209c113 0 178 86 178 209h205c0 -256 -154 -373 -383 -373zM606 1079c283 0 484 -98 484 -352v-727h-332l-16 113h-13c-65 -80 -164 -133 -297 -133c-176 0 -366 92 -366 327c0 209 149 330 383 330h270v31c0 104 -84 141 -203 141
c-92 0 -205 -23 -313 -51l-82 243c170 54 344 78 485 78zM557 221c61 0 119 37 162 105v112h-133c-107 0 -152 -47 -152 -112c0 -82 74 -105 123 -105z" />
    <glyph glyph-name="uni01CE" unicode="&#x1ce;" horiz-adv-x="1397" 
d="M597 1235l-237 301h217l123 -176l122 176h218l-238 -301h-205zM567 -23c-270 0 -499 226 -499 555c0 330 229 555 499 555c144 0 244 -55 310 -135l2 107h368v-1059h-370v109c-66 -78 -164 -132 -310 -132zM684 279c137 0 244 92 244 253c0 162 -107 254 -244 254
c-141 0 -248 -92 -248 -254c0 -161 107 -253 248 -253z" />
    <glyph glyph-name="uni01CE.ss01" horiz-adv-x="1210" 
d="M714 1235h-205l-237 301h217l123 -176l122 176h218zM606 1079c283 0 484 -98 484 -352v-727h-332l-16 113h-13c-65 -80 -164 -133 -297 -133c-176 0 -366 92 -366 327c0 209 149 330 383 330h270v31c0 104 -84 141 -203 141c-92 0 -205 -23 -313 -51l-82 243
c170 54 344 78 485 78zM557 221c61 0 119 37 162 105v112h-133c-107 0 -152 -47 -152 -112c0 -82 74 -105 123 -105z" />
    <glyph glyph-name="acircumflex" unicode="&#xe2;" horiz-adv-x="1397" 
d="M577 1235h-217l237 301h205l238 -301h-218l-122 176zM567 -23c-270 0 -499 226 -499 555c0 330 229 555 499 555c144 0 244 -55 310 -135l2 107h368v-1059h-370v109c-66 -78 -164 -132 -310 -132zM684 279c137 0 244 92 244 253c0 162 -107 254 -244 254
c-141 0 -248 -92 -248 -254c0 -161 107 -253 248 -253z" />
    <glyph glyph-name="acircumflex.ss01" horiz-adv-x="1210" 
d="M612 1411l-123 -176h-217l237 301h205l238 -301h-218zM606 1079c283 0 484 -98 484 -352v-727h-332l-16 113h-13c-65 -80 -164 -133 -297 -133c-176 0 -366 92 -366 327c0 209 149 330 383 330h270v31c0 104 -84 141 -203 141c-92 0 -205 -23 -313 -51l-82 243
c170 54 344 78 485 78zM557 221c61 0 119 37 162 105v112h-133c-107 0 -152 -47 -152 -112c0 -82 74 -105 123 -105z" />
    <glyph glyph-name="uni1EA5" unicode="&#x1ea5;" horiz-adv-x="1397" 
d="M591 1659l271 395l174 -123l-228 -272h-217zM577 1235h-217l237 301h205l238 -301h-218l-122 176zM567 -23c-270 0 -499 226 -499 555c0 330 229 555 499 555c144 0 244 -55 310 -135l2 107h368v-1059h-370v109c-66 -78 -164 -132 -310 -132zM684 279
c137 0 244 92 244 253c0 162 -107 254 -244 254c-141 0 -248 -92 -248 -254c0 -161 107 -253 248 -253z" />
    <glyph glyph-name="uni1EA5.ss01" horiz-adv-x="1210" 
d="M948 1931l-228 -272h-217l271 395zM612 1411l-123 -176h-217l237 301h205l238 -301h-218zM606 1079c283 0 484 -98 484 -352v-727h-332l-16 113h-13c-65 -80 -164 -133 -297 -133c-176 0 -366 92 -366 327c0 209 149 330 383 330h270v31c0 104 -84 141 -203 141
c-92 0 -205 -23 -313 -51l-82 243c170 54 344 78 485 78zM557 221c61 0 119 37 162 105v112h-133c-107 0 -152 -47 -152 -112c0 -82 74 -105 123 -105z" />
    <glyph glyph-name="uni1EAD" unicode="&#x1ead;" horiz-adv-x="1397" 
d="M577 1235h-217l237 301h205l238 -301h-218l-122 176zM567 -23c-270 0 -499 226 -499 555c0 330 229 555 499 555c144 0 244 -55 310 -135l2 107h368v-1059h-370v109c-66 -78 -164 -132 -310 -132zM684 279c137 0 244 92 244 253c0 162 -107 254 -244 254
c-141 0 -248 -92 -248 -254c0 -161 107 -253 248 -253zM702 -512c-110 0 -200 88 -200 199c0 108 90 196 200 196c107 0 197 -88 197 -196c0 -111 -90 -199 -197 -199z" />
    <glyph glyph-name="uni1EAD.ss01" horiz-adv-x="1210" 
d="M612 1411l-123 -176h-217l237 301h205l238 -301h-218zM606 1079c283 0 484 -98 484 -352v-727h-332l-16 113h-13c-65 -80 -164 -133 -297 -133c-176 0 -366 92 -366 327c0 209 149 330 383 330h270v31c0 104 -84 141 -203 141c-92 0 -205 -23 -313 -51l-82 243
c170 54 344 78 485 78zM557 221c61 0 119 37 162 105v112h-133c-107 0 -152 -47 -152 -112c0 -82 74 -105 123 -105zM614 -117c107 0 197 -88 197 -196c0 -111 -90 -199 -197 -199c-110 0 -200 88 -200 199c0 108 90 196 200 196z" />
    <glyph glyph-name="uni1EA7" unicode="&#x1ea7;" horiz-adv-x="1397" 
d="M591 1659l-227 272l174 123l270 -395h-217zM577 1235h-217l237 301h205l238 -301h-218l-122 176zM567 -23c-270 0 -499 226 -499 555c0 330 229 555 499 555c144 0 244 -55 310 -135l2 107h368v-1059h-370v109c-66 -78 -164 -132 -310 -132zM684 279
c137 0 244 92 244 253c0 162 -107 254 -244 254c-141 0 -248 -92 -248 -254c0 -161 107 -253 248 -253z" />
    <glyph glyph-name="uni1EA7.ss01" horiz-adv-x="1210" 
d="M720 1659h-217l-227 272l174 123zM612 1411l-123 -176h-217l237 301h205l238 -301h-218zM606 1079c283 0 484 -98 484 -352v-727h-332l-16 113h-13c-65 -80 -164 -133 -297 -133c-176 0 -366 92 -366 327c0 209 149 330 383 330h270v31c0 104 -84 141 -203 141
c-92 0 -205 -23 -313 -51l-82 243c170 54 344 78 485 78zM557 221c61 0 119 37 162 105v112h-133c-107 0 -152 -47 -152 -112c0 -82 74 -105 123 -105z" />
    <glyph glyph-name="uni1EA9" unicode="&#x1ea9;" horiz-adv-x="1397" 
d="M628 1607v146c76 12 107 45 107 88c0 33 -17 57 -58 57c-26 0 -59 -12 -86 -43l-78 115c43 37 105 63 189 63c135 0 205 -71 205 -180c0 -106 -66 -139 -125 -157v-89h-154zM577 1235h-217l237 301h205l238 -301h-218l-122 176zM567 -23c-270 0 -499 226 -499 555
c0 330 229 555 499 555c144 0 244 -55 310 -135l2 107h368v-1059h-370v109c-66 -78 -164 -132 -310 -132zM684 279c137 0 244 92 244 253c0 162 -107 254 -244 254c-141 0 -248 -92 -248 -254c0 -161 107 -253 248 -253z" />
    <glyph glyph-name="uni1EA9.ss01" horiz-adv-x="1210" 
d="M589 1898c-26 0 -59 -12 -86 -43l-78 115c43 37 105 63 189 63c135 0 205 -71 205 -180c0 -106 -66 -139 -125 -157v-89h-154v146c76 12 107 45 107 88c0 33 -17 57 -58 57zM612 1411l-123 -176h-217l237 301h205l238 -301h-218zM606 1079c283 0 484 -98 484 -352v-727
h-332l-16 113h-13c-65 -80 -164 -133 -297 -133c-176 0 -366 92 -366 327c0 209 149 330 383 330h270v31c0 104 -84 141 -203 141c-92 0 -205 -23 -313 -51l-82 243c170 54 344 78 485 78zM557 221c61 0 119 37 162 105v112h-133c-107 0 -152 -47 -152 -112
c0 -82 74 -105 123 -105z" />
    <glyph glyph-name="uni1EAB" unicode="&#x1eab;" horiz-adv-x="1397" 
d="M831 1691c-88 0 -153 41 -207 121c-16 25 -30 35 -49 35c-47 0 -65 -61 -65 -141h-185c0 186 91 321 242 321c96 0 166 -55 209 -120c12 -19 25 -35 51 -35c47 0 62 55 62 141h186c0 -180 -82 -322 -244 -322zM577 1235h-217l237 301h205l238 -301h-218l-122 176z
M567 -23c-270 0 -499 226 -499 555c0 330 229 555 499 555c144 0 244 -55 310 -135l2 107h368v-1059h-370v109c-66 -78 -164 -132 -310 -132zM684 279c137 0 244 92 244 253c0 162 -107 254 -244 254c-141 0 -248 -92 -248 -254c0 -161 107 -253 248 -253z" />
    <glyph glyph-name="uni1EAB.ss01" horiz-adv-x="1210" 
d="M487 1847c-47 0 -65 -61 -65 -141h-185c0 186 91 321 242 321c96 0 166 -55 209 -120c12 -19 25 -35 51 -35c47 0 62 55 62 141h186c0 -180 -82 -322 -244 -322c-88 0 -153 41 -207 121c-16 25 -30 35 -49 35zM509 1536h205l238 -301h-218l-122 176l-123 -176h-217z
M606 1079c283 0 484 -98 484 -352v-727h-332l-16 113h-13c-65 -80 -164 -133 -297 -133c-176 0 -366 92 -366 327c0 209 149 330 383 330h270v31c0 104 -84 141 -203 141c-92 0 -205 -23 -313 -51l-82 243c170 54 344 78 485 78zM557 221c61 0 119 37 162 105v112h-133
c-107 0 -152 -47 -152 -112c0 -82 74 -105 123 -105z" />
    <glyph glyph-name="adieresis" unicode="&#xe4;" horiz-adv-x="1397" 
d="M476 1227c-90 0 -166 73 -166 166c0 90 76 163 166 163s166 -73 166 -163c0 -93 -76 -166 -166 -166zM925 1227c-92 0 -166 73 -166 166c0 90 74 163 166 163c90 0 164 -73 164 -163c0 -93 -74 -166 -164 -166zM567 -23c-270 0 -499 226 -499 555c0 330 229 555 499 555
c144 0 244 -55 310 -135l2 107h368v-1059h-370v109c-66 -78 -164 -132 -310 -132zM684 279c137 0 244 92 244 253c0 162 -107 254 -244 254c-141 0 -248 -92 -248 -254c0 -161 107 -253 248 -253z" />
    <glyph glyph-name="adieresis.ss01" horiz-adv-x="1210" 
d="M388 1227c-90 0 -166 73 -166 166c0 90 76 163 166 163s166 -73 166 -163c0 -93 -76 -166 -166 -166zM837 1227c-92 0 -166 73 -166 166c0 90 74 163 166 163c90 0 164 -73 164 -163c0 -93 -74 -166 -164 -166zM606 1079c283 0 484 -98 484 -352v-727h-332l-16 113h-13
c-65 -80 -164 -133 -297 -133c-176 0 -366 92 -366 327c0 209 149 330 383 330h270v31c0 104 -84 141 -203 141c-92 0 -205 -23 -313 -51l-82 243c170 54 344 78 485 78zM557 221c61 0 119 37 162 105v112h-133c-107 0 -152 -47 -152 -112c0 -82 74 -105 123 -105z" />
    <glyph glyph-name="uni1EA1" unicode="&#x1ea1;" horiz-adv-x="1397" 
d="M567 -23c-270 0 -499 226 -499 555c0 330 229 555 499 555c144 0 244 -55 310 -135l2 107h368v-1059h-370v109c-66 -78 -164 -132 -310 -132zM684 279c137 0 244 92 244 253c0 162 -107 254 -244 254c-141 0 -248 -92 -248 -254c0 -161 107 -253 248 -253zM702 -512
c-110 0 -200 88 -200 199c0 108 90 196 200 196c107 0 197 -88 197 -196c0 -111 -90 -199 -197 -199z" />
    <glyph glyph-name="uni1EA1.ss01" horiz-adv-x="1210" 
d="M606 1079c283 0 484 -98 484 -352v-727h-332l-16 113h-13c-65 -80 -164 -133 -297 -133c-176 0 -366 92 -366 327c0 209 149 330 383 330h270v31c0 104 -84 141 -203 141c-92 0 -205 -23 -313 -51l-82 243c170 54 344 78 485 78zM557 221c61 0 119 37 162 105v112h-133
c-107 0 -152 -47 -152 -112c0 -82 74 -105 123 -105zM614 -117c107 0 197 -88 197 -196c0 -111 -90 -199 -197 -199c-110 0 -200 88 -200 199c0 108 90 196 200 196z" />
    <glyph glyph-name="agrave" unicode="&#xe0;" horiz-adv-x="1397" 
d="M591 1182l-227 272l174 123l270 -395h-217zM567 -23c-270 0 -499 226 -499 555c0 330 229 555 499 555c144 0 244 -55 310 -135l2 107h368v-1059h-370v109c-66 -78 -164 -132 -310 -132zM684 279c137 0 244 92 244 253c0 162 -107 254 -244 254
c-141 0 -248 -92 -248 -254c0 -161 107 -253 248 -253z" />
    <glyph glyph-name="agrave.ss01" horiz-adv-x="1210" 
d="M720 1182h-217l-227 272l174 123zM606 1079c283 0 484 -98 484 -352v-727h-332l-16 113h-13c-65 -80 -164 -133 -297 -133c-176 0 -366 92 -366 327c0 209 149 330 383 330h270v31c0 104 -84 141 -203 141c-92 0 -205 -23 -313 -51l-82 243c170 54 344 78 485 78z
M557 221c61 0 119 37 162 105v112h-133c-107 0 -152 -47 -152 -112c0 -82 74 -105 123 -105z" />
    <glyph glyph-name="uni1EA3" unicode="&#x1ea3;" horiz-adv-x="1397" 
d="M628 1130v146c76 12 107 45 107 88c0 33 -17 57 -58 57c-26 0 -59 -12 -86 -43l-78 115c43 37 105 63 189 63c135 0 205 -71 205 -180c0 -106 -66 -139 -125 -157v-89h-154zM567 -23c-270 0 -499 226 -499 555c0 330 229 555 499 555c144 0 244 -55 310 -135l2 107h368
v-1059h-370v109c-66 -78 -164 -132 -310 -132zM684 279c137 0 244 92 244 253c0 162 -107 254 -244 254c-141 0 -248 -92 -248 -254c0 -161 107 -253 248 -253z" />
    <glyph glyph-name="uni1EA3.ss01" horiz-adv-x="1210" 
d="M589 1421c-26 0 -59 -12 -86 -43l-78 115c43 37 105 63 189 63c135 0 205 -71 205 -180c0 -106 -66 -139 -125 -157v-89h-154v146c76 12 107 45 107 88c0 33 -17 57 -58 57zM606 1079c283 0 484 -98 484 -352v-727h-332l-16 113h-13c-65 -80 -164 -133 -297 -133
c-176 0 -366 92 -366 327c0 209 149 330 383 330h270v31c0 104 -84 141 -203 141c-92 0 -205 -23 -313 -51l-82 243c170 54 344 78 485 78zM557 221c61 0 119 37 162 105v112h-133c-107 0 -152 -47 -152 -112c0 -82 74 -105 123 -105z" />
    <glyph glyph-name="amacron" unicode="&#x101;" horiz-adv-x="1397" 
d="M362 1210v209h676v-209h-676zM567 -23c-270 0 -499 226 -499 555c0 330 229 555 499 555c144 0 244 -55 310 -135l2 107h368v-1059h-370v109c-66 -78 -164 -132 -310 -132zM684 279c137 0 244 92 244 253c0 162 -107 254 -244 254c-141 0 -248 -92 -248 -254
c0 -161 107 -253 248 -253z" />
    <glyph glyph-name="amacron.ss01" horiz-adv-x="1210" 
d="M950 1419v-209h-676v209h676zM606 1079c283 0 484 -98 484 -352v-727h-332l-16 113h-13c-65 -80 -164 -133 -297 -133c-176 0 -366 92 -366 327c0 209 149 330 383 330h270v31c0 104 -84 141 -203 141c-92 0 -205 -23 -313 -51l-82 243c170 54 344 78 485 78zM557 221
c61 0 119 37 162 105v112h-133c-107 0 -152 -47 -152 -112c0 -82 74 -105 123 -105z" />
    <glyph glyph-name="aogonek" unicode="&#x105;" horiz-adv-x="1397" 
d="M1247 0c-117 -61 -195 -174 -195 -248c0 -53 39 -80 86 -80c37 0 78 17 109 47v-219c-47 -20 -98 -30 -148 -30c-188 0 -278 104 -278 225c0 112 77 236 221 305h-165v109c-66 -78 -164 -132 -310 -132c-270 0 -499 226 -499 555c0 330 229 555 499 555
c144 0 244 -55 310 -135l2 107h368v-1059zM684 279c137 0 244 92 244 253c0 162 -107 254 -244 254c-141 0 -248 -92 -248 -254c0 -161 107 -253 248 -253z" />
    <glyph glyph-name="aogonek.ss01" horiz-adv-x="1210" 
d="M1090 0c-117 -61 -195 -174 -195 -248c0 -53 39 -80 86 -80c37 0 78 17 109 47v-219c-47 -20 -98 -30 -148 -30c-188 0 -278 104 -278 225c0 112 77 236 221 305h-127l-16 113h-13c-65 -80 -164 -133 -297 -133c-176 0 -366 92 -366 327c0 209 149 330 383 330h270v31
c0 104 -84 141 -203 141c-92 0 -205 -23 -313 -51l-82 243c170 54 344 78 485 78c283 0 484 -98 484 -352v-727zM557 221c61 0 119 37 162 105v112h-133c-107 0 -152 -47 -152 -112c0 -82 74 -105 123 -105z" />
    <glyph glyph-name="aring" unicode="&#xe5;" horiz-adv-x="1397" 
d="M700 1157c-143 0 -260 117 -260 260c0 140 117 256 260 256c141 0 256 -116 256 -256c0 -143 -115 -260 -256 -260zM700 1303c64 0 113 45 113 114c0 60 -49 115 -113 115c-63 0 -110 -55 -110 -115c0 -69 47 -114 110 -114zM567 -23c-270 0 -499 226 -499 555
c0 330 229 555 499 555c144 0 244 -55 310 -135l2 107h368v-1059h-370v109c-66 -78 -164 -132 -310 -132zM684 279c137 0 244 92 244 253c0 162 -107 254 -244 254c-141 0 -248 -92 -248 -254c0 -161 107 -253 248 -253z" />
    <glyph glyph-name="aring.ss01" horiz-adv-x="1210" 
d="M612 1157c-143 0 -260 117 -260 260c0 140 117 256 260 256c141 0 256 -116 256 -256c0 -143 -115 -260 -256 -260zM612 1532c-63 0 -110 -55 -110 -115c0 -69 47 -114 110 -114c64 0 113 45 113 114c0 60 -49 115 -113 115zM606 1079c283 0 484 -98 484 -352v-727h-332
l-16 113h-13c-65 -80 -164 -133 -297 -133c-176 0 -366 92 -366 327c0 209 149 330 383 330h270v31c0 104 -84 141 -203 141c-92 0 -205 -23 -313 -51l-82 243c170 54 344 78 485 78zM557 221c61 0 119 37 162 105v112h-133c-107 0 -152 -47 -152 -112
c0 -82 74 -105 123 -105z" />
    <glyph glyph-name="atilde" unicode="&#xe3;" horiz-adv-x="1397" 
d="M831 1214c-88 0 -153 41 -207 121c-16 25 -30 35 -49 35c-47 0 -65 -61 -65 -141h-185c0 186 91 321 242 321c96 0 166 -55 209 -120c12 -19 25 -35 51 -35c47 0 62 55 62 141h186c0 -180 -82 -322 -244 -322zM567 -23c-270 0 -499 226 -499 555c0 330 229 555 499 555
c144 0 244 -55 310 -135l2 107h368v-1059h-370v109c-66 -78 -164 -132 -310 -132zM684 279c137 0 244 92 244 253c0 162 -107 254 -244 254c-141 0 -248 -92 -248 -254c0 -161 107 -253 248 -253z" />
    <glyph glyph-name="atilde.ss01" horiz-adv-x="1210" 
d="M487 1370c-47 0 -65 -61 -65 -141h-185c0 186 91 321 242 321c96 0 166 -55 209 -120c12 -19 25 -35 51 -35c47 0 62 55 62 141h186c0 -180 -82 -322 -244 -322c-88 0 -153 41 -207 121c-16 25 -30 35 -49 35zM606 1079c283 0 484 -98 484 -352v-727h-332l-16 113h-13
c-65 -80 -164 -133 -297 -133c-176 0 -366 92 -366 327c0 209 149 330 383 330h270v31c0 104 -84 141 -203 141c-92 0 -205 -23 -313 -51l-82 243c170 54 344 78 485 78zM557 221c61 0 119 37 162 105v112h-133c-107 0 -152 -47 -152 -112c0 -82 74 -105 123 -105z" />
    <glyph glyph-name="ae" unicode="&#xe6;" horiz-adv-x="1831" 
d="M1765 541l-4 -74h-734c20 -139 97 -205 212 -205c90 0 170 39 213 125l287 -121c-78 -176 -256 -286 -500 -286c-177 0 -322 58 -422 154c-125 -119 -224 -154 -401 -154c-213 0 -348 118 -348 317c0 215 153 369 495 371l109 1c5 23 12 45 21 67c-30 64 -105 87 -189 87
c-98 0 -215 -39 -293 -100l-105 240c125 67 246 118 453 118c153 0 261 -31 332 -96c91 61 205 96 334 96c305 0 538 -200 540 -540zM1229 829c-106 0 -168 -54 -194 -157h367c-20 103 -70 157 -173 157zM541 223c64 0 117 25 162 73c-20 44 -33 91 -41 140h-93
c-108 0 -151 -45 -151 -112c0 -74 55 -101 123 -101z" />
    <glyph glyph-name="b" unicode="b" horiz-adv-x="1399" 
d="M832 -23c-146 0 -244 54 -310 132v-109h-370v1536h368l2 -584c66 80 166 135 310 135c270 0 499 -225 499 -555c0 -329 -229 -555 -499 -555zM715 279c141 0 248 92 248 253c0 162 -107 254 -248 254c-137 0 -244 -92 -244 -254c0 -161 107 -253 244 -253z" />
    <glyph glyph-name="c" unicode="c" horiz-adv-x="1135" 
d="M657 -18c-344 0 -596 221 -596 548c0 328 252 549 596 549c185 0 344 -65 451 -176l-252 -221c-45 59 -117 94 -201 94c-137 0 -245 -92 -245 -246c0 -153 108 -245 245 -245c84 0 156 34 201 94l252 -221c-107 -111 -266 -176 -451 -176z" />
    <glyph glyph-name="cacute" unicode="&#x107;" horiz-adv-x="1135" 
d="M536 1182l271 395l174 -123l-228 -272h-217zM657 -18c-344 0 -596 221 -596 548c0 328 252 549 596 549c185 0 344 -65 451 -176l-252 -221c-45 59 -117 94 -201 94c-137 0 -245 -92 -245 -246c0 -153 108 -245 245 -245c84 0 156 34 201 94l252 -221
c-107 -111 -266 -176 -451 -176z" />
    <glyph glyph-name="ccaron" unicode="&#x10d;" horiz-adv-x="1135" 
d="M542 1235l-237 301h217l123 -176l122 176h218l-238 -301h-205zM657 -18c-344 0 -596 221 -596 548c0 328 252 549 596 549c185 0 344 -65 451 -176l-252 -221c-45 59 -117 94 -201 94c-137 0 -245 -92 -245 -246c0 -153 108 -245 245 -245c84 0 156 34 201 94l252 -221
c-107 -111 -266 -176 -451 -176z" />
    <glyph glyph-name="ccedilla" unicode="&#xe7;" horiz-adv-x="1135" 
d="M655 285c84 0 156 34 201 94l252 -221c-95 -99 -232 -161 -391 -174l-60 -97c13 2 27 4 39 4c111 0 193 -79 193 -192c0 -129 -103 -231 -232 -231s-215 73 -241 165l155 50c13 -39 45 -58 78 -58c39 0 78 27 78 74c0 51 -39 76 -78 76c-29 0 -55 -13 -69 -37l-125 69
l100 182c-291 39 -494 247 -494 541c0 328 252 549 596 549c185 0 344 -65 451 -176l-252 -221c-45 59 -117 94 -201 94c-137 0 -245 -92 -245 -246c0 -153 108 -245 245 -245z" />
    <glyph glyph-name="cdotaccent" unicode="&#x10b;" horiz-adv-x="1135" 
d="M647 1161c-111 0 -201 88 -201 199c0 108 90 196 201 196c107 0 197 -88 197 -196c0 -111 -90 -199 -197 -199zM657 -18c-344 0 -596 221 -596 548c0 328 252 549 596 549c185 0 344 -65 451 -176l-252 -221c-45 59 -117 94 -201 94c-137 0 -245 -92 -245 -246
c0 -153 108 -245 245 -245c84 0 156 34 201 94l252 -221c-107 -111 -266 -176 -451 -176z" />
    <glyph glyph-name="d" unicode="d" horiz-adv-x="1399" 
d="M567 -23c-270 0 -499 226 -499 555c0 330 229 555 499 555c144 0 244 -55 310 -135l2 584h368v-1536h-370v109c-66 -78 -164 -132 -310 -132zM684 279c137 0 244 92 244 253c0 162 -107 254 -244 254c-141 0 -248 -92 -248 -254c0 -161 107 -253 248 -253z" />
    <glyph glyph-name="eth" unicode="&#xf0;" horiz-adv-x="1286" 
d="M1001 1057c138 -189 222 -352 222 -535c0 -303 -254 -542 -578 -542c-313 0 -586 225 -588 536c-2 279 205 504 469 547c20 3 44 6 73 4l-114 137l-313 -84l-33 127l254 69l-182 220h416l102 -130l293 79l33 -127l-236 -64c67 -85 129 -163 182 -237zM653 301
c148 0 230 105 226 236c-5 129 -88 227 -230 227c-147 0 -231 -107 -229 -238c2 -129 94 -225 233 -225z" />
    <glyph glyph-name="dcaron" unicode="&#x10f;" horiz-adv-x="1642" 
d="M567 -23c-270 0 -499 226 -499 555c0 330 229 555 499 555c144 0 244 -55 310 -135l2 584h368v-1536h-370v109c-66 -78 -164 -132 -310 -132zM1606 860h-259l127 676h373zM684 279c137 0 244 92 244 253c0 162 -107 254 -244 254c-141 0 -248 -92 -248 -254
c0 -161 107 -253 248 -253z" />
    <glyph glyph-name="dcroat" unicode="&#x111;" horiz-adv-x="1399" 
d="M1368 1404v-217h-121v-1187h-370v109c-66 -78 -164 -132 -310 -132c-270 0 -499 226 -499 555c0 330 229 555 499 555c144 0 244 -55 310 -135l1 235h-256v217h257v132h368v-132h121zM684 279c137 0 244 92 244 253c0 162 -107 254 -244 254c-141 0 -248 -92 -248 -254
c0 -161 107 -253 248 -253z" />
    <glyph glyph-name="e" unicode="e" horiz-adv-x="1237" 
d="M1171 541l-4 -74h-740c11 -139 103 -205 218 -205c90 0 170 39 213 125l287 -121c-78 -176 -256 -286 -500 -286c-360 0 -584 241 -584 548c0 310 230 553 570 553c305 0 538 -200 540 -540zM635 829c-106 0 -179 -54 -202 -157h391c-11 103 -86 157 -189 157z" />
    <glyph glyph-name="eacute" unicode="&#xe9;" horiz-adv-x="1237" 
d="M977 1456l-228 -272h-217l271 395zM1171 541l-4 -74h-740c11 -139 103 -205 218 -205c90 0 170 39 213 125l287 -121c-78 -176 -256 -286 -500 -286c-360 0 -584 241 -584 548c0 310 230 553 570 553c305 0 538 -200 540 -540zM635 829c-106 0 -179 -54 -202 -157h391
c-11 103 -86 157 -189 157z" />
    <glyph glyph-name="ecaron" unicode="&#x11b;" horiz-adv-x="1237" 
d="M743 1237h-205l-237 301h217l123 -176l122 176h218zM1171 541l-4 -74h-740c11 -139 103 -205 218 -205c90 0 170 39 213 125l287 -121c-78 -176 -256 -286 -500 -286c-360 0 -584 241 -584 548c0 310 230 553 570 553c305 0 538 -200 540 -540zM635 829
c-106 0 -179 -54 -202 -157h391c-11 103 -86 157 -189 157z" />
    <glyph glyph-name="ecircumflex" unicode="&#xea;" horiz-adv-x="1237" 
d="M641 1413l-123 -176h-217l237 301h205l238 -301h-218zM1171 541l-4 -74h-740c11 -139 103 -205 218 -205c90 0 170 39 213 125l287 -121c-78 -176 -256 -286 -500 -286c-360 0 -584 241 -584 548c0 310 230 553 570 553c305 0 538 -200 540 -540zM635 829
c-106 0 -179 -54 -202 -157h391c-11 103 -86 157 -189 157z" />
    <glyph glyph-name="uni1EBF" unicode="&#x1ebf;" horiz-adv-x="1237" 
d="M977 1933l-228 -272h-217l271 395zM641 1413l-123 -176h-217l237 301h205l238 -301h-218zM1171 541l-4 -74h-740c11 -139 103 -205 218 -205c90 0 170 39 213 125l287 -121c-78 -176 -256 -286 -500 -286c-360 0 -584 241 -584 548c0 310 230 553 570 553
c305 0 538 -200 540 -540zM635 829c-106 0 -179 -54 -202 -157h391c-11 103 -86 157 -189 157z" />
    <glyph glyph-name="uni1EC7" unicode="&#x1ec7;" horiz-adv-x="1237" 
d="M641 1413l-123 -176h-217l237 301h205l238 -301h-218zM1171 541l-4 -74h-740c11 -139 103 -205 218 -205c90 0 170 39 213 125l287 -121c-78 -176 -256 -286 -500 -286c-360 0 -584 241 -584 548c0 310 230 553 570 553c305 0 538 -200 540 -540zM635 829
c-106 0 -179 -54 -202 -157h391c-11 103 -86 157 -189 157zM661 -119c107 0 197 -88 197 -196c0 -111 -90 -199 -197 -199c-110 0 -200 88 -200 199c0 108 90 196 200 196z" />
    <glyph glyph-name="uni1EC1" unicode="&#x1ec1;" horiz-adv-x="1237" 
d="M749 1661h-217l-227 272l174 123zM641 1413l-123 -176h-217l237 301h205l238 -301h-218zM1171 541l-4 -74h-740c11 -139 103 -205 218 -205c90 0 170 39 213 125l287 -121c-78 -176 -256 -286 -500 -286c-360 0 -584 241 -584 548c0 310 230 553 570 553
c305 0 538 -200 540 -540zM635 829c-106 0 -179 -54 -202 -157h391c-11 103 -86 157 -189 157z" />
    <glyph glyph-name="uni1EC3" unicode="&#x1ec3;" horiz-adv-x="1237" 
d="M618 1900c-26 0 -59 -12 -86 -43l-78 115c43 37 105 63 189 63c135 0 205 -71 205 -180c0 -106 -66 -139 -125 -157v-89h-154v146c76 12 107 45 107 88c0 33 -17 57 -58 57zM641 1413l-123 -176h-217l237 301h205l238 -301h-218zM1171 541l-4 -74h-740
c11 -139 103 -205 218 -205c90 0 170 39 213 125l287 -121c-78 -176 -256 -286 -500 -286c-360 0 -584 241 -584 548c0 310 230 553 570 553c305 0 538 -200 540 -540zM635 829c-106 0 -179 -54 -202 -157h391c-11 103 -86 157 -189 157z" />
    <glyph glyph-name="uni1EC5" unicode="&#x1ec5;" horiz-adv-x="1237" 
d="M516 1849c-47 0 -65 -61 -65 -141h-185c0 186 91 321 242 321c96 0 166 -55 209 -120c12 -19 25 -35 51 -35c47 0 62 55 62 141h186c0 -180 -82 -322 -244 -322c-88 0 -153 41 -207 121c-16 25 -30 35 -49 35zM538 1538h205l238 -301h-218l-122 176l-123 -176h-217z
M1171 541l-4 -74h-740c11 -139 103 -205 218 -205c90 0 170 39 213 125l287 -121c-78 -176 -256 -286 -500 -286c-360 0 -584 241 -584 548c0 310 230 553 570 553c305 0 538 -200 540 -540zM635 829c-106 0 -179 -54 -202 -157h391c-11 103 -86 157 -189 157z" />
    <glyph glyph-name="edieresis" unicode="&#xeb;" horiz-adv-x="1237" 
d="M417 1229c-90 0 -166 73 -166 166c0 90 76 163 166 163s166 -73 166 -163c0 -93 -76 -166 -166 -166zM866 1229c-92 0 -166 73 -166 166c0 90 74 163 166 163c90 0 164 -73 164 -163c0 -93 -74 -166 -164 -166zM1171 541l-4 -74h-740c11 -139 103 -205 218 -205
c90 0 170 39 213 125l287 -121c-78 -176 -256 -286 -500 -286c-360 0 -584 241 -584 548c0 310 230 553 570 553c305 0 538 -200 540 -540zM635 829c-106 0 -179 -54 -202 -157h391c-11 103 -86 157 -189 157z" />
    <glyph glyph-name="edotaccent" unicode="&#x117;" horiz-adv-x="1237" 
d="M643 1163c-111 0 -201 88 -201 199c0 108 90 196 201 196c107 0 197 -88 197 -196c0 -111 -90 -199 -197 -199zM1171 541l-4 -74h-740c11 -139 103 -205 218 -205c90 0 170 39 213 125l287 -121c-78 -176 -256 -286 -500 -286c-360 0 -584 241 -584 548
c0 310 230 553 570 553c305 0 538 -200 540 -540zM635 829c-106 0 -179 -54 -202 -157h391c-11 103 -86 157 -189 157z" />
    <glyph glyph-name="uni1EB9" unicode="&#x1eb9;" horiz-adv-x="1237" 
d="M1171 541l-4 -74h-740c11 -139 103 -205 218 -205c90 0 170 39 213 125l287 -121c-78 -176 -256 -286 -500 -286c-360 0 -584 241 -584 548c0 310 230 553 570 553c305 0 538 -200 540 -540zM635 829c-106 0 -179 -54 -202 -157h391c-11 103 -86 157 -189 157zM661 -119
c107 0 197 -88 197 -196c0 -111 -90 -199 -197 -199c-110 0 -200 88 -200 199c0 108 90 196 200 196z" />
    <glyph glyph-name="egrave" unicode="&#xe8;" horiz-adv-x="1237" 
d="M749 1184h-217l-227 272l174 123zM1171 541l-4 -74h-740c11 -139 103 -205 218 -205c90 0 170 39 213 125l287 -121c-78 -176 -256 -286 -500 -286c-360 0 -584 241 -584 548c0 310 230 553 570 553c305 0 538 -200 540 -540zM635 829c-106 0 -179 -54 -202 -157h391
c-11 103 -86 157 -189 157z" />
    <glyph glyph-name="uni1EBB" unicode="&#x1ebb;" horiz-adv-x="1237" 
d="M618 1423c-26 0 -59 -12 -86 -43l-78 115c43 37 105 63 189 63c135 0 205 -71 205 -180c0 -106 -66 -139 -125 -157v-89h-154v146c76 12 107 45 107 88c0 33 -17 57 -58 57zM1171 541l-4 -74h-740c11 -139 103 -205 218 -205c90 0 170 39 213 125l287 -121
c-78 -176 -256 -286 -500 -286c-360 0 -584 241 -584 548c0 310 230 553 570 553c305 0 538 -200 540 -540zM635 829c-106 0 -179 -54 -202 -157h391c-11 103 -86 157 -189 157z" />
    <glyph glyph-name="emacron" unicode="&#x113;" horiz-adv-x="1237" 
d="M979 1421v-209h-676v209h676zM1171 541l-4 -74h-740c11 -139 103 -205 218 -205c90 0 170 39 213 125l287 -121c-78 -176 -256 -286 -500 -286c-360 0 -584 241 -584 548c0 310 230 553 570 553c305 0 538 -200 540 -540zM635 829c-106 0 -179 -54 -202 -157h391
c-11 103 -86 157 -189 157z" />
    <glyph glyph-name="eogonek" unicode="&#x119;" horiz-adv-x="1237" 
d="M1171 541l-4 -74h-740c11 -139 103 -205 218 -205c90 0 170 39 213 125l287 -121c-49 -110 -136 -194 -254 -241c-97 -64 -160 -162 -160 -228c0 -53 39 -80 86 -80c37 0 78 17 109 47v-219c-47 -20 -98 -30 -148 -30c-188 0 -278 104 -278 225c0 82 42 172 121 240
c-346 11 -560 248 -560 548c0 310 230 553 570 553c305 0 538 -200 540 -540zM635 829c-106 0 -179 -54 -202 -157h391c-11 103 -86 157 -189 157z" />
    <glyph glyph-name="uni1EBD" unicode="&#x1ebd;" horiz-adv-x="1237" 
d="M516 1372c-47 0 -65 -61 -65 -141h-185c0 186 91 321 242 321c96 0 166 -55 209 -120c12 -19 25 -35 51 -35c47 0 62 55 62 141h186c0 -180 -82 -322 -244 -322c-88 0 -153 41 -207 121c-16 25 -30 35 -49 35zM1171 541l-4 -74h-740c11 -139 103 -205 218 -205
c90 0 170 39 213 125l287 -121c-78 -176 -256 -286 -500 -286c-360 0 -584 241 -584 548c0 310 230 553 570 553c305 0 538 -200 540 -540zM635 829c-106 0 -179 -54 -202 -157h391c-11 103 -86 157 -189 157z" />
    <glyph glyph-name="f" unicode="f" horiz-adv-x="805" 
d="M784 1059v-236h-215v-823h-370v823h-160v236h160v80c0 288 114 417 372 417c56 0 131 -8 207 -32v-264c-35 10 -69 16 -98 16c-68 0 -111 -33 -111 -117v-100h215z" />
    <glyph glyph-name="g" unicode="g" horiz-adv-x="1378" 
d="M612 -498c-168 0 -362 37 -546 219l219 213c110 -122 229 -153 321 -153c152 0 252 84 252 268v98c-61 -79 -156 -137 -299 -137c-276 0 -493 217 -493 539c0 321 217 530 487 530c145 0 242 -59 305 -141v121h369v-967c0 -401 -238 -590 -615 -590zM664 311
c129 0 231 84 231 238c0 153 -102 239 -231 239s-230 -86 -230 -239c0 -154 101 -238 230 -238z" />
    <glyph glyph-name="gbreve" unicode="&#x11f;" horiz-adv-x="1378" 
d="M690 1163c-227 0 -381 117 -381 373h205c0 -123 65 -209 176 -209c113 0 178 86 178 209h205c0 -256 -154 -373 -383 -373zM612 -498c-168 0 -362 37 -546 219l219 213c110 -122 229 -153 321 -153c152 0 252 84 252 268v98c-61 -79 -156 -137 -299 -137
c-276 0 -493 217 -493 539c0 321 217 530 487 530c145 0 242 -59 305 -141v121h369v-967c0 -401 -238 -590 -615 -590zM664 311c129 0 231 84 231 238c0 153 -102 239 -231 239s-230 -86 -230 -239c0 -154 101 -238 230 -238z" />
    <glyph glyph-name="gcommaaccent" unicode="&#x123;" horiz-adv-x="1378" 
d="M661 1537h259l-127 -342h-373zM612 -498c-168 0 -362 37 -546 219l219 213c110 -122 229 -153 321 -153c152 0 252 84 252 268v98c-61 -79 -156 -137 -299 -137c-276 0 -493 217 -493 539c0 321 217 530 487 530c145 0 242 -59 305 -141v121h369v-967
c0 -401 -238 -590 -615 -590zM664 311c129 0 231 84 231 238c0 153 -102 239 -231 239s-230 -86 -230 -239c0 -154 101 -238 230 -238z" />
    <glyph glyph-name="gdotaccent" unicode="&#x121;" horiz-adv-x="1378" 
d="M692 1161c-111 0 -201 88 -201 199c0 108 90 196 201 196c107 0 197 -88 197 -196c0 -111 -90 -199 -197 -199zM612 -498c-168 0 -362 37 -546 219l219 213c110 -122 229 -153 321 -153c152 0 252 84 252 268v98c-61 -79 -156 -137 -299 -137c-276 0 -493 217 -493 539
c0 321 217 530 487 530c145 0 242 -59 305 -141v121h369v-967c0 -401 -238 -590 -615 -590zM664 311c129 0 231 84 231 238c0 153 -102 239 -231 239s-230 -86 -230 -239c0 -154 101 -238 230 -238z" />
    <glyph glyph-name="h" unicode="h" horiz-adv-x="1307" 
d="M848 1079c217 0 326 -135 326 -366v-713h-373v635c0 121 -51 143 -117 143c-104 0 -162 -57 -162 -184v-594h-370v1536h370v-632c73 106 184 175 326 175z" />
    <glyph glyph-name="hbar" unicode="&#x127;" horiz-adv-x="1307" 
d="M848 1079c217 0 326 -135 326 -366v-713h-373v635c0 121 -51 143 -117 143c-104 0 -162 -57 -162 -184v-594h-370v1187h-124v217h124v132h370v-132h252v-217h-252v-283c73 106 184 175 326 175z" />
    <glyph glyph-name="i" unicode="i" horiz-adv-x="670" 
d="M338 1161c-111 0 -201 88 -201 199c0 108 90 196 201 196c107 0 197 -88 197 -196c0 -111 -90 -199 -197 -199zM152 0v1059h366v-1059h-366z" />
    <glyph glyph-name="dotlessi" unicode="&#x131;" horiz-adv-x="670" 
d="M152 0v1059h366v-1059h-366z" />
    <glyph glyph-name="iacute" unicode="&#xed;" horiz-adv-x="670" 
d="M227 1182l271 395l174 -123l-228 -272h-217zM152 0v1059h366v-1059h-366z" />
    <glyph glyph-name="uni01D0" unicode="&#x1d0;" horiz-adv-x="670" 
d="M233 1235l-237 301h217l123 -176l122 176h218l-238 -301h-205zM152 0v1059h366v-1059h-366z" />
    <glyph glyph-name="icircumflex" unicode="&#xee;" horiz-adv-x="670" 
d="M213 1235h-217l237 301h205l238 -301h-218l-122 176zM152 0v1059h366v-1059h-366z" />
    <glyph glyph-name="idieresis" unicode="&#xef;" horiz-adv-x="670" 
d="M112 1227c-90 0 -166 73 -166 166c0 90 76 163 166 163s166 -73 166 -163c0 -93 -76 -166 -166 -166zM561 1227c-92 0 -166 73 -166 166c0 90 74 163 166 163c90 0 164 -73 164 -163c0 -93 -74 -166 -164 -166zM152 0v1059h366v-1059h-366z" />
    <glyph glyph-name="i.loclTRK" horiz-adv-x="670" 
d="M338 1161c-111 0 -201 88 -201 199c0 108 90 196 201 196c107 0 197 -88 197 -196c0 -111 -90 -199 -197 -199zM152 0v1059h366v-1059h-366z" />
    <glyph glyph-name="uni1ECB" unicode="&#x1ecb;" horiz-adv-x="670" 
d="M338 1161c-111 0 -201 88 -201 199c0 108 90 196 201 196c107 0 197 -88 197 -196c0 -111 -90 -199 -197 -199zM152 0v1059h366v-1059h-366zM338 -512c-110 0 -200 88 -200 199c0 108 90 196 200 196c107 0 197 -88 197 -196c0 -111 -90 -199 -197 -199z" />
    <glyph glyph-name="igrave" unicode="&#xec;" horiz-adv-x="670" 
d="M227 1182l-227 272l174 123l270 -395h-217zM152 0v1059h366v-1059h-366z" />
    <glyph glyph-name="uni1EC9" unicode="&#x1ec9;" horiz-adv-x="670" 
d="M264 1130v146c76 12 107 45 107 88c0 33 -17 57 -58 57c-26 0 -59 -12 -86 -43l-78 115c43 37 105 63 189 63c135 0 205 -71 205 -180c0 -106 -66 -139 -125 -157v-89h-154zM152 0v1059h366v-1059h-366z" />
    <glyph glyph-name="imacron" unicode="&#x12b;" horiz-adv-x="670" 
d="M-2 1210v209h676v-209h-676zM152 0v1059h366v-1059h-366z" />
    <glyph glyph-name="iogonek" unicode="&#x12f;" horiz-adv-x="670" 
d="M338 1161c-111 0 -201 88 -201 199c0 108 90 196 201 196c107 0 197 -88 197 -196c0 -111 -90 -199 -197 -199zM152 0v1059h366v-1059c-117 -61 -195 -174 -195 -248c0 -53 39 -80 86 -80c37 0 78 17 109 47v-219c-47 -20 -98 -30 -148 -30c-188 0 -278 104 -278 225
c0 112 77 236 221 305h-161z" />
    <glyph glyph-name="itilde" unicode="&#x129;" horiz-adv-x="670" 
d="M467 1214c-88 0 -153 41 -207 121c-16 25 -30 35 -49 35c-47 0 -65 -61 -65 -141h-185c0 186 91 321 242 321c96 0 166 -55 209 -120c12 -19 25 -35 51 -35c47 0 62 55 62 141h186c0 -180 -82 -322 -244 -322zM152 0v1059h366v-1059h-366z" />
    <glyph glyph-name="j" unicode="j" horiz-adv-x="674" 
d="M340 1161c-111 0 -201 88 -201 199c0 108 90 196 201 196c107 0 197 -88 197 -196c0 -111 -90 -199 -197 -199zM-92 -498v279c145 0 244 84 244 268v1010h370v-967c0 -401 -237 -590 -614 -590z" />
    <glyph glyph-name="uni0237" unicode="&#x237;" horiz-adv-x="674" 
d="M-92 -498v279c145 0 244 84 244 268v1010h370v-967c0 -401 -237 -590 -614 -590z" />
    <glyph glyph-name="k" unicode="k" horiz-adv-x="1368" 
d="M1370 0h-459l-391 465v-465h-368v1536h368v-910l379 433h430l-457 -507z" />
    <glyph glyph-name="kcommaaccent" unicode="&#x137;" horiz-adv-x="1368" 
d="M872 552l498 -552h-459l-391 465v-465h-368v1536h368v-910l379 433h430zM358 -502l172 379h313l-311 -461z" />
    <glyph glyph-name="l" unicode="l" horiz-adv-x="672" 
d="M152 0v1536h368v-1536h-368z" />
    <glyph glyph-name="lacute" unicode="&#x13a;" horiz-adv-x="672" 
d="M227 1659l271 395l174 -123l-228 -272h-217zM152 0v1536h368v-1536h-368z" />
    <glyph glyph-name="lcaron" unicode="&#x13e;" horiz-adv-x="909" 
d="M152 0v1536h368v-1536h-368zM873 860h-259l127 676h373z" />
    <glyph glyph-name="lcommaaccent" unicode="&#x13c;" horiz-adv-x="672" 
d="M152 0v1536h368v-1536h-368zM180 -584l-174 82l172 379h313z" />
    <glyph glyph-name="lslash" unicode="&#x142;" horiz-adv-x="672" 
d="M684 1188v-220l-164 -121v-847h-368v576l-166 -122v217l166 123v742h368v-469z" />
    <glyph glyph-name="m" unicode="m" horiz-adv-x="1950" 
d="M1466 1079c213 0 351 -112 351 -348v-731h-369v645c0 82 -49 143 -135 143c-101 0 -144 -77 -144 -165v-623h-370v645c0 82 -47 143 -135 143c-99 0 -144 -77 -144 -165v-623h-368v1059h368v-155c73 105 180 175 314 175c148 0 255 -57 304 -174c78 104 189 174 328 174z
" />
    <glyph glyph-name="n" unicode="n" horiz-adv-x="1307" 
d="M846 1079c219 0 328 -135 328 -366v-713h-373v635c0 123 -51 143 -125 143c-92 0 -154 -57 -154 -184v-594h-370v1059h370v-149c73 100 183 169 324 169z" />
    <glyph glyph-name="nacute" unicode="&#x144;" horiz-adv-x="1307" 
d="M985 1454l-228 -272h-217l271 395zM846 1079c219 0 328 -135 328 -366v-713h-373v635c0 123 -51 143 -125 143c-92 0 -154 -57 -154 -184v-594h-370v1059h370v-149c73 100 183 169 324 169z" />
    <glyph glyph-name="ncaron" unicode="&#x148;" horiz-adv-x="1307" 
d="M751 1235h-205l-237 301h217l123 -176l122 176h218zM846 1079c219 0 328 -135 328 -366v-713h-373v635c0 123 -51 143 -125 143c-92 0 -154 -57 -154 -184v-594h-370v1059h370v-149c73 100 183 169 324 169z" />
    <glyph glyph-name="ncommaaccent" unicode="&#x146;" horiz-adv-x="1307" 
d="M846 1079c219 0 328 -135 328 -366v-713h-373v635c0 123 -51 143 -125 143c-92 0 -154 -57 -154 -184v-594h-370v1059h370v-149c73 100 183 169 324 169zM319 -502l172 379h313l-311 -461z" />
    <glyph glyph-name="eng" unicode="&#x14b;" horiz-adv-x="1307" 
d="M805 1079c219 0 369 -176 369 -407v-793c0 -227 -136 -376 -373 -376c-56 0 -131 -1 -207 -1v252h100c64 0 107 35 107 125v715c0 123 -51 164 -125 164c-92 0 -154 -58 -154 -185v-573h-370v1059h370v-116c65 85 161 136 283 136z" />
    <glyph glyph-name="ntilde" unicode="&#xf1;" horiz-adv-x="1307" 
d="M524 1370c-47 0 -65 -61 -65 -141h-185c0 186 91 321 242 321c96 0 166 -55 209 -120c12 -19 25 -35 51 -35c47 0 62 55 62 141h186c0 -180 -82 -322 -244 -322c-88 0 -153 41 -207 121c-16 25 -30 35 -49 35zM846 1079c219 0 328 -135 328 -366v-713h-373v635
c0 123 -51 143 -125 143c-92 0 -154 -57 -154 -184v-594h-370v1059h370v-149c73 100 183 169 324 169z" />
    <glyph glyph-name="o" unicode="o" horiz-adv-x="1315" 
d="M657 -20c-344 0 -596 221 -596 550c0 328 252 549 596 549c342 0 596 -221 596 -549c0 -329 -254 -550 -596 -550zM655 285c138 0 248 94 248 245c0 150 -110 246 -248 246c-137 0 -245 -92 -245 -246c0 -155 108 -245 245 -245z" />
    <glyph glyph-name="oacute" unicode="&#xf3;" horiz-adv-x="1315" 
d="M548 1180l271 395l174 -123l-228 -272h-217zM657 -20c-344 0 -596 221 -596 550c0 328 252 549 596 549c342 0 596 -221 596 -549c0 -329 -254 -550 -596 -550zM655 285c138 0 248 94 248 245c0 150 -110 246 -248 246c-137 0 -245 -92 -245 -246
c0 -155 108 -245 245 -245z" />
    <glyph glyph-name="uni01D2" unicode="&#x1d2;" horiz-adv-x="1315" 
d="M554 1233l-237 301h217l123 -176l122 176h218l-238 -301h-205zM657 -20c-344 0 -596 221 -596 550c0 328 252 549 596 549c342 0 596 -221 596 -549c0 -329 -254 -550 -596 -550zM655 285c138 0 248 94 248 245c0 150 -110 246 -248 246c-137 0 -245 -92 -245 -246
c0 -155 108 -245 245 -245z" />
    <glyph glyph-name="ocircumflex" unicode="&#xf4;" horiz-adv-x="1315" 
d="M534 1233h-217l237 301h205l238 -301h-218l-122 176zM657 -20c-344 0 -596 221 -596 550c0 328 252 549 596 549c342 0 596 -221 596 -549c0 -329 -254 -550 -596 -550zM655 285c138 0 248 94 248 245c0 150 -110 246 -248 246c-137 0 -245 -92 -245 -246
c0 -155 108 -245 245 -245z" />
    <glyph glyph-name="uni1ED1" unicode="&#x1ed1;" horiz-adv-x="1315" 
d="M548 1657l271 395l174 -123l-228 -272h-217zM534 1233h-217l237 301h205l238 -301h-218l-122 176zM657 -20c-344 0 -596 221 -596 550c0 328 252 549 596 549c342 0 596 -221 596 -549c0 -329 -254 -550 -596 -550zM655 285c138 0 248 94 248 245
c0 150 -110 246 -248 246c-137 0 -245 -92 -245 -246c0 -155 108 -245 245 -245z" />
    <glyph glyph-name="uni1ED9" unicode="&#x1ed9;" horiz-adv-x="1315" 
d="M534 1233h-217l237 301h205l238 -301h-218l-122 176zM657 -20c-344 0 -596 221 -596 550c0 328 252 549 596 549c342 0 596 -221 596 -549c0 -329 -254 -550 -596 -550zM655 285c138 0 248 94 248 245c0 150 -110 246 -248 246c-137 0 -245 -92 -245 -246
c0 -155 108 -245 245 -245zM659 -512c-110 0 -200 88 -200 199c0 108 90 196 200 196c107 0 197 -88 197 -196c0 -111 -90 -199 -197 -199z" />
    <glyph glyph-name="uni1ED3" unicode="&#x1ed3;" horiz-adv-x="1315" 
d="M548 1657l-227 272l174 123l270 -395h-217zM534 1233h-217l237 301h205l238 -301h-218l-122 176zM657 -20c-344 0 -596 221 -596 550c0 328 252 549 596 549c342 0 596 -221 596 -549c0 -329 -254 -550 -596 -550zM655 285c138 0 248 94 248 245c0 150 -110 246 -248 246
c-137 0 -245 -92 -245 -246c0 -155 108 -245 245 -245z" />
    <glyph glyph-name="uni1ED5" unicode="&#x1ed5;" horiz-adv-x="1315" 
d="M585 1605v146c76 12 107 45 107 88c0 33 -17 57 -58 57c-26 0 -59 -12 -86 -43l-78 115c43 37 105 63 189 63c135 0 205 -71 205 -180c0 -106 -66 -139 -125 -157v-89h-154zM534 1233h-217l237 301h205l238 -301h-218l-122 176zM657 -20c-344 0 -596 221 -596 550
c0 328 252 549 596 549c342 0 596 -221 596 -549c0 -329 -254 -550 -596 -550zM655 285c138 0 248 94 248 245c0 150 -110 246 -248 246c-137 0 -245 -92 -245 -246c0 -155 108 -245 245 -245z" />
    <glyph glyph-name="uni1ED7" unicode="&#x1ed7;" horiz-adv-x="1315" 
d="M788 1689c-88 0 -153 41 -207 121c-16 25 -30 35 -49 35c-47 0 -65 -61 -65 -141h-185c0 186 91 321 242 321c96 0 166 -55 209 -120c12 -19 25 -35 51 -35c47 0 62 55 62 141h186c0 -180 -82 -322 -244 -322zM534 1233h-217l237 301h205l238 -301h-218l-122 176z
M657 -20c-344 0 -596 221 -596 550c0 328 252 549 596 549c342 0 596 -221 596 -549c0 -329 -254 -550 -596 -550zM655 285c138 0 248 94 248 245c0 150 -110 246 -248 246c-137 0 -245 -92 -245 -246c0 -155 108 -245 245 -245z" />
    <glyph glyph-name="odieresis" unicode="&#xf6;" horiz-adv-x="1315" 
d="M433 1225c-90 0 -166 73 -166 166c0 90 76 163 166 163s166 -73 166 -163c0 -93 -76 -166 -166 -166zM882 1225c-92 0 -166 73 -166 166c0 90 74 163 166 163c90 0 164 -73 164 -163c0 -93 -74 -166 -164 -166zM657 -20c-344 0 -596 221 -596 550c0 328 252 549 596 549
c342 0 596 -221 596 -549c0 -329 -254 -550 -596 -550zM655 285c138 0 248 94 248 245c0 150 -110 246 -248 246c-137 0 -245 -92 -245 -246c0 -155 108 -245 245 -245z" />
    <glyph glyph-name="uni1ECD" unicode="&#x1ecd;" horiz-adv-x="1315" 
d="M657 -20c-344 0 -596 221 -596 550c0 328 252 549 596 549c342 0 596 -221 596 -549c0 -329 -254 -550 -596 -550zM655 285c138 0 248 94 248 245c0 150 -110 246 -248 246c-137 0 -245 -92 -245 -246c0 -155 108 -245 245 -245zM659 -512c-110 0 -200 88 -200 199
c0 108 90 196 200 196c107 0 197 -88 197 -196c0 -111 -90 -199 -197 -199z" />
    <glyph glyph-name="ograve" unicode="&#xf2;" horiz-adv-x="1315" 
d="M548 1180l-227 272l174 123l270 -395h-217zM657 -20c-344 0 -596 221 -596 550c0 328 252 549 596 549c342 0 596 -221 596 -549c0 -329 -254 -550 -596 -550zM655 285c138 0 248 94 248 245c0 150 -110 246 -248 246c-137 0 -245 -92 -245 -246
c0 -155 108 -245 245 -245z" />
    <glyph glyph-name="uni1ECF" unicode="&#x1ecf;" horiz-adv-x="1315" 
d="M585 1128v146c76 12 107 45 107 88c0 33 -17 57 -58 57c-26 0 -59 -12 -86 -43l-78 115c43 37 105 63 189 63c135 0 205 -71 205 -180c0 -106 -66 -139 -125 -157v-89h-154zM657 -20c-344 0 -596 221 -596 550c0 328 252 549 596 549c342 0 596 -221 596 -549
c0 -329 -254 -550 -596 -550zM655 285c138 0 248 94 248 245c0 150 -110 246 -248 246c-137 0 -245 -92 -245 -246c0 -155 108 -245 245 -245z" />
    <glyph glyph-name="ohorn" unicode="&#x1a1;" horiz-adv-x="1315" 
d="M1173 1240h162v-204c0 -158 -73 -214 -155 -227c47 -79 73 -174 73 -279c0 -329 -254 -550 -596 -550c-344 0 -596 221 -596 550c0 328 252 549 596 549c143 0 271 -39 371 -108c18 -5 34 -7 46 -7c76 0 99 22 99 133v143zM655 285c138 0 248 94 248 245
c0 150 -110 246 -248 246c-137 0 -245 -92 -245 -246c0 -155 108 -245 245 -245z" />
    <glyph glyph-name="uni1EDB" unicode="&#x1edb;" horiz-adv-x="1315" 
d="M993 1452l-228 -272h-217l271 395zM1173 1240h162v-204c0 -158 -73 -214 -155 -227c47 -79 73 -174 73 -279c0 -329 -254 -550 -596 -550c-344 0 -596 221 -596 550c0 328 252 549 596 549c143 0 271 -39 371 -108c18 -5 34 -7 46 -7c76 0 99 22 99 133v143zM655 285
c138 0 248 94 248 245c0 150 -110 246 -248 246c-137 0 -245 -92 -245 -246c0 -155 108 -245 245 -245z" />
    <glyph glyph-name="uni1EE3" unicode="&#x1ee3;" horiz-adv-x="1315" 
d="M1173 1240h162v-204c0 -158 -73 -214 -155 -227c47 -79 73 -174 73 -279c0 -329 -254 -550 -596 -550c-344 0 -596 221 -596 550c0 328 252 549 596 549c143 0 271 -39 371 -108c18 -5 34 -7 46 -7c76 0 99 22 99 133v143zM655 285c138 0 248 94 248 245
c0 150 -110 246 -248 246c-137 0 -245 -92 -245 -246c0 -155 108 -245 245 -245zM659 -117c107 0 197 -88 197 -196c0 -111 -90 -199 -197 -199c-110 0 -200 88 -200 199c0 108 90 196 200 196z" />
    <glyph glyph-name="uni1EDD" unicode="&#x1edd;" horiz-adv-x="1315" 
d="M765 1180h-217l-227 272l174 123zM1173 1240h162v-204c0 -158 -73 -214 -155 -227c47 -79 73 -174 73 -279c0 -329 -254 -550 -596 -550c-344 0 -596 221 -596 550c0 328 252 549 596 549c143 0 271 -39 371 -108c18 -5 34 -7 46 -7c76 0 99 22 99 133v143zM655 285
c138 0 248 94 248 245c0 150 -110 246 -248 246c-137 0 -245 -92 -245 -246c0 -155 108 -245 245 -245z" />
    <glyph glyph-name="uni1EDF" unicode="&#x1edf;" horiz-adv-x="1315" 
d="M634 1419c-26 0 -59 -12 -86 -43l-78 115c43 37 105 63 189 63c135 0 205 -71 205 -180c0 -106 -66 -139 -125 -157v-89h-154v146c76 12 107 45 107 88c0 33 -17 57 -58 57zM1173 1240h162v-204c0 -158 -73 -214 -155 -227c47 -79 73 -174 73 -279
c0 -329 -254 -550 -596 -550c-344 0 -596 221 -596 550c0 328 252 549 596 549c143 0 271 -39 371 -108c18 -5 34 -7 46 -7c76 0 99 22 99 133v143zM655 285c138 0 248 94 248 245c0 150 -110 246 -248 246c-137 0 -245 -92 -245 -246c0 -155 108 -245 245 -245z" />
    <glyph glyph-name="uni1EE1" unicode="&#x1ee1;" horiz-adv-x="1315" 
d="M532 1368c-47 0 -65 -61 -65 -141h-185c0 186 91 321 242 321c96 0 166 -55 209 -120c12 -19 25 -35 51 -35c47 0 62 55 62 141h186c0 -180 -82 -322 -244 -322c-88 0 -153 41 -207 121c-16 25 -30 35 -49 35zM1173 1240h162v-204c0 -158 -73 -214 -155 -227
c47 -79 73 -174 73 -279c0 -329 -254 -550 -596 -550c-344 0 -596 221 -596 550c0 328 252 549 596 549c143 0 271 -39 371 -108c18 -5 34 -7 46 -7c76 0 99 22 99 133v143zM655 285c138 0 248 94 248 245c0 150 -110 246 -248 246c-137 0 -245 -92 -245 -246
c0 -155 108 -245 245 -245z" />
    <glyph glyph-name="ohungarumlaut" unicode="&#x151;" horiz-adv-x="1315" 
d="M354 1180l270 395l174 -123l-227 -272h-217zM743 1180l270 395l174 -123l-227 -272h-217zM657 -20c-344 0 -596 221 -596 550c0 328 252 549 596 549c342 0 596 -221 596 -549c0 -329 -254 -550 -596 -550zM655 285c138 0 248 94 248 245c0 150 -110 246 -248 246
c-137 0 -245 -92 -245 -246c0 -155 108 -245 245 -245z" />
    <glyph glyph-name="omacron" unicode="&#x14d;" horiz-adv-x="1315" 
d="M319 1208v209h676v-209h-676zM657 -20c-344 0 -596 221 -596 550c0 328 252 549 596 549c342 0 596 -221 596 -549c0 -329 -254 -550 -596 -550zM655 285c138 0 248 94 248 245c0 150 -110 246 -248 246c-137 0 -245 -92 -245 -246c0 -155 108 -245 245 -245z" />
    <glyph glyph-name="oslash" unicode="&#xf8;" horiz-adv-x="1315" 
d="M1048 956c127 -96 205 -245 205 -426c0 -329 -254 -550 -596 -550c-93 0 -180 16 -256 46l-80 -114l-135 80l78 112c-127 96 -203 245 -203 426c0 328 252 549 596 549c92 0 178 -16 254 -46l78 112l135 -80zM410 530c0 -61 17 -112 45 -151l271 388c-23 6 -46 9 -71 9
c-137 0 -245 -92 -245 -246zM655 285c138 0 248 94 248 245c0 60 -17 111 -47 150l-270 -387c22 -5 45 -8 69 -8z" />
    <glyph glyph-name="otilde" unicode="&#xf5;" horiz-adv-x="1315" 
d="M788 1212c-88 0 -153 41 -207 121c-16 25 -30 35 -49 35c-47 0 -65 -61 -65 -141h-185c0 186 91 321 242 321c96 0 166 -55 209 -120c12 -19 25 -35 51 -35c47 0 62 55 62 141h186c0 -180 -82 -322 -244 -322zM657 -20c-344 0 -596 221 -596 550c0 328 252 549 596 549
c342 0 596 -221 596 -549c0 -329 -254 -550 -596 -550zM655 285c138 0 248 94 248 245c0 150 -110 246 -248 246c-137 0 -245 -92 -245 -246c0 -155 108 -245 245 -245z" />
    <glyph glyph-name="oe" unicode="&#x153;" horiz-adv-x="2087" 
d="M2021 541l-4 -74h-740c11 -139 103 -205 218 -205c90 0 170 39 213 125l287 -121c-78 -176 -256 -286 -500 -286c-173 0 -315 56 -416 148c-106 -94 -253 -148 -422 -148c-344 0 -596 221 -596 550c0 328 252 549 596 549c169 0 316 -54 422 -148c100 93 238 150 402 150
c305 0 538 -200 540 -540zM1485 829c-106 0 -179 -54 -202 -157h391c-11 103 -86 157 -189 157zM655 285c138 0 248 94 248 245c0 150 -110 246 -248 246c-137 0 -245 -92 -245 -246c0 -155 108 -245 245 -245z" />
    <glyph glyph-name="p" unicode="p" horiz-adv-x="1399" 
d="M152 -498v1557h368v-111c60 72 162 131 305 131c279 0 506 -223 506 -553c0 -329 -225 -546 -506 -546c-125 0 -233 43 -305 129v-607h-368zM717 272c139 0 246 93 246 254c0 162 -107 254 -246 254s-246 -92 -246 -254c0 -161 107 -254 246 -254z" />
    <glyph glyph-name="thorn" unicode="&#xfe;" horiz-adv-x="1399" 
d="M152 -498v2034h368v-588c60 72 162 131 305 131c279 0 506 -223 506 -553c0 -329 -225 -546 -506 -546c-125 0 -233 43 -305 129v-607h-368zM717 272c139 0 246 113 246 254c0 142 -107 254 -246 254s-246 -112 -246 -254c0 -141 107 -254 246 -254z" />
    <glyph glyph-name="q" unicode="q" horiz-adv-x="1399" 
d="M1247 -498h-368v607c-72 -86 -180 -129 -305 -129c-281 0 -506 217 -506 546c0 330 227 553 506 553c143 0 245 -59 305 -131v111h368v-1557zM682 272c139 0 246 93 246 254c0 162 -107 254 -246 254s-246 -92 -246 -254c0 -161 107 -254 246 -254z" />
    <glyph glyph-name="r" unicode="r" horiz-adv-x="895" 
d="M500 839c52 94 175 214 360 230v-350c-229 0 -340 -82 -340 -262v-457h-368v1059h348v-220z" />
    <glyph glyph-name="racute" unicode="&#x155;" horiz-adv-x="895" 
d="M764 1454l-228 -272h-217l271 395zM500 839c52 94 175 214 360 230v-350c-229 0 -340 -82 -340 -262v-457h-368v1059h348v-220z" />
    <glyph glyph-name="rcaron" unicode="&#x159;" horiz-adv-x="895" 
d="M530 1235h-205l-237 301h217l123 -176l122 176h218zM500 839c52 94 175 214 360 230v-350c-229 0 -340 -82 -340 -262v-457h-368v1059h348v-220z" />
    <glyph glyph-name="rcommaaccent" unicode="&#x157;" horiz-adv-x="895" 
d="M500 839c52 94 175 214 360 230v-350c-229 0 -340 -82 -340 -262v-457h-368v1059h348v-220zM6 -502l172 379h313l-311 -461z" />
    <glyph glyph-name="s" unicode="s" horiz-adv-x="1018" 
d="M522 -20c-162 0 -342 49 -471 133l139 249c95 -67 236 -122 324 -122c51 0 86 18 86 57c0 61 -90 80 -199 119c-133 47 -299 110 -299 325c0 234 193 338 416 338c135 0 283 -39 404 -112l-142 -228c-67 43 -188 88 -264 88c-45 0 -74 -16 -74 -47c0 -53 95 -67 207 -106
c142 -49 301 -117 301 -342c0 -242 -186 -352 -428 -352z" />
    <glyph glyph-name="sacute" unicode="&#x15b;" horiz-adv-x="1018" 
d="M405 1182l271 395l174 -123l-228 -272h-217zM522 -20c-162 0 -342 49 -471 133l139 249c95 -67 236 -122 324 -122c51 0 86 18 86 57c0 61 -90 80 -199 119c-133 47 -299 110 -299 325c0 234 193 338 416 338c135 0 283 -39 404 -112l-142 -228c-67 43 -188 88 -264 88
c-45 0 -74 -16 -74 -47c0 -53 95 -67 207 -106c142 -49 301 -117 301 -342c0 -242 -186 -352 -428 -352z" />
    <glyph glyph-name="scaron" unicode="&#x161;" horiz-adv-x="1018" 
d="M411 1235l-237 301h217l123 -176l122 176h218l-238 -301h-205zM522 -20c-162 0 -342 49 -471 133l139 249c95 -67 236 -122 324 -122c51 0 86 18 86 57c0 61 -90 80 -199 119c-133 47 -299 110 -299 325c0 234 193 338 416 338c135 0 283 -39 404 -112l-142 -228
c-67 43 -188 88 -264 88c-45 0 -74 -16 -74 -47c0 -53 95 -67 207 -106c142 -49 301 -117 301 -342c0 -242 -186 -352 -428 -352z" />
    <glyph glyph-name="scedilla" unicode="&#x15f;" horiz-adv-x="1018" 
d="M950 332c0 -215 -146 -325 -348 -348l-60 -97c13 2 27 4 39 4c111 0 193 -79 193 -192c0 -129 -103 -231 -232 -231s-215 73 -241 165l155 50c13 -39 45 -58 78 -58c39 0 78 27 78 74c0 51 -39 76 -78 76c-29 0 -55 -13 -69 -37l-125 69l97 177c-137 14 -279 59 -386 129
l139 249c95 -67 236 -122 324 -122c51 0 86 18 86 57c0 61 -90 80 -199 119c-133 47 -299 110 -299 325c0 234 193 338 416 338c135 0 283 -39 404 -112l-142 -228c-67 43 -188 88 -264 88c-45 0 -74 -16 -74 -47c0 -53 95 -67 207 -106c142 -49 301 -117 301 -342z" />
    <glyph glyph-name="scommaaccent" unicode="&#x219;" horiz-adv-x="1018" 
d="M522 -20c-162 0 -342 49 -471 133l139 249c95 -67 236 -122 324 -122c51 0 86 18 86 57c0 61 -90 80 -199 119c-133 47 -299 110 -299 325c0 234 193 338 416 338c135 0 283 -39 404 -112l-142 -228c-67 43 -188 88 -264 88c-45 0 -74 -16 -74 -47c0 -53 95 -67 207 -106
c142 -49 301 -117 301 -342c0 -242 -186 -352 -428 -352zM374 -584l-174 82l172 379h313z" />
    <glyph glyph-name="germandbls" unicode="&#xdf;" horiz-adv-x="1405" 
d="M1145 821c117 -91 190 -227 190 -385c0 -180 -94 -436 -426 -436h-186v324h94c105 0 150 77 150 159c0 97 -86 158 -189 158h-59v301h20c88 0 162 72 162 162c0 82 -61 147 -182 147c-111 0 -201 -55 -201 -254v-997h-368v915c0 521 311 641 546 641
c377 0 551 -202 551 -450c0 -109 -38 -207 -102 -285z" />
    <glyph glyph-name="t" unicode="t" horiz-adv-x="862" 
d="M778 823h-215v-426c0 -90 45 -125 109 -125h100v-272h-207c-237 0 -372 129 -372 356v467h-160v236h160v293h370v-293h215v-236z" />
    <glyph glyph-name="tbar" unicode="&#x167;" horiz-adv-x="963" 
d="M827 823h-215v-184h215v-217h-215v-25c0 -90 45 -125 109 -125h100v-272h-207c-237 0 -372 129 -372 356v66h-160v217h160v184h-160v236h160v293h370v-293h215v-236z" />
    <glyph glyph-name="tcaron" unicode="&#x165;" horiz-adv-x="862" 
d="M819 1874h373l-242 -676h-258zM563 1352v-293h215v-236h-215v-426c0 -90 45 -125 109 -125h100v-272h-207c-237 0 -372 129 -372 356v467h-160v236h160v293h370z" />
    <glyph glyph-name="uni0163" unicode="&#x163;" horiz-adv-x="862" 
d="M649 -109c111 0 193 -79 193 -192c0 -129 -103 -231 -232 -231s-215 73 -241 165l155 50c13 -39 45 -58 78 -58c39 0 78 27 78 74c0 51 -39 76 -78 76c-29 0 -55 -13 -69 -37l-125 69l107 195c-206 17 -322 144 -322 354v467h-160v236h160v293h370v-293h215v-236h-215
v-426c0 -90 45 -125 109 -125h100v-272h-92l-70 -113c13 2 27 4 39 4z" />
    <glyph glyph-name="uni021B" unicode="&#x21b;" horiz-adv-x="862" 
d="M778 823h-215v-426c0 -90 45 -125 109 -125h100v-272h-207c-237 0 -372 129 -372 356v467h-160v236h160v293h370v-293h215v-236zM268 -502l172 379h313l-311 -461z" />
    <glyph glyph-name="u" unicode="u" horiz-adv-x="1303" 
d="M649 -20c-344 0 -530 167 -530 432v647h368v-621c0 -106 70 -155 162 -155s164 49 164 155v621h371v-647c0 -265 -189 -432 -535 -432z" />
    <glyph glyph-name="uacute" unicode="&#xfa;" horiz-adv-x="1303" 
d="M542 1182l271 395l174 -123l-228 -272h-217zM649 -20c-344 0 -530 167 -530 432v647h368v-621c0 -106 70 -155 162 -155s164 49 164 155v621h371v-647c0 -265 -189 -432 -535 -432z" />
    <glyph glyph-name="uni01D4" unicode="&#x1d4;" horiz-adv-x="1303" 
d="M548 1235l-237 301h217l123 -176l122 176h218l-238 -301h-205zM649 -20c-344 0 -530 167 -530 432v647h368v-621c0 -106 70 -155 162 -155s164 49 164 155v621h371v-647c0 -265 -189 -432 -535 -432z" />
    <glyph glyph-name="ucircumflex" unicode="&#xfb;" horiz-adv-x="1303" 
d="M528 1235h-217l237 301h205l238 -301h-218l-122 176zM649 -20c-344 0 -530 167 -530 432v647h368v-621c0 -106 70 -155 162 -155s164 49 164 155v621h371v-647c0 -265 -189 -432 -535 -432z" />
    <glyph glyph-name="udieresis" unicode="&#xfc;" horiz-adv-x="1303" 
d="M427 1227c-90 0 -166 73 -166 166c0 90 76 163 166 163s166 -73 166 -163c0 -93 -76 -166 -166 -166zM876 1227c-92 0 -166 73 -166 166c0 90 74 163 166 163c90 0 164 -73 164 -163c0 -93 -74 -166 -164 -166zM649 -20c-344 0 -530 167 -530 432v647h368v-621
c0 -106 70 -155 162 -155s164 49 164 155v621h371v-647c0 -265 -189 -432 -535 -432z" />
    <glyph glyph-name="uni01D8" unicode="&#x1d8;" horiz-adv-x="1303" 
d="M542 1659l271 395l174 -123l-228 -272h-217zM427 1227c-90 0 -166 73 -166 166c0 90 76 163 166 163s166 -73 166 -163c0 -93 -76 -166 -166 -166zM876 1227c-92 0 -166 73 -166 166c0 90 74 163 166 163c90 0 164 -73 164 -163c0 -93 -74 -166 -164 -166zM649 -20
c-344 0 -530 167 -530 432v647h368v-621c0 -106 70 -155 162 -155s164 49 164 155v621h371v-647c0 -265 -189 -432 -535 -432z" />
    <glyph glyph-name="uni01DA" unicode="&#x1da;" horiz-adv-x="1303" 
d="M548 1712l-237 301h217l123 -176l122 176h218l-238 -301h-205zM427 1227c-90 0 -166 73 -166 166c0 90 76 163 166 163s166 -73 166 -163c0 -93 -76 -166 -166 -166zM876 1227c-92 0 -166 73 -166 166c0 90 74 163 166 163c90 0 164 -73 164 -163
c0 -93 -74 -166 -164 -166zM649 -20c-344 0 -530 167 -530 432v647h368v-621c0 -106 70 -155 162 -155s164 49 164 155v621h371v-647c0 -265 -189 -432 -535 -432z" />
    <glyph glyph-name="uni01DC" unicode="&#x1dc;" horiz-adv-x="1303" 
d="M542 1659l-227 272l174 123l270 -395h-217zM427 1227c-90 0 -166 73 -166 166c0 90 76 163 166 163s166 -73 166 -163c0 -93 -76 -166 -166 -166zM876 1227c-92 0 -166 73 -166 166c0 90 74 163 166 163c90 0 164 -73 164 -163c0 -93 -74 -166 -164 -166zM649 -20
c-344 0 -530 167 -530 432v647h368v-621c0 -106 70 -155 162 -155s164 49 164 155v621h371v-647c0 -265 -189 -432 -535 -432z" />
    <glyph glyph-name="uni01D6" unicode="&#x1d6;" horiz-adv-x="1303" 
d="M313 1687v209h676v-209h-676zM427 1227c-90 0 -166 73 -166 166c0 90 76 163 166 163s166 -73 166 -163c0 -93 -76 -166 -166 -166zM876 1227c-92 0 -166 73 -166 166c0 90 74 163 166 163c90 0 164 -73 164 -163c0 -93 -74 -166 -164 -166zM649 -20
c-344 0 -530 167 -530 432v647h368v-621c0 -106 70 -155 162 -155s164 49 164 155v621h371v-647c0 -265 -189 -432 -535 -432z" />
    <glyph glyph-name="uni1EE5" unicode="&#x1ee5;" horiz-adv-x="1303" 
d="M649 -20c-344 0 -530 167 -530 432v647h368v-621c0 -106 70 -155 162 -155s164 49 164 155v621h371v-647c0 -265 -189 -432 -535 -432zM651 -512c-110 0 -200 88 -200 199c0 108 90 196 200 196c107 0 197 -88 197 -196c0 -111 -90 -199 -197 -199z" />
    <glyph glyph-name="ugrave" unicode="&#xf9;" horiz-adv-x="1303" 
d="M542 1182l-227 272l174 123l270 -395h-217zM649 -20c-344 0 -530 167 -530 432v647h368v-621c0 -106 70 -155 162 -155s164 49 164 155v621h371v-647c0 -265 -189 -432 -535 -432z" />
    <glyph glyph-name="uni1EE7" unicode="&#x1ee7;" horiz-adv-x="1303" 
d="M579 1130v146c76 12 107 45 107 88c0 33 -17 57 -58 57c-26 0 -59 -12 -86 -43l-78 115c43 37 105 63 189 63c135 0 205 -71 205 -180c0 -106 -66 -139 -125 -157v-89h-154zM649 -20c-344 0 -530 167 -530 432v647h368v-621c0 -106 70 -155 162 -155s164 49 164 155v621
h371v-647c0 -265 -189 -432 -535 -432z" />
    <glyph glyph-name="uhorn" unicode="&#x1b0;" horiz-adv-x="1303" 
d="M1296 1261h162v-204c0 -185 -99 -230 -197 -230c-23 0 -49 3 -77 10v-425c0 -265 -189 -432 -535 -432c-344 0 -530 167 -530 432v647h368v-621c0 -106 70 -155 162 -155s164 49 164 155v621h371v-73c5 -1 9 -1 13 -1c76 0 99 22 99 133v143z" />
    <glyph glyph-name="uni1EE9" unicode="&#x1ee9;" horiz-adv-x="1303" 
d="M987 1454l-228 -272h-217l271 395zM1296 1261h162v-204c0 -185 -99 -230 -197 -230c-23 0 -49 3 -77 10v-425c0 -265 -189 -432 -535 -432c-344 0 -530 167 -530 432v647h368v-621c0 -106 70 -155 162 -155s164 49 164 155v621h371v-73c5 -1 9 -1 13 -1
c76 0 99 22 99 133v143z" />
    <glyph glyph-name="uni1EF1" unicode="&#x1ef1;" horiz-adv-x="1303" 
d="M1296 1261h162v-204c0 -185 -99 -230 -197 -230c-23 0 -49 3 -77 10v-425c0 -265 -189 -432 -535 -432c-344 0 -530 167 -530 432v647h368v-621c0 -106 70 -155 162 -155s164 49 164 155v621h371v-73c5 -1 9 -1 13 -1c76 0 99 22 99 133v143zM651 -117
c107 0 197 -88 197 -196c0 -111 -90 -199 -197 -199c-110 0 -200 88 -200 199c0 108 90 196 200 196z" />
    <glyph glyph-name="uni1EEB" unicode="&#x1eeb;" horiz-adv-x="1303" 
d="M759 1182h-217l-227 272l174 123zM1296 1261h162v-204c0 -185 -99 -230 -197 -230c-23 0 -49 3 -77 10v-425c0 -265 -189 -432 -535 -432c-344 0 -530 167 -530 432v647h368v-621c0 -106 70 -155 162 -155s164 49 164 155v621h371v-73c5 -1 9 -1 13 -1c76 0 99 22 99 133
v143z" />
    <glyph glyph-name="uni1EED" unicode="&#x1eed;" horiz-adv-x="1303" 
d="M628 1421c-26 0 -59 -12 -86 -43l-78 115c43 37 105 63 189 63c135 0 205 -71 205 -180c0 -106 -66 -139 -125 -157v-89h-154v146c76 12 107 45 107 88c0 33 -17 57 -58 57zM1296 1261h162v-204c0 -185 -99 -230 -197 -230c-23 0 -49 3 -77 10v-425
c0 -265 -189 -432 -535 -432c-344 0 -530 167 -530 432v647h368v-621c0 -106 70 -155 162 -155s164 49 164 155v621h371v-73c5 -1 9 -1 13 -1c76 0 99 22 99 133v143z" />
    <glyph glyph-name="uni1EEF" unicode="&#x1eef;" horiz-adv-x="1303" 
d="M526 1370c-47 0 -65 -61 -65 -141h-185c0 186 91 321 242 321c96 0 166 -55 209 -120c12 -19 25 -35 51 -35c47 0 62 55 62 141h186c0 -180 -82 -322 -244 -322c-88 0 -153 41 -207 121c-16 25 -30 35 -49 35zM1296 1261h162v-204c0 -185 -99 -230 -197 -230
c-23 0 -49 3 -77 10v-425c0 -265 -189 -432 -535 -432c-344 0 -530 167 -530 432v647h368v-621c0 -106 70 -155 162 -155s164 49 164 155v621h371v-73c5 -1 9 -1 13 -1c76 0 99 22 99 133v143z" />
    <glyph glyph-name="uhungarumlaut" unicode="&#x171;" horiz-adv-x="1303" 
d="M348 1182l270 395l174 -123l-227 -272h-217zM737 1182l270 395l174 -123l-227 -272h-217zM649 -20c-344 0 -530 167 -530 432v647h368v-621c0 -106 70 -155 162 -155s164 49 164 155v621h371v-647c0 -265 -189 -432 -535 -432z" />
    <glyph glyph-name="umacron" unicode="&#x16b;" horiz-adv-x="1303" 
d="M313 1210v209h676v-209h-676zM649 -20c-344 0 -530 167 -530 432v647h368v-621c0 -106 70 -155 162 -155s164 49 164 155v621h371v-647c0 -265 -189 -432 -535 -432z" />
    <glyph glyph-name="uogonek" unicode="&#x173;" horiz-adv-x="1303" 
d="M813 1059h371v-647c0 -222 -132 -375 -378 -419c-110 -62 -182 -170 -182 -241c0 -53 39 -80 86 -80c37 0 78 17 109 47v-219c-47 -20 -98 -30 -148 -30c-188 0 -278 104 -278 225c0 103 65 216 187 287c-300 21 -461 183 -461 430v647h368v-621c0 -106 70 -155 162 -155
s164 49 164 155v621z" />
    <glyph glyph-name="uring" unicode="&#x16f;" horiz-adv-x="1303" 
d="M651 1157c-143 0 -260 117 -260 260c0 140 117 256 260 256c141 0 256 -116 256 -256c0 -143 -115 -260 -256 -260zM651 1303c64 0 113 45 113 114c0 60 -49 115 -113 115c-63 0 -110 -55 -110 -115c0 -69 47 -114 110 -114zM649 -20c-344 0 -530 167 -530 432v647h368
v-621c0 -106 70 -155 162 -155s164 49 164 155v621h371v-647c0 -265 -189 -432 -535 -432z" />
    <glyph glyph-name="utilde" unicode="&#x169;" horiz-adv-x="1303" 
d="M782 1214c-88 0 -153 41 -207 121c-16 25 -30 35 -49 35c-47 0 -65 -61 -65 -141h-185c0 186 91 321 242 321c96 0 166 -55 209 -120c12 -19 25 -35 51 -35c47 0 62 55 62 141h186c0 -180 -82 -322 -244 -322zM649 -20c-344 0 -530 167 -530 432v647h368v-621
c0 -106 70 -155 162 -155s164 49 164 155v621h371v-647c0 -265 -189 -432 -535 -432z" />
    <glyph glyph-name="v" unicode="v" horiz-adv-x="1208" 
d="M811 1059h391l-438 -1059h-324l-434 1059h391l206 -653z" />
    <glyph glyph-name="w" unicode="w" horiz-adv-x="1810" 
d="M1409 1059h385l-352 -1061h-344l-193 646l-196 -646h-347l-346 1061h383l165 -627l200 627h280l198 -625z" />
    <glyph glyph-name="wacute" unicode="&#x1e83;" horiz-adv-x="1810" 
d="M1256 1454l-228 -272h-217l271 395zM1409 1059h385l-352 -1061h-344l-193 646l-196 -646h-347l-346 1061h383l165 -627l200 627h280l198 -625z" />
    <glyph glyph-name="wcircumflex" unicode="&#x175;" horiz-adv-x="1810" 
d="M920 1411l-123 -176h-217l237 301h205l238 -301h-218zM1409 1059h385l-352 -1061h-344l-193 646l-196 -646h-347l-346 1061h383l165 -627l200 627h280l198 -625z" />
    <glyph glyph-name="wdieresis" unicode="&#x1e85;" horiz-adv-x="1810" 
d="M696 1227c-90 0 -166 73 -166 166c0 90 76 163 166 163s166 -73 166 -163c0 -93 -76 -166 -166 -166zM1145 1227c-92 0 -166 73 -166 166c0 90 74 163 166 163c90 0 164 -73 164 -163c0 -93 -74 -166 -164 -166zM1409 1059h385l-352 -1061h-344l-193 646l-196 -646h-347
l-346 1061h383l165 -627l200 627h280l198 -625z" />
    <glyph glyph-name="wgrave" unicode="&#x1e81;" horiz-adv-x="1810" 
d="M1028 1182h-217l-227 272l174 123zM1409 1059h385l-352 -1061h-344l-193 646l-196 -646h-347l-346 1061h383l165 -627l200 627h280l198 -625z" />
    <glyph glyph-name="x" unicode="x" horiz-adv-x="1354" 
d="M8 0l447 530l-447 529h441l227 -291l229 291h441l-449 -531l449 -528h-443l-225 287l-225 -287h-445z" />
    <glyph glyph-name="y" unicode="y" horiz-adv-x="1178" 
d="M793 1059h378l-622 -1557h-375l232 585l-400 972h404l188 -628z" />
    <glyph glyph-name="yacute" unicode="&#xfd;" horiz-adv-x="1178" 
d="M926 1454l-228 -272h-217l271 395zM793 1059h378l-622 -1557h-375l232 585l-400 972h404l188 -628z" />
    <glyph glyph-name="ycircumflex" unicode="&#x177;" horiz-adv-x="1178" 
d="M590 1411l-123 -176h-217l237 301h205l238 -301h-218zM793 1059h378l-622 -1557h-375l232 585l-400 972h404l188 -628z" />
    <glyph glyph-name="ydieresis" unicode="&#xff;" horiz-adv-x="1178" 
d="M366 1227c-90 0 -166 73 -166 166c0 90 76 163 166 163s166 -73 166 -163c0 -93 -76 -166 -166 -166zM815 1227c-92 0 -166 73 -166 166c0 90 74 163 166 163c90 0 164 -73 164 -163c0 -93 -74 -166 -164 -166zM793 1059h378l-622 -1557h-375l232 585l-400 972h404
l188 -628z" />
    <glyph glyph-name="uni1EF5" unicode="&#x1ef5;" horiz-adv-x="1178" 
d="M793 1059h378l-622 -1557h-375l232 585l-400 972h404l188 -628zM938 -117c107 0 197 -88 197 -196c0 -111 -90 -199 -197 -199c-110 0 -200 88 -200 199c0 108 90 196 200 196z" />
    <glyph glyph-name="ygrave" unicode="&#x1ef3;" horiz-adv-x="1178" 
d="M698 1182h-217l-227 272l174 123zM793 1059h378l-622 -1557h-375l232 585l-400 972h404l188 -628z" />
    <glyph glyph-name="uni1EF7" unicode="&#x1ef7;" horiz-adv-x="1178" 
d="M567 1421c-26 0 -59 -12 -86 -43l-78 115c43 37 105 63 189 63c135 0 205 -71 205 -180c0 -106 -66 -139 -125 -157v-89h-154v146c76 12 107 45 107 88c0 33 -17 57 -58 57zM793 1059h378l-622 -1557h-375l232 585l-400 972h404l188 -628z" />
    <glyph glyph-name="uni1EF9" unicode="&#x1ef9;" horiz-adv-x="1178" 
d="M465 1370c-47 0 -65 -61 -65 -141h-185c0 186 91 321 242 321c96 0 166 -55 209 -120c12 -19 25 -35 51 -35c47 0 62 55 62 141h186c0 -180 -82 -322 -244 -322c-88 0 -153 41 -207 121c-16 25 -30 35 -49 35zM793 1059h378l-622 -1557h-375l232 585l-400 972h404
l188 -628z" />
    <glyph glyph-name="z" unicode="z" horiz-adv-x="1094" 
d="M1040 1059l-468 -783h446v-276h-975l466 782h-423v277h954z" />
    <glyph glyph-name="zacute" unicode="&#x17a;" horiz-adv-x="1094" 
d="M903 1454l-228 -272h-217l271 395zM1040 1059l-468 -783h446v-276h-975l466 782h-423v277h954z" />
    <glyph glyph-name="zcaron" unicode="&#x17e;" horiz-adv-x="1094" 
d="M669 1235h-205l-237 301h217l123 -176l122 176h218zM1040 1059l-468 -783h446v-276h-975l466 782h-423v277h954z" />
    <glyph glyph-name="zdotaccent" unicode="&#x17c;" horiz-adv-x="1094" 
d="M569 1161c-111 0 -201 88 -201 199c0 108 90 196 201 196c107 0 197 -88 197 -196c0 -111 -90 -199 -197 -199zM1040 1059l-468 -783h446v-276h-975l466 782h-423v277h954z" />
    <glyph glyph-name="f_t" horiz-adv-x="1610" 
d="M193 0v823h-160v236h160v121c0 227 135 376 372 376c56 0 131 -8 207 -32v-285c-35 16 -70 25 -100 25c-64 0 -109 -35 -109 -125v-80h377v293h371v-293h215v-236h-215v-426c0 -90 45 -125 108 -125h101v-272h-207c-238 0 -373 129 -373 356v467h-377v-823h-370z" />
    <glyph glyph-name="t_t" horiz-adv-x="1649" 
d="M565 0c-237 0 -372 129 -372 356v467h-160v236h160v293h370v-293h416v293h371v-293h215v-236h-215v-426c0 -90 45 -125 108 -125h101v-272h-207c-238 0 -373 129 -373 356v467h-416v-426c0 -90 45 -125 109 -125h100v-272h-207z" />
    <glyph glyph-name="ordfeminine" unicode="&#xaa;" horiz-adv-x="920" 
d="M571 1536h201v-614h-201v68c-46 -51 -110 -81 -188 -81c-168 0 -301 142 -301 320s133 319 301 319c78 0 142 -30 188 -80v68zM426 1083c80 0 145 66 145 146c0 82 -65 145 -145 145s-145 -63 -145 -145c0 -80 65 -146 145 -146z" />
    <glyph glyph-name="ordmasculine" unicode="&#xba;" horiz-adv-x="920" 
d="M459 909c-195 0 -344 142 -344 320s149 319 344 319c192 0 346 -141 346 -319s-154 -320 -346 -320zM459 1083c80 0 145 66 145 146c0 82 -65 145 -145 145s-146 -63 -146 -145c0 -80 66 -146 146 -146z" />
    <glyph glyph-name="uni0394" unicode="&#x394;" horiz-adv-x="1686" 
d="M1038 1536l617 -1536h-1624l616 1536h391zM538 342h610l-304 803z" />
    <glyph glyph-name="uni03A9" unicode="&#x3a9;" horiz-adv-x="1778" 
d="M113 0v313h200v4c-71 97 -168 304 -168 529c0 393 289 700 748 700c487 0 741 -338 741 -700c0 -191 -71 -404 -176 -529v-4h207v-313h-702v236c149 92 256 274 256 530c0 291 -119 461 -324 461c-193 0 -336 -166 -336 -461c0 -260 117 -459 260 -530v-236h-706z" />
    <glyph glyph-name="uni03BC" unicode="&#x3bc;" horiz-adv-x="1294" 
d="M784 963h367v-963h-367v87c-70 -66 -160 -105 -260 -105c-40 0 -78 6 -114 18v-481h-265v1444h369v-539c0 -70 53 -123 123 -123c84 0 147 53 147 123v539z" />
    <glyph glyph-name="pi" unicode="&#x3c0;" horiz-adv-x="1374" 
d="M143 0c62 209 117 539 115 705c-78 0 -147 -3 -192 -11l-35 199c51 43 174 70 375 70h923l-26 -258h-136v-412c0 -129 13 -234 25 -293h-330c-28 37 -37 152 -37 279v426l-231 -3c-6 -188 -51 -532 -119 -702h-332z" />
    <glyph glyph-name="zero" unicode="0" horiz-adv-x="1331" 
d="M668 -20c-369 0 -582 253 -582 788s213 788 582 788c366 0 579 -253 579 -788s-213 -788 -579 -788zM668 303c127 0 211 135 211 465s-84 465 -211 465c-129 0 -213 -135 -213 -465s84 -465 213 -465z" />
    <glyph glyph-name="one" unicode="1" horiz-adv-x="1331" 
d="M885 322h297v-322h-963v322h297v846l-297 -250v368l313 250h353v-1214z" />
    <glyph glyph-name="two" unicode="2" horiz-adv-x="1331" 
d="M634 322h576v-322h-1093v272c635 613 696 697 696 852c0 121 -96 148 -166 148c-117 0 -172 -68 -172 -209h-369c0 311 213 496 541 496c311 0 533 -166 535 -429c2 -264 -134 -415 -548 -808z" />
    <glyph glyph-name="three" unicode="3" horiz-adv-x="1331" 
d="M979 829c117 -32 252 -135 252 -366c0 -295 -217 -483 -574 -483c-301 0 -573 133 -573 491h377c0 -139 96 -180 196 -180c144 0 199 84 199 188c0 129 -86 187 -199 187h-96v276h72c88 0 182 45 182 164c0 100 -67 143 -164 143c-96 0 -162 -43 -162 -155h-370
c0 292 237 462 528 462c301 0 512 -184 512 -417c0 -170 -110 -277 -180 -310z" />
    <glyph glyph-name="four" unicode="4" horiz-adv-x="1331" 
d="M1278 604v-321h-199v-283h-368v283h-648v321l512 932h504v-932h199zM363 604h348v649z" />
    <glyph glyph-name="five" unicode="5" horiz-adv-x="1331" 
d="M618 999c398 0 599 -159 599 -481c0 -338 -224 -541 -547 -541c-314 0 -570 191 -570 488h367c10 -107 92 -158 197 -158c129 0 190 78 190 197c0 121 -66 198 -299 198h-432l162 834h884v-322h-639l-34 -215h122z" />
    <glyph glyph-name="six" unicode="6" horiz-adv-x="1331" 
d="M780 1063c264 -43 471 -227 469 -547c-2 -311 -274 -536 -587 -536c-324 0 -578 239 -578 542c0 117 37 234 139 377l457 637h416l-351 -469c13 -1 25 -2 35 -4zM887 526c2 131 -82 238 -230 238c-141 0 -225 -98 -229 -227c-4 -131 78 -236 225 -236
c140 0 232 96 234 225z" />
    <glyph glyph-name="seven" unicode="7" horiz-adv-x="1331" 
d="M129 1536h1090v-274l-660 -1262h-418l661 1214h-673v322z" />
    <glyph glyph-name="eight" unicode="8" horiz-adv-x="1331" 
d="M666 -20c-330 0 -576 176 -576 479c0 174 82 303 219 383c-96 71 -153 176 -153 303c0 248 211 411 510 411s510 -163 510 -411c0 -127 -58 -232 -150 -303c135 -80 217 -209 217 -383c0 -301 -246 -479 -577 -479zM668 950c96 0 170 66 170 154s-74 153 -170 153
c-99 0 -172 -65 -172 -153s73 -154 172 -154zM666 301c120 0 208 76 208 205c0 127 -88 203 -208 203c-119 0 -207 -76 -207 -203c0 -129 88 -205 207 -205z" />
    <glyph glyph-name="nine" unicode="9" horiz-adv-x="1331" 
d="M672 1556c323 0 577 -239 577 -542c0 -117 -37 -234 -139 -377l-457 -637h-415l350 469c-13 1 -25 2 -35 4c-264 43 -471 268 -469 547c2 311 274 536 588 536zM905 999c4 131 -78 236 -225 236c-139 0 -231 -96 -234 -225c-2 -131 82 -238 230 -238
c141 0 225 98 229 227z" />
    <glyph glyph-name="zero.subs" horiz-adv-x="797" 
d="M397 -381c-209 0 -346 188 -346 473s137 473 346 473s348 -188 348 -473s-139 -473 -348 -473zM399 -176c82 0 138 96 138 268s-56 268 -138 268s-137 -96 -137 -268s55 -268 137 -268z" />
    <glyph glyph-name="one.subs" horiz-adv-x="512" 
d="M201 553h190v-922h-205v733l-176 -137v193z" />
    <glyph glyph-name="two.subs" horiz-adv-x="750" 
d="M293 -209h395v-160h-635v195c381 219 424 352 424 436c0 123 -63 141 -112 137c-89 -8 -105 -80 -99 -145h-215c-8 180 135 313 328 313c182 0 299 -118 299 -284c0 -172 -125 -368 -385 -492z" />
    <glyph glyph-name="three.subs" horiz-adv-x="729" 
d="M557 134c78 -44 125 -116 125 -214c0 -166 -133 -301 -328 -301c-180 0 -319 115 -319 270h201c6 -75 61 -102 124 -102c78 0 121 39 121 123c0 82 -41 119 -133 119h-53v155h39c78 0 115 35 115 115c0 78 -37 107 -99 107c-55 0 -102 -23 -108 -117h-195
c0 172 129 276 299 276c168 0 285 -104 285 -258c0 -73 -26 -132 -74 -173z" />
    <glyph glyph-name="four.subs" horiz-adv-x="770" 
d="M721 -23v-151h-94v-195h-199v195h-414v184l342 543h271v-576h94zM176 -23h252v426z" />
    <glyph glyph-name="five.subs" horiz-adv-x="797" 
d="M406 231c243 0 331 -125 331 -297c0 -202 -149 -311 -331 -311c-193 0 -353 101 -353 318h207c0 -109 68 -152 141 -152c80 0 131 51 131 139c0 101 -51 142 -167 142h-297l104 485h535v-168h-392l-31 -156h122z" />
    <glyph glyph-name="six.subs" horiz-adv-x="731" 
d="M451 258c92 -14 260 -125 258 -315c-2 -187 -168 -338 -355 -324c-188 14 -340 141 -340 326c0 80 37 143 72 200l295 408h244l-233 -292c17 1 37 0 59 -3zM354 -184c92 -13 150 49 150 127c0 90 -49 135 -121 145c-111 14 -162 -49 -162 -141c0 -82 43 -119 133 -131z
" />
    <glyph glyph-name="seven.subs" horiz-adv-x="672" 
d="M31 553h639v-154l-404 -768h-237l397 729h-395v193z" />
    <glyph glyph-name="eight.subs" horiz-adv-x="754" 
d="M585 139c77 -50 124 -130 124 -227c0 -166 -140 -293 -334 -293c-191 0 -330 127 -330 293c0 97 46 177 122 227c-47 43 -67 105 -67 180c0 140 115 246 277 246c160 0 274 -106 274 -246c0 -75 -19 -137 -66 -180zM377 401c-60 0 -101 -43 -101 -102
c0 -55 41 -100 101 -100c59 0 100 45 100 100c0 59 -41 102 -100 102zM375 -201c76 0 129 62 129 135c0 76 -53 129 -129 129c-74 0 -125 -53 -125 -129c0 -73 51 -135 125 -135z" />
    <glyph glyph-name="nine.subs" horiz-adv-x="731" 
d="M377 565c188 -14 340 -141 340 -325c0 -80 -35 -144 -74 -199l-293 -410h-244l234 292c-17 -1 -37 0 -59 3c-93 15 -261 125 -258 316c2 186 167 338 354 323zM348 96c111 -14 162 49 162 142c0 81 -43 118 -133 131c-92 12 -150 -50 -150 -127c0 -90 49 -136 121 -146z
" />
    <glyph glyph-name="zero.dnom" horiz-adv-x="797" 
d="M397 -12c-209 0 -346 188 -346 473c0 284 137 473 346 473s348 -189 348 -473c0 -285 -139 -473 -348 -473zM399 193c82 0 138 96 138 268s-56 268 -138 268s-137 -96 -137 -268s55 -268 137 -268z" />
    <glyph glyph-name="one.dnom" horiz-adv-x="512" 
d="M201 922h190v-922h-205v733l-176 -137v192z" />
    <glyph glyph-name="two.dnom" horiz-adv-x="750" 
d="M295 160h393v-160h-635v195c381 219 424 352 424 436c0 123 -63 141 -112 137c-89 -8 -105 -80 -99 -145h-215c-8 180 135 313 328 313c182 0 299 -119 299 -285c0 -171 -125 -367 -383 -491z" />
    <glyph glyph-name="three.dnom" horiz-adv-x="729" 
d="M558 503c78 -44 124 -116 124 -214c0 -166 -133 -301 -328 -301c-180 0 -319 114 -319 270h201c6 -76 61 -102 124 -102c78 0 121 39 121 123c0 81 -41 118 -133 118h-53v156h39c78 0 115 35 115 115c0 77 -37 106 -99 106c-55 0 -102 -22 -108 -117h-195
c0 172 129 277 299 277c168 0 285 -105 285 -258c0 -74 -26 -132 -73 -173z" />
    <glyph glyph-name="four.dnom" horiz-adv-x="770" 
d="M721 346v-151h-94v-195h-199v195h-414v184l342 543h271v-576h94zM176 346h252v425z" />
    <glyph glyph-name="five.dnom" horiz-adv-x="797" 
d="M406 600c243 0 331 -125 331 -297c0 -203 -149 -311 -331 -311c-193 0 -353 100 -353 317h207c0 -108 68 -151 141 -151c80 0 131 51 131 139c0 100 -51 141 -167 141h-297l104 486h535v-168h-392l-31 -156h122z" />
    <glyph glyph-name="six.dnom" horiz-adv-x="731" 
d="M451 627c92 -15 260 -125 258 -316c-2 -186 -168 -338 -355 -323c-188 14 -340 141 -340 325c0 80 37 144 72 201l295 408h244l-233 -292c17 1 37 0 59 -3zM354 184c92 -12 150 49 150 127c0 90 -49 135 -121 146c-111 14 -162 -49 -162 -142c0 -82 43 -118 133 -131z
" />
    <glyph glyph-name="seven.dnom" horiz-adv-x="672" 
d="M31 922h639v-154l-404 -768h-237l398 729h-396v193z" />
    <glyph glyph-name="eight.dnom" horiz-adv-x="754" 
d="M585 508c77 -50 124 -130 124 -227c0 -166 -140 -293 -334 -293c-191 0 -330 127 -330 293c0 97 46 176 122 226c-47 43 -67 106 -67 181c0 139 115 246 277 246c160 0 274 -107 274 -246c0 -75 -19 -137 -66 -180zM377 770c-60 0 -101 -43 -101 -102
c0 -56 41 -101 101 -101c59 0 100 45 100 101c0 59 -41 102 -100 102zM375 168c76 0 129 61 129 135c0 76 -53 129 -129 129c-74 0 -125 -53 -125 -129c0 -74 51 -135 125 -135z" />
    <glyph glyph-name="nine.dnom" horiz-adv-x="731" 
d="M377 934c188 -14 340 -141 340 -326c0 -80 -35 -143 -74 -198l-293 -410h-244l234 292c-17 -1 -37 0 -59 3c-93 14 -261 125 -258 315c2 187 167 338 354 324zM348 465c111 -14 162 49 162 141c0 82 -43 119 -133 131c-92 13 -150 -49 -150 -127c0 -90 49 -135 121 -145z
" />
    <glyph glyph-name="zero.numr" horiz-adv-x="797" 
d="M397 602c-209 0 -346 189 -346 473c0 285 137 473 346 473s348 -188 348 -473c0 -284 -139 -473 -348 -473zM399 807c82 0 138 96 138 268s-56 268 -138 268s-137 -96 -137 -268s55 -268 137 -268z" />
    <glyph glyph-name="one.numr" horiz-adv-x="514" 
d="M203 1536h190v-922h-207l2 733l-176 -137l-2 193z" />
    <glyph glyph-name="two.numr" horiz-adv-x="750" 
d="M293 774h395v-160h-635v195c381 219 424 352 424 436c0 123 -63 141 -112 137c-89 -8 -105 -79 -99 -145h-215c-8 180 135 313 328 313c182 0 299 -118 299 -284c0 -172 -125 -368 -385 -492z" />
    <glyph glyph-name="three.numr" horiz-adv-x="729" 
d="M554 1117c82 -44 128 -116 128 -214c0 -166 -135 -301 -326 -301c-184 0 -321 115 -321 270h215c0 -75 45 -102 106 -102c72 0 115 39 115 125c0 80 -43 117 -143 117h-33v155h18c90 0 125 35 125 117c0 72 -37 105 -90 105c-55 0 -92 -23 -92 -117h-209
c0 172 127 276 301 276c166 0 283 -104 283 -260c0 -73 -27 -131 -77 -171z" />
    <glyph glyph-name="four.numr" horiz-adv-x="770" 
d="M721 961v-152h-94v-195h-199v195h-414v184l342 543h271v-575h94zM176 961h252v425z" />
    <glyph glyph-name="five.numr" horiz-adv-x="797" 
d="M406 1214c243 0 331 -124 331 -296c0 -203 -149 -312 -331 -312c-193 0 -353 101 -353 318h207c0 -109 68 -152 141 -152c80 0 131 51 131 139c0 101 -51 142 -167 142h-297l104 485h535v-168h-392l-31 -156h122z" />
    <glyph glyph-name="six.numr" horiz-adv-x="731" 
d="M451 1241c92 -14 260 -125 258 -315c-2 -187 -168 -338 -355 -324c-188 14 -340 141 -340 326c0 80 37 143 72 200l295 408h244l-233 -292c17 1 37 0 59 -3zM354 799c92 -13 150 49 150 127c0 90 -49 135 -121 145c-111 14 -162 -49 -162 -141c0 -82 43 -119 133 -131z
" />
    <glyph glyph-name="seven.numr" horiz-adv-x="672" 
d="M31 1536h639v-154l-404 -768h-237l397 729h-395v193z" />
    <glyph glyph-name="eight.numr" horiz-adv-x="754" 
d="M585 1122c77 -50 124 -130 124 -227c0 -166 -140 -293 -334 -293c-191 0 -330 127 -330 293c0 97 46 177 122 227c-47 43 -67 106 -67 181c0 139 115 245 277 245c160 0 274 -106 274 -245c0 -75 -19 -138 -66 -181zM377 1384c-60 0 -101 -43 -101 -102
c0 -55 41 -100 101 -100c59 0 100 45 100 100c0 59 -41 102 -100 102zM375 782c76 0 129 62 129 136c0 75 -53 129 -129 129c-74 0 -125 -54 -125 -129c0 -74 51 -136 125 -136z" />
    <glyph glyph-name="nine.numr" horiz-adv-x="731" 
d="M377 1548c188 -14 340 -141 340 -325c0 -80 -35 -144 -74 -199l-293 -410h-244l234 292c-17 -1 -37 0 -59 3c-93 15 -261 125 -258 316c2 186 167 338 354 323zM348 1079c111 -14 162 49 162 142c0 82 -43 118 -133 131c-92 12 -150 -49 -150 -127
c0 -90 49 -135 121 -146z" />
    <glyph glyph-name="zero.sups" horiz-adv-x="797" 
d="M397 971c-209 0 -346 188 -346 473s137 473 346 473s348 -188 348 -473s-139 -473 -348 -473zM399 1176c82 0 138 96 138 268s-56 268 -138 268s-137 -96 -137 -268s55 -268 137 -268z" />
    <glyph glyph-name="one.sups" horiz-adv-x="514" 
d="M203 1905h190v-922h-207l2 733l-176 -137l-2 193z" />
    <glyph glyph-name="two.sups" horiz-adv-x="750" 
d="M293 1143h395v-160h-635v195c381 219 424 352 424 436c0 123 -63 141 -112 137c-89 -8 -105 -80 -99 -145h-215c-8 180 135 313 328 313c182 0 299 -119 299 -285c0 -171 -125 -367 -385 -491z" />
    <glyph glyph-name="three.sups" horiz-adv-x="729" 
d="M555 1485c81 -44 127 -115 127 -213c0 -166 -135 -301 -326 -301c-184 0 -321 114 -321 270h215c0 -76 45 -102 106 -102c72 0 115 39 115 125c0 79 -43 116 -143 116h-33v156h18c90 0 125 35 125 117c0 71 -37 104 -90 104c-55 0 -92 -22 -92 -117h-209
c0 172 127 277 301 277c166 0 283 -105 283 -260c0 -73 -26 -131 -76 -172z" />
    <glyph glyph-name="four.sups" horiz-adv-x="770" 
d="M721 1329v-151h-94v-195h-199v195h-414v184l342 543h271v-576h94zM176 1329h252v425z" />
    <glyph glyph-name="five.sups" horiz-adv-x="797" 
d="M406 1583c243 0 331 -125 331 -297c0 -203 -149 -311 -331 -311c-193 0 -353 100 -353 317h207c0 -108 68 -151 141 -151c80 0 131 51 131 139c0 100 -51 141 -167 141h-297l104 486h535v-168h-392l-31 -156h122z" />
    <glyph glyph-name="six.sups" horiz-adv-x="731" 
d="M451 1610c92 -15 260 -125 258 -316c-2 -186 -168 -338 -355 -323c-188 14 -340 141 -340 325c0 80 37 144 72 201l295 408h244l-233 -292c17 1 37 0 59 -3zM354 1167c92 -12 150 50 150 127c0 90 -49 136 -121 146c-111 14 -162 -49 -162 -142c0 -81 43 -118 133 -131z
" />
    <glyph glyph-name="seven.sups" horiz-adv-x="672" 
d="M31 1905h639v-154l-404 -768h-237l398 729h-396v193z" />
    <glyph glyph-name="eight.sups" horiz-adv-x="754" 
d="M585 1491c77 -50 124 -130 124 -227c0 -166 -140 -293 -334 -293c-191 0 -330 127 -330 293c0 97 46 176 122 226c-47 43 -67 106 -67 181c0 139 115 246 277 246c160 0 274 -107 274 -246c0 -75 -19 -137 -66 -180zM377 1753c-60 0 -101 -43 -101 -102
c0 -56 41 -101 101 -101c59 0 100 45 100 101c0 59 -41 102 -100 102zM375 1151c76 0 129 61 129 135c0 76 -53 129 -129 129c-74 0 -125 -53 -125 -129c0 -74 51 -135 125 -135z" />
    <glyph glyph-name="nine.sups" horiz-adv-x="731" 
d="M377 1917c188 -14 340 -141 340 -326c0 -80 -35 -143 -74 -198l-293 -410h-244l234 292c-17 -1 -37 0 -59 3c-93 14 -261 125 -258 315c2 187 167 338 354 324zM348 1448c111 -14 162 49 162 141c0 82 -43 119 -133 131c-92 13 -150 -49 -150 -127
c0 -90 49 -135 121 -145z" />
    <glyph glyph-name="fraction" unicode="&#x2044;" horiz-adv-x="473" 
d="M-307 0l866 1536h221l-866 -1536h-221z" />
    <glyph glyph-name="onehalf" unicode="&#xbd;" horiz-adv-x="1737" 
d="M393 614h-207l2 733l-176 -137l-2 193l193 133h190v-922zM1073 1536h221l-866 -1536h-221zM1282 160h393v-160h-635v195c381 219 424 352 424 436c0 123 -63 141 -112 137c-89 -8 -105 -80 -99 -145h-215c-8 180 135 313 328 313c182 0 299 -119 299 -285
c0 -171 -125 -367 -383 -491z" />
    <glyph glyph-name="onequarter" unicode="&#xbc;" horiz-adv-x="1716" 
d="M393 614h-207l2 733l-176 -137l-2 193l193 133h190v-922zM1073 1536h221l-866 -1536h-221zM1667 346v-151h-94v-195h-199v195h-414v184l342 543h271v-576h94zM1122 346h252v425z" />
    <glyph glyph-name="threequarters" unicode="&#xbe;" horiz-adv-x="1931" 
d="M682 903c0 -166 -135 -301 -326 -301c-184 0 -321 115 -321 270h215c0 -75 45 -102 106 -102c72 0 115 39 115 125c0 80 -43 117 -143 117h-33v155h18c90 0 125 35 125 117c0 72 -37 105 -90 105c-55 0 -92 -23 -92 -117h-209c0 172 127 276 301 276
c166 0 283 -104 283 -260c0 -73 -27 -131 -77 -171c82 -44 128 -116 128 -214zM1288 1536h221l-866 -1536h-221zM1882 346v-151h-94v-195h-199v195h-414v184l342 543h271v-576h94zM1337 346h252v425z" />
    <glyph glyph-name="asterisk" unicode="*" horiz-adv-x="1067" 
d="M406 741l-168 101l247 286l-374 -71v194l374 -69l-247 286l168 101l126 -361l127 361l172 -101l-251 -286l374 69v-194l-374 71l251 -286l-172 -101l-127 359z" />
    <glyph glyph-name="backslash" unicode="\" horiz-adv-x="1305" 
d="M981 -430l-999 1966h342l999 -1966h-342z" />
    <glyph glyph-name="periodcentered" unicode="&#xb7;" horiz-adv-x="627" 
d="M313 596c-75 0 -141 61 -141 141c0 76 66 142 141 142c74 0 142 -66 142 -142c0 -80 -68 -141 -142 -141z" />
    <glyph glyph-name="bullet" unicode="&#x2022;" horiz-adv-x="999" 
d="M500 311c-199 0 -369 160 -369 367c0 199 170 369 369 369c196 0 366 -170 366 -369c0 -207 -170 -367 -366 -367z" />
    <glyph glyph-name="colon" unicode=":" horiz-adv-x="694" 
d="M346 649c-106 0 -196 90 -196 199c0 106 90 196 196 196c109 0 199 -90 199 -196c0 -109 -90 -199 -199 -199zM346 -20c-106 0 -196 90 -196 196c0 109 90 199 196 199c109 0 199 -90 199 -199c0 -106 -90 -196 -199 -196z" />
    <glyph glyph-name="comma" unicode="," horiz-adv-x="745" 
d="M406 -373h-259l127 676h373z" />
    <glyph glyph-name="ellipsis" unicode="&#x2026;" horiz-adv-x="2161" 
d="M356 -20c-106 0 -196 90 -196 196c0 109 90 199 196 199c109 0 199 -90 199 -199c0 -106 -90 -196 -199 -196zM1079 -20c-106 0 -196 90 -196 196c0 109 90 199 196 199c109 0 199 -90 199 -199c0 -106 -90 -196 -199 -196zM1800 -20c-106 0 -196 90 -196 196
c0 109 90 199 196 199c109 0 199 -90 199 -199c0 -106 -90 -196 -199 -196z" />
    <glyph glyph-name="exclam" unicode="!" horiz-adv-x="758" 
d="M190 555v981h369v-981h-369zM375 -20c-109 0 -197 88 -197 196c0 111 88 199 197 199c110 0 198 -88 198 -199c0 -108 -88 -196 -198 -196z" />
    <glyph glyph-name="exclamdown" unicode="&#xa1;" horiz-adv-x="758" 
d="M375 1044c110 0 198 -88 198 -196c0 -111 -88 -199 -198 -199c-109 0 -197 88 -197 199c0 108 88 196 197 196zM190 469h369v-981h-369v981z" />
    <glyph glyph-name="numbersign" unicode="#" horiz-adv-x="1706" 
d="M330 0l45 326h-289l35 256h289l53 348h-293l43 254h285l47 334h254l-45 -334h319l47 334h256l-47 -334h293l-41 -254h-287l-49 -348h287l-35 -256h-287l-49 -326h-254l45 326h-323l-43 -326h-256zM668 582h319l51 348h-323z" />
    <glyph glyph-name="period" unicode="." horiz-adv-x="717" 
d="M356 -20c-106 0 -196 90 -196 196c0 109 90 199 196 199c109 0 199 -90 199 -199c0 -106 -90 -196 -199 -196z" />
    <glyph glyph-name="question" unicode="?" horiz-adv-x="1210" 
d="M434 494v360c213 0 371 51 371 221c0 131 -94 185 -205 185c-137 0 -215 -80 -215 -201h-322c0 295 218 500 535 500c293 0 528 -175 528 -480c0 -282 -200 -393 -362 -432v-153h-330zM606 -20c-110 0 -198 88 -198 196c0 111 88 199 198 199c109 0 197 -88 197 -199
c0 -108 -88 -196 -197 -196z" />
    <glyph glyph-name="questiondown" unicode="&#xbf;" horiz-adv-x="1210" 
d="M584 1046c110 0 198 -88 198 -196c0 -111 -88 -199 -198 -199c-109 0 -197 88 -197 199c0 108 88 196 197 196zM756 532v-360c-213 0 -371 -51 -371 -221c0 -131 94 -185 205 -185c137 0 215 80 215 201h322c0 -295 -218 -500 -535 -500c-293 0 -528 175 -528 480
c0 282 200 393 362 432v153h330z" />
    <glyph glyph-name="quotedbl" unicode="&#x22;" horiz-adv-x="1184" 
d="M238 879l-54 657h346l-41 -657h-251zM696 879l-41 657h344l-51 -657h-252z" />
    <glyph glyph-name="quotesingle" unicode="'" horiz-adv-x="719" 
d="M233 879l-47 657h346l-47 -657h-252z" />
    <glyph glyph-name="semicolon" unicode=";" horiz-adv-x="729" 
d="M395 649c-106 0 -196 90 -196 199c0 106 90 196 196 196c109 0 199 -90 199 -196c0 -109 -90 -199 -199 -199zM106 -373l127 676h373l-241 -676h-259z" />
    <glyph glyph-name="slash" unicode="/" horiz-adv-x="1305" 
d="M-18 -430l999 1966h342l-999 -1966h-342z" />
    <glyph glyph-name="underscore" unicode="_" horiz-adv-x="1323" 
d="M150 -287v307h1024v-307h-1024z" />
    <glyph glyph-name="braceleft" unicode="{" horiz-adv-x="774" 
d="M561 -483c-233 0 -362 159 -362 356v457c0 235 -35 221 -154 262v231c119 39 154 27 154 264v457c0 197 129 357 362 357h148v-306h-76c-49 0 -92 -26 -92 -102v-393c0 -215 -37 -340 -275 -391c238 -54 275 -179 275 -392v-397c0 -80 26 -100 92 -100h76v-303h-148z" />
    <glyph glyph-name="braceright" unicode="}" horiz-adv-x="774" 
d="M213 -483h-148v303h76c66 0 92 20 92 100v397c0 213 37 338 275 392c-238 51 -275 176 -275 391v393c0 76 -43 102 -92 102h-76v306h148c233 0 362 -160 362 -357v-457c0 -237 35 -225 154 -264v-231c-119 -41 -154 -27 -154 -262v-457c0 -197 -129 -356 -362 -356z" />
    <glyph glyph-name="bracketleft" unicode="[" horiz-adv-x="784" 
d="M152 -512v2382h583v-254h-264v-1874h264v-254h-583z" />
    <glyph glyph-name="bracketright" unicode="]" horiz-adv-x="784" 
d="M632 -512h-583v254h264v1874h-264v254h583v-2382z" />
    <glyph glyph-name="parenleft" unicode="(" horiz-adv-x="764" 
d="M524 -467c-272 213 -438 655 -438 1165s166 953 438 1166l213 -250c-186 -135 -317 -498 -317 -916c0 -417 131 -780 317 -915z" />
    <glyph glyph-name="parenright" unicode=")" horiz-adv-x="764" 
d="M240 -467l-213 250c186 135 317 498 317 915c0 418 -131 781 -317 916l213 250c272 -213 438 -656 438 -1166s-166 -952 -438 -1165z" />
    <glyph glyph-name="emdash" unicode="&#x2014;" horiz-adv-x="2040" 
d="M-4 379v307h2048v-307h-2048z" />
    <glyph glyph-name="endash" unicode="&#x2013;" horiz-adv-x="1323" 
d="M150 379v307h1024v-307h-1024z" />
    <glyph glyph-name="hyphen" unicode="-" horiz-adv-x="1016" 
d="M150 379v307h716v-307h-716z" />
    <glyph glyph-name="uni00AD" unicode="&#xad;" horiz-adv-x="1016" 
d="M150 379v307h716v-307h-716z" />
    <glyph glyph-name="guillemotleft" unicode="&#xab;" horiz-adv-x="1225" 
d="M358 195l-311 376l311 377h287l-311 -377l311 -376h-287zM879 195l-312 376l312 377h288l-311 -377l311 -376h-288z" />
    <glyph glyph-name="guillemotright" unicode="&#xbb;" horiz-adv-x="1225" 
d="M57 195l312 376l-312 377h287l311 -377l-311 -376h-287zM578 195l311 376l-311 377h288l312 -377l-312 -376h-288z" />
    <glyph glyph-name="guilsinglleft" unicode="&#x2039;" horiz-adv-x="702" 
d="M358 195l-311 376l311 377h287l-311 -377l311 -376h-287z" />
    <glyph glyph-name="guilsinglright" unicode="&#x203a;" horiz-adv-x="702" 
d="M57 195l312 376l-312 377h287l311 -377l-311 -376h-287z" />
    <glyph glyph-name="quotedblbase" unicode="&#x201e;" horiz-adv-x="1190" 
d="M375 -373h-259l127 676h373zM881 -373h-259l127 676h373z" />
    <glyph glyph-name="quotedblleft" unicode="&#x201c;" horiz-adv-x="1202" 
d="M309 1536h259l-127 -676h-373zM827 1536h259l-127 -676h-373z" />
    <glyph glyph-name="quotedblright" unicode="&#x201d;" horiz-adv-x="1202" 
d="M375 860h-259l127 676h373zM893 860h-259l127 676h373z" />
    <glyph glyph-name="quoteleft" unicode="&#x2018;" horiz-adv-x="684" 
d="M309 1536h259l-127 -676h-373z" />
    <glyph glyph-name="quoteright" unicode="&#x2019;" horiz-adv-x="684" 
d="M375 860h-259l127 676h373z" />
    <glyph glyph-name="quotesinglbase" unicode="&#x201a;" horiz-adv-x="684" 
d="M375 -373h-259l127 676h373z" />
    <glyph glyph-name="hyphen.subs" horiz-adv-x="961" 
d="M147 41v166h666v-166h-666z" />
    <glyph glyph-name="hyphen.sups" horiz-adv-x="961" 
d="M147 1372v166h666v-166h-666z" />
    <glyph glyph-name="space" unicode=" " horiz-adv-x="573" 
 />
    <glyph glyph-name="cent" unicode="&#xa2;" horiz-adv-x="1309" 
d="M716 525c84 0 156 34 201 94l252 -221c-101 -105 -248 -168 -419 -175v-223h-209v243c-250 63 -419 259 -419 527c0 269 169 465 419 528v238h209v-218c171 -7 318 -70 419 -175l-252 -221c-45 59 -117 94 -201 94c-137 0 -245 -92 -245 -246c0 -153 108 -245 245 -245z
" />
    <glyph glyph-name="currency" unicode="&#xa4;" horiz-adv-x="1456" 
d="M727 225c-90 0 -178 23 -258 66l-115 -115l-190 201l110 110c-45 78 -67 166 -67 254c0 90 22 179 67 258l-108 109l190 201l115 -115c80 45 168 68 258 68c88 0 176 -23 254 -68l113 113l194 -195l-110 -111c45 -79 65 -167 65 -258c0 -88 -20 -178 -65 -258l108 -108
l-190 -201l-115 115c-78 -43 -168 -66 -256 -66zM727 496c143 0 246 120 246 249c0 136 -111 244 -246 244c-137 0 -246 -115 -246 -250c0 -143 117 -243 246 -243z" />
    <glyph glyph-name="dollar" unicode="$" horiz-adv-x="1370" 
d="M1255 434c0 -259 -178 -405 -409 -442v-152h-322v165c-153 35 -304 110 -422 222l205 275c111 -117 299 -205 426 -205c80 0 135 35 135 111c0 110 -120 149 -297 229c-194 88 -413 197 -413 475c0 237 156 385 366 430v154h322v-161c126 -30 253 -89 364 -177l-190 -281
c-107 97 -266 162 -371 162c-67 0 -114 -27 -114 -86c0 -92 110 -131 286 -211c207 -94 434 -215 434 -508z" />
    <glyph glyph-name="Euro" unicode="&#x20ac;" horiz-adv-x="1729" 
d="M987 319c141 0 256 78 316 220l323 -195c-129 -217 -358 -364 -639 -364c-332 0 -601 226 -695 540h-163v189h129c-1 19 -2 39 -2 59s1 40 2 59h-129v189h163c94 314 363 540 695 540c281 0 510 -147 639 -364l-323 -195c-60 142 -175 220 -316 220
c-129 0 -238 -76 -299 -201h389v-189h-439c-2 -19 -3 -39 -3 -59s1 -40 3 -59h439v-189h-389c61 -125 170 -201 299 -201z" />
    <glyph glyph-name="florin" unicode="&#x192;" horiz-adv-x="1143" 
d="M911 1298c-104 0 -172 -69 -190 -188l-14 -86h270l-43 -274h-270l-201 -1262h-328l199 1262h-170l43 274h171l21 135c37 230 248 397 473 397c80 0 148 -20 170 -38l-28 -250c-27 22 -68 30 -103 30z" />
    <glyph glyph-name="sterling" unicode="&#xa3;" horiz-adv-x="1509" 
d="M147 0v211l60 16c72 21 104 66 104 138v243h-164v256h164v125c0 330 234 567 555 567c238 0 469 -163 537 -397l-313 -131c-15 148 -115 234 -224 234c-137 0 -219 -88 -219 -273v-125h299v-256h-299v-301h660v-307h-1160z" />
    <glyph glyph-name="yen" unicode="&#xa5;" horiz-adv-x="1602" 
d="M1530 1536l-510 -770h272v-229h-299v-129h299v-211h-299v-197h-381v197h-303v211h303v129h-303v229h273l-510 770h424l306 -489l308 489h420z" />
    <glyph glyph-name="plus" unicode="+" horiz-adv-x="1245" 
d="M487 205v373h-372v270h372v373h271v-373h372v-270h-372v-373h-271z" />
    <glyph glyph-name="minus" unicode="&#x2212;" horiz-adv-x="1409" 
d="M223 578v270h963v-270h-963z" />
    <glyph glyph-name="multiply" unicode="&#xd7;" horiz-adv-x="1137" 
d="M305 256l-192 193l264 264l-264 264l192 192l264 -264l262 264l193 -192l-264 -264l264 -264l-193 -193l-262 264z" />
    <glyph glyph-name="divide" unicode="&#xf7;" horiz-adv-x="1184" 
d="M582 928c-93 0 -174 76 -174 174c0 92 81 174 174 174c92 0 174 -82 174 -174c0 -98 -82 -174 -174 -174zM111 578v270h962v-270h-962zM582 150c-93 0 -174 75 -174 174c0 92 81 174 174 174c92 0 174 -82 174 -174c0 -99 -82 -174 -174 -174z" />
    <glyph glyph-name="equal" unicode="=" horiz-adv-x="1413" 
d="M225 807v270h963v-270h-963zM225 348v270h963v-270h-963z" />
    <glyph glyph-name="notequal" unicode="&#x2260;" horiz-adv-x="1317" 
d="M150 0l176 348h-138v270h275l96 189h-371v270h508l142 279h268l-141 -279h186v-270h-324l-96 -189h420v-270h-557l-176 -348h-268z" />
    <glyph glyph-name="greater" unicode="&#x3e;" horiz-adv-x="1372" 
d="M141 1518l1131 -568v-325l-1131 -572v303l852 432l-852 431v299z" />
    <glyph glyph-name="less" unicode="&#x3c;" horiz-adv-x="1372" 
d="M1231 1518v-299l-852 -431l852 -432v-303l-1131 572v325z" />
    <glyph glyph-name="greaterequal" unicode="&#x2265;" horiz-adv-x="1436" 
d="M168 1552l1130 -473v-325l-1130 -478v302l822 338l-822 337v299zM168 0v225h1130v-225h-1130z" />
    <glyph glyph-name="lessequal" unicode="&#x2264;" horiz-adv-x="1436" 
d="M1268 1552v-299l-822 -337l822 -338v-302l-1131 478v325zM137 0v225h1131v-225h-1131z" />
    <glyph glyph-name="plusminus" unicode="&#xb1;" horiz-adv-x="1313" 
d="M524 387v373h-372v270h372v373h271v-373h372v-270h-372v-373h-271zM140 -2v270h1027v-270h-1027z" />
    <glyph glyph-name="approxequal" unicode="&#x2248;" horiz-adv-x="1403" 
d="M907 698c-174 0 -270 119 -311 160c-35 35 -57 31 -70 31c-73 0 -104 -74 -110 -178h-252c8 258 131 432 366 432c109 0 189 -37 275 -148c14 -18 37 -51 82 -51c57 0 96 60 104 174h248c-10 -237 -117 -420 -332 -420zM907 164c-174 0 -272 121 -311 162
c-23 22 -37 30 -70 28c-77 -6 -104 -73 -110 -178h-252c8 264 137 434 366 434c103 0 183 -37 275 -147c12 -14 37 -53 82 -53c57 0 96 57 104 176h248c-10 -236 -117 -422 -332 -422z" />
    <glyph glyph-name="asciitilde" unicode="~" horiz-adv-x="1411" 
d="M907 295c-174 0 -266 121 -311 160c-33 28 -55 30 -68 30c-84 0 -110 -94 -112 -178h-252c-12 254 123 430 373 430c127 0 196 -45 268 -145c16 -23 39 -53 80 -53c59 0 114 63 106 176h248c27 -238 -117 -420 -332 -420z" />
    <glyph glyph-name="logicalnot" unicode="&#xac;" horiz-adv-x="1753" 
d="M1237 152v524h-1112v293h1403v-817h-291z" />
    <glyph glyph-name="emptyset" unicode="&#x2205;" horiz-adv-x="1507" 
d="M1231 979c85 -105 135 -238 135 -383c0 -338 -274 -612 -612 -612c-145 0 -278 50 -383 135l-90 -90l-95 94l90 90c-84 105 -135 238 -135 383c0 338 275 612 613 612c145 0 278 -50 383 -135l90 90l94 -94zM430 596c0 -66 19 -126 52 -177l449 449
c-50 33 -111 52 -177 52c-181 0 -324 -144 -324 -324zM754 272c180 0 323 144 323 324c0 66 -19 126 -52 177l-449 -449c51 -33 112 -52 178 -52z" />
    <glyph glyph-name="infinity" unicode="&#x221e;" horiz-adv-x="1741" 
d="M494 242c-197 0 -334 143 -340 354c6 211 143 354 340 354c120 0 251 -67 374 -186c125 121 254 186 375 186c207 0 332 -129 338 -354c-6 -225 -131 -354 -338 -354c-121 0 -250 65 -375 186c-123 -119 -254 -186 -374 -186zM494 471c59 0 139 43 221 125
c-82 82 -162 125 -221 125c-62 0 -113 -49 -113 -125s51 -125 113 -125zM1243 471c64 0 111 43 111 125s-47 125 -111 125c-61 0 -139 -45 -223 -125c84 -80 162 -125 223 -125z" />
    <glyph glyph-name="integral" unicode="&#x222b;" horiz-adv-x="991" 
d="M82 -457v340c186 0 217 37 217 191v1018c0 208 160 356 371 356c82 0 192 -23 258 -90l-123 -273c-33 33 -66 50 -94 50c-41 0 -68 -25 -68 -121v-977c0 -307 -240 -494 -561 -494z" />
    <glyph glyph-name="product" unicode="&#x220f;" horiz-adv-x="1784" 
d="M1634 1440v-322h-104v-1118h-320v1118h-632v-1118h-324v1118h-104v322h1484z" />
    <glyph glyph-name="summation" unicode="&#x2211;" horiz-adv-x="1456" 
d="M113 -240v224l667 614l-667 614v228h1220v-275h-743l598 -567l-598 -567h743v-275z" />
    <glyph glyph-name="radical" unicode="&#x221a;" horiz-adv-x="1550" 
d="M461 0l-205 631h-162v303h377l162 -492l522 1094h332l-739 -1536h-287z" />
    <glyph glyph-name="uni00B5" unicode="&#xb5;" horiz-adv-x="1407" 
d="M922 1024h311v-1024h-311v112c-75 -82 -179 -132 -295 -132c-63 0 -122 14 -174 40v-532h-228v1536h312v-590c0 -102 79 -182 182 -182c115 0 203 80 203 182v590z" />
    <glyph glyph-name="partialdiff" unicode="&#x2202;" horiz-adv-x="1278" 
d="M342 1462c444 119 821 -260 805 -790c-12 -412 -250 -676 -594 -676c-348 0 -541 270 -401 641c114 306 370 450 623 392c-70 161 -212 244 -433 181v252zM825 672c2 36 2 71 1 105c-161 80 -306 -3 -375 -220c-74 -233 32 -332 120 -332c97 0 236 115 254 447z" />
    <glyph glyph-name="percent" unicode="%" horiz-adv-x="1952" 
d="M477 786c-213 0 -385 172 -385 385s174 385 385 385c213 0 385 -172 385 -385c0 -210 -172 -385 -385 -385zM729 0h-307l792 1536h310zM477 1032c80 0 139 62 139 139c0 78 -65 140 -139 140c-78 0 -139 -60 -139 -140c0 -77 61 -139 139 -139zM1477 -16
c-215 0 -387 170 -387 385c0 213 174 385 387 385s383 -172 383 -385c0 -211 -170 -385 -383 -385zM1477 231c77 0 139 60 139 138c0 73 -64 139 -139 139c-78 0 -142 -62 -142 -139c0 -78 64 -138 142 -138z" />
    <glyph glyph-name="perthousand" unicode="&#x2030;" horiz-adv-x="2808" 
d="M477 786c-213 0 -385 172 -385 385s174 385 385 385c213 0 385 -172 385 -385c0 -210 -172 -385 -385 -385zM729 0h-307l792 1536h310zM477 1032c80 0 139 62 139 139c0 78 -65 140 -139 140c-78 0 -139 -60 -139 -140c0 -77 61 -139 139 -139zM1477 -16
c-215 0 -387 170 -387 385c0 213 174 385 387 385s383 -172 383 -385c0 -211 -170 -385 -383 -385zM2333 -16c-215 0 -387 170 -387 385c0 213 174 385 387 385s383 -172 383 -385c0 -211 -170 -385 -383 -385zM1477 231c77 0 139 60 139 138c0 73 -64 139 -139 139
c-78 0 -142 -62 -142 -139c0 -78 64 -138 142 -138zM2333 231c77 0 139 60 139 138c0 73 -64 139 -139 139c-78 0 -142 -62 -142 -139c0 -78 64 -138 142 -138z" />
    <glyph glyph-name="plus.subs" horiz-adv-x="1090" 
d="M461 -274v315h-314v166h314v313h168v-313h313v-166h-313v-315h-168z" />
    <glyph glyph-name="minus.subs" horiz-adv-x="961" 
d="M147 41v166h666v-166h-666z" />
    <glyph glyph-name="plus.sups" horiz-adv-x="1090" 
d="M461 1057v315h-314v166h314v313h168v-313h313v-166h-313v-315h-168z" />
    <glyph glyph-name="minus.sups" horiz-adv-x="961" 
d="M147 1372v166h666v-166h-666z" />
    <glyph glyph-name="lozenge" unicode="&#x25ca;" horiz-adv-x="1366" 
d="M684 106l-618 617l618 618l616 -616zM684 506l217 219l-217 217l-219 -219z" />
    <glyph glyph-name="uniF8FF" unicode="&#xf8ff;" horiz-adv-x="1794" 
d="M897 0c-428 0 -778 350 -778 778c0 430 350 778 778 778c430 0 778 -348 778 -778c0 -428 -348 -778 -778 -778zM897 74c389 0 705 317 705 704c0 389 -316 705 -705 705c-387 0 -704 -316 -704 -705c0 -387 317 -704 704 -704zM1305 444c-9 0 -19 5 -25 13l-297 295
c-14 16 -14 39 0 53l297 297c14 14 37 14 51 0c15 -15 15 -39 0 -53l-270 -271l270 -270c15 -14 12 -35 0 -51c-6 -8 -16 -13 -26 -13zM489 444c-20 0 -36 17 -36 37v594c0 21 16 37 36 37c21 0 37 -16 37 -37v-594c0 -20 -16 -37 -37 -37zM897 444c-20 0 -37 17 -37 37v594
c0 21 17 37 37 37c21 0 37 -16 37 -37v-594c0 -20 -16 -37 -37 -37zM600 741c-20 0 -37 17 -37 37c0 21 17 37 37 37h186c21 0 37 -16 37 -37c0 -20 -16 -37 -37 -37h-186z" />
    <glyph glyph-name="at" unicode="@" horiz-adv-x="1796" 
d="M1346 918c-31 -142 -58 -261 -89 -418c-28 -146 -36 -205 35 -205c105 0 176 133 176 313c0 355 -256 498 -538 498c-359 0 -576 -270 -576 -592c0 -369 256 -580 594 -580c178 0 299 48 391 101l115 -172c-160 -99 -346 -133 -522 -133c-494 0 -811 340 -811 788
c0 465 375 793 811 793c383 0 751 -230 751 -686c0 -394 -241 -531 -428 -531c-120 0 -184 52 -199 114c-26 -44 -104 -114 -241 -114c-209 0 -323 162 -323 363c0 209 141 491 434 491c106 0 182 -46 211 -98l14 68h195zM848 268c168 0 229 189 229 310
c0 96 -33 196 -151 196c-146 0 -226 -178 -226 -323c0 -70 27 -183 148 -183z" />
    <glyph glyph-name="ampersand" unicode="&#x26;" horiz-adv-x="1597" 
d="M592 -20c-262 0 -494 161 -494 458c0 209 111 320 305 463c-84 92 -124 176 -124 283c0 217 165 368 387 368c215 0 389 -139 389 -350c0 -170 -109 -264 -226 -352l203 -242l244 295l201 -209l-258 -315l309 -383l-381 4l-135 162c-117 -107 -244 -182 -420 -182z
M647 1044c62 43 133 82 133 162c0 66 -51 105 -110 103c-62 -2 -117 -37 -117 -103c0 -67 55 -114 94 -162zM586 262c94 0 178 74 237 129l-239 285c-41 -31 -191 -103 -191 -240c0 -110 105 -174 193 -174z" />
    <glyph glyph-name="paragraph" unicode="&#xb6;" horiz-adv-x="1251" 
d="M471 -307v1157h-22c-226 0 -365 121 -365 344s139 342 365 342h202v-1843h-180zM842 -307v1843h182v-1843h-182z" />
    <glyph glyph-name="section" unicode="&#xa7;" horiz-adv-x="1047" 
d="M909 731c-2 -96 -42 -173 -106 -226c46 -50 76 -116 74 -210c-7 -225 -191 -315 -367 -315c-139 0 -262 69 -340 167l170 152c55 -63 115 -104 180 -104c60 0 109 24 109 92c0 190 -506 106 -494 518c3 95 45 172 109 227c-48 49 -79 116 -76 211c6 223 192 313 369 313
c135 0 260 -71 340 -170l-168 -147c-60 64 -119 100 -183 100c-59 0 -108 -20 -110 -88c-6 -192 504 -106 493 -520zM379 793c-4 -82 90 -116 197 -158c54 5 89 59 92 108c3 80 -86 115 -190 156c-60 0 -97 -52 -99 -106z" />
    <glyph glyph-name="copyright" unicode="&#xa9;" horiz-adv-x="1815" 
d="M907 -20c-434 0 -788 354 -788 788s354 788 788 788s789 -354 789 -788s-355 -788 -789 -788zM907 170c336 0 598 262 598 598s-262 598 -598 598s-598 -262 -598 -598s262 -598 598 -598zM913 330c-241 0 -438 196 -438 438c0 244 197 438 438 438
c144 0 273 -67 351 -174l-164 -123c-41 62 -107 97 -187 97c-131 0 -229 -99 -229 -238c0 -137 98 -236 229 -236c80 0 146 35 187 97l164 -123c-78 -107 -207 -176 -351 -176z" />
    <glyph glyph-name="registered" unicode="&#xae;" horiz-adv-x="1815" 
d="M907 1556c434 0 789 -354 789 -788s-355 -788 -789 -788s-788 354 -788 788s354 788 788 788zM907 170c336 0 598 262 598 598s-262 598 -598 598s-598 -262 -598 -598s262 -598 598 -598zM1251 932c0 -99 -50 -179 -127 -221l150 -361h-225l-123 330h-90v-330h-209v838
h370c144 0 254 -115 254 -256zM836 1008v-158h127c51 0 90 33 90 78c0 47 -39 80 -90 80h-127z" />
    <glyph glyph-name="trademark" unicode="&#x2122;" horiz-adv-x="1774" 
d="M109 1389v147h524v-147h-178v-568h-170v568h-176zM1368 1536h180v-715h-168v450l-233 -343l-234 346v-453h-170v715h185l218 -327z" />
    <glyph glyph-name="degree" unicode="&#xb0;" horiz-adv-x="948" 
d="M473 918c-178 0 -319 139 -319 319c0 178 141 319 319 319s320 -141 320 -319c0 -180 -142 -319 -320 -319zM473 1114c70 0 121 53 121 123s-51 121 -121 121s-121 -51 -121 -121s51 -123 121 -123z" />
    <glyph glyph-name="bar" unicode="|" horiz-adv-x="678" 
d="M227 -307v1843h224v-1843h-224z" />
    <glyph glyph-name="brokenbar" unicode="&#xa6;" horiz-adv-x="678" 
d="M227 799v737h224v-737h-224zM227 -307v737h224v-737h-224z" />
    <glyph glyph-name="uni2113" unicode="&#x2113;" horiz-adv-x="1303" 
d="M709 -14c-269 0 -398 143 -439 338c0 6 0 12 -2 18c-39 -25 -73 -53 -114 -80l-88 172c67 51 135 96 196 146v507c0 408 191 588 447 588c249 0 360 -184 360 -399c0 -262 -180 -496 -477 -752l2 -73c4 -123 88 -197 197 -197c124 0 237 98 307 201l139 -144
c-135 -243 -336 -325 -528 -325zM592 815c149 158 250 330 250 467c0 102 -33 168 -115 168c-65 0 -135 -72 -135 -322v-313z" />
    <glyph glyph-name="dagger" unicode="&#x2020;" horiz-adv-x="1040" 
d="M961 1038v-227h-330v-1159h-230v1159h-321v227h321v334h230v-334h330z" />
    <glyph glyph-name="daggerdbl" unicode="&#x2021;" horiz-adv-x="1126" 
d="M1004 811h-330v-578h330v-227h-330v-354h-230v354h-321v227h321v578h-321v227h321v334h230v-334h330v-227z" />
    <glyph glyph-name="estimated" unicode="&#x212e;" horiz-adv-x="1950" 
d="M989 -18c-483 0 -874 352 -874 784c0 438 391 790 874 790c486 0 877 -352 877 -790v-21h-1417c-9 0 -13 -2 -13 -8v-430c0 -18 8 -35 19 -49c137 -141 327 -233 536 -233c228 0 428 102 565 262h125c-155 -185 -409 -305 -692 -305zM449 788h1087c6 0 8 9 8 15v430
c0 18 -6 39 -20 51c-138 135 -324 225 -533 225c-207 0 -395 -92 -534 -231c-13 -14 -21 -33 -21 -53v-422c0 -6 4 -15 13 -15z" />
    <glyph glyph-name="uni2116" unicode="&#x2116;" horiz-adv-x="3240" 
d="M1376 539v997h383v-1536h-391l-762 1004v-1004h-381v1536h390zM2527 353c-344 0 -596 221 -596 550c0 328 252 549 596 549c342 0 596 -221 596 -549c0 -329 -254 -550 -596 -550zM2525 1149c-137 0 -245 -92 -245 -246c0 -155 108 -245 245 -245c138 0 248 94 248 245
c0 150 -110 246 -248 246zM2066 0v229h924v-229h-924z" />
    <glyph glyph-name="asciicircum" unicode="^" horiz-adv-x="1608" 
d="M1536 406h-303l-429 852l-429 -852h-303l569 1130h326z" />
    <glyph glyph-name="uni0308" unicode="&#x308;" 
d="M-719 1227c-90 0 -166 73 -166 166c0 90 76 163 166 163s166 -73 166 -163c0 -93 -76 -166 -166 -166zM-270 1227c-92 0 -166 73 -166 166c0 90 74 163 166 163c90 0 164 -73 164 -163c0 -93 -74 -166 -164 -166z" />
    <glyph glyph-name="uni0307" unicode="&#x307;" 
d="M-299 1161c-111 0 -201 88 -201 199c0 108 90 196 201 196c107 0 197 -88 197 -196c0 -111 -90 -199 -197 -199z" />
    <glyph glyph-name="gravecomb" unicode="&#x300;" 
d="M-230 1182l-227 272l174 123l270 -395h-217z" />
    <glyph glyph-name="acutecomb" unicode="&#x301;" 
d="M-490 1182l271 395l174 -123l-228 -272h-217z" />
    <glyph glyph-name="uni030B" unicode="&#x30b;" 
d="M-885 1182l270 395l174 -123l-227 -272h-217zM-496 1182l270 395l174 -123l-227 -272h-217z" />
    <glyph glyph-name="uni0302" unicode="&#x302;" 
d="M-532 1235h-217l237 301h205l238 -301h-218l-122 176z" />
    <glyph glyph-name="uni030C" unicode="&#x30c;" 
d="M-512 1235l-237 301h217l123 -176l122 176h218l-238 -301h-205z" />
    <glyph glyph-name="uni0306" unicode="&#x306;" 
d="M-469 1163c-227 0 -381 117 -381 373h205c0 -123 65 -209 176 -209c113 0 178 86 178 209h205c0 -256 -154 -373 -383 -373z" />
    <glyph glyph-name="uni030A" unicode="&#x30a;" 
d="M-346 1122c-143 0 -260 117 -260 260c0 140 117 256 260 256c141 0 256 -116 256 -256c0 -143 -115 -260 -256 -260zM-346 1268c64 0 113 45 113 114c0 60 -49 115 -113 115c-63 0 -110 -55 -110 -115c0 -69 47 -114 110 -114z" />
    <glyph glyph-name="tildecomb" unicode="&#x303;" 
d="M-344 1214c-88 0 -153 41 -207 121c-16 25 -30 35 -49 35c-47 0 -65 -61 -65 -141h-185c0 186 91 321 242 321c96 0 166 -55 209 -120c12 -19 25 -35 51 -35c47 0 62 55 62 141h186c0 -180 -82 -322 -244 -322z" />
    <glyph glyph-name="uni0304" unicode="&#x304;" 
d="M-803 1210v209h676v-209h-676z" />
    <glyph glyph-name="hookabovecomb" unicode="&#x309;" 
d="M-399 1130v146c76 12 107 45 107 88c0 33 -17 57 -58 57c-26 0 -59 -12 -86 -43l-78 115c43 37 105 63 189 63c135 0 205 -71 205 -180c0 -106 -66 -139 -125 -157v-89h-154z" />
    <glyph glyph-name="uni0312" unicode="&#x312;" 
d="M-344 1537h259l-127 -342h-373z" />
    <glyph glyph-name="uni031B" unicode="&#x31b;" 
d="M-317 731c-59 0 -141 23 -213 68l53 119c41 -23 74 -29 96 -29c76 0 99 22 99 133v143h162v-204c0 -185 -99 -230 -197 -230z" />
    <glyph glyph-name="dotbelowcomb" unicode="&#x323;" 
d="M-279 -512c-110 0 -200 88 -200 199c0 108 90 196 200 196c107 0 197 -88 197 -196c0 -111 -90 -199 -197 -199z" />
    <glyph glyph-name="uni0326" unicode="&#x326;" 
d="M-342 -584l-174 82l172 379h313z" />
    <glyph glyph-name="uni0327" unicode="&#x327;" 
d="M-310 -532c-129 0 -215 73 -241 165l155 50c13 -39 45 -58 78 -58c39 0 78 27 78 74c0 51 -39 76 -78 76c-29 0 -55 -13 -69 -37l-125 69l108 197h166l-72 -117c13 2 27 4 39 4c111 0 193 -79 193 -192c0 -129 -103 -231 -232 -231z" />
    <glyph glyph-name="uni0328" unicode="&#x328;" 
d="M-258 -530c-188 0 -278 104 -278 225c0 137 115 293 328 342l98 -37c-117 -61 -195 -174 -195 -248c0 -53 39 -80 86 -80c37 0 78 17 109 47v-219c-47 -20 -98 -30 -148 -30z" />
    <glyph glyph-name="uni0335" unicode="&#x335;" 
d="M-893 397v217h746v-217h-746z" />
    <glyph glyph-name="uni0336" unicode="&#x336;" 
d="M-1698 465v135h1551v-135h-1551z" />
    <glyph glyph-name="uni0337" unicode="&#x337;" 
d="M-741 229v217l698 517v-220z" />
    <glyph glyph-name="uni0338" unicode="&#x338;" 
d="M-932 205l803 1153l135 -80l-803 -1153z" />
    <glyph glyph-name="uni0338.case" 
d="M-1235 -31l1114 1600l135 -80l-1114 -1600z" />
    <glyph glyph-name="acute" unicode="&#xb4;" horiz-adv-x="498" 
d="M12 1182l271 395l174 -123l-228 -272h-217z" />
    <glyph glyph-name="breve" unicode="&#x2d8;" horiz-adv-x="936" 
d="M467 1163c-227 0 -381 117 -381 373h205c0 -123 65 -209 176 -209c113 0 178 86 178 209h205c0 -256 -154 -373 -383 -373z" />
    <glyph glyph-name="caron" unicode="&#x2c7;" horiz-adv-x="821" 
d="M307 1235l-237 301h217l123 -176l122 176h218l-238 -301h-205z" />
    <glyph glyph-name="cedilla" unicode="&#xb8;" horiz-adv-x="623" 
d="M313 -532c-129 0 -215 73 -241 165l155 50c13 -39 45 -58 78 -58c39 0 78 27 78 74c0 51 -39 76 -78 76c-29 0 -55 -13 -69 -37l-125 69l108 197h166l-72 -117c13 2 27 4 39 4c111 0 193 -79 193 -192c0 -129 -103 -231 -232 -231z" />
    <glyph glyph-name="circumflex" unicode="&#x2c6;" horiz-adv-x="819" 
d="M287 1235h-217l237 301h205l238 -301h-218l-122 176z" />
    <glyph glyph-name="dieresis" unicode="&#xa8;" horiz-adv-x="991" 
d="M272 1227c-90 0 -166 73 -166 166c0 90 76 163 166 163s166 -73 166 -163c0 -93 -76 -166 -166 -166zM721 1227c-92 0 -166 73 -166 166c0 90 74 163 166 163c90 0 164 -73 164 -163c0 -93 -74 -166 -164 -166z" />
    <glyph glyph-name="dotaccent" unicode="&#x2d9;" horiz-adv-x="600" 
d="M301 1161c-111 0 -201 88 -201 199c0 108 90 196 201 196c107 0 197 -88 197 -196c0 -111 -90 -199 -197 -199z" />
    <glyph glyph-name="grave" unicode="`" horiz-adv-x="502" 
d="M262 1182l-227 272l174 123l270 -395h-217z" />
    <glyph glyph-name="hungarumlaut" unicode="&#x2dd;" horiz-adv-x="909" 
d="M33 1182l270 395l174 -123l-227 -272h-217zM422 1182l270 395l174 -123l-227 -272h-217z" />
    <glyph glyph-name="macron" unicode="&#xaf;" horiz-adv-x="930" 
d="M127 1210v209h676v-209h-676z" />
    <glyph glyph-name="ogonek" unicode="&#x2db;" horiz-adv-x="614" 
d="M356 -530c-188 0 -278 104 -278 225c0 137 115 293 328 342l98 -37c-117 -61 -195 -174 -195 -248c0 -53 39 -80 86 -80c37 0 78 17 109 47v-219c-47 -20 -98 -30 -148 -30z" />
    <glyph glyph-name="ring" unicode="&#x2da;" horiz-adv-x="694" 
d="M348 1122c-143 0 -260 117 -260 260c0 140 117 256 260 256c141 0 256 -116 256 -256c0 -143 -115 -260 -256 -260zM348 1268c64 0 113 45 113 114c0 60 -49 115 -113 115c-63 0 -110 -55 -110 -115c0 -69 47 -114 110 -114z" />
    <glyph glyph-name="tilde" unicode="&#x2dc;" horiz-adv-x="952" 
d="M608 1214c-88 0 -153 41 -207 121c-16 25 -30 35 -49 35c-47 0 -65 -61 -65 -141h-185c0 186 91 321 242 321c96 0 166 -55 209 -120c12 -19 25 -35 51 -35c47 0 62 55 62 141h186c0 -180 -82 -322 -244 -322z" />
    <glyph glyph-name="uni03060301" 
d="M-521 1659l271 395l174 -123l-228 -272h-217zM-412 1163c-227 0 -381 117 -381 373h205c0 -123 65 -209 176 -209c113 0 178 86 178 209h205c0 -256 -154 -373 -383 -373z" />
    <glyph glyph-name="uni03060300" 
d="M-535 1659l-227 272l174 123l270 -395h-217zM-426 1163c-227 0 -381 117 -381 373h205c0 -123 65 -209 176 -209c113 0 178 86 178 209h205c0 -256 -154 -373 -383 -373z" />
    <glyph glyph-name="uni03060309" 
d="M-489 1607v146c76 12 107 45 107 88c0 33 -17 57 -58 57c-26 0 -59 -12 -86 -43l-78 115c43 37 105 63 189 63c135 0 205 -71 205 -180c0 -106 -66 -139 -125 -157v-89h-154zM-417 1163c-227 0 -381 117 -381 373h205c0 -123 65 -209 176 -209c113 0 178 86 178 209h205
c0 -256 -154 -373 -383 -373z" />
    <glyph glyph-name="uni03060303" 
d="M-340 1691c-88 0 -153 41 -207 121c-16 25 -30 35 -49 35c-47 0 -65 -61 -65 -141h-185c0 186 91 321 242 321c96 0 166 -55 209 -120c12 -19 25 -35 51 -35c47 0 62 55 62 141h186c0 -180 -82 -322 -244 -322zM-471 1163c-227 0 -381 117 -381 373h205
c0 -123 65 -209 176 -209c113 0 178 86 178 209h205c0 -256 -154 -373 -383 -373z" />
    <glyph glyph-name="uni03020301" 
d="M-476 1659l271 395l174 -123l-228 -272h-217zM-490 1235h-217l237 301h205l238 -301h-218l-122 176z" />
    <glyph glyph-name="uni03020300" 
d="M-473 1659l-227 272l174 123l270 -395h-217zM-487 1235h-217l237 301h205l238 -301h-218l-122 176z" />
    <glyph glyph-name="uni03020309" 
d="M-452 1607v146c76 12 107 45 107 88c0 33 -17 57 -58 57c-26 0 -59 -12 -86 -43l-78 115c43 37 105 63 189 63c135 0 205 -71 205 -180c0 -106 -66 -139 -125 -157v-89h-154zM-503 1235h-217l237 301h205l238 -301h-218l-122 176z" />
    <glyph glyph-name="uni03020303" 
d="M-302 1691c-88 0 -153 41 -207 121c-16 25 -30 35 -49 35c-47 0 -65 -61 -65 -141h-185c0 186 91 321 242 321c96 0 166 -55 209 -120c12 -19 25 -35 51 -35c47 0 62 55 62 141h186c0 -180 -82 -322 -244 -322zM-556 1235h-217l237 301h205l238 -301h-218l-122 176z" />
    <glyph glyph-name="number" horiz-adv-x="1229" 
d="M528 1079c293 0 533 -131 533 -454v-625h-332l-16 113h-13c-65 -80 -163 -133 -297 -133c-176 0 -366 92 -366 327c0 209 149 330 383 330h270c-5 111 -96 160 -219 160c-70 0 -152 -15 -231 -43l-90 260c126 41 258 65 378 65zM528 221c61 0 118 36 162 103v114h-133
c-106 0 -151 -47 -151 -112c0 -82 73 -105 122 -105z" />
    </font>
</defs>
</svg>
