<?xml version="1.0" standalone="no"?>
<!DOCTYPE svg PUBLIC "-//W3C//DTD SVG 1.1//EN" "http://www.w3.org/Graphics/SVG/1.1/DTD/svg11.dtd" >
<svg xmlns="http://www.w3.org/2000/svg" xmlns:xlink="http://www.w3.org/1999/xlink" version="1.1">
<metadata>
Created by FontForge 20170924 at Sun Feb 19 12:30:49 2017
 By www-data
Copyright \(c\)2016. HK Nova is a trademark of Alfredo Marco Pradil. All rights reserved.
</metadata>
<defs>
<font id="HKNova-Bold" horiz-adv-x="0" >
  <font-face 
    font-family="HK Nova"
    font-weight="700"
    font-stretch="normal"
    units-per-em="2048"
    panose-1="0 0 8 0 0 0 0 0 0 0"
    ascent="1536"
    descent="-512"
    x-height="1059"
    cap-height="1536"
    bbox="-1673 -584 3051 2524"
    underline-thickness="139"
    underline-position="-100"
    stemh="270"
    stemv="298"
    unicode-range="U+0020-FB02"
  />
<missing-glyph horiz-adv-x="1247" 
d="M161 0v1536h925v-1536h-925zM378 217h491v1102h-491v-1102z" />
    <glyph glyph-name="f_f" unicode="ff" horiz-adv-x="1448" 
d="M205 0v860h-167v199h167v147c0 212 129 350 344 350c56 0 124 -9 180 -31v-235c-33 19 -74 31 -108 31c-76 0 -129 -50 -129 -147v-115h405v147c0 212 129 350 344 350c55 0 124 -9 180 -31v-235c-33 19 -74 31 -109 31c-75 0 -129 -50 -129 -147v-115h242v-199h-242
v-860h-286v860h-405v-860h-287z" />
    <glyph glyph-name="fi" unicode="fi" horiz-adv-x="1362" 
d="M492 1186v-127h241v-199h-241v-860h-287v860h-167v199h167v122c0 250 117 375 343 375c51 0 115 -8 181 -28v-218c-38 13 -74 20 -106 20c-80 0 -131 -46 -131 -144zM1061 1228c-91 0 -166 74 -166 165s75 163 166 163c89 0 164 -72 164 -163s-75 -165 -164 -165zM918 0
v1059h283v-1059h-283z" />
    <glyph glyph-name="fl" unicode="fl" horiz-adv-x="1363" 
d="M492 1186v-127h241v-199h-241v-860h-287v860h-167v199h167v122c0 250 117 375 343 375c51 0 115 -8 181 -28v-218c-38 13 -74 20 -106 20c-80 0 -131 -46 -131 -144zM918 1536h285v-1536h-285v1536z" />
    <glyph glyph-name=".notdef" horiz-adv-x="1247" 
d="M161 0v1536h925v-1536h-925zM378 217h491v1102h-491v-1102z" />
    <glyph glyph-name="A" unicode="A" horiz-adv-x="1603" 
d="M1249 0l-114 315h-667l-114 -315h-311l585 1536h346l586 -1536h-311zM559 567h485l-242 671z" />
    <glyph glyph-name="Aacute" unicode="&#xc1;" horiz-adv-x="1603" 
d="M1123 1934l-229 -261h-183l267 366zM1249 0l-114 315h-667l-114 -315h-311l585 1536h346l586 -1536h-311zM559 567h485l-242 671z" />
    <glyph glyph-name="Abreve" unicode="&#x102;" horiz-adv-x="1603" 
d="M801 1663c-214 0 -364 119 -364 350h165c0 -128 78 -217 199 -217c122 0 201 89 201 217h165c0 -231 -150 -350 -366 -350zM1249 0l-114 315h-667l-114 -315h-311l585 1536h346l586 -1536h-311zM559 567h485l-242 671z" />
    <glyph glyph-name="uni1EAE" unicode="&#x1eae;" horiz-adv-x="1603" 
d="M1123 2411l-229 -261h-183l267 366zM801 1663c-214 0 -364 119 -364 350h165c0 -128 78 -217 199 -217c122 0 201 89 201 217h165c0 -231 -150 -350 -366 -350zM1249 0l-114 315h-667l-114 -315h-311l585 1536h346l586 -1536h-311zM559 567h485l-242 671z" />
    <glyph glyph-name="uni1EB6" unicode="&#x1eb6;" horiz-adv-x="1603" 
d="M801 1663c-214 0 -364 119 -364 350h165c0 -128 78 -217 199 -217c122 0 201 89 201 217h165c0 -231 -150 -350 -366 -350zM1560 0h-311l-114 315h-667l-114 -315h-311l585 1536h346zM559 567h485l-242 671zM803 -183c89 0 164 -74 164 -164c0 -92 -75 -165 -164 -165
c-91 0 -166 73 -166 165c0 90 75 164 166 164z" />
    <glyph glyph-name="uni1EB0" unicode="&#x1eb0;" horiz-adv-x="1603" 
d="M894 2150h-183l-229 261l144 105zM801 1663c-214 0 -364 119 -364 350h165c0 -128 78 -217 199 -217c122 0 201 89 201 217h165c0 -231 -150 -350 -366 -350zM1249 0l-114 315h-667l-114 -315h-311l585 1536h346l586 -1536h-311zM559 567h485l-242 671z" />
    <glyph glyph-name="uni1EB2" unicode="&#x1eb2;" horiz-adv-x="1603" 
d="M786 2389c-30 0 -61 -12 -89 -38l-69 100c43 35 99 59 171 59c123 0 200 -73 200 -180c0 -92 -57 -138 -129 -160v-83h-129v139c76 14 113 47 113 97c0 38 -23 66 -68 66zM801 1663c-214 0 -364 119 -364 350h165c0 -128 78 -217 199 -217c122 0 201 89 201 217h165
c0 -231 -150 -350 -366 -350zM1249 0l-114 315h-667l-114 -315h-311l585 1536h346l586 -1536h-311zM559 567h485l-242 671z" />
    <glyph glyph-name="uni1EB4" unicode="&#x1eb4;" horiz-adv-x="1603" 
d="M670 2356c-57 0 -85 -65 -85 -149h-147c0 170 85 293 226 293c90 0 155 -51 197 -116c18 -26 38 -47 74 -47c56 0 82 57 82 150h147c0 -166 -78 -294 -227 -294c-87 0 -149 43 -197 116c-22 34 -43 47 -70 47zM801 1663c-214 0 -364 119 -364 350h165
c0 -128 78 -217 199 -217c122 0 201 89 201 217h165c0 -231 -150 -350 -366 -350zM1249 0l-114 315h-667l-114 -315h-311l585 1536h346l586 -1536h-311zM559 567h485l-242 671z" />
    <glyph glyph-name="uni01CD" unicode="&#x1cd;" horiz-adv-x="1603" 
d="M897 1714h-191l-223 299h178l141 -197l139 197h180zM1249 0l-114 315h-667l-114 -315h-311l585 1536h346l586 -1536h-311zM559 567h485l-242 671z" />
    <glyph glyph-name="Acircumflex" unicode="&#xc2;" horiz-adv-x="1603" 
d="M802 1910l-141 -196h-178l223 299h191l224 -299h-180zM1249 0l-114 315h-667l-114 -315h-311l585 1536h346l586 -1536h-311zM559 567h485l-242 671z" />
    <glyph glyph-name="uni1EA4" unicode="&#x1ea4;" horiz-adv-x="1603" 
d="M1122 2411l-229 -261h-183l267 366zM802 1910l-141 -196h-178l223 299h191l224 -299h-180zM1249 0l-114 315h-667l-114 -315h-311l585 1536h346l586 -1536h-311zM559 567h485l-242 671z" />
    <glyph glyph-name="uni1EAC" unicode="&#x1eac;" horiz-adv-x="1603" 
d="M802 1910l-141 -196h-178l223 299h191l224 -299h-180zM1560 0h-311l-114 315h-667l-114 -315h-311l585 1536h346zM559 567h485l-242 671zM803 -183c89 0 164 -74 164 -164c0 -92 -75 -165 -164 -165c-91 0 -166 73 -166 165c0 90 75 164 166 164z" />
    <glyph glyph-name="uni1EA6" unicode="&#x1ea6;" horiz-adv-x="1603" 
d="M893 2150h-183l-229 261l144 105zM483 1714l223 299h191l224 -299h-180l-139 196l-141 -196h-178zM1249 0l-114 315h-667l-114 -315h-311l585 1536h346l586 -1536h-311zM559 567h485l-242 671z" />
    <glyph glyph-name="uni1EA8" unicode="&#x1ea8;" horiz-adv-x="1603" 
d="M785 2389c-30 0 -61 -12 -89 -38l-69 100c43 35 99 59 171 59c123 0 200 -73 200 -180c0 -92 -57 -138 -129 -160v-83h-129v139c76 14 113 47 113 97c0 38 -23 66 -68 66zM802 1910l-141 -196h-178l223 299h191l224 -299h-180zM1249 0l-114 315h-667l-114 -315h-311
l585 1536h346l586 -1536h-311zM559 567h485l-242 671z" />
    <glyph glyph-name="uni1EAA" unicode="&#x1eaa;" horiz-adv-x="1603" 
d="M669 2356c-57 0 -85 -65 -85 -149h-147c0 170 85 293 226 293c90 0 155 -51 197 -116c18 -26 38 -47 74 -47c56 0 82 57 82 150h147c0 -166 -78 -294 -227 -294c-87 0 -149 43 -197 116c-22 34 -43 47 -70 47zM706 2013h191l224 -299h-180l-139 196l-141 -196h-178z
M1249 0l-114 315h-667l-114 -315h-311l585 1536h346l586 -1536h-311zM559 567h485l-242 671z" />
    <glyph glyph-name="Adieresis" unicode="&#xc4;" horiz-adv-x="1603" 
d="M593 1745c-79 0 -145 64 -145 144c0 81 66 144 145 144s145 -63 145 -144c0 -80 -66 -144 -145 -144zM1013 1745c-80 0 -146 64 -146 144c0 81 66 144 146 144c79 0 144 -63 144 -144c0 -80 -65 -144 -144 -144zM1249 0l-114 315h-667l-114 -315h-311l585 1536h346
l586 -1536h-311zM559 567h485l-242 671z" />
    <glyph glyph-name="uni1EA0" unicode="&#x1ea0;" horiz-adv-x="1603" 
d="M1560 0h-311l-114 315h-667l-114 -315h-311l585 1536h346zM559 567h485l-242 671zM803 -183c89 0 164 -74 164 -164c0 -92 -75 -165 -164 -165c-91 0 -166 73 -166 165c0 90 75 164 166 164z" />
    <glyph glyph-name="Agrave" unicode="&#xc0;" horiz-adv-x="1603" 
d="M894 1673h-183l-229 261l144 105zM1249 0l-114 315h-667l-114 -315h-311l585 1536h346l586 -1536h-311zM559 567h485l-242 671z" />
    <glyph glyph-name="uni1EA2" unicode="&#x1ea2;" horiz-adv-x="1603" 
d="M786 1912c-30 0 -61 -12 -89 -38l-69 100c43 35 99 59 171 59c123 0 200 -73 200 -180c0 -92 -57 -138 -129 -160v-83h-129v139c76 14 113 47 113 97c0 38 -23 66 -68 66zM1249 0l-114 315h-667l-114 -315h-311l585 1536h346l586 -1536h-311zM559 567h485l-242 671z" />
    <glyph glyph-name="Amacron" unicode="&#x100;" horiz-adv-x="1603" 
d="M1132 1873v-171h-660v171h660zM1249 0l-114 315h-667l-114 -315h-311l585 1536h346l586 -1536h-311zM559 567h485l-242 671z" />
    <glyph glyph-name="Aogonek" unicode="&#x104;" horiz-adv-x="1603" 
d="M1337 -261c0 -63 45 -92 100 -92c40 0 86 16 123 47v-196c-48 -20 -100 -29 -150 -28c-168 2 -259 95 -259 219c0 120 84 240 234 311h-136l-114 315h-667l-114 -315h-311l585 1536h346l586 -1536c-127 -61 -223 -169 -223 -261zM559 567h485l-242 671z" />
    <glyph glyph-name="Aring" unicode="&#xc5;" horiz-adv-x="1603" 
d="M802 1650c-133 0 -243 109 -243 242c0 131 110 240 243 240c132 0 239 -109 239 -240c0 -133 -107 -242 -239 -242zM802 2012c-66 0 -115 -57 -115 -120c0 -71 49 -119 115 -119c65 0 117 48 117 119c0 63 -52 120 -117 120zM1249 0l-114 315h-667l-114 -315h-311
l585 1536h346l586 -1536h-311zM559 567h485l-242 671z" />
    <glyph glyph-name="Atilde" unicode="&#xc3;" horiz-adv-x="1603" 
d="M670 1879c-57 0 -85 -65 -85 -149h-147c0 170 85 293 226 293c90 0 155 -51 197 -116c18 -26 38 -47 74 -47c56 0 82 57 82 150h147c0 -166 -78 -294 -227 -294c-87 0 -149 43 -197 116c-22 34 -43 47 -70 47zM1249 0l-114 315h-667l-114 -315h-311l585 1536h346
l586 -1536h-311zM559 567h485l-242 671z" />
    <glyph glyph-name="AE" unicode="&#xc6;" horiz-adv-x="2060" 
d="M43 0l585 1536h1301v-265h-631v-372h545v-264h-545v-370h631v-265h-930v315h-528l-113 -315h-315zM560 567h439v704h-184z" />
    <glyph glyph-name="B" unicode="B" horiz-adv-x="1417" 
d="M1050 801c167 -50 279 -167 279 -377c0 -254 -174 -424 -484 -424h-644v1536h515c313 0 500 -162 500 -421c0 -152 -62 -253 -166 -314zM721 1284h-230v-385h230c144 0 220 84 220 196c0 109 -58 189 -220 189zM804 258c168 0 235 93 235 200s-75 204 -235 204h-313v-404
h313z" />
    <glyph glyph-name="C" unicode="C" horiz-adv-x="1551" 
d="M906 -20c-462 0 -811 339 -811 788s349 788 811 788c228 0 444 -93 588 -241l-211 -198c-92 102 -230 163 -377 163c-289 0 -512 -222 -512 -512s223 -512 512 -512c147 0 285 61 377 163l211 -198c-144 -148 -360 -241 -588 -241z" />
    <glyph glyph-name="Cacute" unicode="&#x106;" horiz-adv-x="1551" 
d="M811 1673l267 366l145 -105l-229 -261h-183zM906 -20c-462 0 -811 339 -811 788s349 788 811 788c228 0 444 -93 588 -241l-211 -198c-92 102 -230 163 -377 163c-289 0 -512 -222 -512 -512s223 -512 512 -512c147 0 285 61 377 163l211 -198
c-144 -148 -360 -241 -588 -241z" />
    <glyph glyph-name="Ccaron" unicode="&#x10c;" horiz-adv-x="1551" 
d="M806 1714l-223 299h178l141 -197l139 197h180l-224 -299h-191zM906 -20c-462 0 -811 339 -811 788s349 788 811 788c228 0 444 -93 588 -241l-211 -198c-92 102 -230 163 -377 163c-289 0 -512 -222 -512 -512s223 -512 512 -512c147 0 285 61 377 163l211 -198
c-144 -148 -360 -241 -588 -241z" />
    <glyph glyph-name="Ccedilla" unicode="&#xc7;" horiz-adv-x="1551" 
d="M906 256c147 0 285 61 377 163l211 -198c-133 -137 -329 -227 -538 -240l-57 -103c14 3 30 5 44 5c112 0 195 -79 195 -191c0 -125 -98 -224 -223 -224c-115 0 -209 68 -240 153l130 44c19 -39 65 -63 105 -63c48 0 91 36 91 90c0 57 -42 88 -93 88
c-27 0 -54 -10 -75 -30l-107 62l91 172c-417 40 -722 364 -722 784c0 449 349 788 811 788c228 0 444 -93 588 -241l-211 -198c-92 102 -230 163 -377 163c-289 0 -512 -222 -512 -512s223 -512 512 -512z" />
    <glyph glyph-name="Cdotaccent" unicode="&#x10a;" horiz-adv-x="1551" 
d="M903 1705c-91 0 -166 74 -166 165s75 163 166 163c89 0 164 -72 164 -163s-75 -165 -164 -165zM906 -20c-462 0 -811 339 -811 788s349 788 811 788c228 0 444 -93 588 -241l-211 -198c-92 102 -230 163 -377 163c-289 0 -512 -222 -512 -512s223 -512 512 -512
c147 0 285 61 377 163l211 -198c-144 -148 -360 -241 -588 -241z" />
    <glyph glyph-name="D" unicode="D" horiz-adv-x="1611" 
d="M201 0v1536h526c510 0 780 -303 780 -768s-270 -768 -780 -768h-526zM498 265h216c326 0 484 178 484 503s-158 503 -484 503h-216v-1006z" />
    <glyph glyph-name="Eth" unicode="&#xd0;" horiz-adv-x="1611" 
d="M727 1536c510 0 780 -303 780 -768s-270 -768 -780 -768h-526v679h-148v178h148v679h526zM714 265c326 0 484 178 484 503s-158 503 -484 503h-216v-414h244v-178h-244v-414h216z" />
    <glyph glyph-name="Dcaron" unicode="&#x10e;" horiz-adv-x="1611" 
d="M589 1714l-223 299h178l141 -197l139 197h180l-224 -299h-191zM201 0v1536h526c510 0 780 -303 780 -768s-270 -768 -780 -768h-526zM498 265h216c326 0 484 178 484 503s-158 503 -484 503h-216v-1006z" />
    <glyph glyph-name="Dcroat" unicode="&#x110;" horiz-adv-x="1611" 
d="M727 1536c510 0 780 -303 780 -768s-270 -768 -780 -768h-526v679h-148v178h148v679h526zM714 265c326 0 484 178 484 503s-158 503 -484 503h-216v-414h244v-178h-244v-414h216z" />
    <glyph glyph-name="E" unicode="E" horiz-adv-x="1249" 
d="M1118 1271h-619v-373h545v-262h-545v-371h619v-265h-917v1536h917v-265z" />
    <glyph glyph-name="Eacute" unicode="&#xc9;" horiz-adv-x="1249" 
d="M987 1934l-229 -261h-183l267 366zM1118 1271h-619v-373h545v-262h-545v-371h619v-265h-917v1536h917v-265z" />
    <glyph glyph-name="Ecaron" unicode="&#x11a;" horiz-adv-x="1249" 
d="M761 1714h-191l-223 299h178l141 -197l139 197h180zM1118 1271h-619v-373h545v-262h-545v-371h619v-265h-917v1536h917v-265z" />
    <glyph glyph-name="Ecircumflex" unicode="&#xca;" horiz-adv-x="1249" 
d="M666 1910l-141 -196h-178l223 299h191l224 -299h-180zM1118 1271h-619v-373h545v-262h-545v-371h619v-265h-917v1536h917v-265z" />
    <glyph glyph-name="uni1EBE" unicode="&#x1ebe;" horiz-adv-x="1249" 
d="M986 2411l-229 -261h-183l267 366zM666 1910l-141 -196h-178l223 299h191l224 -299h-180zM1118 1271h-619v-373h545v-262h-545v-371h619v-265h-917v1536h917v-265z" />
    <glyph glyph-name="uni1EC6" unicode="&#x1ec6;" horiz-adv-x="1249" 
d="M666 1910l-141 -196h-178l223 299h191l224 -299h-180zM1118 1271h-619v-373h545v-262h-545v-371h619v-265h-917v1536h917v-265zM667 -183c89 0 164 -74 164 -164c0 -92 -75 -165 -164 -165c-91 0 -166 73 -166 165c0 90 75 164 166 164z" />
    <glyph glyph-name="uni1EC0" unicode="&#x1ec0;" horiz-adv-x="1249" 
d="M757 2150h-183l-229 261l144 105zM347 1714l223 299h191l224 -299h-180l-139 196l-141 -196h-178zM1118 1271h-619v-373h545v-262h-545v-371h619v-265h-917v1536h917v-265z" />
    <glyph glyph-name="uni1EC2" unicode="&#x1ec2;" horiz-adv-x="1249" 
d="M649 2389c-30 0 -61 -12 -89 -38l-69 100c43 35 99 59 171 59c123 0 200 -73 200 -180c0 -92 -57 -138 -129 -160v-83h-129v139c76 14 113 47 113 97c0 38 -23 66 -68 66zM666 1910l-141 -196h-178l223 299h191l224 -299h-180zM1118 1271h-619v-373h545v-262h-545v-371
h619v-265h-917v1536h917v-265z" />
    <glyph glyph-name="uni1EC4" unicode="&#x1ec4;" horiz-adv-x="1249" 
d="M533 2356c-57 0 -85 -65 -85 -149h-147c0 170 85 293 226 293c90 0 155 -51 197 -116c18 -26 38 -47 74 -47c56 0 82 57 82 150h147c0 -166 -78 -294 -227 -294c-87 0 -149 43 -197 116c-22 34 -43 47 -70 47zM570 2013h191l224 -299h-180l-139 196l-141 -196h-178z
M1118 1271h-619v-373h545v-262h-545v-371h619v-265h-917v1536h917v-265z" />
    <glyph glyph-name="Edieresis" unicode="&#xcb;" horiz-adv-x="1249" 
d="M457 1745c-79 0 -145 64 -145 144c0 81 66 144 145 144s145 -63 145 -144c0 -80 -66 -144 -145 -144zM877 1745c-80 0 -146 64 -146 144c0 81 66 144 146 144c79 0 144 -63 144 -144c0 -80 -65 -144 -144 -144zM1118 1271h-619v-373h545v-262h-545v-371h619v-265h-917
v1536h917v-265z" />
    <glyph glyph-name="Edotaccent" unicode="&#x116;" horiz-adv-x="1249" 
d="M667 1705c-91 0 -166 74 -166 165s75 163 166 163c89 0 164 -72 164 -163s-75 -165 -164 -165zM1118 1271h-619v-373h545v-262h-545v-371h619v-265h-917v1536h917v-265z" />
    <glyph glyph-name="uni1EB8" unicode="&#x1eb8;" horiz-adv-x="1249" 
d="M1118 1271h-619v-373h545v-262h-545v-371h619v-265h-917v1536h917v-265zM667 -183c89 0 164 -74 164 -164c0 -92 -75 -165 -164 -165c-91 0 -166 73 -166 165c0 90 75 164 166 164z" />
    <glyph glyph-name="Egrave" unicode="&#xc8;" horiz-adv-x="1249" 
d="M758 1673h-183l-229 261l144 105zM1118 1271h-619v-373h545v-262h-545v-371h619v-265h-917v1536h917v-265z" />
    <glyph glyph-name="uni1EBA" unicode="&#x1eba;" horiz-adv-x="1249" 
d="M650 1912c-30 0 -61 -12 -89 -38l-69 100c43 35 99 59 171 59c123 0 200 -73 200 -180c0 -92 -57 -138 -129 -160v-83h-129v139c76 14 113 47 113 97c0 38 -23 66 -68 66zM1118 1271h-619v-373h545v-262h-545v-371h619v-265h-917v1536h917v-265z" />
    <glyph glyph-name="Emacron" unicode="&#x112;" horiz-adv-x="1249" 
d="M996 1873v-171h-660v171h660zM1118 1271h-619v-373h545v-262h-545v-371h619v-265h-917v1536h917v-265z" />
    <glyph glyph-name="Eogonek" unicode="&#x118;" horiz-adv-x="1249" 
d="M1118 1271h-619v-373h545v-262h-545v-371h619v-265c-127 -61 -223 -169 -223 -261c0 -63 45 -92 100 -92c40 0 86 16 123 47v-196c-48 -20 -100 -29 -150 -28c-168 2 -259 95 -259 219c0 120 84 240 234 311h-742v1536h917v-265z" />
    <glyph glyph-name="uni1EBC" unicode="&#x1ebc;" horiz-adv-x="1249" 
d="M534 1879c-57 0 -85 -65 -85 -149h-147c0 170 85 293 226 293c90 0 155 -51 197 -116c18 -26 38 -47 74 -47c56 0 82 57 82 150h147c0 -166 -78 -294 -227 -294c-87 0 -149 43 -197 116c-22 34 -43 47 -70 47zM1118 1271h-619v-373h545v-262h-545v-371h619v-265h-917
v1536h917v-265z" />
    <glyph glyph-name="F" unicode="F" horiz-adv-x="1210" 
d="M1130 1271h-631v-372h545v-262h-545v-637h-298v1536h929v-265z" />
    <glyph glyph-name="G" unicode="G" horiz-adv-x="1794" 
d="M1710 862c4 -26 7 -58 7 -92c0 -451 -349 -790 -811 -790c-461 0 -811 339 -811 788s350 788 811 788c288 0 533 -133 675 -341l-259 -143c-92 126 -242 208 -417 208c-287 0 -511 -219 -511 -519c0 -281 199 -505 516 -505c253 0 433 142 489 360h-400v246h711z" />
    <glyph glyph-name="Gbreve" unicode="&#x11e;" horiz-adv-x="1794" 
d="M873 1663c-214 0 -364 119 -364 350h165c0 -128 78 -217 199 -217c122 0 201 89 201 217h165c0 -231 -150 -350 -366 -350zM1710 862c4 -26 7 -58 7 -92c0 -451 -349 -790 -811 -790c-461 0 -811 339 -811 788s350 788 811 788c288 0 533 -133 675 -341l-259 -143
c-92 126 -242 208 -417 208c-287 0 -511 -219 -511 -519c0 -281 199 -505 516 -505c253 0 433 142 489 360h-400v246h711z" />
    <glyph glyph-name="Gcommaaccent" unicode="&#x122;" horiz-adv-x="1794" 
d="M1710 862c4 -26 7 -58 7 -92c0 -451 -349 -790 -811 -790c-461 0 -811 339 -811 788s350 788 811 788c288 0 533 -133 675 -341l-259 -143c-92 126 -242 208 -417 208c-287 0 -511 -219 -511 -519c0 -281 199 -505 516 -505c253 0 433 142 489 360h-400v246h711z
M577 -519l169 380h255l-283 -444z" />
    <glyph glyph-name="Gdotaccent" unicode="&#x120;" horiz-adv-x="1794" 
d="M875 1705c-91 0 -166 74 -166 165s75 163 166 163c89 0 164 -72 164 -163s-75 -165 -164 -165zM1710 862c4 -26 7 -58 7 -92c0 -451 -349 -790 -811 -790c-461 0 -811 339 -811 788s350 788 811 788c288 0 533 -133 675 -341l-259 -143c-92 126 -242 208 -417 208
c-287 0 -511 -219 -511 -519c0 -281 199 -505 516 -505c253 0 433 142 489 360h-400v246h711z" />
    <glyph glyph-name="H" unicode="H" horiz-adv-x="1672" 
d="M1173 1536h298v-1536h-298v639h-674v-639h-298v1536h298v-636h674v636z" />
    <glyph glyph-name="Hbar" unicode="&#x126;" horiz-adv-x="1672" 
d="M1593 1273v-129h-122v-1144h-298v639h-674v-639h-298v1144h-124v129h124v263h298v-263h674v263h298v-263h122zM1173 900v244h-674v-244h674z" />
    <glyph glyph-name="I" unicode="I" horiz-adv-x="700" 
d="M201 0v1536h298v-1536h-298z" />
    <glyph glyph-name="Iacute" unicode="&#xcd;" horiz-adv-x="700" 
d="M257 1673l267 366l145 -105l-229 -261h-183zM201 0v1536h298v-1536h-298z" />
    <glyph glyph-name="uni01CF" unicode="&#x1cf;" horiz-adv-x="700" 
d="M252 1714l-223 299h178l141 -197l139 197h180l-224 -299h-191zM201 0v1536h298v-1536h-298z" />
    <glyph glyph-name="Icircumflex" unicode="&#xce;" horiz-adv-x="700" 
d="M207 1714h-178l223 299h191l224 -299h-180l-139 196zM201 0v1536h298v-1536h-298z" />
    <glyph glyph-name="Idieresis" unicode="&#xcf;" horiz-adv-x="700" 
d="M139 1745c-79 0 -145 64 -145 144c0 81 66 144 145 144s145 -63 145 -144c0 -80 -66 -144 -145 -144zM559 1745c-80 0 -146 64 -146 144c0 81 66 144 146 144c79 0 144 -63 144 -144c0 -80 -65 -144 -144 -144zM201 0v1536h298v-1536h-298z" />
    <glyph glyph-name="Idotaccent" unicode="&#x130;" horiz-adv-x="700" 
d="M349 1705c-91 0 -166 74 -166 165s75 163 166 163c89 0 164 -72 164 -163s-75 -165 -164 -165zM201 0v1536h298v-1536h-298z" />
    <glyph glyph-name="uni1ECA" unicode="&#x1eca;" horiz-adv-x="700" 
d="M201 0v1536h298v-1536h-298zM349 -512c-91 0 -166 73 -166 165c0 90 75 164 166 164c89 0 164 -74 164 -164c0 -92 -75 -165 -164 -165z" />
    <glyph glyph-name="Igrave" unicode="&#xcc;" horiz-adv-x="700" 
d="M257 1673l-229 261l144 105l268 -366h-183zM201 0v1536h298v-1536h-298z" />
    <glyph glyph-name="uni1EC8" unicode="&#x1ec8;" horiz-adv-x="700" 
d="M287 1610v139c76 14 113 47 113 97c0 38 -23 66 -68 66c-30 0 -61 -12 -89 -38l-69 100c43 35 99 59 171 59c123 0 200 -73 200 -180c0 -92 -57 -138 -129 -160v-83h-129zM201 0v1536h298v-1536h-298z" />
    <glyph glyph-name="Imacron" unicode="&#x12a;" horiz-adv-x="700" 
d="M18 1702v171h660v-171h-660zM201 0v1536h298v-1536h-298z" />
    <glyph glyph-name="Iogonek" unicode="&#x12e;" horiz-adv-x="700" 
d="M499 0c-127 -61 -223 -169 -223 -261c0 -63 45 -92 100 -92c40 0 86 16 123 47v-196c-48 -20 -100 -29 -150 -28c-168 2 -259 95 -259 219c0 120 84 240 234 311h-123v1536h298v-1536z" />
    <glyph glyph-name="Itilde" unicode="&#x128;" horiz-adv-x="700" 
d="M483 1716c-87 0 -149 43 -197 116c-22 34 -43 47 -70 47c-57 0 -85 -65 -85 -149h-147c0 170 85 293 226 293c90 0 155 -51 197 -116c18 -26 38 -47 74 -47c56 0 82 57 82 150h147c0 -166 -78 -294 -227 -294zM201 0v1536h298v-1536h-298z" />
    <glyph glyph-name="J" unicode="J" horiz-adv-x="1122" 
d="M437 -20c-123 0 -263 29 -396 100l129 248c74 -52 160 -78 245 -78c155 0 234 95 234 271v1015h298v-1069c0 -308 -209 -487 -510 -487z" />
    <glyph glyph-name="K" unicode="K" horiz-adv-x="1528" 
d="M1488 0h-392l-597 770v-770h-298v1536h298v-679l571 679h380l-630 -721z" />
    <glyph glyph-name="Kcommaaccent" unicode="&#x136;" horiz-adv-x="1528" 
d="M820 815l668 -815h-392l-597 770v-770h-298v1536h298v-679l571 679h380zM455 -519l169 380h255l-283 -444z" />
    <glyph glyph-name="L" unicode="L" horiz-adv-x="1079" 
d="M499 265h523v-265h-821v1536h298v-1271z" />
    <glyph glyph-name="Lacute" unicode="&#x139;" horiz-adv-x="1079" 
d="M670 1934l-229 -261h-183l267 366zM499 265h523v-265h-821v1536h298v-1271z" />
    <glyph glyph-name="Lcaron" unicode="&#x13d;" horiz-adv-x="1164" 
d="M499 1536v-1271h523v-265h-821v1536h298zM1109 1536l-212 -656h-205l117 656h300z" />
    <glyph glyph-name="Lcommaaccent" unicode="&#x13b;" horiz-adv-x="1079" 
d="M499 265h523v-265h-821v1536h298v-1271zM315 -519l169 380h255l-283 -444z" />
    <glyph glyph-name="Lslash" unicode="&#x141;" horiz-adv-x="1079" 
d="M499 265h523v-265h-821v543l-151 -112v191l151 112v802h298v-581l202 150v-193l-202 -149v-498z" />
    <glyph glyph-name="M" unicode="M" horiz-adv-x="2081" 
d="M1477 1536h403v-1536h-298v1137l-465 -1137h-155l-463 1139v-1139h-298v1536h404l434 -1051z" />
    <glyph glyph-name="N" unicode="N" horiz-adv-x="1853" 
d="M1357 1536h296v-1536h-282l-876 1100v-1100h-294v1536h280l876 -1096v1096z" />
    <glyph glyph-name="Nacute" unicode="&#x143;" horiz-adv-x="1853" 
d="M1253 1934l-229 -261h-183l267 366zM1357 1536h296v-1536h-282l-876 1100v-1100h-294v1536h280l876 -1096v1096z" />
    <glyph glyph-name="Ncaron" unicode="&#x147;" horiz-adv-x="1853" 
d="M1027 1714h-191l-223 299h178l141 -197l139 197h180zM1357 1536h296v-1536h-282l-876 1100v-1100h-294v1536h280l876 -1096v1096z" />
    <glyph glyph-name="Ncommaaccent" unicode="&#x145;" horiz-adv-x="1853" 
d="M1357 1536h296v-1536h-282l-876 1100v-1100h-294v1536h280l876 -1096v1096zM625 -519l169 380h255l-283 -444z" />
    <glyph glyph-name="Eng" unicode="&#x14a;" horiz-adv-x="1853" 
d="M1357 1536h296v-1536c0 -295 -215 -498 -577 -498v230c186 0 290 109 290 268v6l-871 1094v-1100h-294v1536h280l876 -1096v1096z" />
    <glyph glyph-name="Ntilde" unicode="&#xd1;" horiz-adv-x="1853" 
d="M800 1879c-57 0 -85 -65 -85 -149h-147c0 170 85 293 226 293c90 0 155 -51 197 -116c18 -26 38 -47 74 -47c56 0 82 57 82 150h147c0 -166 -78 -294 -227 -294c-87 0 -149 43 -197 116c-22 34 -43 47 -70 47zM1357 1536h296v-1536h-282l-876 1100v-1100h-294v1536h280
l876 -1096v1096z" />
    <glyph glyph-name="O" unicode="O" horiz-adv-x="1812" 
d="M906 -20c-461 0 -811 339 -811 788s350 788 811 788s811 -339 811 -788s-350 -788 -811 -788zM906 256c289 0 512 223 512 512s-223 512 -512 512c-288 0 -512 -223 -512 -512s224 -512 512 -512z" />
    <glyph glyph-name="Oacute" unicode="&#xd3;" horiz-adv-x="1812" 
d="M815 1673l267 366l145 -105l-229 -261h-183zM906 -20c-461 0 -811 339 -811 788s350 788 811 788s811 -339 811 -788s-350 -788 -811 -788zM906 256c289 0 512 223 512 512s-223 512 -512 512c-288 0 -512 -223 -512 -512s224 -512 512 -512z" />
    <glyph glyph-name="uni01D1" unicode="&#x1d1;" horiz-adv-x="1812" 
d="M810 1714l-223 299h178l141 -197l139 197h180l-224 -299h-191zM906 -20c-461 0 -811 339 -811 788s350 788 811 788s811 -339 811 -788s-350 -788 -811 -788zM906 256c289 0 512 223 512 512s-223 512 -512 512c-288 0 -512 -223 -512 -512s224 -512 512 -512z" />
    <glyph glyph-name="Ocircumflex" unicode="&#xd4;" horiz-adv-x="1812" 
d="M765 1714h-178l223 299h191l224 -299h-180l-139 196zM906 -20c-461 0 -811 339 -811 788s350 788 811 788s811 -339 811 -788s-350 -788 -811 -788zM906 256c289 0 512 223 512 512s-223 512 -512 512c-288 0 -512 -223 -512 -512s224 -512 512 -512z" />
    <glyph glyph-name="uni1ED0" unicode="&#x1ed0;" horiz-adv-x="1812" 
d="M814 2150l267 366l145 -105l-229 -261h-183zM765 1714h-178l223 299h191l224 -299h-180l-139 196zM906 -20c-461 0 -811 339 -811 788s350 788 811 788s811 -339 811 -788s-350 -788 -811 -788zM906 256c289 0 512 223 512 512s-223 512 -512 512
c-288 0 -512 -223 -512 -512s224 -512 512 -512z" />
    <glyph glyph-name="uni1ED8" unicode="&#x1ed8;" horiz-adv-x="1812" 
d="M765 1714h-178l223 299h191l224 -299h-180l-139 196zM906 -20c-461 0 -811 339 -811 788s350 788 811 788s811 -339 811 -788s-350 -788 -811 -788zM906 256c289 0 512 223 512 512s-223 512 -512 512c-288 0 -512 -223 -512 -512s224 -512 512 -512zM907 -512
c-91 0 -166 73 -166 165c0 90 75 164 166 164c89 0 164 -74 164 -164c0 -92 -75 -165 -164 -165z" />
    <glyph glyph-name="uni1ED2" unicode="&#x1ed2;" horiz-adv-x="1812" 
d="M814 2150l-229 261l144 105l268 -366h-183zM765 1714h-178l223 299h191l224 -299h-180l-139 196zM906 -20c-461 0 -811 339 -811 788s350 788 811 788s811 -339 811 -788s-350 -788 -811 -788zM906 256c289 0 512 223 512 512s-223 512 -512 512
c-288 0 -512 -223 -512 -512s224 -512 512 -512z" />
    <glyph glyph-name="uni1ED4" unicode="&#x1ed4;" horiz-adv-x="1812" 
d="M844 2087v139c76 14 113 47 113 97c0 38 -23 66 -68 66c-30 0 -61 -12 -89 -38l-69 100c43 35 99 59 171 59c123 0 200 -73 200 -180c0 -92 -57 -138 -129 -160v-83h-129zM765 1714h-178l223 299h191l224 -299h-180l-139 196zM906 -20c-461 0 -811 339 -811 788
s350 788 811 788s811 -339 811 -788s-350 -788 -811 -788zM906 256c289 0 512 223 512 512s-223 512 -512 512c-288 0 -512 -223 -512 -512s224 -512 512 -512z" />
    <glyph glyph-name="uni1ED6" unicode="&#x1ed6;" horiz-adv-x="1812" 
d="M1040 2193c-87 0 -149 43 -197 116c-22 34 -43 47 -70 47c-57 0 -85 -65 -85 -149h-147c0 170 85 293 226 293c90 0 155 -51 197 -116c18 -26 38 -47 74 -47c56 0 82 57 82 150h147c0 -166 -78 -294 -227 -294zM765 1714h-178l223 299h191l224 -299h-180l-139 196z
M906 -20c-461 0 -811 339 -811 788s350 788 811 788s811 -339 811 -788s-350 -788 -811 -788zM906 256c289 0 512 223 512 512s-223 512 -512 512c-288 0 -512 -223 -512 -512s224 -512 512 -512z" />
    <glyph glyph-name="Odieresis" unicode="&#xd6;" horiz-adv-x="1812" 
d="M697 1745c-79 0 -145 64 -145 144c0 81 66 144 145 144s145 -63 145 -144c0 -80 -66 -144 -145 -144zM1117 1745c-80 0 -146 64 -146 144c0 81 66 144 146 144c79 0 144 -63 144 -144c0 -80 -65 -144 -144 -144zM906 -20c-461 0 -811 339 -811 788s350 788 811 788
s811 -339 811 -788s-350 -788 -811 -788zM906 256c289 0 512 223 512 512s-223 512 -512 512c-288 0 -512 -223 -512 -512s224 -512 512 -512z" />
    <glyph glyph-name="uni1ECC" unicode="&#x1ecc;" horiz-adv-x="1812" 
d="M906 -20c-461 0 -811 339 -811 788s350 788 811 788s811 -339 811 -788s-350 -788 -811 -788zM906 256c289 0 512 223 512 512s-223 512 -512 512c-288 0 -512 -223 -512 -512s224 -512 512 -512zM907 -512c-91 0 -166 73 -166 165c0 90 75 164 166 164
c89 0 164 -74 164 -164c0 -92 -75 -165 -164 -165z" />
    <glyph glyph-name="Ograve" unicode="&#xd2;" horiz-adv-x="1812" 
d="M815 1673l-229 261l144 105l268 -366h-183zM906 -20c-461 0 -811 339 -811 788s350 788 811 788s811 -339 811 -788s-350 -788 -811 -788zM906 256c289 0 512 223 512 512s-223 512 -512 512c-288 0 -512 -223 -512 -512s224 -512 512 -512z" />
    <glyph glyph-name="uni1ECE" unicode="&#x1ece;" horiz-adv-x="1812" 
d="M845 1610v139c76 14 113 47 113 97c0 38 -23 66 -68 66c-30 0 -61 -12 -89 -38l-69 100c43 35 99 59 171 59c123 0 200 -73 200 -180c0 -92 -57 -138 -129 -160v-83h-129zM906 -20c-461 0 -811 339 -811 788s350 788 811 788s811 -339 811 -788s-350 -788 -811 -788z
M906 256c289 0 512 223 512 512s-223 512 -512 512c-288 0 -512 -223 -512 -512s224 -512 512 -512z" />
    <glyph glyph-name="Ohorn" unicode="&#x1a0;" horiz-adv-x="1812" 
d="M1630 1562h154v-173c0 -164 -78 -224 -165 -235c63 -113 98 -244 98 -386c0 -449 -350 -788 -811 -788s-811 339 -811 788s350 788 811 788c258 0 482 -106 628 -279c73 1 96 48 96 133v152zM906 256c289 0 512 223 512 512s-223 512 -512 512
c-288 0 -512 -223 -512 -512s224 -512 512 -512z" />
    <glyph glyph-name="uni1EDA" unicode="&#x1eda;" horiz-adv-x="1812" 
d="M1227 1934l-229 -261h-183l267 366zM1630 1562h154v-173c0 -164 -78 -224 -165 -235c63 -113 98 -244 98 -386c0 -449 -350 -788 -811 -788s-811 339 -811 788s350 788 811 788c258 0 482 -106 628 -279c73 1 96 48 96 133v152zM906 256c289 0 512 223 512 512
s-223 512 -512 512c-288 0 -512 -223 -512 -512s224 -512 512 -512z" />
    <glyph glyph-name="uni1EE2" unicode="&#x1ee2;" horiz-adv-x="1812" 
d="M1630 1562h154v-173c0 -164 -78 -224 -165 -235c63 -113 98 -244 98 -386c0 -449 -350 -788 -811 -788s-811 339 -811 788s350 788 811 788c258 0 482 -106 628 -279c73 1 96 48 96 133v152zM906 256c289 0 512 223 512 512s-223 512 -512 512
c-288 0 -512 -223 -512 -512s224 -512 512 -512zM907 -183c89 0 164 -74 164 -164c0 -92 -75 -165 -164 -165c-91 0 -166 73 -166 165c0 90 75 164 166 164z" />
    <glyph glyph-name="uni1EDC" unicode="&#x1edc;" horiz-adv-x="1812" 
d="M998 1673h-183l-229 261l144 105zM1630 1562h154v-173c0 -164 -78 -224 -165 -235c63 -113 98 -244 98 -386c0 -449 -350 -788 -811 -788s-811 339 -811 788s350 788 811 788c258 0 482 -106 628 -279c73 1 96 48 96 133v152zM906 256c289 0 512 223 512 512
s-223 512 -512 512c-288 0 -512 -223 -512 -512s224 -512 512 -512z" />
    <glyph glyph-name="uni1EDE" unicode="&#x1ede;" horiz-adv-x="1812" 
d="M890 1912c-30 0 -61 -12 -89 -38l-69 100c43 35 99 59 171 59c123 0 200 -73 200 -180c0 -92 -57 -138 -129 -160v-83h-129v139c76 14 113 47 113 97c0 38 -23 66 -68 66zM1630 1562h154v-173c0 -164 -78 -224 -165 -235c63 -113 98 -244 98 -386
c0 -449 -350 -788 -811 -788s-811 339 -811 788s350 788 811 788c258 0 482 -106 628 -279c73 1 96 48 96 133v152zM906 256c289 0 512 223 512 512s-223 512 -512 512c-288 0 -512 -223 -512 -512s224 -512 512 -512z" />
    <glyph glyph-name="uni1EE0" unicode="&#x1ee0;" horiz-adv-x="1812" 
d="M774 1879c-57 0 -85 -65 -85 -149h-147c0 170 85 293 226 293c90 0 155 -51 197 -116c18 -26 38 -47 74 -47c56 0 82 57 82 150h147c0 -166 -78 -294 -227 -294c-87 0 -149 43 -197 116c-22 34 -43 47 -70 47zM1630 1562h154v-173c0 -164 -78 -224 -165 -235
c63 -113 98 -244 98 -386c0 -449 -350 -788 -811 -788s-811 339 -811 788s350 788 811 788c258 0 482 -106 628 -279c73 1 96 48 96 133v152zM906 256c289 0 512 223 512 512s-223 512 -512 512c-288 0 -512 -223 -512 -512s224 -512 512 -512z" />
    <glyph glyph-name="Ohungarumlaut" unicode="&#x150;" horiz-adv-x="1812" 
d="M629 1673l267 366l144 -105l-229 -261h-182zM1001 1673l267 366l145 -105l-229 -261h-183zM906 -20c-461 0 -811 339 -811 788s350 788 811 788s811 -339 811 -788s-350 -788 -811 -788zM906 256c289 0 512 223 512 512s-223 512 -512 512c-288 0 -512 -223 -512 -512
s224 -512 512 -512z" />
    <glyph glyph-name="Omacron" unicode="&#x14c;" horiz-adv-x="1812" 
d="M576 1702v171h660v-171h-660zM906 -20c-461 0 -811 339 -811 788s350 788 811 788s811 -339 811 -788s-350 -788 -811 -788zM906 256c289 0 512 223 512 512s-223 512 -512 512c-288 0 -512 -223 -512 -512s224 -512 512 -512z" />
    <glyph glyph-name="Oslash" unicode="&#xd8;" horiz-adv-x="1812" 
d="M1426 1382c180 -143 291 -361 291 -614c0 -449 -350 -788 -811 -788c-143 0 -276 33 -391 91l-100 -144l-133 79l103 149c-179 142 -290 360 -290 613c0 449 350 788 811 788c143 0 276 -33 390 -91l101 145l132 -80zM394 768c0 -150 60 -281 158 -374l581 836
c-68 32 -145 50 -227 50c-288 0 -512 -223 -512 -512zM906 256c289 0 512 223 512 512c0 150 -60 282 -158 375l-581 -836c68 -33 145 -51 227 -51z" />
    <glyph glyph-name="Otilde" unicode="&#xd5;" horiz-adv-x="1812" 
d="M1041 1716c-87 0 -149 43 -197 116c-22 34 -43 47 -70 47c-57 0 -85 -65 -85 -149h-147c0 170 85 293 226 293c90 0 155 -51 197 -116c18 -26 38 -47 74 -47c56 0 82 57 82 150h147c0 -166 -78 -294 -227 -294zM906 -20c-461 0 -811 339 -811 788s350 788 811 788
s811 -339 811 -788s-350 -788 -811 -788zM906 256c289 0 512 223 512 512s-223 512 -512 512c-288 0 -512 -223 -512 -512s224 -512 512 -512z" />
    <glyph glyph-name="OE" unicode="&#x152;" horiz-adv-x="2165" 
d="M876 0c-510 0 -781 303 -781 768s271 768 781 768h1158v-265h-631v-372h545v-264h-545v-370h631v-265h-1158zM889 265h216v1006h-216c-327 0 -484 -178 -484 -503s157 -503 484 -503z" />
    <glyph glyph-name="P" unicode="P" horiz-adv-x="1441" 
d="M858 1536c308 0 506 -221 506 -493c0 -276 -198 -485 -506 -485h-359v-558h-298v1536h657zM813 810c172 0 262 89 262 236c0 141 -90 239 -262 239h-314v-475h314z" />
    <glyph glyph-name="Thorn" unicode="&#xde;" horiz-adv-x="1346" 
d="M824 1314c250 0 450 -202 450 -458c0 -246 -200 -440 -450 -440h-336v-416h-288v1534h288v-220h336zM811 676c110 0 193 81 193 189c0 110 -83 190 -193 190h-323v-379h323z" />
    <glyph glyph-name="Q" unicode="Q" horiz-adv-x="1835" 
d="M1719 0l-214 -104l-179 191c-121 -68 -264 -107 -419 -107c-461 0 -811 339 -811 788s350 788 811 788s811 -339 811 -788c0 -213 -79 -402 -211 -541zM907 256c78 0 152 16 217 46l-290 310l228 90l244 -260c71 87 113 200 113 326c0 289 -223 512 -512 512
c-288 0 -512 -223 -512 -512s224 -512 512 -512z" />
    <glyph glyph-name="R" unicode="R" horiz-adv-x="1472" 
d="M1105 0l-356 649h-250v-649h-298v1536h600c316 0 489 -204 489 -455c0 -187 -107 -333 -266 -397l405 -684h-324zM499 1284v-396h282c143 0 220 73 220 196c0 121 -77 200 -220 200h-282z" />
    <glyph glyph-name="Racute" unicode="&#x154;" horiz-adv-x="1472" 
d="M1061 1934l-229 -261h-183l267 366zM1105 0l-356 649h-250v-649h-298v1536h600c316 0 489 -204 489 -455c0 -187 -107 -333 -266 -397l405 -684h-324zM499 1284v-396h282c143 0 220 73 220 196c0 121 -77 200 -220 200h-282z" />
    <glyph glyph-name="Rcaron" unicode="&#x158;" horiz-adv-x="1472" 
d="M835 1714h-191l-223 299h178l141 -197l139 197h180zM1105 0l-356 649h-250v-649h-298v1536h600c316 0 489 -204 489 -455c0 -187 -107 -333 -266 -397l405 -684h-324zM499 1284v-396h282c143 0 220 73 220 196c0 121 -77 200 -220 200h-282z" />
    <glyph glyph-name="Rcommaaccent" unicode="&#x156;" horiz-adv-x="1472" 
d="M1024 684l405 -684h-324l-356 649h-250v-649h-298v1536h600c316 0 489 -204 489 -455c0 -187 -107 -333 -266 -397zM499 1284v-396h282c143 0 220 73 220 196c0 121 -77 200 -220 200h-282zM443 -519l169 380h255l-283 -444z" />
    <glyph glyph-name="S" unicode="S" horiz-adv-x="1244" 
d="M649 -19c-214 0 -434 93 -579 244l172 215c104 -121 267 -207 408 -207c120 0 207 62 207 171c0 137 -137 188 -312 265c-201 88 -413 188 -413 459c0 272 212 428 474 428c189 0 366 -77 506 -202l-157 -213c-112 109 -246 162 -356 162c-97 0 -174 -49 -174 -145
c0 -125 132 -174 309 -250c202 -89 421 -199 421 -485c0 -294 -232 -442 -506 -442z" />
    <glyph glyph-name="Sacute" unicode="&#x15a;" horiz-adv-x="1244" 
d="M516 1673l267 366l145 -105l-229 -261h-183zM649 -19c-214 0 -434 93 -579 244l172 215c104 -121 267 -207 408 -207c120 0 207 62 207 171c0 137 -137 188 -312 265c-201 88 -413 188 -413 459c0 272 212 428 474 428c189 0 366 -77 506 -202l-157 -213
c-112 109 -246 162 -356 162c-97 0 -174 -49 -174 -145c0 -125 132 -174 309 -250c202 -89 421 -199 421 -485c0 -294 -232 -442 -506 -442z" />
    <glyph glyph-name="Scaron" unicode="&#x160;" horiz-adv-x="1244" 
d="M511 1714l-223 299h178l141 -197l139 197h180l-224 -299h-191zM649 -19c-214 0 -434 93 -579 244l172 215c104 -121 267 -207 408 -207c120 0 207 62 207 171c0 137 -137 188 -312 265c-201 88 -413 188 -413 459c0 272 212 428 474 428c189 0 366 -77 506 -202
l-157 -213c-112 109 -246 162 -356 162c-97 0 -174 -49 -174 -145c0 -125 132 -174 309 -250c202 -89 421 -199 421 -485c0 -294 -232 -442 -506 -442z" />
    <glyph glyph-name="Scedilla" unicode="&#x15e;" horiz-adv-x="1244" 
d="M1155 423c0 -286 -220 -434 -484 -442l-57 -104c14 3 30 5 44 5c112 0 195 -79 195 -191c0 -125 -98 -224 -223 -224c-115 0 -209 68 -240 153l130 44c19 -39 65 -63 105 -63c48 0 91 36 91 90c0 57 -42 88 -93 88c-27 0 -54 -10 -75 -30l-107 62l95 178
c-176 27 -347 112 -466 236l172 215c104 -121 267 -207 408 -207c120 0 207 62 207 171c0 137 -137 188 -312 265c-201 88 -413 188 -413 459c0 272 212 428 474 428c189 0 366 -77 506 -202l-157 -213c-112 109 -246 162 -356 162c-97 0 -174 -49 -174 -145
c0 -125 132 -174 309 -250c202 -89 421 -199 421 -485z" />
    <glyph glyph-name="Scommaaccent" unicode="&#x218;" horiz-adv-x="1244" 
d="M649 -19c-214 0 -434 93 -579 244l172 215c104 -121 267 -207 408 -207c120 0 207 62 207 171c0 137 -137 188 -312 265c-201 88 -413 188 -413 459c0 272 212 428 474 428c189 0 366 -77 506 -202l-157 -213c-112 109 -246 162 -356 162c-97 0 -174 -49 -174 -145
c0 -125 132 -174 309 -250c202 -89 421 -199 421 -485c0 -294 -232 -442 -506 -442zM456 -584l-141 64l169 380h255z" />
    <glyph glyph-name="T" unicode="T" horiz-adv-x="1203" 
d="M1145 1536v-265h-395v-1271h-297v1271h-396v265h1088z" />
    <glyph glyph-name="Tbar" unicode="&#x166;" horiz-adv-x="1203" 
d="M1145 1271h-395v-414h195v-178h-195v-679h-297v679h-197v178h197v414h-396v265h1088v-265z" />
    <glyph glyph-name="Tcaron" unicode="&#x164;" horiz-adv-x="1203" 
d="M696 1714h-191l-223 299h178l141 -197l139 197h180zM1145 1536v-265h-395v-1271h-297v1271h-396v265h1088z" />
    <glyph glyph-name="uni0162" unicode="&#x162;" horiz-adv-x="1203" 
d="M750 0h-80l-67 -122c14 3 30 5 44 5c112 0 195 -79 195 -191c0 -125 -98 -224 -223 -224c-115 0 -209 68 -240 153l130 44c19 -39 65 -63 105 -63c48 0 91 36 91 90c0 57 -42 88 -93 88c-27 0 -54 -10 -75 -30l-107 62l100 188h-77v1271h-396v265h1088v-265h-395v-1271z
" />
    <glyph glyph-name="uni021A" unicode="&#x21a;" horiz-adv-x="1203" 
d="M1145 1536v-265h-395v-1271h-297v1271h-396v265h1088zM304 -519l169 380h255l-283 -444z" />
    <glyph glyph-name="U" unicode="U" horiz-adv-x="1590" 
d="M794 -20c-354 0 -624 185 -624 552v1004h298v-958c0 -245 141 -334 326 -334c186 0 327 89 327 334v958h299v-1004c0 -367 -270 -552 -626 -552z" />
    <glyph glyph-name="Uacute" unicode="&#xda;" horiz-adv-x="1590" 
d="M703 1673l267 366l145 -105l-229 -261h-183zM794 -20c-354 0 -624 185 -624 552v1004h298v-958c0 -245 141 -334 326 -334c186 0 327 89 327 334v958h299v-1004c0 -367 -270 -552 -626 -552z" />
    <glyph glyph-name="uni01D3" unicode="&#x1d3;" horiz-adv-x="1590" 
d="M698 1714l-223 299h178l141 -197l139 197h180l-224 -299h-191zM794 -20c-354 0 -624 185 -624 552v1004h298v-958c0 -245 141 -334 326 -334c186 0 327 89 327 334v958h299v-1004c0 -367 -270 -552 -626 -552z" />
    <glyph glyph-name="Ucircumflex" unicode="&#xdb;" horiz-adv-x="1590" 
d="M653 1714h-178l223 299h191l224 -299h-180l-139 196zM794 -20c-354 0 -624 185 -624 552v1004h298v-958c0 -245 141 -334 326 -334c186 0 327 89 327 334v958h299v-1004c0 -367 -270 -552 -626 -552z" />
    <glyph glyph-name="Udieresis" unicode="&#xdc;" horiz-adv-x="1590" 
d="M585 1745c-79 0 -145 64 -145 144c0 81 66 144 145 144s145 -63 145 -144c0 -80 -66 -144 -145 -144zM1005 1745c-80 0 -146 64 -146 144c0 81 66 144 146 144c79 0 144 -63 144 -144c0 -80 -65 -144 -144 -144zM794 -20c-354 0 -624 185 -624 552v1004h298v-958
c0 -245 141 -334 326 -334c186 0 327 89 327 334v958h299v-1004c0 -367 -270 -552 -626 -552z" />
    <glyph glyph-name="uni01D7" unicode="&#x1d7;" horiz-adv-x="1590" 
d="M703 2158l267 366l145 -105l-229 -261h-183zM585 1745c-79 0 -145 64 -145 144c0 81 66 144 145 144s145 -63 145 -144c0 -80 -66 -144 -145 -144zM1005 1745c-80 0 -146 64 -146 144c0 81 66 144 146 144c79 0 144 -63 144 -144c0 -80 -65 -144 -144 -144zM794 -20
c-354 0 -624 185 -624 552v1004h298v-958c0 -245 141 -334 326 -334c186 0 327 89 327 334v958h299v-1004c0 -367 -270 -552 -626 -552z" />
    <glyph glyph-name="uni01D9" unicode="&#x1d9;" horiz-adv-x="1590" 
d="M698 2199l-223 299h178l141 -197l139 197h180l-224 -299h-191zM585 1745c-79 0 -145 64 -145 144c0 81 66 144 145 144s145 -63 145 -144c0 -80 -66 -144 -145 -144zM1005 1745c-80 0 -146 64 -146 144c0 81 66 144 146 144c79 0 144 -63 144 -144
c0 -80 -65 -144 -144 -144zM794 -20c-354 0 -624 185 -624 552v1004h298v-958c0 -245 141 -334 326 -334c186 0 327 89 327 334v958h299v-1004c0 -367 -270 -552 -626 -552z" />
    <glyph glyph-name="uni01DB" unicode="&#x1db;" horiz-adv-x="1590" 
d="M703 2158l-229 261l144 105l268 -366h-183zM585 1745c-79 0 -145 64 -145 144c0 81 66 144 145 144s145 -63 145 -144c0 -80 -66 -144 -145 -144zM1005 1745c-80 0 -146 64 -146 144c0 81 66 144 146 144c79 0 144 -63 144 -144c0 -80 -65 -144 -144 -144zM794 -20
c-354 0 -624 185 -624 552v1004h298v-958c0 -245 141 -334 326 -334c186 0 327 89 327 334v958h299v-1004c0 -367 -270 -552 -626 -552z" />
    <glyph glyph-name="uni01D5" unicode="&#x1d5;" horiz-adv-x="1590" 
d="M464 2187v171h660v-171h-660zM585 1745c-79 0 -145 64 -145 144c0 81 66 144 145 144s145 -63 145 -144c0 -80 -66 -144 -145 -144zM1005 1745c-80 0 -146 64 -146 144c0 81 66 144 146 144c79 0 144 -63 144 -144c0 -80 -65 -144 -144 -144zM794 -20
c-354 0 -624 185 -624 552v1004h298v-958c0 -245 141 -334 326 -334c186 0 327 89 327 334v958h299v-1004c0 -367 -270 -552 -626 -552z" />
    <glyph glyph-name="uni1EE4" unicode="&#x1ee4;" horiz-adv-x="1590" 
d="M794 -20c-354 0 -624 185 -624 552v1004h298v-958c0 -245 141 -334 326 -334c186 0 327 89 327 334v958h299v-1004c0 -367 -270 -552 -626 -552zM795 -512c-91 0 -166 73 -166 165c0 90 75 164 166 164c89 0 164 -74 164 -164c0 -92 -75 -165 -164 -165z" />
    <glyph glyph-name="Ugrave" unicode="&#xd9;" horiz-adv-x="1590" 
d="M703 1673l-229 261l144 105l268 -366h-183zM794 -20c-354 0 -624 185 -624 552v1004h298v-958c0 -245 141 -334 326 -334c186 0 327 89 327 334v958h299v-1004c0 -367 -270 -552 -626 -552z" />
    <glyph glyph-name="uni1EE6" unicode="&#x1ee6;" horiz-adv-x="1590" 
d="M733 1610v139c76 14 113 47 113 97c0 38 -23 66 -68 66c-30 0 -61 -12 -89 -38l-69 100c43 35 99 59 171 59c123 0 200 -73 200 -180c0 -92 -57 -138 -129 -160v-83h-129zM794 -20c-354 0 -624 185 -624 552v1004h298v-958c0 -245 141 -334 326 -334
c186 0 327 89 327 334v958h299v-1004c0 -367 -270 -552 -626 -552z" />
    <glyph glyph-name="Uhorn" unicode="&#x1af;" horiz-adv-x="1590" 
d="M1582 1701h154v-173c0 -184 -99 -237 -197 -237c-34 0 -76 7 -119 22v-781c0 -367 -270 -552 -626 -552c-354 0 -624 185 -624 552v1004h298v-958c0 -245 141 -334 326 -334c186 0 327 89 327 334v958h299v-107c26 -10 48 -13 64 -13c75 0 98 47 98 133v152z" />
    <glyph glyph-name="uni1EE8" unicode="&#x1ee8;" horiz-adv-x="1590" 
d="M1115 1934l-229 -261h-183l267 366zM1582 1701h154v-173c0 -184 -99 -237 -197 -237c-34 0 -76 7 -119 22v-781c0 -367 -270 -552 -626 -552c-354 0 -624 185 -624 552v1004h298v-958c0 -245 141 -334 326 -334c186 0 327 89 327 334v958h299v-107c26 -10 48 -13 64 -13
c75 0 98 47 98 133v152z" />
    <glyph glyph-name="uni1EF0" unicode="&#x1ef0;" horiz-adv-x="1590" 
d="M1582 1701h154v-173c0 -184 -99 -237 -197 -237c-34 0 -76 7 -119 22v-781c0 -367 -270 -552 -626 -552c-354 0 -624 185 -624 552v1004h298v-958c0 -245 141 -334 326 -334c186 0 327 89 327 334v958h299v-107c26 -10 48 -13 64 -13c75 0 98 47 98 133v152zM795 -183
c89 0 164 -74 164 -164c0 -92 -75 -165 -164 -165c-91 0 -166 73 -166 165c0 90 75 164 166 164z" />
    <glyph glyph-name="uni1EEA" unicode="&#x1eea;" horiz-adv-x="1590" 
d="M886 1673h-183l-229 261l144 105zM1582 1701h154v-173c0 -184 -99 -237 -197 -237c-34 0 -76 7 -119 22v-781c0 -367 -270 -552 -626 -552c-354 0 -624 185 -624 552v1004h298v-958c0 -245 141 -334 326 -334c186 0 327 89 327 334v958h299v-107c26 -10 48 -13 64 -13
c75 0 98 47 98 133v152z" />
    <glyph glyph-name="uni1EEC" unicode="&#x1eec;" horiz-adv-x="1590" 
d="M778 1912c-30 0 -61 -12 -89 -38l-69 100c43 35 99 59 171 59c123 0 200 -73 200 -180c0 -92 -57 -138 -129 -160v-83h-129v139c76 14 113 47 113 97c0 38 -23 66 -68 66zM1582 1701h154v-173c0 -184 -99 -237 -197 -237c-34 0 -76 7 -119 22v-781
c0 -367 -270 -552 -626 -552c-354 0 -624 185 -624 552v1004h298v-958c0 -245 141 -334 326 -334c186 0 327 89 327 334v958h299v-107c26 -10 48 -13 64 -13c75 0 98 47 98 133v152z" />
    <glyph glyph-name="uni1EEE" unicode="&#x1eee;" horiz-adv-x="1590" 
d="M662 1879c-57 0 -85 -65 -85 -149h-147c0 170 85 293 226 293c90 0 155 -51 197 -116c18 -26 38 -47 74 -47c56 0 82 57 82 150h147c0 -166 -78 -294 -227 -294c-87 0 -149 43 -197 116c-22 34 -43 47 -70 47zM1582 1701h154v-173c0 -184 -99 -237 -197 -237
c-34 0 -76 7 -119 22v-781c0 -367 -270 -552 -626 -552c-354 0 -624 185 -624 552v1004h298v-958c0 -245 141 -334 326 -334c186 0 327 89 327 334v958h299v-107c26 -10 48 -13 64 -13c75 0 98 47 98 133v152z" />
    <glyph glyph-name="Uhungarumlaut" unicode="&#x170;" horiz-adv-x="1590" 
d="M517 1673l267 366l144 -105l-229 -261h-182zM889 1673l267 366l145 -105l-229 -261h-183zM794 -20c-354 0 -624 185 -624 552v1004h298v-958c0 -245 141 -334 326 -334c186 0 327 89 327 334v958h299v-1004c0 -367 -270 -552 -626 -552z" />
    <glyph glyph-name="Umacron" unicode="&#x16a;" horiz-adv-x="1590" 
d="M464 1702v171h660v-171h-660zM794 -20c-354 0 -624 185 -624 552v1004h298v-958c0 -245 141 -334 326 -334c186 0 327 89 327 334v958h299v-1004c0 -367 -270 -552 -626 -552z" />
    <glyph glyph-name="Uogonek" unicode="&#x172;" horiz-adv-x="1590" 
d="M1121 1536h299v-1004c0 -282 -159 -456 -394 -522c-88 -62 -148 -144 -148 -217c0 -63 45 -92 100 -92c40 0 86 16 123 47v-196c-48 -20 -100 -29 -150 -28c-168 2 -259 95 -259 219c0 85 42 170 120 237h-18c-354 0 -624 185 -624 552v1004h298v-958
c0 -245 141 -334 326 -334c186 0 327 89 327 334v958z" />
    <glyph glyph-name="Uring" unicode="&#x16e;" horiz-adv-x="1590" 
d="M794 1650c-133 0 -243 109 -243 242c0 131 110 240 243 240c132 0 239 -109 239 -240c0 -133 -107 -242 -239 -242zM794 1773c65 0 117 48 117 119c0 63 -52 120 -117 120c-66 0 -115 -57 -115 -120c0 -71 49 -119 115 -119zM794 -20c-354 0 -624 185 -624 552v1004h298
v-958c0 -245 141 -334 326 -334c186 0 327 89 327 334v958h299v-1004c0 -367 -270 -552 -626 -552z" />
    <glyph glyph-name="Utilde" unicode="&#x168;" horiz-adv-x="1590" 
d="M929 1716c-87 0 -149 43 -197 116c-22 34 -43 47 -70 47c-57 0 -85 -65 -85 -149h-147c0 170 85 293 226 293c90 0 155 -51 197 -116c18 -26 38 -47 74 -47c56 0 82 57 82 150h147c0 -166 -78 -294 -227 -294zM794 -20c-354 0 -624 185 -624 552v1004h298v-958
c0 -245 141 -334 326 -334c186 0 327 89 327 334v958h299v-1004c0 -367 -270 -552 -626 -552z" />
    <glyph glyph-name="V" unicode="V" horiz-adv-x="1557" 
d="M1199 1536h315l-582 -1536h-308l-581 1536h315l420 -1177z" />
    <glyph glyph-name="W" unicode="W" horiz-adv-x="2271" 
d="M471 0l-414 1536h310l302 -1183l335 1183h262l336 -1183l301 1183h311l-414 -1536h-352l-312 1065l-313 -1065h-352z" />
    <glyph glyph-name="Wacute" unicode="&#x1e82;" horiz-adv-x="2271" 
d="M1045 1673l267 366l145 -105l-229 -261h-183zM471 0l-414 1536h310l302 -1183l335 1183h262l336 -1183l301 1183h311l-414 -1536h-352l-312 1065l-313 -1065h-352z" />
    <glyph glyph-name="Wcircumflex" unicode="&#x174;" horiz-adv-x="2271" 
d="M995 1714h-178l223 299h191l224 -299h-180l-139 196zM471 0l-414 1536h310l302 -1183l335 1183h262l336 -1183l301 1183h311l-414 -1536h-352l-312 1065l-313 -1065h-352z" />
    <glyph glyph-name="Wdieresis" unicode="&#x1e84;" horiz-adv-x="2271" 
d="M927 1745c-79 0 -145 64 -145 144c0 81 66 144 145 144s145 -63 145 -144c0 -80 -66 -144 -145 -144zM1347 1745c-80 0 -146 64 -146 144c0 81 66 144 146 144c79 0 144 -63 144 -144c0 -80 -65 -144 -144 -144zM471 0l-414 1536h310l302 -1183l335 1183h262l336 -1183
l301 1183h311l-414 -1536h-352l-312 1065l-313 -1065h-352z" />
    <glyph glyph-name="Wgrave" unicode="&#x1e80;" horiz-adv-x="2271" 
d="M1045 1673l-229 261l144 105l268 -366h-183zM471 0l-414 1536h310l302 -1183l335 1183h262l336 -1183l301 1183h311l-414 -1536h-352l-312 1065l-313 -1065h-352z" />
    <glyph glyph-name="X" unicode="X" horiz-adv-x="1473" 
d="M1427 0h-345l-346 543l-345 -543h-345l529 788l-503 748h345l319 -500l321 500h343l-503 -747z" />
    <glyph glyph-name="Y" unicode="Y" horiz-adv-x="1434" 
d="M1404 1536l-536 -810v-726h-298v722l-539 814h341l347 -553l348 553h337z" />
    <glyph glyph-name="Yacute" unicode="&#xdd;" horiz-adv-x="1434" 
d="M1040 1934l-229 -261h-183l267 366zM1404 1536l-536 -810v-726h-298v722l-539 814h341l347 -553l348 553h337z" />
    <glyph glyph-name="Ycircumflex" unicode="&#x176;" horiz-adv-x="1434" 
d="M719 1910l-141 -196h-178l223 299h191l224 -299h-180zM1404 1536l-536 -810v-726h-298v722l-539 814h341l347 -553l348 553h337z" />
    <glyph glyph-name="Ydieresis" unicode="&#x178;" horiz-adv-x="1434" 
d="M510 1745c-79 0 -145 64 -145 144c0 81 66 144 145 144s145 -63 145 -144c0 -80 -66 -144 -145 -144zM930 1745c-80 0 -146 64 -146 144c0 81 66 144 146 144c79 0 144 -63 144 -144c0 -80 -65 -144 -144 -144zM1404 1536l-536 -810v-726h-298v722l-539 814h341l347 -553
l348 553h337z" />
    <glyph glyph-name="uni1EF4" unicode="&#x1ef4;" horiz-adv-x="1434" 
d="M570 0v722l-539 814h341l347 -553l348 553h337l-536 -810v-726h-298zM720 -183c89 0 164 -74 164 -164c0 -92 -75 -165 -164 -165c-91 0 -166 73 -166 165c0 90 75 164 166 164z" />
    <glyph glyph-name="Ygrave" unicode="&#x1ef2;" horiz-adv-x="1434" 
d="M811 1673h-183l-229 261l144 105zM1404 1536l-536 -810v-726h-298v722l-539 814h341l347 -553l348 553h337z" />
    <glyph glyph-name="uni1EF6" unicode="&#x1ef6;" horiz-adv-x="1434" 
d="M703 1912c-30 0 -61 -12 -89 -38l-69 100c43 35 99 59 171 59c123 0 200 -73 200 -180c0 -92 -57 -138 -129 -160v-83h-129v139c76 14 113 47 113 97c0 38 -23 66 -68 66zM1404 1536l-536 -810v-726h-298v722l-539 814h341l347 -553l348 553h337z" />
    <glyph glyph-name="uni1EF8" unicode="&#x1ef8;" horiz-adv-x="1434" 
d="M587 1879c-57 0 -85 -65 -85 -149h-147c0 170 85 293 226 293c90 0 155 -51 197 -116c18 -26 38 -47 74 -47c56 0 82 57 82 150h147c0 -166 -78 -294 -227 -294c-87 0 -149 43 -197 116c-22 34 -43 47 -70 47zM1404 1536l-536 -810v-726h-298v722l-539 814h341l347 -553
l348 553h337z" />
    <glyph glyph-name="Z" unicode="Z" horiz-adv-x="1272" 
d="M1167 1536v-239l-704 -1032h704v-265h-1062v237l707 1034h-707v265h1062z" />
    <glyph glyph-name="Zacute" unicode="&#x179;" horiz-adv-x="1272" 
d="M988 1934l-229 -261h-183l267 366zM1167 1536v-239l-704 -1032h704v-265h-1062v237l707 1034h-707v265h1062z" />
    <glyph glyph-name="Zcaron" unicode="&#x17d;" horiz-adv-x="1272" 
d="M762 1714h-191l-223 299h178l141 -197l139 197h180zM1167 1536v-239l-704 -1032h704v-265h-1062v237l707 1034h-707v265h1062z" />
    <glyph glyph-name="Zdotaccent" unicode="&#x17b;" horiz-adv-x="1272" 
d="M668 1705c-91 0 -166 74 -166 165s75 163 166 163c89 0 164 -72 164 -163s-75 -165 -164 -165zM1167 1536v-239l-704 -1032h704v-265h-1062v237l707 1034h-707v265h1062z" />
    <glyph glyph-name="a" unicode="a" horiz-adv-x="1384" 
d="M587 -22c-277 0 -513 234 -513 554c0 319 236 552 513 552c157 0 275 -63 351 -159l1 134h285v-1059h-286v135c-76 -94 -193 -157 -351 -157zM665 221c170 0 304 126 304 311c0 184 -134 309 -304 309c-171 0 -306 -125 -306 -309c0 -185 135 -311 306 -311z" />
    <glyph glyph-name="a.ss01" horiz-adv-x="1177" 
d="M580 1078c273 0 465 -114 465 -381v-697h-258l-13 112h-9c-79 -80 -187 -132 -324 -132c-192 0 -369 101 -369 331c0 209 145 332 388 332h299v18c0 141 -100 197 -240 197c-93 0 -205 -24 -316 -61l-67 202c156 54 313 79 444 79zM529 182c90 0 172 46 230 124v161h-204
c-138 0 -198 -51 -198 -144c0 -106 90 -141 172 -141z" />
    <glyph glyph-name="aacute" unicode="&#xe1;" horiz-adv-x="1384" 
d="M602 1196l267 366l145 -105l-229 -261h-183zM587 -22c-277 0 -513 234 -513 554c0 319 236 552 513 552c157 0 275 -63 351 -159l1 134h285v-1059h-286v135c-76 -94 -193 -157 -351 -157zM665 221c170 0 304 126 304 311c0 184 -134 309 -304 309
c-171 0 -306 -125 -306 -309c0 -185 135 -311 306 -311z" />
    <glyph glyph-name="aacute.ss01" horiz-adv-x="1177" 
d="M914 1457l-229 -261h-183l267 366zM580 1078c273 0 465 -114 465 -381v-697h-258l-13 112h-9c-79 -80 -187 -132 -324 -132c-192 0 -369 101 -369 331c0 209 145 332 388 332h299v18c0 141 -100 197 -240 197c-93 0 -205 -24 -316 -61l-67 202c156 54 313 79 444 79z
M529 182c90 0 172 46 230 124v161h-204c-138 0 -198 -51 -198 -144c0 -106 90 -141 172 -141z" />
    <glyph glyph-name="abreve" unicode="&#x103;" horiz-adv-x="1384" 
d="M692 1186c-214 0 -364 119 -364 350h165c0 -128 78 -217 199 -217c122 0 201 89 201 217h165c0 -231 -150 -350 -366 -350zM587 -22c-277 0 -513 234 -513 554c0 319 236 552 513 552c157 0 275 -63 351 -159l1 134h285v-1059h-286v135c-76 -94 -193 -157 -351 -157z
M665 221c170 0 304 126 304 311c0 184 -134 309 -304 309c-171 0 -306 -125 -306 -309c0 -185 135 -311 306 -311z" />
    <glyph glyph-name="abreve.ss01" horiz-adv-x="1177" 
d="M592 1186c-214 0 -364 119 -364 350h165c0 -128 78 -217 199 -217c122 0 201 89 201 217h165c0 -231 -150 -350 -366 -350zM580 1078c273 0 465 -114 465 -381v-697h-258l-13 112h-9c-79 -80 -187 -132 -324 -132c-192 0 -369 101 -369 331c0 209 145 332 388 332h299v18
c0 141 -100 197 -240 197c-93 0 -205 -24 -316 -61l-67 202c156 54 313 79 444 79zM529 182c90 0 172 46 230 124v161h-204c-138 0 -198 -51 -198 -144c0 -106 90 -141 172 -141z" />
    <glyph glyph-name="uni1EAF" unicode="&#x1eaf;" horiz-adv-x="1384" 
d="M602 1673l267 366l145 -105l-229 -261h-183zM692 1186c-214 0 -364 119 -364 350h165c0 -128 78 -217 199 -217c122 0 201 89 201 217h165c0 -231 -150 -350 -366 -350zM587 -22c-277 0 -513 234 -513 554c0 319 236 552 513 552c157 0 275 -63 351 -159l1 134h285v-1059
h-286v135c-76 -94 -193 -157 -351 -157zM665 221c170 0 304 126 304 311c0 184 -134 309 -304 309c-171 0 -306 -125 -306 -309c0 -185 135 -311 306 -311z" />
    <glyph glyph-name="uni1EAF.ss01" horiz-adv-x="1177" 
d="M914 1934l-229 -261h-183l267 366zM592 1186c-214 0 -364 119 -364 350h165c0 -128 78 -217 199 -217c122 0 201 89 201 217h165c0 -231 -150 -350 -366 -350zM580 1078c273 0 465 -114 465 -381v-697h-258l-13 112h-9c-79 -80 -187 -132 -324 -132
c-192 0 -369 101 -369 331c0 209 145 332 388 332h299v18c0 141 -100 197 -240 197c-93 0 -205 -24 -316 -61l-67 202c156 54 313 79 444 79zM529 182c90 0 172 46 230 124v161h-204c-138 0 -198 -51 -198 -144c0 -106 90 -141 172 -141z" />
    <glyph glyph-name="uni1EB7" unicode="&#x1eb7;" horiz-adv-x="1384" 
d="M692 1186c-214 0 -364 119 -364 350h165c0 -128 78 -217 199 -217c122 0 201 89 201 217h165c0 -231 -150 -350 -366 -350zM587 -22c-277 0 -513 234 -513 554c0 319 236 552 513 552c157 0 275 -63 351 -159l1 134h285v-1059h-286v135c-76 -94 -193 -157 -351 -157z
M665 221c170 0 304 126 304 311c0 184 -134 309 -304 309c-171 0 -306 -125 -306 -309c0 -185 135 -311 306 -311zM694 -512c-91 0 -166 73 -166 165c0 90 75 164 166 164c89 0 164 -74 164 -164c0 -92 -75 -165 -164 -165z" />
    <glyph glyph-name="uni1EB7.ss01" horiz-adv-x="1177" 
d="M592 1186c-214 0 -364 119 -364 350h165c0 -128 78 -217 199 -217c122 0 201 89 201 217h165c0 -231 -150 -350 -366 -350zM580 1078c273 0 465 -114 465 -381v-697h-258l-13 112h-9c-79 -80 -187 -132 -324 -132c-192 0 -369 101 -369 331c0 209 145 332 388 332h299v18
c0 141 -100 197 -240 197c-93 0 -205 -24 -316 -61l-67 202c156 54 313 79 444 79zM529 182c90 0 172 46 230 124v161h-204c-138 0 -198 -51 -198 -144c0 -106 90 -141 172 -141zM594 -183c89 0 164 -74 164 -164c0 -92 -75 -165 -164 -165c-91 0 -166 73 -166 165
c0 90 75 164 166 164z" />
    <glyph glyph-name="uni1EB1" unicode="&#x1eb1;" horiz-adv-x="1384" 
d="M602 1673l-229 261l144 105l268 -366h-183zM692 1186c-214 0 -364 119 -364 350h165c0 -128 78 -217 199 -217c122 0 201 89 201 217h165c0 -231 -150 -350 -366 -350zM587 -22c-277 0 -513 234 -513 554c0 319 236 552 513 552c157 0 275 -63 351 -159l1 134h285v-1059
h-286v135c-76 -94 -193 -157 -351 -157zM665 221c170 0 304 126 304 311c0 184 -134 309 -304 309c-171 0 -306 -125 -306 -309c0 -185 135 -311 306 -311z" />
    <glyph glyph-name="uni1EB1.ss01" horiz-adv-x="1177" 
d="M685 1673h-183l-229 261l144 105zM592 1186c-214 0 -364 119 -364 350h165c0 -128 78 -217 199 -217c122 0 201 89 201 217h165c0 -231 -150 -350 -366 -350zM580 1078c273 0 465 -114 465 -381v-697h-258l-13 112h-9c-79 -80 -187 -132 -324 -132
c-192 0 -369 101 -369 331c0 209 145 332 388 332h299v18c0 141 -100 197 -240 197c-93 0 -205 -24 -316 -61l-67 202c156 54 313 79 444 79zM529 182c90 0 172 46 230 124v161h-204c-138 0 -198 -51 -198 -144c0 -106 90 -141 172 -141z" />
    <glyph glyph-name="uni1EB3" unicode="&#x1eb3;" horiz-adv-x="1384" 
d="M632 1610v139c76 14 113 47 113 97c0 38 -23 66 -68 66c-30 0 -61 -12 -89 -38l-69 100c43 35 99 59 171 59c123 0 200 -73 200 -180c0 -92 -57 -138 -129 -160v-83h-129zM692 1186c-214 0 -364 119 -364 350h165c0 -128 78 -217 199 -217c122 0 201 89 201 217h165
c0 -231 -150 -350 -366 -350zM587 -22c-277 0 -513 234 -513 554c0 319 236 552 513 552c157 0 275 -63 351 -159l1 134h285v-1059h-286v135c-76 -94 -193 -157 -351 -157zM665 221c170 0 304 126 304 311c0 184 -134 309 -304 309c-171 0 -306 -125 -306 -309
c0 -185 135 -311 306 -311z" />
    <glyph glyph-name="uni1EB3.ss01" horiz-adv-x="1177" 
d="M577 1912c-30 0 -61 -12 -89 -38l-69 100c43 35 99 59 171 59c123 0 200 -73 200 -180c0 -92 -57 -138 -129 -160v-83h-129v139c76 14 113 47 113 97c0 38 -23 66 -68 66zM592 1186c-214 0 -364 119 -364 350h165c0 -128 78 -217 199 -217c122 0 201 89 201 217h165
c0 -231 -150 -350 -366 -350zM580 1078c273 0 465 -114 465 -381v-697h-258l-13 112h-9c-79 -80 -187 -132 -324 -132c-192 0 -369 101 -369 331c0 209 145 332 388 332h299v18c0 141 -100 197 -240 197c-93 0 -205 -24 -316 -61l-67 202c156 54 313 79 444 79zM529 182
c90 0 172 46 230 124v161h-204c-138 0 -198 -51 -198 -144c0 -106 90 -141 172 -141z" />
    <glyph glyph-name="uni1EB5" unicode="&#x1eb5;" horiz-adv-x="1384" 
d="M828 1716c-87 0 -149 43 -197 116c-22 34 -43 47 -70 47c-57 0 -85 -65 -85 -149h-147c0 170 85 293 226 293c90 0 155 -51 197 -116c18 -26 38 -47 74 -47c56 0 82 57 82 150h147c0 -166 -78 -294 -227 -294zM692 1186c-214 0 -364 119 -364 350h165
c0 -128 78 -217 199 -217c122 0 201 89 201 217h165c0 -231 -150 -350 -366 -350zM587 -22c-277 0 -513 234 -513 554c0 319 236 552 513 552c157 0 275 -63 351 -159l1 134h285v-1059h-286v135c-76 -94 -193 -157 -351 -157zM665 221c170 0 304 126 304 311
c0 184 -134 309 -304 309c-171 0 -306 -125 -306 -309c0 -185 135 -311 306 -311z" />
    <glyph glyph-name="uni1EB5.ss01" horiz-adv-x="1177" 
d="M461 1879c-57 0 -85 -65 -85 -149h-147c0 170 85 293 226 293c90 0 155 -51 197 -116c18 -26 38 -47 74 -47c56 0 82 57 82 150h147c0 -166 -78 -294 -227 -294c-87 0 -149 43 -197 116c-22 34 -43 47 -70 47zM592 1186c-214 0 -364 119 -364 350h165
c0 -128 78 -217 199 -217c122 0 201 89 201 217h165c0 -231 -150 -350 -366 -350zM580 1078c273 0 465 -114 465 -381v-697h-258l-13 112h-9c-79 -80 -187 -132 -324 -132c-192 0 -369 101 -369 331c0 209 145 332 388 332h299v18c0 141 -100 197 -240 197
c-93 0 -205 -24 -316 -61l-67 202c156 54 313 79 444 79zM529 182c90 0 172 46 230 124v161h-204c-138 0 -198 -51 -198 -144c0 -106 90 -141 172 -141z" />
    <glyph glyph-name="uni01CE" unicode="&#x1ce;" horiz-adv-x="1384" 
d="M597 1237l-223 299h178l141 -197l139 197h180l-224 -299h-191zM587 -22c-277 0 -513 234 -513 554c0 319 236 552 513 552c157 0 275 -63 351 -159l1 134h285v-1059h-286v135c-76 -94 -193 -157 -351 -157zM665 221c170 0 304 126 304 311c0 184 -134 309 -304 309
c-171 0 -306 -125 -306 -309c0 -185 135 -311 306 -311z" />
    <glyph glyph-name="uni01CE.ss01" horiz-adv-x="1177" 
d="M688 1237h-191l-223 299h178l141 -197l139 197h180zM580 1078c273 0 465 -114 465 -381v-697h-258l-13 112h-9c-79 -80 -187 -132 -324 -132c-192 0 -369 101 -369 331c0 209 145 332 388 332h299v18c0 141 -100 197 -240 197c-93 0 -205 -24 -316 -61l-67 202
c156 54 313 79 444 79zM529 182c90 0 172 46 230 124v161h-204c-138 0 -198 -51 -198 -144c0 -106 90 -141 172 -141z" />
    <glyph glyph-name="acircumflex" unicode="&#xe2;" horiz-adv-x="1384" 
d="M552 1237h-178l223 299h191l224 -299h-180l-139 196zM587 -22c-277 0 -513 234 -513 554c0 319 236 552 513 552c157 0 275 -63 351 -159l1 134h285v-1059h-286v135c-76 -94 -193 -157 -351 -157zM665 221c170 0 304 126 304 311c0 184 -134 309 -304 309
c-171 0 -306 -125 -306 -309c0 -185 135 -311 306 -311z" />
    <glyph glyph-name="acircumflex.ss01" horiz-adv-x="1177" 
d="M593 1433l-141 -196h-178l223 299h191l224 -299h-180zM580 1078c273 0 465 -114 465 -381v-697h-258l-13 112h-9c-79 -80 -187 -132 -324 -132c-192 0 -369 101 -369 331c0 209 145 332 388 332h299v18c0 141 -100 197 -240 197c-93 0 -205 -24 -316 -61l-67 202
c156 54 313 79 444 79zM529 182c90 0 172 46 230 124v161h-204c-138 0 -198 -51 -198 -144c0 -106 90 -141 172 -141z" />
    <glyph glyph-name="uni1EA5" unicode="&#x1ea5;" horiz-adv-x="1384" 
d="M601 1673l267 366l145 -105l-229 -261h-183zM552 1237h-178l223 299h191l224 -299h-180l-139 196zM587 -22c-277 0 -513 234 -513 554c0 319 236 552 513 552c157 0 275 -63 351 -159l1 134h285v-1059h-286v135c-76 -94 -193 -157 -351 -157zM665 221
c170 0 304 126 304 311c0 184 -134 309 -304 309c-171 0 -306 -125 -306 -309c0 -185 135 -311 306 -311z" />
    <glyph glyph-name="uni1EA5.ss01" horiz-adv-x="1177" 
d="M913 1934l-229 -261h-183l267 366zM593 1433l-141 -196h-178l223 299h191l224 -299h-180zM580 1078c273 0 465 -114 465 -381v-697h-258l-13 112h-9c-79 -80 -187 -132 -324 -132c-192 0 -369 101 -369 331c0 209 145 332 388 332h299v18c0 141 -100 197 -240 197
c-93 0 -205 -24 -316 -61l-67 202c156 54 313 79 444 79zM529 182c90 0 172 46 230 124v161h-204c-138 0 -198 -51 -198 -144c0 -106 90 -141 172 -141z" />
    <glyph glyph-name="uni1EAD" unicode="&#x1ead;" horiz-adv-x="1384" 
d="M552 1237h-178l223 299h191l224 -299h-180l-139 196zM587 -22c-277 0 -513 234 -513 554c0 319 236 552 513 552c157 0 275 -63 351 -159l1 134h285v-1059h-286v135c-76 -94 -193 -157 -351 -157zM665 221c170 0 304 126 304 311c0 184 -134 309 -304 309
c-171 0 -306 -125 -306 -309c0 -185 135 -311 306 -311zM694 -512c-91 0 -166 73 -166 165c0 90 75 164 166 164c89 0 164 -74 164 -164c0 -92 -75 -165 -164 -165z" />
    <glyph glyph-name="uni1EAD.ss01" horiz-adv-x="1177" 
d="M593 1433l-141 -196h-178l223 299h191l224 -299h-180zM580 1078c273 0 465 -114 465 -381v-697h-258l-13 112h-9c-79 -80 -187 -132 -324 -132c-192 0 -369 101 -369 331c0 209 145 332 388 332h299v18c0 141 -100 197 -240 197c-93 0 -205 -24 -316 -61l-67 202
c156 54 313 79 444 79zM529 182c90 0 172 46 230 124v161h-204c-138 0 -198 -51 -198 -144c0 -106 90 -141 172 -141zM594 -183c89 0 164 -74 164 -164c0 -92 -75 -165 -164 -165c-91 0 -166 73 -166 165c0 90 75 164 166 164z" />
    <glyph glyph-name="uni1EA7" unicode="&#x1ea7;" horiz-adv-x="1384" 
d="M601 1673l-229 261l144 105l268 -366h-183zM552 1237h-178l223 299h191l224 -299h-180l-139 196zM587 -22c-277 0 -513 234 -513 554c0 319 236 552 513 552c157 0 275 -63 351 -159l1 134h285v-1059h-286v135c-76 -94 -193 -157 -351 -157zM665 221
c170 0 304 126 304 311c0 184 -134 309 -304 309c-171 0 -306 -125 -306 -309c0 -185 135 -311 306 -311z" />
    <glyph glyph-name="uni1EA7.ss01" horiz-adv-x="1177" 
d="M684 1673h-183l-229 261l144 105zM274 1237l223 299h191l224 -299h-180l-139 196l-141 -196h-178zM580 1078c273 0 465 -114 465 -381v-697h-258l-13 112h-9c-79 -80 -187 -132 -324 -132c-192 0 -369 101 -369 331c0 209 145 332 388 332h299v18
c0 141 -100 197 -240 197c-93 0 -205 -24 -316 -61l-67 202c156 54 313 79 444 79zM529 182c90 0 172 46 230 124v161h-204c-138 0 -198 -51 -198 -144c0 -106 90 -141 172 -141z" />
    <glyph glyph-name="uni1EA9" unicode="&#x1ea9;" horiz-adv-x="1384" 
d="M631 1610v139c76 14 113 47 113 97c0 38 -23 66 -68 66c-30 0 -61 -12 -89 -38l-69 100c43 35 99 59 171 59c123 0 200 -73 200 -180c0 -92 -57 -138 -129 -160v-83h-129zM552 1237h-178l223 299h191l224 -299h-180l-139 196zM587 -22c-277 0 -513 234 -513 554
c0 319 236 552 513 552c157 0 275 -63 351 -159l1 134h285v-1059h-286v135c-76 -94 -193 -157 -351 -157zM665 221c170 0 304 126 304 311c0 184 -134 309 -304 309c-171 0 -306 -125 -306 -309c0 -185 135 -311 306 -311z" />
    <glyph glyph-name="uni1EA9.ss01" horiz-adv-x="1177" 
d="M576 1912c-30 0 -61 -12 -89 -38l-69 100c43 35 99 59 171 59c123 0 200 -73 200 -180c0 -92 -57 -138 -129 -160v-83h-129v139c76 14 113 47 113 97c0 38 -23 66 -68 66zM593 1433l-141 -196h-178l223 299h191l224 -299h-180zM580 1078c273 0 465 -114 465 -381v-697
h-258l-13 112h-9c-79 -80 -187 -132 -324 -132c-192 0 -369 101 -369 331c0 209 145 332 388 332h299v18c0 141 -100 197 -240 197c-93 0 -205 -24 -316 -61l-67 202c156 54 313 79 444 79zM529 182c90 0 172 46 230 124v161h-204c-138 0 -198 -51 -198 -144
c0 -106 90 -141 172 -141z" />
    <glyph glyph-name="uni1EAB" unicode="&#x1eab;" horiz-adv-x="1384" 
d="M827 1716c-87 0 -149 43 -197 116c-22 34 -43 47 -70 47c-57 0 -85 -65 -85 -149h-147c0 170 85 293 226 293c90 0 155 -51 197 -116c18 -26 38 -47 74 -47c56 0 82 57 82 150h147c0 -166 -78 -294 -227 -294zM552 1237h-178l223 299h191l224 -299h-180l-139 196z
M587 -22c-277 0 -513 234 -513 554c0 319 236 552 513 552c157 0 275 -63 351 -159l1 134h285v-1059h-286v135c-76 -94 -193 -157 -351 -157zM665 221c170 0 304 126 304 311c0 184 -134 309 -304 309c-171 0 -306 -125 -306 -309c0 -185 135 -311 306 -311z" />
    <glyph glyph-name="uni1EAB.ss01" horiz-adv-x="1177" 
d="M460 1879c-57 0 -85 -65 -85 -149h-147c0 170 85 293 226 293c90 0 155 -51 197 -116c18 -26 38 -47 74 -47c56 0 82 57 82 150h147c0 -166 -78 -294 -227 -294c-87 0 -149 43 -197 116c-22 34 -43 47 -70 47zM497 1536h191l224 -299h-180l-139 196l-141 -196h-178z
M580 1078c273 0 465 -114 465 -381v-697h-258l-13 112h-9c-79 -80 -187 -132 -324 -132c-192 0 -369 101 -369 331c0 209 145 332 388 332h299v18c0 141 -100 197 -240 197c-93 0 -205 -24 -316 -61l-67 202c156 54 313 79 444 79zM529 182c90 0 172 46 230 124v161h-204
c-138 0 -198 -51 -198 -144c0 -106 90 -141 172 -141z" />
    <glyph glyph-name="adieresis" unicode="&#xe4;" horiz-adv-x="1384" 
d="M484 1268c-79 0 -145 64 -145 144c0 81 66 144 145 144s145 -63 145 -144c0 -80 -66 -144 -145 -144zM904 1268c-80 0 -146 64 -146 144c0 81 66 144 146 144c79 0 144 -63 144 -144c0 -80 -65 -144 -144 -144zM587 -22c-277 0 -513 234 -513 554c0 319 236 552 513 552
c157 0 275 -63 351 -159l1 134h285v-1059h-286v135c-76 -94 -193 -157 -351 -157zM665 221c170 0 304 126 304 311c0 184 -134 309 -304 309c-171 0 -306 -125 -306 -309c0 -185 135 -311 306 -311z" />
    <glyph glyph-name="adieresis.ss01" horiz-adv-x="1177" 
d="M384 1268c-79 0 -145 64 -145 144c0 81 66 144 145 144s145 -63 145 -144c0 -80 -66 -144 -145 -144zM804 1268c-80 0 -146 64 -146 144c0 81 66 144 146 144c79 0 144 -63 144 -144c0 -80 -65 -144 -144 -144zM580 1078c273 0 465 -114 465 -381v-697h-258l-13 112h-9
c-79 -80 -187 -132 -324 -132c-192 0 -369 101 -369 331c0 209 145 332 388 332h299v18c0 141 -100 197 -240 197c-93 0 -205 -24 -316 -61l-67 202c156 54 313 79 444 79zM529 182c90 0 172 46 230 124v161h-204c-138 0 -198 -51 -198 -144c0 -106 90 -141 172 -141z" />
    <glyph glyph-name="uni1EA1" unicode="&#x1ea1;" horiz-adv-x="1384" 
d="M587 -22c-277 0 -513 234 -513 554c0 319 236 552 513 552c157 0 275 -63 351 -159l1 134h285v-1059h-286v135c-76 -94 -193 -157 -351 -157zM665 221c170 0 304 126 304 311c0 184 -134 309 -304 309c-171 0 -306 -125 -306 -309c0 -185 135 -311 306 -311zM694 -512
c-91 0 -166 73 -166 165c0 90 75 164 166 164c89 0 164 -74 164 -164c0 -92 -75 -165 -164 -165z" />
    <glyph glyph-name="uni1EA1.ss01" horiz-adv-x="1177" 
d="M580 1078c273 0 465 -114 465 -381v-697h-258l-13 112h-9c-79 -80 -187 -132 -324 -132c-192 0 -369 101 -369 331c0 209 145 332 388 332h299v18c0 141 -100 197 -240 197c-93 0 -205 -24 -316 -61l-67 202c156 54 313 79 444 79zM529 182c90 0 172 46 230 124v161h-204
c-138 0 -198 -51 -198 -144c0 -106 90 -141 172 -141zM594 -183c89 0 164 -74 164 -164c0 -92 -75 -165 -164 -165c-91 0 -166 73 -166 165c0 90 75 164 166 164z" />
    <glyph glyph-name="agrave" unicode="&#xe0;" horiz-adv-x="1384" 
d="M602 1196l-229 261l144 105l268 -366h-183zM587 -22c-277 0 -513 234 -513 554c0 319 236 552 513 552c157 0 275 -63 351 -159l1 134h285v-1059h-286v135c-76 -94 -193 -157 -351 -157zM665 221c170 0 304 126 304 311c0 184 -134 309 -304 309
c-171 0 -306 -125 -306 -309c0 -185 135 -311 306 -311z" />
    <glyph glyph-name="agrave.ss01" horiz-adv-x="1177" 
d="M685 1196h-183l-229 261l144 105zM580 1078c273 0 465 -114 465 -381v-697h-258l-13 112h-9c-79 -80 -187 -132 -324 -132c-192 0 -369 101 -369 331c0 209 145 332 388 332h299v18c0 141 -100 197 -240 197c-93 0 -205 -24 -316 -61l-67 202c156 54 313 79 444 79z
M529 182c90 0 172 46 230 124v161h-204c-138 0 -198 -51 -198 -144c0 -106 90 -141 172 -141z" />
    <glyph glyph-name="uni1EA3" unicode="&#x1ea3;" horiz-adv-x="1384" 
d="M632 1133v139c76 14 113 47 113 97c0 38 -23 66 -68 66c-30 0 -61 -12 -89 -38l-69 100c43 35 99 59 171 59c123 0 200 -73 200 -180c0 -92 -57 -138 -129 -160v-83h-129zM587 -22c-277 0 -513 234 -513 554c0 319 236 552 513 552c157 0 275 -63 351 -159l1 134h285
v-1059h-286v135c-76 -94 -193 -157 -351 -157zM665 221c170 0 304 126 304 311c0 184 -134 309 -304 309c-171 0 -306 -125 -306 -309c0 -185 135 -311 306 -311z" />
    <glyph glyph-name="uni1EA3.ss01" horiz-adv-x="1177" 
d="M577 1435c-30 0 -61 -12 -89 -38l-69 100c43 35 99 59 171 59c123 0 200 -73 200 -180c0 -92 -57 -138 -129 -160v-83h-129v139c76 14 113 47 113 97c0 38 -23 66 -68 66zM580 1078c273 0 465 -114 465 -381v-697h-258l-13 112h-9c-79 -80 -187 -132 -324 -132
c-192 0 -369 101 -369 331c0 209 145 332 388 332h299v18c0 141 -100 197 -240 197c-93 0 -205 -24 -316 -61l-67 202c156 54 313 79 444 79zM529 182c90 0 172 46 230 124v161h-204c-138 0 -198 -51 -198 -144c0 -106 90 -141 172 -141z" />
    <glyph glyph-name="amacron" unicode="&#x101;" horiz-adv-x="1384" 
d="M363 1225v171h660v-171h-660zM587 -22c-277 0 -513 234 -513 554c0 319 236 552 513 552c157 0 275 -63 351 -159l1 134h285v-1059h-286v135c-76 -94 -193 -157 -351 -157zM665 221c170 0 304 126 304 311c0 184 -134 309 -304 309c-171 0 -306 -125 -306 -309
c0 -185 135 -311 306 -311z" />
    <glyph glyph-name="amacron.ss01" horiz-adv-x="1177" 
d="M923 1396v-171h-660v171h660zM580 1078c273 0 465 -114 465 -381v-697h-258l-13 112h-9c-79 -80 -187 -132 -324 -132c-192 0 -369 101 -369 331c0 209 145 332 388 332h299v18c0 141 -100 197 -240 197c-93 0 -205 -24 -316 -61l-67 202c156 54 313 79 444 79zM529 182
c90 0 172 46 230 124v161h-204c-138 0 -198 -51 -198 -144c0 -106 90 -141 172 -141z" />
    <glyph glyph-name="aogonek" unicode="&#x105;" horiz-adv-x="1384" 
d="M1224 0c-127 -61 -223 -169 -223 -261c0 -63 45 -92 100 -92c40 0 86 16 123 47v-196c-48 -20 -100 -29 -150 -28c-168 2 -259 95 -259 219c0 120 84 240 234 311h-111v135c-76 -94 -193 -157 -351 -157c-277 0 -513 234 -513 554c0 319 236 552 513 552
c157 0 275 -63 351 -159l1 134h285v-1059zM665 221c170 0 304 126 304 311c0 184 -134 309 -304 309c-171 0 -306 -125 -306 -309c0 -185 135 -311 306 -311z" />
    <glyph glyph-name="aogonek.ss01" horiz-adv-x="1177" 
d="M1045 0c-127 -61 -223 -169 -223 -261c0 -63 45 -92 100 -92c40 0 86 16 123 47v-196c-48 -20 -100 -29 -150 -28c-168 2 -259 95 -259 219c0 120 84 240 234 311h-83l-13 112h-9c-79 -80 -187 -132 -324 -132c-192 0 -369 101 -369 331c0 209 145 332 388 332h299v18
c0 141 -100 197 -240 197c-93 0 -205 -24 -316 -61l-67 202c156 54 313 79 444 79c273 0 465 -114 465 -381v-697zM529 182c90 0 172 46 230 124v161h-204c-138 0 -198 -51 -198 -144c0 -106 90 -141 172 -141z" />
    <glyph glyph-name="aring" unicode="&#xe5;" horiz-adv-x="1384" 
d="M693 1173c-133 0 -243 109 -243 242c0 131 110 240 243 240c132 0 239 -109 239 -240c0 -133 -107 -242 -239 -242zM693 1296c65 0 117 48 117 119c0 63 -52 120 -117 120c-66 0 -115 -57 -115 -120c0 -71 49 -119 115 -119zM587 -22c-277 0 -513 234 -513 554
c0 319 236 552 513 552c157 0 275 -63 351 -159l1 134h285v-1059h-286v135c-76 -94 -193 -157 -351 -157zM665 221c170 0 304 126 304 311c0 184 -134 309 -304 309c-171 0 -306 -125 -306 -309c0 -185 135 -311 306 -311z" />
    <glyph glyph-name="aring.ss01" horiz-adv-x="1177" 
d="M593 1173c-133 0 -243 109 -243 242c0 131 110 240 243 240c132 0 239 -109 239 -240c0 -133 -107 -242 -239 -242zM593 1535c-66 0 -115 -57 -115 -120c0 -71 49 -119 115 -119c65 0 117 48 117 119c0 63 -52 120 -117 120zM580 1078c273 0 465 -114 465 -381v-697h-258
l-13 112h-9c-79 -80 -187 -132 -324 -132c-192 0 -369 101 -369 331c0 209 145 332 388 332h299v18c0 141 -100 197 -240 197c-93 0 -205 -24 -316 -61l-67 202c156 54 313 79 444 79zM529 182c90 0 172 46 230 124v161h-204c-138 0 -198 -51 -198 -144
c0 -106 90 -141 172 -141z" />
    <glyph glyph-name="atilde" unicode="&#xe3;" horiz-adv-x="1384" 
d="M828 1239c-87 0 -149 43 -197 116c-22 34 -43 47 -70 47c-57 0 -85 -65 -85 -149h-147c0 170 85 293 226 293c90 0 155 -51 197 -116c18 -26 38 -47 74 -47c56 0 82 57 82 150h147c0 -166 -78 -294 -227 -294zM587 -22c-277 0 -513 234 -513 554c0 319 236 552 513 552
c157 0 275 -63 351 -159l1 134h285v-1059h-286v135c-76 -94 -193 -157 -351 -157zM665 221c170 0 304 126 304 311c0 184 -134 309 -304 309c-171 0 -306 -125 -306 -309c0 -185 135 -311 306 -311z" />
    <glyph glyph-name="atilde.ss01" horiz-adv-x="1177" 
d="M461 1402c-57 0 -85 -65 -85 -149h-147c0 170 85 293 226 293c90 0 155 -51 197 -116c18 -26 38 -47 74 -47c56 0 82 57 82 150h147c0 -166 -78 -294 -227 -294c-87 0 -149 43 -197 116c-22 34 -43 47 -70 47zM580 1078c273 0 465 -114 465 -381v-697h-258l-13 112h-9
c-79 -80 -187 -132 -324 -132c-192 0 -369 101 -369 331c0 209 145 332 388 332h299v18c0 141 -100 197 -240 197c-93 0 -205 -24 -316 -61l-67 202c156 54 313 79 444 79zM529 182c90 0 172 46 230 124v161h-204c-138 0 -198 -51 -198 -144c0 -106 90 -141 172 -141z" />
    <glyph glyph-name="ae" unicode="&#xe6;" horiz-adv-x="1862" 
d="M1797 541l-4 -56h-820c19 -174 134 -278 287 -278c109 0 207 51 262 147l227 -95c-86 -172 -262 -279 -488 -279c-182 0 -333 70 -434 181c-109 -126 -222 -181 -397 -181c-210 0 -356 116 -356 315c0 201 143 356 461 358l169 2c6 29 15 58 26 86
c-28 88 -110 128 -219 128c-105 0 -219 -40 -308 -116l-96 193c116 78 246 135 437 135c164 0 276 -45 344 -125c96 78 221 125 364 125c304 0 539 -214 545 -540zM1254 871c-138 0 -234 -80 -269 -212h522c-35 133 -117 212 -253 212zM508 181c95 0 172 43 229 120
c-22 50 -37 105 -43 163h-135c-162 0 -212 -71 -212 -151c0 -93 69 -132 161 -132z" />
    <glyph glyph-name="b" unicode="b" horiz-adv-x="1385" 
d="M798 -22c-158 0 -275 63 -351 157v-135h-286v1536h285l1 -611c76 96 194 159 351 159c277 0 513 -233 513 -552c0 -320 -236 -554 -513 -554zM720 221c171 0 306 126 306 311c0 184 -135 309 -306 309c-170 0 -304 -125 -304 -309c0 -185 134 -311 304 -311z" />
    <glyph glyph-name="c" unicode="c" horiz-adv-x="1140" 
d="M649 -18c-329 0 -579 230 -579 548c0 319 250 549 579 549c186 0 348 -76 452 -199l-203 -171c-55 78 -144 126 -250 126c-172 0 -305 -124 -305 -305c0 -180 133 -304 305 -304c106 0 195 48 250 126l203 -171c-104 -123 -266 -199 -452 -199z" />
    <glyph glyph-name="cacute" unicode="&#x107;" horiz-adv-x="1140" 
d="M551 1196l267 366l145 -105l-229 -261h-183zM649 -18c-329 0 -579 230 -579 548c0 319 250 549 579 549c186 0 348 -76 452 -199l-203 -171c-55 78 -144 126 -250 126c-172 0 -305 -124 -305 -305c0 -180 133 -304 305 -304c106 0 195 48 250 126l203 -171
c-104 -123 -266 -199 -452 -199z" />
    <glyph glyph-name="ccaron" unicode="&#x10d;" horiz-adv-x="1140" 
d="M546 1237l-223 299h178l141 -197l139 197h180l-224 -299h-191zM649 -18c-329 0 -579 230 -579 548c0 319 250 549 579 549c186 0 348 -76 452 -199l-203 -171c-55 78 -144 126 -250 126c-172 0 -305 -124 -305 -305c0 -180 133 -304 305 -304c106 0 195 48 250 126
l203 -171c-104 -123 -266 -199 -452 -199z" />
    <glyph glyph-name="ccedilla" unicode="&#xe7;" horiz-adv-x="1140" 
d="M648 226c106 0 195 48 250 126l203 -171c-94 -111 -235 -184 -398 -197l-58 -106c14 3 30 5 44 5c112 0 195 -79 195 -191c0 -125 -98 -224 -223 -224c-115 0 -209 68 -240 153l130 44c19 -39 65 -63 105 -63c48 0 91 36 91 90c0 57 -42 88 -93 88c-27 0 -54 -10 -75 -30
l-107 62l93 175c-287 36 -495 253 -495 543c0 319 250 549 579 549c186 0 348 -76 452 -199l-203 -171c-55 78 -144 126 -250 126c-172 0 -305 -124 -305 -305c0 -180 133 -304 305 -304z" />
    <glyph glyph-name="cdotaccent" unicode="&#x10b;" horiz-adv-x="1140" 
d="M643 1228c-91 0 -166 74 -166 165s75 163 166 163c89 0 164 -72 164 -163s-75 -165 -164 -165zM649 -18c-329 0 -579 230 -579 548c0 319 250 549 579 549c186 0 348 -76 452 -199l-203 -171c-55 78 -144 126 -250 126c-172 0 -305 -124 -305 -305
c0 -180 133 -304 305 -304c106 0 195 48 250 126l203 -171c-104 -123 -266 -199 -452 -199z" />
    <glyph glyph-name="d" unicode="d" horiz-adv-x="1385" 
d="M587 -22c-277 0 -513 234 -513 554c0 319 236 552 513 552c157 0 275 -63 351 -159l1 611h285v-1536h-286v135c-76 -94 -193 -157 -351 -157zM665 221c170 0 304 126 304 311c0 184 -134 309 -304 309c-171 0 -306 -125 -306 -309c0 -185 135 -311 306 -311z" />
    <glyph glyph-name="eth" unicode="&#xf0;" horiz-adv-x="1266" 
d="M1003 985c136 -185 196 -314 193 -478c-4 -298 -255 -526 -569 -526c-305 0 -564 236 -561 540c4 289 237 501 478 526c35 2 68 1 100 -4l-146 175l-298 -80l-30 115l245 66l-181 217h335c41 -51 79 -99 115 -145l282 76l30 -115l-231 -62c97 -120 176 -219 238 -305z
M921 516c3 164 -106 293 -284 293c-166 0 -281 -118 -285 -283c-4 -158 111 -284 281 -284c174 0 286 114 288 274z" />
    <glyph glyph-name="dcaron" unicode="&#x10f;" horiz-adv-x="1593" 
d="M587 -22c-277 0 -513 234 -513 554c0 319 236 552 513 552c157 0 275 -63 351 -159l1 611h285v-1536h-286v135c-76 -94 -193 -157 -351 -157zM1545 880h-205l117 656h300zM665 221c170 0 304 126 304 311c0 184 -134 309 -304 309c-171 0 -306 -125 -306 -309
c0 -185 135 -311 306 -311z" />
    <glyph glyph-name="dcroat" unicode="&#x111;" horiz-adv-x="1385" 
d="M1352 1391v-178h-128v-1213h-286v135c-76 -94 -193 -157 -351 -157c-277 0 -513 234 -513 554c0 319 236 552 513 552c157 0 275 -63 351 -159v288h-275v178h276v145h285v-145h128zM665 221c170 0 304 126 304 311c0 184 -134 309 -304 309c-171 0 -306 -125 -306 -309
c0 -185 135 -311 306 -311z" />
    <glyph glyph-name="e" unicode="e" horiz-adv-x="1243" 
d="M1177 541l-3 -56h-824c12 -174 137 -278 291 -278c109 0 207 51 262 147l226 -95c-85 -172 -261 -279 -487 -279c-341 0 -572 243 -572 549c0 307 236 552 562 552c305 0 540 -214 545 -540zM635 871c-138 0 -242 -80 -275 -212h533c-21 133 -123 212 -258 212z" />
    <glyph glyph-name="eacute" unicode="&#xe9;" horiz-adv-x="1243" 
d="M964 1463l-229 -261h-183l267 366zM1177 541l-3 -56h-824c12 -174 137 -278 291 -278c109 0 207 51 262 147l226 -95c-85 -172 -261 -279 -487 -279c-341 0 -572 243 -572 549c0 307 236 552 562 552c305 0 540 -214 545 -540zM635 871c-138 0 -242 -80 -275 -212h533
c-21 133 -123 212 -258 212z" />
    <glyph glyph-name="ecaron" unicode="&#x11b;" horiz-adv-x="1243" 
d="M738 1243h-191l-223 299h178l141 -197l139 197h180zM1177 541l-3 -56h-824c12 -174 137 -278 291 -278c109 0 207 51 262 147l226 -95c-85 -172 -261 -279 -487 -279c-341 0 -572 243 -572 549c0 307 236 552 562 552c305 0 540 -214 545 -540zM635 871
c-138 0 -242 -80 -275 -212h533c-21 133 -123 212 -258 212z" />
    <glyph glyph-name="ecircumflex" unicode="&#xea;" horiz-adv-x="1243" 
d="M643 1439l-141 -196h-178l223 299h191l224 -299h-180zM1177 541l-3 -56h-824c12 -174 137 -278 291 -278c109 0 207 51 262 147l226 -95c-85 -172 -261 -279 -487 -279c-341 0 -572 243 -572 549c0 307 236 552 562 552c305 0 540 -214 545 -540zM635 871
c-138 0 -242 -80 -275 -212h533c-21 133 -123 212 -258 212z" />
    <glyph glyph-name="uni1EBF" unicode="&#x1ebf;" horiz-adv-x="1243" 
d="M963 1940l-229 -261h-183l267 366zM643 1439l-141 -196h-178l223 299h191l224 -299h-180zM1177 541l-3 -56h-824c12 -174 137 -278 291 -278c109 0 207 51 262 147l226 -95c-85 -172 -261 -279 -487 -279c-341 0 -572 243 -572 549c0 307 236 552 562 552
c305 0 540 -214 545 -540zM635 871c-138 0 -242 -80 -275 -212h533c-21 133 -123 212 -258 212z" />
    <glyph glyph-name="uni1EC7" unicode="&#x1ec7;" horiz-adv-x="1243" 
d="M643 1439l-141 -196h-178l223 299h191l224 -299h-180zM1177 541l-3 -56h-824c12 -174 137 -278 291 -278c109 0 207 51 262 147l226 -95c-85 -172 -261 -279 -487 -279c-341 0 -572 243 -572 549c0 307 236 552 562 552c305 0 540 -214 545 -540zM635 871
c-138 0 -242 -80 -275 -212h533c-21 133 -123 212 -258 212zM655 -184c89 0 164 -74 164 -164c0 -92 -75 -165 -164 -165c-91 0 -166 73 -166 165c0 90 75 164 166 164z" />
    <glyph glyph-name="uni1EC1" unicode="&#x1ec1;" horiz-adv-x="1243" 
d="M734 1679h-183l-229 261l144 105zM324 1243l223 299h191l224 -299h-180l-139 196l-141 -196h-178zM1177 541l-3 -56h-824c12 -174 137 -278 291 -278c109 0 207 51 262 147l226 -95c-85 -172 -261 -279 -487 -279c-341 0 -572 243 -572 549c0 307 236 552 562 552
c305 0 540 -214 545 -540zM635 871c-138 0 -242 -80 -275 -212h533c-21 133 -123 212 -258 212z" />
    <glyph glyph-name="uni1EC3" unicode="&#x1ec3;" horiz-adv-x="1243" 
d="M626 1918c-30 0 -61 -12 -89 -38l-69 100c43 35 99 59 171 59c123 0 200 -73 200 -180c0 -92 -57 -138 -129 -160v-83h-129v139c76 14 113 47 113 97c0 38 -23 66 -68 66zM643 1439l-141 -196h-178l223 299h191l224 -299h-180zM1177 541l-3 -56h-824
c12 -174 137 -278 291 -278c109 0 207 51 262 147l226 -95c-85 -172 -261 -279 -487 -279c-341 0 -572 243 -572 549c0 307 236 552 562 552c305 0 540 -214 545 -540zM635 871c-138 0 -242 -80 -275 -212h533c-21 133 -123 212 -258 212z" />
    <glyph glyph-name="uni1EC5" unicode="&#x1ec5;" horiz-adv-x="1243" 
d="M510 1885c-57 0 -85 -65 -85 -149h-147c0 170 85 293 226 293c90 0 155 -51 197 -116c18 -26 38 -47 74 -47c56 0 82 57 82 150h147c0 -166 -78 -294 -227 -294c-87 0 -149 43 -197 116c-22 34 -43 47 -70 47zM547 1542h191l224 -299h-180l-139 196l-141 -196h-178z
M1177 541l-3 -56h-824c12 -174 137 -278 291 -278c109 0 207 51 262 147l226 -95c-85 -172 -261 -279 -487 -279c-341 0 -572 243 -572 549c0 307 236 552 562 552c305 0 540 -214 545 -540zM635 871c-138 0 -242 -80 -275 -212h533c-21 133 -123 212 -258 212z" />
    <glyph glyph-name="edieresis" unicode="&#xeb;" horiz-adv-x="1243" 
d="M434 1274c-79 0 -145 64 -145 144c0 81 66 144 145 144s145 -63 145 -144c0 -80 -66 -144 -145 -144zM854 1274c-80 0 -146 64 -146 144c0 81 66 144 146 144c79 0 144 -63 144 -144c0 -80 -65 -144 -144 -144zM1177 541l-3 -56h-824c12 -174 137 -278 291 -278
c109 0 207 51 262 147l226 -95c-85 -172 -261 -279 -487 -279c-341 0 -572 243 -572 549c0 307 236 552 562 552c305 0 540 -214 545 -540zM635 871c-138 0 -242 -80 -275 -212h533c-21 133 -123 212 -258 212z" />
    <glyph glyph-name="edotaccent" unicode="&#x117;" horiz-adv-x="1243" 
d="M644 1234c-91 0 -166 74 -166 165s75 163 166 163c89 0 164 -72 164 -163s-75 -165 -164 -165zM1177 541l-3 -56h-824c12 -174 137 -278 291 -278c109 0 207 51 262 147l226 -95c-85 -172 -261 -279 -487 -279c-341 0 -572 243 -572 549c0 307 236 552 562 552
c305 0 540 -214 545 -540zM635 871c-138 0 -242 -80 -275 -212h533c-21 133 -123 212 -258 212z" />
    <glyph glyph-name="uni1EB9" unicode="&#x1eb9;" horiz-adv-x="1243" 
d="M1177 541l-3 -56h-824c12 -174 137 -278 291 -278c109 0 207 51 262 147l226 -95c-85 -172 -261 -279 -487 -279c-341 0 -572 243 -572 549c0 307 236 552 562 552c305 0 540 -214 545 -540zM635 871c-138 0 -242 -80 -275 -212h533c-21 133 -123 212 -258 212zM655 -184
c89 0 164 -74 164 -164c0 -92 -75 -165 -164 -165c-91 0 -166 73 -166 165c0 90 75 164 166 164z" />
    <glyph glyph-name="egrave" unicode="&#xe8;" horiz-adv-x="1243" 
d="M735 1202h-183l-229 261l144 105zM1177 541l-3 -56h-824c12 -174 137 -278 291 -278c109 0 207 51 262 147l226 -95c-85 -172 -261 -279 -487 -279c-341 0 -572 243 -572 549c0 307 236 552 562 552c305 0 540 -214 545 -540zM635 871c-138 0 -242 -80 -275 -212h533
c-21 133 -123 212 -258 212z" />
    <glyph glyph-name="uni1EBB" unicode="&#x1ebb;" horiz-adv-x="1243" 
d="M627 1441c-30 0 -61 -12 -89 -38l-69 100c43 35 99 59 171 59c123 0 200 -73 200 -180c0 -92 -57 -138 -129 -160v-83h-129v139c76 14 113 47 113 97c0 38 -23 66 -68 66zM1177 541l-3 -56h-824c12 -174 137 -278 291 -278c109 0 207 51 262 147l226 -95
c-85 -172 -261 -279 -487 -279c-341 0 -572 243 -572 549c0 307 236 552 562 552c305 0 540 -214 545 -540zM635 871c-138 0 -242 -80 -275 -212h533c-21 133 -123 212 -258 212z" />
    <glyph glyph-name="emacron" unicode="&#x113;" horiz-adv-x="1243" 
d="M973 1402v-171h-660v171h660zM1177 541l-3 -56h-824c12 -174 137 -278 291 -278c109 0 207 51 262 147l226 -95c-85 -172 -261 -279 -487 -279c-341 0 -572 243 -572 549c0 307 236 552 562 552c305 0 540 -214 545 -540zM635 871c-138 0 -242 -80 -275 -212h533
c-21 133 -123 212 -258 212z" />
    <glyph glyph-name="eogonek" unicode="&#x119;" horiz-adv-x="1243" 
d="M1177 541l-3 -56h-824c12 -174 137 -278 291 -278c109 0 207 51 262 147l226 -95c-55 -112 -149 -196 -269 -241c-90 -62 -152 -146 -152 -220c0 -63 45 -92 100 -92c40 0 86 16 123 47v-196c-48 -20 -100 -29 -150 -28c-168 2 -259 95 -259 219c0 83 40 165 114 232
c-338 3 -566 245 -566 549c0 307 236 552 562 552c305 0 540 -214 545 -540zM635 871c-138 0 -242 -80 -275 -212h533c-21 133 -123 212 -258 212z" />
    <glyph glyph-name="uni1EBD" unicode="&#x1ebd;" horiz-adv-x="1243" 
d="M511 1408c-57 0 -85 -65 -85 -149h-147c0 170 85 293 226 293c90 0 155 -51 197 -116c18 -26 38 -47 74 -47c56 0 82 57 82 150h147c0 -166 -78 -294 -227 -294c-87 0 -149 43 -197 116c-22 34 -43 47 -70 47zM1177 541l-3 -56h-824c12 -174 137 -278 291 -278
c109 0 207 51 262 147l226 -95c-85 -172 -261 -279 -487 -279c-341 0 -572 243 -572 549c0 307 236 552 562 552c305 0 540 -214 545 -540zM635 871c-138 0 -242 -80 -275 -212h533c-21 133 -123 212 -258 212z" />
    <glyph glyph-name="f" unicode="f" horiz-adv-x="757" 
d="M733 1059v-199h-241v-860h-287v860h-167v199h167v122c0 250 117 375 343 375c51 0 115 -8 181 -28v-218c-38 13 -74 20 -106 20c-80 0 -131 -46 -131 -144v-127h241z" />
    <glyph glyph-name="g" unicode="g" horiz-adv-x="1359" 
d="M622 -498c-178 0 -374 52 -529 248l183 164c98 -142 225 -182 341 -182c191 0 296 109 296 299v134c-70 -92 -178 -154 -330 -154c-287 0 -511 225 -511 537s224 531 507 531c154 0 262 -63 334 -157v137h286v-1002c0 -352 -215 -555 -577 -555zM646 254
c161 0 290 118 290 294s-129 295 -290 295s-289 -119 -289 -295s128 -294 289 -294z" />
    <glyph glyph-name="gbreve" unicode="&#x11f;" horiz-adv-x="1359" 
d="M661 1186c-214 0 -364 119 -364 350h165c0 -128 78 -217 199 -217c122 0 201 89 201 217h165c0 -231 -150 -350 -366 -350zM622 -498c-178 0 -374 52 -529 248l183 164c98 -142 225 -182 341 -182c191 0 296 109 296 299v134c-70 -92 -178 -154 -330 -154
c-287 0 -511 225 -511 537s224 531 507 531c154 0 262 -63 334 -157v137h286v-1002c0 -352 -215 -555 -577 -555zM646 254c161 0 290 118 290 294s-129 295 -290 295s-289 -119 -289 -295s128 -294 289 -294z" />
    <glyph glyph-name="gcommaaccent" unicode="&#x123;" horiz-adv-x="1359" 
d="M653 1537h205l-117 -328h-300zM622 -498c-178 0 -374 52 -529 248l183 164c98 -142 225 -182 341 -182c191 0 296 109 296 299v134c-70 -92 -178 -154 -330 -154c-287 0 -511 225 -511 537s224 531 507 531c154 0 262 -63 334 -157v137h286v-1002
c0 -352 -215 -555 -577 -555zM646 254c161 0 290 118 290 294s-129 295 -290 295s-289 -119 -289 -295s128 -294 289 -294z" />
    <glyph glyph-name="gdotaccent" unicode="&#x121;" horiz-adv-x="1359" 
d="M663 1228c-91 0 -166 74 -166 165s75 163 166 163c89 0 164 -72 164 -163s-75 -165 -164 -165zM622 -498c-178 0 -374 52 -529 248l183 164c98 -142 225 -182 341 -182c191 0 296 109 296 299v134c-70 -92 -178 -154 -330 -154c-287 0 -511 225 -511 537s224 531 507 531
c154 0 262 -63 334 -157v137h286v-1002c0 -352 -215 -555 -577 -555zM646 254c161 0 290 118 290 294s-129 295 -290 295s-289 -119 -289 -295s128 -294 289 -294z" />
    <glyph glyph-name="h" unicode="h" horiz-adv-x="1268" 
d="M765 1079c225 0 365 -141 365 -406v-673h-283v622c0 168 -84 218 -188 218c-128 0 -214 -77 -215 -237v-603h-283v1536h283v-629c71 107 181 172 321 172z" />
    <glyph glyph-name="hbar" unicode="&#x127;" horiz-adv-x="1268" 
d="M765 1079c225 0 365 -141 365 -406v-673h-283v622c0 168 -84 218 -188 218c-128 0 -214 -77 -215 -237v-603h-283v1213h-129v178h129v145h283v-145h277v-178h-277v-306c71 107 181 172 321 172z" />
    <glyph glyph-name="i" unicode="i" horiz-adv-x="605" 
d="M304 1228c-91 0 -166 74 -166 165s75 163 166 163c89 0 164 -72 164 -163s-75 -165 -164 -165zM161 0v1059h283v-1059h-283z" />
    <glyph glyph-name="dotlessi" unicode="&#x131;" horiz-adv-x="605" 
d="M161 0v1059h283v-1059h-283z" />
    <glyph glyph-name="iacute" unicode="&#xed;" horiz-adv-x="605" 
d="M212 1196l267 366l145 -105l-229 -261h-183zM161 0v1059h283v-1059h-283z" />
    <glyph glyph-name="uni01D0" unicode="&#x1d0;" horiz-adv-x="605" 
d="M207 1237l-223 299h178l141 -197l139 197h180l-224 -299h-191zM161 0v1059h283v-1059h-283z" />
    <glyph glyph-name="icircumflex" unicode="&#xee;" horiz-adv-x="605" 
d="M162 1237h-178l223 299h191l224 -299h-180l-139 196zM161 0v1059h283v-1059h-283z" />
    <glyph glyph-name="idieresis" unicode="&#xef;" horiz-adv-x="605" 
d="M94 1268c-79 0 -145 64 -145 144c0 81 66 144 145 144s145 -63 145 -144c0 -80 -66 -144 -145 -144zM514 1268c-80 0 -146 64 -146 144c0 81 66 144 146 144c79 0 144 -63 144 -144c0 -80 -65 -144 -144 -144zM161 0v1059h283v-1059h-283z" />
    <glyph glyph-name="i.loclTRK" horiz-adv-x="605" 
d="M304 1228c-91 0 -166 74 -166 165s75 163 166 163c89 0 164 -72 164 -163s-75 -165 -164 -165zM161 0v1059h283v-1059h-283z" />
    <glyph glyph-name="uni1ECB" unicode="&#x1ecb;" horiz-adv-x="605" 
d="M304 1228c-91 0 -166 74 -166 165s75 163 166 163c89 0 164 -72 164 -163s-75 -165 -164 -165zM161 0v1059h283v-1059h-283zM304 -512c-91 0 -166 73 -166 165c0 90 75 164 166 164c89 0 164 -74 164 -164c0 -92 -75 -165 -164 -165z" />
    <glyph glyph-name="igrave" unicode="&#xec;" horiz-adv-x="605" 
d="M212 1196l-229 261l144 105l268 -366h-183zM161 0v1059h283v-1059h-283z" />
    <glyph glyph-name="uni1EC9" unicode="&#x1ec9;" horiz-adv-x="605" 
d="M242 1133v139c76 14 113 47 113 97c0 38 -23 66 -68 66c-30 0 -61 -12 -89 -38l-69 100c43 35 99 59 171 59c123 0 200 -73 200 -180c0 -92 -57 -138 -129 -160v-83h-129zM161 0v1059h283v-1059h-283z" />
    <glyph glyph-name="imacron" unicode="&#x12b;" horiz-adv-x="605" 
d="M-27 1225v171h660v-171h-660zM161 0v1059h283v-1059h-283z" />
    <glyph glyph-name="iogonek" unicode="&#x12f;" horiz-adv-x="605" 
d="M304 1228c-91 0 -166 74 -166 165s75 163 166 163c89 0 164 -72 164 -163s-75 -165 -164 -165zM161 0v1059h283v-1059c-127 -61 -223 -169 -223 -261c0 -63 45 -92 100 -92c40 0 86 16 123 47v-196c-48 -20 -100 -29 -150 -28c-168 2 -259 95 -259 219
c0 120 84 240 234 311h-108z" />
    <glyph glyph-name="itilde" unicode="&#x129;" horiz-adv-x="605" 
d="M438 1239c-87 0 -149 43 -197 116c-22 34 -43 47 -70 47c-57 0 -85 -65 -85 -149h-147c0 170 85 293 226 293c90 0 155 -51 197 -116c18 -26 38 -47 74 -47c56 0 82 57 82 150h147c0 -166 -78 -294 -227 -294zM161 0v1059h283v-1059h-283z" />
    <glyph glyph-name="j" unicode="j" horiz-adv-x="607" 
d="M305 1228c-91 0 -166 74 -166 165s75 163 166 163c89 0 164 -72 164 -163s-75 -165 -164 -165zM-130 -498v230c186 0 291 109 291 299v1028h286v-1002c0 -352 -215 -555 -577 -555z" />
    <glyph glyph-name="uni0237" unicode="&#x237;" horiz-adv-x="607" 
d="M-130 -498v230c186 0 291 109 291 299v1028h286v-1002c0 -352 -215 -555 -577 -555z" />
    <glyph glyph-name="k" unicode="k" horiz-adv-x="1253" 
d="M1249 0h-362l-441 500v-500h-285v1536h285v-923l401 446h345l-461 -496z" />
    <glyph glyph-name="kcommaaccent" unicode="&#x137;" horiz-adv-x="1253" 
d="M731 563l518 -563h-362l-441 500v-500h-285v1536h285v-923l401 446h345zM330 -519l169 380h255l-283 -444z" />
    <glyph glyph-name="l" unicode="l" horiz-adv-x="606" 
d="M161 0v1536h285v-1536h-285z" />
    <glyph glyph-name="lacute" unicode="&#x13a;" horiz-adv-x="606" 
d="M212 1673l267 366l145 -105l-229 -261h-183zM161 0v1536h285v-1536h-285z" />
    <glyph glyph-name="lcaron" unicode="&#x13e;" horiz-adv-x="803" 
d="M161 0v1536h285v-1536h-285zM754 880h-205l117 656h300z" />
    <glyph glyph-name="lcommaaccent" unicode="&#x13c;" horiz-adv-x="606" 
d="M161 0v1536h285v-1536h-285zM147 -583l-141 64l169 380h255z" />
    <glyph glyph-name="lslash" unicode="&#x142;" horiz-adv-x="606" 
d="M628 1136v-193l-182 -134v-809h-285v598l-184 -136v191l184 137v746h285v-535z" />
    <glyph glyph-name="m" unicode="m" horiz-adv-x="1865" 
d="M1369 1079c214 0 356 -130 356 -352v-727h-285v650c0 129 -72 193 -172 193c-115 0 -182 -82 -182 -207v-636h-286v650c0 129 -71 193 -172 193c-115 0 -182 -82 -182 -207v-636h-285v1059h285v-151c68 105 172 171 306 171c137 0 245 -53 298 -170
c73 104 183 170 319 170z" />
    <glyph glyph-name="n" unicode="n" horiz-adv-x="1271" 
d="M767 1079c226 0 366 -141 366 -406v-673h-287v622c0 169 -79 218 -189 218c-121 0 -209 -77 -210 -238v-602h-286v1059h286v-149c70 103 180 169 320 169z" />
    <glyph glyph-name="nacute" unicode="&#x144;" horiz-adv-x="1271" 
d="M955 1457l-229 -261h-183l267 366zM767 1079c226 0 366 -141 366 -406v-673h-287v622c0 169 -79 218 -189 218c-121 0 -209 -77 -210 -238v-602h-286v1059h286v-149c70 103 180 169 320 169z" />
    <glyph glyph-name="ncaron" unicode="&#x148;" horiz-adv-x="1271" 
d="M729 1237h-191l-223 299h178l141 -197l139 197h180zM767 1079c226 0 366 -141 366 -406v-673h-287v622c0 169 -79 218 -189 218c-121 0 -209 -77 -210 -238v-602h-286v1059h286v-149c70 103 180 169 320 169z" />
    <glyph glyph-name="ncommaaccent" unicode="&#x146;" horiz-adv-x="1271" 
d="M767 1079c226 0 366 -141 366 -406v-673h-287v622c0 169 -79 218 -189 218c-121 0 -209 -77 -210 -238v-602h-286v1059h286v-149c70 103 180 169 320 169zM337 -519l169 380h255l-283 -444z" />
    <glyph glyph-name="eng" unicode="&#x14b;" horiz-adv-x="1271" 
d="M743 1079c225 0 390 -166 390 -430v-796c0 -212 -128 -350 -344 -350c-55 0 -123 -1 -180 -1v203h109c76 0 128 50 128 147v745c0 170 -79 230 -189 230c-121 0 -209 -76 -210 -237v-590h-286v1059h286v-117c70 87 172 137 296 137z" />
    <glyph glyph-name="ntilde" unicode="&#xf1;" horiz-adv-x="1271" 
d="M502 1402c-57 0 -85 -65 -85 -149h-147c0 170 85 293 226 293c90 0 155 -51 197 -116c18 -26 38 -47 74 -47c56 0 82 57 82 150h147c0 -166 -78 -294 -227 -294c-87 0 -149 43 -197 116c-22 34 -43 47 -70 47zM767 1079c226 0 366 -141 366 -406v-673h-287v622
c0 169 -79 218 -189 218c-121 0 -209 -77 -210 -238v-602h-286v1059h286v-149c70 103 180 169 320 169z" />
    <glyph glyph-name="o" unicode="o" horiz-adv-x="1298" 
d="M649 -20c-329 0 -579 231 -579 550c0 318 250 549 579 549c328 0 579 -231 579 -549c0 -319 -251 -550 -579 -550zM648 225c169 0 306 127 306 305c0 177 -137 305 -306 305c-170 0 -305 -126 -305 -305c0 -181 135 -305 305 -305z" />
    <glyph glyph-name="oacute" unicode="&#xf3;" horiz-adv-x="1298" 
d="M558 1195l267 366l145 -105l-229 -261h-183zM649 -20c-329 0 -579 231 -579 550c0 318 250 549 579 549c328 0 579 -231 579 -549c0 -319 -251 -550 -579 -550zM648 225c169 0 306 127 306 305c0 177 -137 305 -306 305c-170 0 -305 -126 -305 -305
c0 -181 135 -305 305 -305z" />
    <glyph glyph-name="uni01D2" unicode="&#x1d2;" horiz-adv-x="1298" 
d="M553 1236l-223 299h178l141 -197l139 197h180l-224 -299h-191zM649 -20c-329 0 -579 231 -579 550c0 318 250 549 579 549c328 0 579 -231 579 -549c0 -319 -251 -550 -579 -550zM648 225c169 0 306 127 306 305c0 177 -137 305 -306 305c-170 0 -305 -126 -305 -305
c0 -181 135 -305 305 -305z" />
    <glyph glyph-name="ocircumflex" unicode="&#xf4;" horiz-adv-x="1298" 
d="M508 1236h-178l223 299h191l224 -299h-180l-139 196zM649 -20c-329 0 -579 231 -579 550c0 318 250 549 579 549c328 0 579 -231 579 -549c0 -319 -251 -550 -579 -550zM648 225c169 0 306 127 306 305c0 177 -137 305 -306 305c-170 0 -305 -126 -305 -305
c0 -181 135 -305 305 -305z" />
    <glyph glyph-name="uni1ED1" unicode="&#x1ed1;" horiz-adv-x="1298" 
d="M557 1672l267 366l145 -105l-229 -261h-183zM508 1236h-178l223 299h191l224 -299h-180l-139 196zM649 -20c-329 0 -579 231 -579 550c0 318 250 549 579 549c328 0 579 -231 579 -549c0 -319 -251 -550 -579 -550zM648 225c169 0 306 127 306 305
c0 177 -137 305 -306 305c-170 0 -305 -126 -305 -305c0 -181 135 -305 305 -305z" />
    <glyph glyph-name="uni1ED9" unicode="&#x1ed9;" horiz-adv-x="1298" 
d="M508 1236h-178l223 299h191l224 -299h-180l-139 196zM649 -20c-329 0 -579 231 -579 550c0 318 250 549 579 549c328 0 579 -231 579 -549c0 -319 -251 -550 -579 -550zM648 225c169 0 306 127 306 305c0 177 -137 305 -306 305c-170 0 -305 -126 -305 -305
c0 -181 135 -305 305 -305zM650 -512c-91 0 -166 73 -166 165c0 90 75 164 166 164c89 0 164 -74 164 -164c0 -92 -75 -165 -164 -165z" />
    <glyph glyph-name="uni1ED3" unicode="&#x1ed3;" horiz-adv-x="1298" 
d="M557 1672l-229 261l144 105l268 -366h-183zM508 1236h-178l223 299h191l224 -299h-180l-139 196zM649 -20c-329 0 -579 231 -579 550c0 318 250 549 579 549c328 0 579 -231 579 -549c0 -319 -251 -550 -579 -550zM648 225c169 0 306 127 306 305
c0 177 -137 305 -306 305c-170 0 -305 -126 -305 -305c0 -181 135 -305 305 -305z" />
    <glyph glyph-name="uni1ED5" unicode="&#x1ed5;" horiz-adv-x="1298" 
d="M587 1609v139c76 14 113 47 113 97c0 38 -23 66 -68 66c-30 0 -61 -12 -89 -38l-69 100c43 35 99 59 171 59c123 0 200 -73 200 -180c0 -92 -57 -138 -129 -160v-83h-129zM508 1236h-178l223 299h191l224 -299h-180l-139 196zM649 -20c-329 0 -579 231 -579 550
c0 318 250 549 579 549c328 0 579 -231 579 -549c0 -319 -251 -550 -579 -550zM648 225c169 0 306 127 306 305c0 177 -137 305 -306 305c-170 0 -305 -126 -305 -305c0 -181 135 -305 305 -305z" />
    <glyph glyph-name="uni1ED7" unicode="&#x1ed7;" horiz-adv-x="1298" 
d="M783 1715c-87 0 -149 43 -197 116c-22 34 -43 47 -70 47c-57 0 -85 -65 -85 -149h-147c0 170 85 293 226 293c90 0 155 -51 197 -116c18 -26 38 -47 74 -47c56 0 82 57 82 150h147c0 -166 -78 -294 -227 -294zM508 1236h-178l223 299h191l224 -299h-180l-139 196z
M649 -20c-329 0 -579 231 -579 550c0 318 250 549 579 549c328 0 579 -231 579 -549c0 -319 -251 -550 -579 -550zM648 225c169 0 306 127 306 305c0 177 -137 305 -306 305c-170 0 -305 -126 -305 -305c0 -181 135 -305 305 -305z" />
    <glyph glyph-name="odieresis" unicode="&#xf6;" horiz-adv-x="1298" 
d="M440 1267c-79 0 -145 64 -145 144c0 81 66 144 145 144s145 -63 145 -144c0 -80 -66 -144 -145 -144zM860 1267c-80 0 -146 64 -146 144c0 81 66 144 146 144c79 0 144 -63 144 -144c0 -80 -65 -144 -144 -144zM649 -20c-329 0 -579 231 -579 550c0 318 250 549 579 549
c328 0 579 -231 579 -549c0 -319 -251 -550 -579 -550zM648 225c169 0 306 127 306 305c0 177 -137 305 -306 305c-170 0 -305 -126 -305 -305c0 -181 135 -305 305 -305z" />
    <glyph glyph-name="uni1ECD" unicode="&#x1ecd;" horiz-adv-x="1298" 
d="M649 -20c-329 0 -579 231 -579 550c0 318 250 549 579 549c328 0 579 -231 579 -549c0 -319 -251 -550 -579 -550zM648 225c169 0 306 127 306 305c0 177 -137 305 -306 305c-170 0 -305 -126 -305 -305c0 -181 135 -305 305 -305zM650 -512c-91 0 -166 73 -166 165
c0 90 75 164 166 164c89 0 164 -74 164 -164c0 -92 -75 -165 -164 -165z" />
    <glyph glyph-name="ograve" unicode="&#xf2;" horiz-adv-x="1298" 
d="M558 1195l-229 261l144 105l268 -366h-183zM649 -20c-329 0 -579 231 -579 550c0 318 250 549 579 549c328 0 579 -231 579 -549c0 -319 -251 -550 -579 -550zM648 225c169 0 306 127 306 305c0 177 -137 305 -306 305c-170 0 -305 -126 -305 -305
c0 -181 135 -305 305 -305z" />
    <glyph glyph-name="uni1ECF" unicode="&#x1ecf;" horiz-adv-x="1298" 
d="M588 1132v139c76 14 113 47 113 97c0 38 -23 66 -68 66c-30 0 -61 -12 -89 -38l-69 100c43 35 99 59 171 59c123 0 200 -73 200 -180c0 -92 -57 -138 -129 -160v-83h-129zM649 -20c-329 0 -579 231 -579 550c0 318 250 549 579 549c328 0 579 -231 579 -549
c0 -319 -251 -550 -579 -550zM648 225c169 0 306 127 306 305c0 177 -137 305 -306 305c-170 0 -305 -126 -305 -305c0 -181 135 -305 305 -305z" />
    <glyph glyph-name="ohorn" unicode="&#x1a1;" horiz-adv-x="1298" 
d="M1160 1244h154v-173c0 -171 -86 -229 -177 -236c58 -86 91 -190 91 -305c0 -319 -251 -550 -579 -550c-329 0 -579 231 -579 550c0 318 250 549 579 549c137 0 260 -40 357 -110c22 -8 41 -10 56 -10c75 0 98 47 98 133v152zM648 225c169 0 306 127 306 305
c0 177 -137 305 -306 305c-170 0 -305 -126 -305 -305c0 -181 135 -305 305 -305z" />
    <glyph glyph-name="uni1EDB" unicode="&#x1edb;" horiz-adv-x="1298" 
d="M970 1456l-229 -261h-183l267 366zM1160 1244h154v-173c0 -171 -86 -229 -177 -236c58 -86 91 -190 91 -305c0 -319 -251 -550 -579 -550c-329 0 -579 231 -579 550c0 318 250 549 579 549c137 0 260 -40 357 -110c22 -8 41 -10 56 -10c75 0 98 47 98 133v152zM648 225
c169 0 306 127 306 305c0 177 -137 305 -306 305c-170 0 -305 -126 -305 -305c0 -181 135 -305 305 -305z" />
    <glyph glyph-name="uni1EE3" unicode="&#x1ee3;" horiz-adv-x="1298" 
d="M1160 1244h154v-173c0 -171 -86 -229 -177 -236c58 -86 91 -190 91 -305c0 -319 -251 -550 -579 -550c-329 0 -579 231 -579 550c0 318 250 549 579 549c137 0 260 -40 357 -110c22 -8 41 -10 56 -10c75 0 98 47 98 133v152zM648 225c169 0 306 127 306 305
c0 177 -137 305 -306 305c-170 0 -305 -126 -305 -305c0 -181 135 -305 305 -305zM650 -183c89 0 164 -74 164 -164c0 -92 -75 -165 -164 -165c-91 0 -166 73 -166 165c0 90 75 164 166 164z" />
    <glyph glyph-name="uni1EDD" unicode="&#x1edd;" horiz-adv-x="1298" 
d="M741 1195h-183l-229 261l144 105zM1160 1244h154v-173c0 -171 -86 -229 -177 -236c58 -86 91 -190 91 -305c0 -319 -251 -550 -579 -550c-329 0 -579 231 -579 550c0 318 250 549 579 549c137 0 260 -40 357 -110c22 -8 41 -10 56 -10c75 0 98 47 98 133v152zM648 225
c169 0 306 127 306 305c0 177 -137 305 -306 305c-170 0 -305 -126 -305 -305c0 -181 135 -305 305 -305z" />
    <glyph glyph-name="uni1EDF" unicode="&#x1edf;" horiz-adv-x="1298" 
d="M633 1434c-30 0 -61 -12 -89 -38l-69 100c43 35 99 59 171 59c123 0 200 -73 200 -180c0 -92 -57 -138 -129 -160v-83h-129v139c76 14 113 47 113 97c0 38 -23 66 -68 66zM1160 1244h154v-173c0 -171 -86 -229 -177 -236c58 -86 91 -190 91 -305
c0 -319 -251 -550 -579 -550c-329 0 -579 231 -579 550c0 318 250 549 579 549c137 0 260 -40 357 -110c22 -8 41 -10 56 -10c75 0 98 47 98 133v152zM648 225c169 0 306 127 306 305c0 177 -137 305 -306 305c-170 0 -305 -126 -305 -305c0 -181 135 -305 305 -305z" />
    <glyph glyph-name="uni1EE1" unicode="&#x1ee1;" horiz-adv-x="1298" 
d="M517 1401c-57 0 -85 -65 -85 -149h-147c0 170 85 293 226 293c90 0 155 -51 197 -116c18 -26 38 -47 74 -47c56 0 82 57 82 150h147c0 -166 -78 -294 -227 -294c-87 0 -149 43 -197 116c-22 34 -43 47 -70 47zM1160 1244h154v-173c0 -171 -86 -229 -177 -236
c58 -86 91 -190 91 -305c0 -319 -251 -550 -579 -550c-329 0 -579 231 -579 550c0 318 250 549 579 549c137 0 260 -40 357 -110c22 -8 41 -10 56 -10c75 0 98 47 98 133v152zM648 225c169 0 306 127 306 305c0 177 -137 305 -306 305c-170 0 -305 -126 -305 -305
c0 -181 135 -305 305 -305z" />
    <glyph glyph-name="ohungarumlaut" unicode="&#x151;" horiz-adv-x="1298" 
d="M372 1195l267 366l144 -105l-229 -261h-182zM744 1195l267 366l145 -105l-229 -261h-183zM649 -20c-329 0 -579 231 -579 550c0 318 250 549 579 549c328 0 579 -231 579 -549c0 -319 -251 -550 -579 -550zM648 225c169 0 306 127 306 305c0 177 -137 305 -306 305
c-170 0 -305 -126 -305 -305c0 -181 135 -305 305 -305z" />
    <glyph glyph-name="omacron" unicode="&#x14d;" horiz-adv-x="1298" 
d="M319 1224v171h660v-171h-660zM649 -20c-329 0 -579 231 -579 550c0 318 250 549 579 549c328 0 579 -231 579 -549c0 -319 -251 -550 -579 -550zM648 225c169 0 306 127 306 305c0 177 -137 305 -306 305c-170 0 -305 -126 -305 -305c0 -181 135 -305 305 -305z" />
    <glyph glyph-name="oslash" unicode="&#xf8;" horiz-adv-x="1298" 
d="M1031 950c122 -98 197 -246 197 -420c0 -319 -251 -550 -579 -550c-94 0 -181 19 -257 53l-79 -113l-125 75l79 113c-122 99 -197 247 -197 422c0 318 250 549 579 549c93 0 181 -19 257 -53l77 110l125 -75zM343 530c0 -82 28 -153 75 -206l341 491
c-34 13 -72 20 -111 20c-170 0 -305 -126 -305 -305zM648 225c169 0 306 127 306 305c0 80 -28 150 -75 203l-341 -489c34 -13 71 -19 110 -19z" />
    <glyph glyph-name="otilde" unicode="&#xf5;" horiz-adv-x="1298" 
d="M784 1238c-87 0 -149 43 -197 116c-22 34 -43 47 -70 47c-57 0 -85 -65 -85 -149h-147c0 170 85 293 226 293c90 0 155 -51 197 -116c18 -26 38 -47 74 -47c56 0 82 57 82 150h147c0 -166 -78 -294 -227 -294zM649 -20c-329 0 -579 231 -579 550c0 318 250 549 579 549
c328 0 579 -231 579 -549c0 -319 -251 -550 -579 -550zM648 225c169 0 306 127 306 305c0 177 -137 305 -306 305c-170 0 -305 -126 -305 -305c0 -181 135 -305 305 -305z" />
    <glyph glyph-name="oe" unicode="&#x153;" horiz-adv-x="2133" 
d="M2067 541l-3 -56h-824c12 -174 137 -278 291 -278c109 0 207 51 262 147l226 -95c-85 -172 -261 -279 -487 -279c-186 0 -339 72 -440 187c-104 -117 -262 -187 -443 -187c-329 0 -579 231 -579 550c0 318 250 549 579 549c181 0 339 -70 444 -187
c100 116 251 189 429 189c305 0 540 -214 545 -540zM1525 871c-138 0 -242 -80 -275 -212h533c-21 133 -123 212 -258 212zM648 225c169 0 306 127 306 305c0 177 -137 305 -306 305c-170 0 -305 -126 -305 -305c0 -181 135 -305 305 -305z" />
    <glyph glyph-name="p" unicode="p" horiz-adv-x="1385" 
d="M161 -498v1557h285v-136c72 90 191 156 348 156c282 0 517 -232 517 -551c0 -320 -234 -548 -517 -548c-146 0 -268 56 -348 155v-633h-285zM721 217c170 0 305 126 305 311c0 184 -135 310 -305 310c-171 0 -305 -126 -305 -310c0 -185 134 -311 305 -311z" />
    <glyph glyph-name="thorn" unicode="&#xfe;" horiz-adv-x="1386" 
d="M161 -498v2034h285v-613c73 90 192 156 349 156c282 0 517 -232 517 -551c0 -320 -234 -548 -517 -548c-146 0 -269 56 -349 155v-633h-285zM722 217c170 0 304 139 304 311s-134 310 -304 310c-171 0 -305 -138 -305 -310s134 -311 305 -311z" />
    <glyph glyph-name="q" unicode="q" horiz-adv-x="1385" 
d="M1224 -498h-285v633c-80 -99 -202 -155 -348 -155c-283 0 -517 228 -517 548c0 319 235 551 517 551c157 0 276 -66 348 -156v136h285v-1557zM664 217c171 0 305 126 305 311c0 184 -134 310 -305 310c-170 0 -305 -126 -305 -310c0 -185 135 -311 305 -311z" />
    <glyph glyph-name="r" unicode="r" horiz-adv-x="830" 
d="M433 856c56 98 181 203 365 213v-272c-222 0 -352 -80 -352 -291v-506h-285v1059h272v-203z" />
    <glyph glyph-name="racute" unicode="&#x155;" horiz-adv-x="830" 
d="M724 1457l-229 -261h-183l267 366zM433 856c56 98 181 203 365 213v-272c-222 0 -352 -80 -352 -291v-506h-285v1059h272v-203z" />
    <glyph glyph-name="rcaron" unicode="&#x159;" horiz-adv-x="830" 
d="M498 1237h-191l-223 299h178l141 -197l139 197h180zM433 856c56 98 181 203 365 213v-272c-222 0 -352 -80 -352 -291v-506h-285v1059h272v-203z" />
    <glyph glyph-name="rcommaaccent" unicode="&#x157;" horiz-adv-x="830" 
d="M433 856c56 98 181 203 365 213v-272c-222 0 -352 -80 -352 -291v-506h-285v1059h272v-203zM9 -519l169 380h255l-283 -444z" />
    <glyph glyph-name="s" unicode="s" horiz-adv-x="985" 
d="M500 -20c-168 0 -330 58 -443 136l120 204c86 -68 218 -124 321 -124c82 0 137 35 137 100c0 81 -98 105 -214 144c-143 47 -313 104 -313 315c0 220 185 324 399 324c130 0 266 -39 376 -110l-123 -187c-76 52 -184 88 -260 88c-74 0 -125 -30 -125 -86
c0 -75 109 -96 231 -135c144 -46 305 -111 305 -328c0 -228 -175 -341 -411 -341z" />
    <glyph glyph-name="sacute" unicode="&#x15b;" horiz-adv-x="985" 
d="M407 1196l267 366l145 -105l-229 -261h-183zM500 -20c-168 0 -330 58 -443 136l120 204c86 -68 218 -124 321 -124c82 0 137 35 137 100c0 81 -98 105 -214 144c-143 47 -313 104 -313 315c0 220 185 324 399 324c130 0 266 -39 376 -110l-123 -187
c-76 52 -184 88 -260 88c-74 0 -125 -30 -125 -86c0 -75 109 -96 231 -135c144 -46 305 -111 305 -328c0 -228 -175 -341 -411 -341z" />
    <glyph glyph-name="scaron" unicode="&#x161;" horiz-adv-x="985" 
d="M402 1237l-223 299h178l141 -197l139 197h180l-224 -299h-191zM500 -20c-168 0 -330 58 -443 136l120 204c86 -68 218 -124 321 -124c82 0 137 35 137 100c0 81 -98 105 -214 144c-143 47 -313 104 -313 315c0 220 185 324 399 324c130 0 266 -39 376 -110l-123 -187
c-76 52 -184 88 -260 88c-74 0 -125 -30 -125 -86c0 -75 109 -96 231 -135c144 -46 305 -111 305 -328c0 -228 -175 -341 -411 -341z" />
    <glyph glyph-name="scedilla" unicode="&#x15f;" horiz-adv-x="985" 
d="M911 321c0 -205 -141 -317 -341 -338l-58 -105c14 3 30 5 44 5c112 0 195 -79 195 -191c0 -125 -98 -224 -223 -224c-115 0 -209 68 -240 153l130 44c19 -39 65 -63 105 -63c48 0 91 36 91 90c0 57 -42 88 -93 88c-27 0 -54 -10 -75 -30l-107 62l91 171
c-142 14 -276 66 -373 133l120 204c86 -68 218 -124 321 -124c82 0 137 35 137 100c0 81 -98 105 -214 144c-143 47 -313 104 -313 315c0 220 185 324 399 324c130 0 266 -39 376 -110l-123 -187c-76 52 -184 88 -260 88c-74 0 -125 -30 -125 -86c0 -75 109 -96 231 -135
c144 -46 305 -111 305 -328z" />
    <glyph glyph-name="scommaaccent" unicode="&#x219;" horiz-adv-x="985" 
d="M500 -20c-168 0 -330 58 -443 136l120 204c86 -68 218 -124 321 -124c82 0 137 35 137 100c0 81 -98 105 -214 144c-143 47 -313 104 -313 315c0 220 185 324 399 324c130 0 266 -39 376 -110l-123 -187c-76 52 -184 88 -260 88c-74 0 -125 -30 -125 -86
c0 -75 109 -96 231 -135c144 -46 305 -111 305 -328c0 -228 -175 -341 -411 -341zM354 -583l-141 64l169 380h255z" />
    <glyph glyph-name="germandbls" unicode="&#xdf;" horiz-adv-x="1352" 
d="M1066 812c128 -85 210 -224 210 -389c0 -203 -127 -424 -413 -423h-189v256h123c117 0 193 77 193 199c0 123 -103 211 -228 211h-74v235h23c116 0 209 96 209 215c0 116 -86 200 -229 200c-138 0 -247 -81 -247 -315v-1001h-285v952c0 462 269 604 518 604
c331 0 512 -191 512 -437c0 -120 -46 -227 -123 -307z" />
    <glyph glyph-name="t" unicode="t" horiz-adv-x="808" 
d="M728 860h-241v-498c0 -97 53 -143 129 -143h109v-219h-180c-213 0 -344 118 -344 330v530h-167v199h167v293h286v-293h241v-199z" />
    <glyph glyph-name="tbar" unicode="&#x167;" horiz-adv-x="904" 
d="M777 860h-242v-241h235v-177h-235v-80c0 -97 54 -143 129 -143h109v-219h-180c-213 0 -344 118 -344 330v112h-167v177h167v241h-167v199h167v293h286v-293h242v-199z" />
    <glyph glyph-name="tcaron" unicode="&#x165;" horiz-adv-x="809" 
d="M743 1861h301l-213 -656h-204zM487 1352v-293h241v-199h-241v-498c0 -97 53 -143 129 -143h109v-219h-180c-213 0 -344 118 -344 330v530h-167v199h167v293h286z" />
    <glyph glyph-name="uni0163" unicode="&#x163;" horiz-adv-x="808" 
d="M618 -117c112 0 195 -79 195 -191c0 -125 -98 -224 -223 -224c-115 0 -209 68 -240 153l130 44c19 -39 65 -63 105 -63c48 0 91 36 91 90c0 57 -42 88 -93 88c-27 0 -54 -10 -75 -30l-107 62l101 190c-188 15 -301 131 -301 328v530h-167v199h167v293h286v-293h241v-199
h-241v-498c0 -97 53 -143 129 -143h109v-219h-84l-67 -122c14 3 30 5 44 5z" />
    <glyph glyph-name="uni021B" unicode="&#x21b;" horiz-adv-x="808" 
d="M728 860h-241v-498c0 -97 53 -143 129 -143h109v-219h-180c-213 0 -344 118 -344 330v530h-167v199h167v293h286v-293h241v-199zM275 -519l169 380h255l-283 -444z" />
    <glyph glyph-name="u" unicode="u" horiz-adv-x="1239" 
d="M618 -20c-306 0 -487 156 -487 411v668h284v-650c0 -127 87 -185 203 -185c117 0 205 58 205 185v650h285v-668c0 -255 -182 -411 -490 -411z" />
    <glyph glyph-name="uacute" unicode="&#xfa;" horiz-adv-x="1239" 
d="M528 1196l267 366l145 -105l-229 -261h-183zM618 -20c-306 0 -487 156 -487 411v668h284v-650c0 -127 87 -185 203 -185c117 0 205 58 205 185v650h285v-668c0 -255 -182 -411 -490 -411z" />
    <glyph glyph-name="uni01D4" unicode="&#x1d4;" horiz-adv-x="1239" 
d="M523 1237l-223 299h178l141 -197l139 197h180l-224 -299h-191zM618 -20c-306 0 -487 156 -487 411v668h284v-650c0 -127 87 -185 203 -185c117 0 205 58 205 185v650h285v-668c0 -255 -182 -411 -490 -411z" />
    <glyph glyph-name="ucircumflex" unicode="&#xfb;" horiz-adv-x="1239" 
d="M478 1237h-178l223 299h191l224 -299h-180l-139 196zM618 -20c-306 0 -487 156 -487 411v668h284v-650c0 -127 87 -185 203 -185c117 0 205 58 205 185v650h285v-668c0 -255 -182 -411 -490 -411z" />
    <glyph glyph-name="udieresis" unicode="&#xfc;" horiz-adv-x="1239" 
d="M410 1268c-79 0 -145 64 -145 144c0 81 66 144 145 144s145 -63 145 -144c0 -80 -66 -144 -145 -144zM830 1268c-80 0 -146 64 -146 144c0 81 66 144 146 144c79 0 144 -63 144 -144c0 -80 -65 -144 -144 -144zM618 -20c-306 0 -487 156 -487 411v668h284v-650
c0 -127 87 -185 203 -185c117 0 205 58 205 185v650h285v-668c0 -255 -182 -411 -490 -411z" />
    <glyph glyph-name="uni01D8" unicode="&#x1d8;" horiz-adv-x="1239" 
d="M528 1681l267 366l145 -105l-229 -261h-183zM410 1268c-79 0 -145 64 -145 144c0 81 66 144 145 144s145 -63 145 -144c0 -80 -66 -144 -145 -144zM830 1268c-80 0 -146 64 -146 144c0 81 66 144 146 144c79 0 144 -63 144 -144c0 -80 -65 -144 -144 -144zM618 -20
c-306 0 -487 156 -487 411v668h284v-650c0 -127 87 -185 203 -185c117 0 205 58 205 185v650h285v-668c0 -255 -182 -411 -490 -411z" />
    <glyph glyph-name="uni01DA" unicode="&#x1da;" horiz-adv-x="1239" 
d="M523 1722l-223 299h178l141 -197l139 197h180l-224 -299h-191zM410 1268c-79 0 -145 64 -145 144c0 81 66 144 145 144s145 -63 145 -144c0 -80 -66 -144 -145 -144zM830 1268c-80 0 -146 64 -146 144c0 81 66 144 146 144c79 0 144 -63 144 -144
c0 -80 -65 -144 -144 -144zM618 -20c-306 0 -487 156 -487 411v668h284v-650c0 -127 87 -185 203 -185c117 0 205 58 205 185v650h285v-668c0 -255 -182 -411 -490 -411z" />
    <glyph glyph-name="uni01DC" unicode="&#x1dc;" horiz-adv-x="1239" 
d="M528 1681l-229 261l144 105l268 -366h-183zM410 1268c-79 0 -145 64 -145 144c0 81 66 144 145 144s145 -63 145 -144c0 -80 -66 -144 -145 -144zM830 1268c-80 0 -146 64 -146 144c0 81 66 144 146 144c79 0 144 -63 144 -144c0 -80 -65 -144 -144 -144zM618 -20
c-306 0 -487 156 -487 411v668h284v-650c0 -127 87 -185 203 -185c117 0 205 58 205 185v650h285v-668c0 -255 -182 -411 -490 -411z" />
    <glyph glyph-name="uni01D6" unicode="&#x1d6;" horiz-adv-x="1239" 
d="M289 1710v171h660v-171h-660zM410 1268c-79 0 -145 64 -145 144c0 81 66 144 145 144s145 -63 145 -144c0 -80 -66 -144 -145 -144zM830 1268c-80 0 -146 64 -146 144c0 81 66 144 146 144c79 0 144 -63 144 -144c0 -80 -65 -144 -144 -144zM618 -20
c-306 0 -487 156 -487 411v668h284v-650c0 -127 87 -185 203 -185c117 0 205 58 205 185v650h285v-668c0 -255 -182 -411 -490 -411z" />
    <glyph glyph-name="uni1EE5" unicode="&#x1ee5;" horiz-adv-x="1239" 
d="M618 -20c-306 0 -487 156 -487 411v668h284v-650c0 -127 87 -185 203 -185c117 0 205 58 205 185v650h285v-668c0 -255 -182 -411 -490 -411zM618 -512c-91 0 -166 73 -166 165c0 90 75 164 166 164c89 0 164 -74 164 -164c0 -92 -75 -165 -164 -165z" />
    <glyph glyph-name="ugrave" unicode="&#xf9;" horiz-adv-x="1239" 
d="M528 1196l-229 261l144 105l268 -366h-183zM618 -20c-306 0 -487 156 -487 411v668h284v-650c0 -127 87 -185 203 -185c117 0 205 58 205 185v650h285v-668c0 -255 -182 -411 -490 -411z" />
    <glyph glyph-name="uni1EE7" unicode="&#x1ee7;" horiz-adv-x="1239" 
d="M558 1133v139c76 14 113 47 113 97c0 38 -23 66 -68 66c-30 0 -61 -12 -89 -38l-69 100c43 35 99 59 171 59c123 0 200 -73 200 -180c0 -92 -57 -138 -129 -160v-83h-129zM618 -20c-306 0 -487 156 -487 411v668h284v-650c0 -127 87 -185 203 -185c117 0 205 58 205 185
v650h285v-668c0 -255 -182 -411 -490 -411z" />
    <glyph glyph-name="uhorn" unicode="&#x1b0;" horiz-adv-x="1239" 
d="M1237 1224h154v-173c0 -184 -99 -237 -197 -237c-25 0 -55 4 -86 12v-435c0 -255 -182 -411 -490 -411c-306 0 -487 156 -487 411v668h284v-650c0 -127 87 -185 203 -185c117 0 205 58 205 185v650h285v-117c12 -2 22 -3 31 -3c75 0 98 47 98 133v152z" />
    <glyph glyph-name="uni1EE9" unicode="&#x1ee9;" horiz-adv-x="1239" 
d="M940 1457l-229 -261h-183l267 366zM1237 1224h154v-173c0 -184 -99 -237 -197 -237c-25 0 -55 4 -86 12v-435c0 -255 -182 -411 -490 -411c-306 0 -487 156 -487 411v668h284v-650c0 -127 87 -185 203 -185c117 0 205 58 205 185v650h285v-117c12 -2 22 -3 31 -3
c75 0 98 47 98 133v152z" />
    <glyph glyph-name="uni1EF1" unicode="&#x1ef1;" horiz-adv-x="1239" 
d="M1237 1224h154v-173c0 -184 -99 -237 -197 -237c-25 0 -55 4 -86 12v-435c0 -255 -182 -411 -490 -411c-306 0 -487 156 -487 411v668h284v-650c0 -127 87 -185 203 -185c117 0 205 58 205 185v650h285v-117c12 -2 22 -3 31 -3c75 0 98 47 98 133v152zM618 -183
c89 0 164 -74 164 -164c0 -92 -75 -165 -164 -165c-91 0 -166 73 -166 165c0 90 75 164 166 164z" />
    <glyph glyph-name="uni1EEB" unicode="&#x1eeb;" horiz-adv-x="1239" 
d="M711 1196h-183l-229 261l144 105zM1237 1224h154v-173c0 -184 -99 -237 -197 -237c-25 0 -55 4 -86 12v-435c0 -255 -182 -411 -490 -411c-306 0 -487 156 -487 411v668h284v-650c0 -127 87 -185 203 -185c117 0 205 58 205 185v650h285v-117c12 -2 22 -3 31 -3
c75 0 98 47 98 133v152z" />
    <glyph glyph-name="uni1EED" unicode="&#x1eed;" horiz-adv-x="1239" 
d="M603 1435c-30 0 -61 -12 -89 -38l-69 100c43 35 99 59 171 59c123 0 200 -73 200 -180c0 -92 -57 -138 -129 -160v-83h-129v139c76 14 113 47 113 97c0 38 -23 66 -68 66zM1237 1224h154v-173c0 -184 -99 -237 -197 -237c-25 0 -55 4 -86 12v-435
c0 -255 -182 -411 -490 -411c-306 0 -487 156 -487 411v668h284v-650c0 -127 87 -185 203 -185c117 0 205 58 205 185v650h285v-117c12 -2 22 -3 31 -3c75 0 98 47 98 133v152z" />
    <glyph glyph-name="uni1EEF" unicode="&#x1eef;" horiz-adv-x="1239" 
d="M487 1402c-57 0 -85 -65 -85 -149h-147c0 170 85 293 226 293c90 0 155 -51 197 -116c18 -26 38 -47 74 -47c56 0 82 57 82 150h147c0 -166 -78 -294 -227 -294c-87 0 -149 43 -197 116c-22 34 -43 47 -70 47zM1237 1224h154v-173c0 -184 -99 -237 -197 -237
c-25 0 -55 4 -86 12v-435c0 -255 -182 -411 -490 -411c-306 0 -487 156 -487 411v668h284v-650c0 -127 87 -185 203 -185c117 0 205 58 205 185v650h285v-117c12 -2 22 -3 31 -3c75 0 98 47 98 133v152z" />
    <glyph glyph-name="uhungarumlaut" unicode="&#x171;" horiz-adv-x="1239" 
d="M342 1196l267 366l144 -105l-229 -261h-182zM714 1196l267 366l145 -105l-229 -261h-183zM618 -20c-306 0 -487 156 -487 411v668h284v-650c0 -127 87 -185 203 -185c117 0 205 58 205 185v650h285v-668c0 -255 -182 -411 -490 -411z" />
    <glyph glyph-name="umacron" unicode="&#x16b;" horiz-adv-x="1239" 
d="M289 1225v171h660v-171h-660zM618 -20c-306 0 -487 156 -487 411v668h284v-650c0 -127 87 -185 203 -185c117 0 205 58 205 185v650h285v-668c0 -255 -182 -411 -490 -411z" />
    <glyph glyph-name="uogonek" unicode="&#x173;" horiz-adv-x="1239" 
d="M823 1059h285v-668c0 -217 -132 -363 -362 -401c-117 -62 -203 -164 -203 -251c0 -63 45 -92 100 -92c40 0 86 16 123 47v-196c-48 -20 -100 -29 -150 -28c-168 2 -259 95 -259 219c0 111 71 221 200 293c-269 20 -426 172 -426 409v668h284v-650
c0 -127 87 -185 203 -185c117 0 205 58 205 185v650z" />
    <glyph glyph-name="uring" unicode="&#x16f;" horiz-adv-x="1239" 
d="M619 1173c-133 0 -243 109 -243 242c0 131 110 240 243 240c132 0 239 -109 239 -240c0 -133 -107 -242 -239 -242zM619 1296c65 0 117 48 117 119c0 63 -52 120 -117 120c-66 0 -115 -57 -115 -120c0 -71 49 -119 115 -119zM618 -20c-306 0 -487 156 -487 411v668h284
v-650c0 -127 87 -185 203 -185c117 0 205 58 205 185v650h285v-668c0 -255 -182 -411 -490 -411z" />
    <glyph glyph-name="utilde" unicode="&#x169;" horiz-adv-x="1239" 
d="M754 1239c-87 0 -149 43 -197 116c-22 34 -43 47 -70 47c-57 0 -85 -65 -85 -149h-147c0 170 85 293 226 293c90 0 155 -51 197 -116c18 -26 38 -47 74 -47c56 0 82 57 82 150h147c0 -166 -78 -294 -227 -294zM618 -20c-306 0 -487 156 -487 411v668h284v-650
c0 -127 87 -185 203 -185c117 0 205 58 205 185v650h285v-668c0 -255 -182 -411 -490 -411z" />
    <glyph glyph-name="v" unicode="v" horiz-adv-x="1172" 
d="M854 1059h304l-456 -1059h-235l-453 1059h304l267 -736z" />
    <glyph glyph-name="w" unicode="w" horiz-adv-x="1786" 
d="M1462 1059h301l-373 -1060h-246l-251 711l-253 -711h-248l-369 1060h299l215 -702l255 702h201l253 -700z" />
    <glyph glyph-name="wacute" unicode="&#x1e83;" horiz-adv-x="1786" 
d="M1223 1457l-229 -261h-183l267 366zM1462 1059h301l-373 -1060h-246l-251 711l-253 -711h-248l-369 1060h299l215 -702l255 702h201l253 -700z" />
    <glyph glyph-name="wcircumflex" unicode="&#x175;" horiz-adv-x="1786" 
d="M902 1433l-141 -196h-178l223 299h191l224 -299h-180zM1462 1059h301l-373 -1060h-246l-251 711l-253 -711h-248l-369 1060h299l215 -702l255 702h201l253 -700z" />
    <glyph glyph-name="wdieresis" unicode="&#x1e85;" horiz-adv-x="1786" 
d="M693 1268c-79 0 -145 64 -145 144c0 81 66 144 145 144s145 -63 145 -144c0 -80 -66 -144 -145 -144zM1113 1268c-80 0 -146 64 -146 144c0 81 66 144 146 144c79 0 144 -63 144 -144c0 -80 -65 -144 -144 -144zM1462 1059h301l-373 -1060h-246l-251 711l-253 -711h-248
l-369 1060h299l215 -702l255 702h201l253 -700z" />
    <glyph glyph-name="wgrave" unicode="&#x1e81;" horiz-adv-x="1786" 
d="M994 1196h-183l-229 261l144 105zM1462 1059h301l-373 -1060h-246l-251 711l-253 -711h-248l-369 1060h299l215 -702l255 702h201l253 -700z" />
    <glyph glyph-name="x" unicode="x" horiz-adv-x="1269" 
d="M18 0l444 530l-444 529h342l273 -340l275 340h343l-446 -530l446 -529h-344l-272 338l-273 -338h-344z" />
    <glyph glyph-name="y" unicode="y" horiz-adv-x="1133" 
d="M818 1059h299l-623 -1557h-293l222 561l-407 996h313l245 -726z" />
    <glyph glyph-name="yacute" unicode="&#xfd;" horiz-adv-x="1133" 
d="M889 1457l-229 -261h-183l267 366zM818 1059h299l-623 -1557h-293l222 561l-407 996h313l245 -726z" />
    <glyph glyph-name="ycircumflex" unicode="&#x177;" horiz-adv-x="1133" 
d="M568 1433l-141 -196h-178l223 299h191l224 -299h-180zM818 1059h299l-623 -1557h-293l222 561l-407 996h313l245 -726z" />
    <glyph glyph-name="ydieresis" unicode="&#xff;" horiz-adv-x="1133" 
d="M359 1268c-79 0 -145 64 -145 144c0 81 66 144 145 144s145 -63 145 -144c0 -80 -66 -144 -145 -144zM779 1268c-80 0 -146 64 -146 144c0 81 66 144 146 144c79 0 144 -63 144 -144c0 -80 -65 -144 -144 -144zM818 1059h299l-623 -1557h-293l222 561l-407 996h313
l245 -726z" />
    <glyph glyph-name="uni1EF5" unicode="&#x1ef5;" horiz-adv-x="1133" 
d="M818 1059h299l-623 -1557h-293l222 561l-407 996h313l245 -726zM890 -183c89 0 164 -74 164 -164c0 -92 -75 -165 -164 -165c-91 0 -166 73 -166 165c0 90 75 164 166 164z" />
    <glyph glyph-name="ygrave" unicode="&#x1ef3;" horiz-adv-x="1133" 
d="M660 1196h-183l-229 261l144 105zM818 1059h299l-623 -1557h-293l222 561l-407 996h313l245 -726z" />
    <glyph glyph-name="uni1EF7" unicode="&#x1ef7;" horiz-adv-x="1133" 
d="M552 1435c-30 0 -61 -12 -89 -38l-69 100c43 35 99 59 171 59c123 0 200 -73 200 -180c0 -92 -57 -138 -129 -160v-83h-129v139c76 14 113 47 113 97c0 38 -23 66 -68 66zM818 1059h299l-623 -1557h-293l222 561l-407 996h313l245 -726z" />
    <glyph glyph-name="uni1EF9" unicode="&#x1ef9;" horiz-adv-x="1133" 
d="M436 1402c-57 0 -85 -65 -85 -149h-147c0 170 85 293 226 293c90 0 155 -51 197 -116c18 -26 38 -47 74 -47c56 0 82 57 82 150h147c0 -166 -78 -294 -227 -294c-87 0 -149 43 -197 116c-22 34 -43 47 -70 47zM818 1059h299l-623 -1557h-293l222 561l-407 996h313
l245 -726z" />
    <glyph glyph-name="z" unicode="z" horiz-adv-x="1064" 
d="M1008 1059l-529 -834h516v-225h-950l527 834h-486v225h922z" />
    <glyph glyph-name="zacute" unicode="&#x17a;" horiz-adv-x="1064" 
d="M872 1457l-229 -261h-183l267 366zM1008 1059l-529 -834h516v-225h-950l527 834h-486v225h922z" />
    <glyph glyph-name="zcaron" unicode="&#x17e;" horiz-adv-x="1064" 
d="M646 1237h-191l-223 299h178l141 -197l139 197h180zM1008 1059l-529 -834h516v-225h-950l527 834h-486v225h922z" />
    <glyph glyph-name="zdotaccent" unicode="&#x17c;" horiz-adv-x="1064" 
d="M552 1228c-91 0 -166 74 -166 165s75 163 166 163c89 0 164 -72 164 -163s-75 -165 -164 -165zM1008 1059l-529 -834h516v-225h-950l527 834h-486v225h922z" />
    <glyph glyph-name="f_t" horiz-adv-x="1507" 
d="M201 0v860h-167v199h167v147c0 212 128 350 344 350c55 0 123 -9 180 -31v-235c-34 19 -74 31 -109 31c-76 0 -129 -50 -129 -147v-115h413v293h286v-293h241v-199h-241v-498c0 -97 53 -143 129 -143h109v-219h-180c-213 0 -344 118 -344 330v530h-413v-860h-286z" />
    <glyph glyph-name="t_t" horiz-adv-x="1548" 
d="M545 0c-213 0 -344 118 -344 330v530h-167v199h167v293h286v-293h453v293h287v-293h241v-199h-241v-498c0 -97 53 -143 129 -143h108v-219h-179c-213 0 -345 118 -345 330v530h-453v-498c0 -97 53 -143 129 -143h109v-219h-180z" />
    <glyph glyph-name="ordfeminine" unicode="&#xaa;" horiz-adv-x="963" 
d="M622 1536h166v-614h-166v87c-49 -62 -122 -100 -210 -100c-168 0 -304 142 -304 320c0 177 136 319 304 319c88 0 161 -38 210 -99v87zM447 1054c97 0 175 79 175 175s-78 173 -175 173c-96 0 -174 -77 -174 -173s78 -175 174 -175z" />
    <glyph glyph-name="ordmasculine" unicode="&#xba;" horiz-adv-x="899" 
d="M448 909c-190 0 -339 142 -339 320c0 177 149 319 339 319s341 -142 341 -319c0 -178 -151 -320 -341 -320zM448 1054c96 0 175 79 175 175s-79 173 -175 173s-174 -77 -174 -173s78 -175 174 -175z" />
    <glyph glyph-name="uni0394" unicode="&#x394;" horiz-adv-x="1630" 
d="M971 1536l617 -1536h-1546l617 1536h312zM447 267h736l-367 956z" />
    <glyph glyph-name="uni03A9" unicode="&#x3a9;" horiz-adv-x="1793" 
d="M117 0v245h254v9c-105 106 -221 325 -221 576c0 402 300 713 751 713c476 0 743 -342 743 -711c0 -230 -103 -457 -227 -578v-9h259v-245h-663v184c167 96 306 301 306 588c0 295 -150 521 -416 521c-251 0 -428 -208 -428 -523c0 -285 146 -505 308 -586v-184h-666z" />
    <glyph glyph-name="uni03BC" unicode="&#x3bc;" horiz-adv-x="1250" 
d="M811 963h286v-963h-286v107c-71 -78 -169 -125 -279 -125c-60 0 -117 14 -168 39v-502h-210v1444h289v-556c0 -98 77 -175 175 -175c108 0 193 77 193 175v556z" />
    <glyph glyph-name="pi" unicode="&#x3c0;" horiz-adv-x="1332" 
d="M151 0c67 204 126 544 130 748c-101 0 -162 -6 -214 -24l-31 175c52 39 162 64 348 64h905l-22 -215h-152v-458c0 -135 11 -230 26 -290h-260c-26 38 -34 144 -34 275v473h-301c-9 -208 -62 -577 -135 -748h-260z" />
    <glyph glyph-name="zero" unicode="0" horiz-adv-x="1315" 
d="M659 -20c-349 0 -571 262 -571 788s214 788 571 788c354 0 569 -262 569 -788s-223 -788 -569 -788zM659 239c169 0 278 162 278 529c0 383 -117 529 -278 529c-162 0 -279 -146 -279 -529c0 -367 109 -529 279 -529z" />
    <glyph glyph-name="one" unicode="1" horiz-adv-x="1315" 
d="M832 258h313v-258h-915v258h312v969l-312 -255v299l335 265h267v-1278z" />
    <glyph glyph-name="two" unicode="2" horiz-adv-x="1315" 
d="M542 258h647v-258h-1056v224c639 593 715 734 715 895c0 152 -108 202 -209 202c-140 0 -215 -87 -215 -243h-297c0 297 211 481 515 481c289 -1 496 -168 497 -424c1 -284 -202 -519 -597 -877z" />
    <glyph glyph-name="three" unicode="3" horiz-adv-x="1315" 
d="M926 834c148 -44 276 -163 276 -382c0 -288 -223 -472 -556 -472c-296 0 -553 151 -553 473l296 1c0 -154 118 -222 257 -222c170 0 262 95 262 233c0 154 -112 231 -262 231h-118v231h103c118 0 214 72 214 199c0 115 -80 181 -203 181s-206 -63 -206 -184h-292
c0 268 221 433 496 433c277 0 481 -172 481 -407c0 -163 -99 -272 -195 -315z" />
    <glyph glyph-name="four" unicode="4" horiz-adv-x="1315" 
d="M1262 557v-258h-228v-299h-291v299h-684v238l586 999h389v-979h228zM325 557h418v737z" />
    <glyph glyph-name="five" unicode="5" horiz-adv-x="1315" 
d="M609 983c393 0 582 -170 582 -474c0 -327 -219 -529 -535 -529c-289 0 -539 175 -550 472h294c19 -145 131 -209 253 -209c157 0 251 99 251 254c0 148 -86 242 -329 242h-436l153 797h850v-258h-648l-50 -295h165z" />
    <glyph glyph-name="six" unicode="6" horiz-adv-x="1315" 
d="M1223 521c4 -304 -256 -540 -561 -540c-313 0 -564 228 -569 526c-2 127 42 246 136 373l491 656h336l-384 -490c24 3 48 3 74 1c240 -25 473 -212 477 -526zM657 242c169 0 284 126 281 284c-4 165 -120 283 -286 283c-178 0 -286 -129 -284 -293
c3 -160 115 -274 289 -274z" />
    <glyph glyph-name="seven" unicode="7" horiz-adv-x="1315" 
d="M129 1536h1068v-230l-702 -1306h-332l709 1278h-743v258z" />
    <glyph glyph-name="eight" unicode="8" horiz-adv-x="1315" 
d="M651 -20c-317 0 -558 176 -558 470c0 184 97 319 257 391c-112 67 -180 174 -180 312c0 243 205 403 481 403s480 -160 480 -403c0 -138 -67 -245 -177 -312c159 -72 256 -207 256 -391c0 -292 -241 -470 -559 -470zM652 932c123 0 207 84 207 192
c0 109 -84 188 -207 188c-124 0 -208 -79 -208 -188c0 -108 84 -192 208 -192zM651 238c156 0 268 90 268 243s-113 241 -268 241c-154 0 -267 -88 -267 -241s112 -243 267 -243z" />
    <glyph glyph-name="nine" unicode="9" horiz-adv-x="1315" 
d="M1223 1029c3 -127 -42 -246 -136 -373l-491 -656h-335l383 490c-23 -3 -48 -3 -74 -1c-240 25 -473 237 -477 526c-4 304 256 540 561 540c313 0 564 -228 569 -526zM664 727c178 0 286 129 284 293c-3 160 -115 274 -289 274c-169 0 -284 -126 -281 -284
c4 -165 120 -283 286 -283z" />
    <glyph glyph-name="zero.subs" horiz-adv-x="810" 
d="M404 -381c-206 0 -342 191 -342 473s136 473 342 473c205 0 344 -191 344 -473s-139 -473 -344 -473zM405 -206c94 0 163 115 163 298c0 184 -69 299 -163 299c-96 0 -163 -115 -163 -299c0 -183 67 -298 163 -298z" />
    <glyph glyph-name="one.subs" horiz-adv-x="510" 
d="M216 553h162v-922h-175v749l-188 -146v171z" />
    <glyph glyph-name="two.subs" horiz-adv-x="743" 
d="M242 -229h438v-140h-627v166c389 273 436 388 436 476c0 118 -66 147 -126 144c-91 -5 -123 -73 -121 -150h-183c-3 176 131 300 313 300c172 0 289 -111 290 -276c2 -167 -117 -340 -420 -520z" />
    <glyph glyph-name="three.subs" horiz-adv-x="723" 
d="M531 139c84 -45 135 -123 135 -225c0 -162 -133 -295 -317 -295c-172 0 -308 115 -308 271l173 1c4 -80 67 -121 140 -121c83 0 138 52 138 140c0 87 -52 135 -145 135h-59v139h47c76 0 122 44 122 122c0 77 -46 114 -112 114c-62 0 -110 -33 -115 -118l-169 1
c0 159 123 262 282 262c157 0 271 -104 271 -250c0 -75 -30 -135 -83 -176z" />
    <glyph glyph-name="four.subs" horiz-adv-x="765" 
d="M707 -38v-136h-93v-195h-172v195h-424v146l364 581h232v-591h93zM171 -38h271v454z" />
    <glyph glyph-name="five.subs" horiz-adv-x="793" 
d="M396 228c235 0 331 -118 331 -294c0 -197 -144 -312 -326 -312c-181 0 -333 96 -340 294h179c8 -104 79 -146 155 -146c94 0 154 62 154 158c0 104 -55 157 -184 157h-286l96 469h518v-148h-392l-35 -178h130z" />
    <glyph glyph-name="six.subs" horiz-adv-x="737" 
d="M705 -56c1 -184 -159 -332 -342 -324c-185 8 -336 137 -338 318c-1 81 34 148 73 207l303 408h210l-238 -297c17 3 36 3 59 0c114 -11 271 -129 273 -312zM363 -214c101 -6 169 68 167 158c-2 99 -67 159 -154 164c-113 7 -175 -67 -174 -168c2 -93 62 -148 161 -154z
" />
    <glyph glyph-name="seven.subs" horiz-adv-x="675" 
d="M35 553h632v-130l-425 -792h-204l419 758h-422v164z" />
    <glyph glyph-name="eight.subs" horiz-adv-x="754" 
d="M566 140c81 -49 132 -132 132 -232c0 -164 -137 -289 -322 -289s-321 125 -321 289c0 100 50 182 131 232c-52 42 -77 107 -77 184c0 136 113 241 268 241c152 0 265 -105 265 -241c0 -77 -25 -141 -76 -184zM377 421c-67 0 -114 -49 -114 -115c0 -64 47 -114 114 -114
c65 0 113 50 113 114c0 66 -48 115 -113 115zM376 -226c83 0 145 68 145 152c0 83 -62 145 -145 145c-84 0 -145 -62 -145 -145c0 -84 61 -152 145 -152z" />
    <glyph glyph-name="nine.subs" horiz-adv-x="737" 
d="M711 246c1 -81 -32 -147 -74 -205l-302 -410h-210l238 297c-17 -2 -36 -2 -59 1c-114 11 -272 128 -273 311c-2 183 158 332 341 324c187 -7 337 -137 339 -318zM360 77c113 -7 175 67 174 167c-2 94 -62 148 -161 154c-101 6 -169 -68 -166 -158c2 -99 66 -159 153 -163
z" />
    <glyph glyph-name="zero.dnom" horiz-adv-x="810" 
d="M404 -12c-206 0 -342 191 -342 473s136 473 342 473c205 0 344 -191 344 -473s-139 -473 -344 -473zM405 162c94 0 163 115 163 299c0 183 -69 298 -163 298c-96 0 -163 -115 -163 -298c0 -184 67 -299 163 -299z" />
    <glyph glyph-name="one.dnom" horiz-adv-x="510" 
d="M216 922h162v-922h-175v749l-188 -146v171z" />
    <glyph glyph-name="two.dnom" horiz-adv-x="743" 
d="M241 139h439v-139h-627v166c389 273 436 387 436 475c0 118 -66 147 -126 145c-91 -5 -123 -73 -121 -150h-183c-3 176 131 300 313 300c172 0 289 -111 290 -277c2 -167 -118 -340 -421 -520z" />
    <glyph glyph-name="three.dnom" horiz-adv-x="723" 
d="M531 508c83 -45 135 -122 135 -225c0 -163 -133 -295 -317 -295c-172 0 -308 114 -308 271l173 1c4 -80 67 -122 140 -122c83 0 138 52 138 141c0 86 -52 135 -145 135h-59v138h47c76 0 122 45 122 122s-46 115 -112 115c-62 0 -110 -33 -115 -118h-169
c0 160 123 263 282 263c157 0 271 -105 271 -250c0 -76 -30 -136 -83 -176z" />
    <glyph glyph-name="four.dnom" horiz-adv-x="765" 
d="M707 331v-136h-93v-195h-172v195h-424v145l364 582h232v-591h93zM171 331h271v454z" />
    <glyph glyph-name="five.dnom" horiz-adv-x="793" 
d="M396 597c235 0 331 -119 331 -295c0 -197 -144 -312 -326 -312c-181 0 -333 96 -340 295h179c8 -104 79 -146 155 -146c94 0 154 62 154 157c0 105 -55 158 -184 158h-286l96 469h518v-148h-392l-35 -178h130z" />
    <glyph glyph-name="six.dnom" horiz-adv-x="737" 
d="M705 313c1 -184 -159 -332 -342 -324c-185 7 -336 137 -338 318c-1 80 34 147 73 206l303 409h210l-238 -297c17 2 36 2 59 -1c114 -11 271 -128 273 -311zM363 155c101 -6 169 68 167 158c-2 98 -67 159 -154 163c-113 7 -175 -67 -174 -167c2 -94 62 -148 161 -154z
" />
    <glyph glyph-name="seven.dnom" horiz-adv-x="675" 
d="M35 922h632v-130l-425 -792h-204l419 758h-422v164z" />
    <glyph glyph-name="eight.dnom" horiz-adv-x="754" 
d="M566 509c81 -50 132 -133 132 -233c0 -163 -137 -288 -322 -288s-321 125 -321 288c0 100 50 183 131 233c-52 42 -77 106 -77 183c0 137 113 242 268 242c152 0 265 -105 265 -242c0 -77 -25 -141 -76 -183zM377 790c-67 0 -114 -49 -114 -116c0 -63 47 -113 114 -113
c65 0 113 50 113 113c0 67 -48 116 -113 116zM376 143c83 0 145 68 145 152c0 83 -62 145 -145 145c-84 0 -145 -62 -145 -145c0 -84 61 -152 145 -152z" />
    <glyph glyph-name="nine.dnom" horiz-adv-x="737" 
d="M711 615c1 -81 -32 -148 -74 -205l-302 -410h-210l238 296c-17 -2 -37 -2 -59 1c-114 11 -272 129 -273 312c-2 183 158 332 341 324c187 -8 337 -137 339 -318zM360 445c113 -7 175 67 174 168c-2 94 -62 148 -161 154c-101 6 -169 -68 -166 -158
c2 -99 66 -159 153 -164z" />
    <glyph glyph-name="zero.numr" horiz-adv-x="810" 
d="M404 605c-206 0 -342 191 -342 473c0 283 136 474 342 474c205 0 344 -191 344 -474c0 -282 -139 -473 -344 -473zM405 780c94 0 163 115 163 298c0 184 -69 298 -163 298c-96 0 -163 -114 -163 -298c0 -183 67 -298 163 -298z" />
    <glyph glyph-name="one.numr" horiz-adv-x="512" 
d="M217 1536h163v-922h-177l1 752l-188 -147l-1 169z" />
    <glyph glyph-name="two.numr" horiz-adv-x="743" 
d="M242 754h438v-140h-627v166c389 273 436 388 436 476c0 118 -66 147 -126 144c-91 -4 -123 -73 -121 -150h-183c-3 176 131 300 313 300c172 0 289 -111 290 -276c2 -167 -117 -340 -420 -520z" />
    <glyph glyph-name="three.numr" horiz-adv-x="723" 
d="M529 1122c86 -45 137 -123 137 -225c0 -163 -134 -295 -315 -295c-176 0 -310 115 -310 271l183 1c0 -80 56 -121 127 -121c80 0 134 52 134 141c0 86 -54 134 -152 134h-45v139h34c84 0 128 44 128 123c0 72 -45 113 -106 113c-62 0 -104 -33 -104 -118l-179 1
c0 159 121 262 283 262c156 0 270 -104 270 -251c0 -75 -30 -135 -85 -175z" />
    <glyph glyph-name="four.numr" horiz-adv-x="765" 
d="M707 945v-136h-93v-195h-172v195h-424v146l364 581h232v-591h93zM171 945h271v454z" />
    <glyph glyph-name="five.numr" horiz-adv-x="793" 
d="M396 1211c235 0 331 -118 331 -294c0 -197 -144 -312 -326 -312c-181 0 -333 96 -340 294h179c8 -104 79 -146 155 -146c94 0 154 62 154 158c0 103 -55 157 -184 157h-286l96 469h518v-148h-392l-35 -178h130z" />
    <glyph glyph-name="six.numr" horiz-adv-x="737" 
d="M705 927c1 -184 -159 -332 -342 -324c-185 8 -336 137 -338 318c-1 81 34 148 73 207l303 408h210l-238 -297c17 3 37 3 59 0c114 -11 271 -129 273 -312zM363 769c101 -6 169 68 167 158c-2 99 -67 159 -154 164c-113 7 -175 -67 -174 -168c2 -93 62 -148 161 -154z" />
    <glyph glyph-name="seven.numr" horiz-adv-x="675" 
d="M35 1536h632v-130l-425 -792h-204l419 758h-422v164z" />
    <glyph glyph-name="eight.numr" horiz-adv-x="754" 
d="M566 1123c81 -49 132 -132 132 -232c0 -164 -137 -289 -322 -289s-321 125 -321 289c0 100 50 183 131 232c-52 42 -77 107 -77 184c0 136 113 241 268 241c152 0 265 -105 265 -241c0 -77 -24 -141 -76 -184zM377 1404c-67 0 -114 -49 -114 -115c0 -64 47 -114 114 -114
c65 0 113 50 113 114c0 66 -48 115 -113 115zM376 757c83 0 145 68 145 152c0 83 -62 145 -145 145c-84 0 -145 -62 -145 -145c0 -84 61 -152 145 -152z" />
    <glyph glyph-name="nine.numr" horiz-adv-x="737" 
d="M711 1229c1 -80 -32 -147 -74 -205l-302 -410h-210l238 297c-17 -2 -36 -2 -59 1c-114 11 -272 128 -273 311c-2 183 158 332 341 324c187 -7 337 -137 339 -318zM360 1060c113 -7 175 67 174 167c-2 94 -62 148 -161 154c-101 6 -169 -68 -166 -158
c2 -99 66 -159 153 -163z" />
    <glyph glyph-name="zero.sups" horiz-adv-x="810" 
d="M404 974c-206 0 -342 191 -342 473s136 473 342 473c205 0 344 -191 344 -473s-139 -473 -344 -473zM405 1149c94 0 163 115 163 298c0 184 -69 298 -163 298c-96 0 -163 -114 -163 -298c0 -183 67 -298 163 -298z" />
    <glyph glyph-name="one.sups" horiz-adv-x="512" 
d="M217 1905h163v-922h-177l1 751l-188 -146l-1 169z" />
    <glyph glyph-name="two.sups" horiz-adv-x="743" 
d="M240 1122h440v-139h-627v166c389 273 436 387 436 475c0 118 -66 148 -126 145c-91 -5 -123 -73 -121 -150h-183c-3 176 131 300 313 300c172 0 289 -111 290 -277c2 -168 -118 -340 -422 -520z" />
    <glyph glyph-name="three.sups" horiz-adv-x="723" 
d="M529 1490c86 -45 137 -122 137 -224c0 -163 -134 -295 -315 -295c-176 0 -310 114 -310 271l183 1c0 -80 56 -122 127 -122c80 0 134 53 134 142c0 85 -54 134 -152 134h-45v138h34c84 0 128 45 128 123c0 73 -45 114 -106 114c-62 0 -104 -33 -104 -118h-179
c0 160 121 263 283 263c156 0 270 -105 270 -251c0 -75 -30 -135 -85 -176z" />
    <glyph glyph-name="four.sups" horiz-adv-x="765" 
d="M707 1314v-136h-93v-195h-172v195h-424v145l364 582h232v-591h93zM171 1314h271v454z" />
    <glyph glyph-name="five.sups" horiz-adv-x="793" 
d="M396 1580c235 0 331 -119 331 -295c0 -197 -144 -312 -326 -312c-181 0 -333 96 -340 295h179c8 -104 79 -146 155 -146c94 0 154 62 154 157c0 104 -55 158 -184 158h-286l96 469h518v-148h-392l-35 -178h130z" />
    <glyph glyph-name="six.sups" horiz-adv-x="737" 
d="M705 1296c1 -184 -159 -332 -342 -324c-185 7 -336 137 -338 318c-1 81 34 147 73 206l303 409h210l-238 -297c16 2 36 2 59 -1c114 -11 271 -128 273 -311zM363 1138c101 -6 169 68 167 158c-2 98 -67 159 -154 163c-113 7 -175 -67 -174 -167c2 -94 62 -148 161 -154z
" />
    <glyph glyph-name="seven.sups" horiz-adv-x="675" 
d="M35 1905h632v-130l-425 -792h-204l419 758h-422v164z" />
    <glyph glyph-name="eight.sups" horiz-adv-x="754" 
d="M566 1492c81 -49 132 -132 132 -232c0 -164 -137 -289 -322 -289s-321 125 -321 289c0 100 50 182 131 232c-52 42 -77 106 -77 183c0 137 113 242 268 242c152 0 265 -105 265 -242c0 -77 -25 -141 -76 -183zM377 1773c-67 0 -114 -50 -114 -116c0 -63 47 -113 114 -113
c65 0 113 50 113 113c0 66 -48 116 -113 116zM376 1126c83 0 145 68 145 152c0 83 -62 145 -145 145c-84 0 -145 -62 -145 -145c0 -84 61 -152 145 -152z" />
    <glyph glyph-name="nine.sups" horiz-adv-x="737" 
d="M711 1598c1 -81 -32 -148 -74 -205l-302 -410h-210l239 297c-17 -3 -37 -3 -60 0c-114 11 -272 129 -273 312c-2 183 158 332 341 324c187 -8 337 -137 339 -318zM360 1428c113 -7 175 67 174 168c-2 94 -62 148 -161 154c-101 6 -169 -68 -166 -158
c2 -99 66 -159 153 -164z" />
    <glyph glyph-name="fraction" unicode="&#x2044;" horiz-adv-x="447" 
d="M-307 0l866 1536h195l-866 -1536h-195z" />
    <glyph glyph-name="onehalf" unicode="&#xbd;" horiz-adv-x="1702" 
d="M380 614h-177l1 752l-188 -147l-1 169l202 148h163v-922zM1071 1536h195l-866 -1536h-195zM1200 139h439v-139h-627v166c389 273 436 387 436 475c0 118 -66 147 -126 145c-91 -5 -123 -73 -121 -150h-183c-3 176 131 300 313 300c172 0 289 -111 290 -277
c2 -167 -118 -340 -421 -520z" />
    <glyph glyph-name="onequarter" unicode="&#xbc;" horiz-adv-x="1667" 
d="M380 614h-177l1 752l-188 -147l-1 169l202 148h163v-922zM1071 1536h195l-866 -1536h-195zM1609 331v-136h-93v-195h-172v195h-424v145l364 582h232v-591h93zM1073 331h271v454z" />
    <glyph glyph-name="threequarters" unicode="&#xbe;" horiz-adv-x="1878" 
d="M666 897c0 -163 -134 -295 -315 -295c-176 0 -310 115 -310 271l183 1c0 -80 56 -121 127 -121c80 0 134 52 134 141c0 86 -54 134 -152 134h-45v139h34c84 0 128 44 128 123c0 72 -45 113 -106 113c-62 0 -104 -33 -104 -118l-179 1c0 159 121 262 283 262
c156 0 270 -104 270 -251c0 -75 -30 -135 -85 -175c86 -45 137 -123 137 -225zM1282 1536h195l-866 -1536h-195zM1820 331v-136h-93v-195h-172v195h-424v145l364 582h232v-591h93zM1284 331h271v454z" />
    <glyph glyph-name="asterisk" unicode="*" horiz-adv-x="1029" 
d="M385 817l-134 80l225 274l-353 -55v154l353 -56l-225 277l134 78l129 -332l127 332l137 -78l-228 -277l354 56v-154l-354 55l228 -274l-137 -80l-127 331z" />
    <glyph glyph-name="backslash" unicode="\" horiz-adv-x="1251" 
d="M989 -397l-998 1933h271l997 -1933h-270z" />
    <glyph glyph-name="periodcentered" unicode="&#xb7;" horiz-adv-x="622" 
d="M311 616c-65 0 -122 52 -122 121c0 65 57 122 122 122c64 0 122 -57 122 -122c0 -69 -58 -121 -122 -121z" />
    <glyph glyph-name="bullet" unicode="&#x2022;" horiz-adv-x="946" 
d="M473 352c-173 0 -321 140 -321 320c0 173 148 322 321 322c172 0 320 -149 320 -322c0 -180 -148 -320 -320 -320z" />
    <glyph glyph-name="colon" unicode=":" horiz-adv-x="666" 
d="M332 716c-88 0 -164 74 -164 165c0 88 76 163 164 163c90 0 165 -75 165 -163c0 -91 -75 -165 -165 -165zM332 -20c-88 0 -164 74 -164 163c0 90 76 165 164 165c90 0 165 -75 165 -165c0 -89 -75 -163 -165 -163z" />
    <glyph glyph-name="comma" unicode="," horiz-adv-x="706" 
d="M371 -374h-205l117 656h300z" />
    <glyph glyph-name="ellipsis" unicode="&#x2026;" horiz-adv-x="2008" 
d="M343 -20c-88 0 -164 74 -164 163c0 90 76 165 164 165c90 0 165 -75 165 -165c0 -89 -75 -163 -165 -163zM1000 -20c-88 0 -164 74 -164 163c0 90 76 165 164 165c90 0 165 -75 165 -165c0 -89 -75 -163 -165 -163zM1662 -20c-88 0 -164 74 -164 163c0 90 76 165 164 165
c90 0 165 -75 165 -165c0 -89 -75 -163 -165 -163z" />
    <glyph glyph-name="exclam" unicode="!" horiz-adv-x="709" 
d="M204 510v1026h289v-1026h-289zM349 -20c-90 0 -164 74 -164 163c0 92 74 165 164 165c91 0 165 -73 165 -165c0 -89 -74 -163 -165 -163z" />
    <glyph glyph-name="exclamdown" unicode="&#xa1;" horiz-adv-x="709" 
d="M349 1044c91 0 165 -74 165 -163c0 -92 -74 -165 -165 -165c-90 0 -164 73 -164 165c0 89 74 163 164 163zM204 514h289v-1026h-289v1026z" />
    <glyph glyph-name="numbersign" unicode="#" horiz-adv-x="1636" 
d="M335 0l48 339h-289l28 204h288l61 400h-292l34 202h285l49 345h202l-47 -345h347l48 345h204l-49 -345h292l-33 -202h-286l-57 -400h287l-28 -204h-286l-52 -339h-201l47 339h-351l-45 -339h-204zM616 543h347l58 400h-350z" />
    <glyph glyph-name="period" unicode="." horiz-adv-x="689" 
d="M343 -20c-88 0 -164 74 -164 163c0 90 76 165 164 165c90 0 165 -75 165 -165c0 -89 -75 -163 -165 -163z" />
    <glyph glyph-name="question" unicode="?" horiz-adv-x="1165" 
d="M445 468v384c192 0 371 26 371 242c0 143 -106 220 -241 220c-148 0 -243 -94 -246 -230h-253c1 274 206 469 497 469c279 0 495 -176 495 -457c0 -301 -218 -394 -364 -418v-210h-259zM582 -20c-91 0 -165 73 -165 163c0 91 74 165 165 165c90 0 163 -74 163 -165
c0 -90 -73 -163 -163 -163z" />
    <glyph glyph-name="questiondown" unicode="&#xbf;" horiz-adv-x="1165" 
d="M562 1046c91 0 165 -73 165 -163c0 -91 -74 -165 -165 -165c-90 0 -163 74 -163 165c0 90 73 163 163 163zM699 558v-384c-192 0 -371 -26 -371 -242c0 -143 106 -220 241 -220c148 0 243 94 246 230h253c-1 -274 -206 -469 -497 -469c-279 0 -495 176 -495 457
c0 301 218 394 364 418v210h259z" />
    <glyph glyph-name="quotedbl" unicode="&#x22;" horiz-adv-x="1107" 
d="M240 884l-32 652h272l-24 -652h-216zM651 884l-23 652h271l-31 -652h-217z" />
    <glyph glyph-name="quotesingle" unicode="'" horiz-adv-x="692" 
d="M238 884l-29 652h274l-29 -652h-216z" />
    <glyph glyph-name="semicolon" unicode=";" horiz-adv-x="696" 
d="M377 716c-89 0 -164 74 -164 165c0 88 75 163 164 163c90 0 165 -75 165 -163c0 -91 -75 -165 -165 -165zM128 -374l116 656h301l-212 -656h-205z" />
    <glyph glyph-name="slash" unicode="/" horiz-adv-x="1251" 
d="M-9 -397l998 1933h270l-997 -1933h-271z" />
    <glyph glyph-name="underscore" unicode="_" horiz-adv-x="1339" 
d="M158 -225v237h1024v-237h-1024z" />
    <glyph glyph-name="braceleft" unicode="{" horiz-adv-x="702" 
d="M510 -495c-189 0 -302 142 -302 319v473c0 216 -28 239 -154 290v183c126 50 154 75 154 291v473c0 178 113 319 302 319h124v-231h-68c-63 0 -100 -43 -100 -134v-431c0 -188 -29 -313 -221 -378c192 -66 221 -191 221 -378v-434c0 -94 28 -131 100 -131h68v-231h-124z
" />
    <glyph glyph-name="braceright" unicode="}" horiz-adv-x="702" 
d="M192 -495h-124v231h68c72 0 100 37 100 131v434c0 187 29 312 221 378c-192 65 -221 190 -221 378v431c0 91 -37 134 -100 134h-68v231h124c189 0 302 -141 302 -319v-473c0 -216 28 -241 154 -291v-183c-126 -51 -154 -74 -154 -290v-473c0 -177 -113 -319 -302 -319z
" />
    <glyph glyph-name="bracketleft" unicode="[" horiz-adv-x="729" 
d="M161 -512v2347h514v-204h-264v-1939h264v-204h-514z" />
    <glyph glyph-name="bracketright" unicode="]" horiz-adv-x="729" 
d="M568 -512h-514v204h264v1939h-264v204h514v-2347z" />
    <glyph glyph-name="parenleft" unicode="(" horiz-adv-x="726" 
d="M531 -464c-264 193 -431 609 -431 1142c0 529 167 951 431 1143l158 -191c-200 -142 -336 -495 -336 -952c0 -461 136 -810 336 -951z" />
    <glyph glyph-name="parenright" unicode=")" horiz-adv-x="726" 
d="M195 -464l-158 191c200 141 336 490 336 951c0 457 -136 810 -336 952l158 191c264 -192 431 -614 431 -1143c0 -533 -167 -949 -431 -1142z" />
    <glyph glyph-name="emdash" unicode="&#x2014;" horiz-adv-x="2040" 
d="M-4 414v237h2048v-237h-2048z" />
    <glyph glyph-name="endash" unicode="&#x2013;" horiz-adv-x="1339" 
d="M158 414v237h1024v-237h-1024z" />
    <glyph glyph-name="hyphen" unicode="-" horiz-adv-x="1032" 
d="M158 414v237h716v-237h-716z" />
    <glyph glyph-name="uni00AD" unicode="&#xad;" horiz-adv-x="1032" 
d="M158 409v247h716v-247h-716z" />
    <glyph glyph-name="guillemotleft" unicode="&#xab;" horiz-adv-x="1134" 
d="M370 195l-311 376l311 377h229l-311 -377l311 -376h-229zM833 195l-312 376l312 377h232l-311 -377l311 -376h-232z" />
    <glyph glyph-name="guillemotright" unicode="&#xbb;" horiz-adv-x="1134" 
d="M69 195l311 376l-311 377h229l311 -377l-311 -376h-229zM532 195l311 376l-311 377h232l311 -377l-311 -376h-232z" />
    <glyph glyph-name="guilsinglleft" unicode="&#x2039;" horiz-adv-x="668" 
d="M370 195l-311 376l311 377h229l-311 -377l311 -376h-229z" />
    <glyph glyph-name="guilsinglright" unicode="&#x203a;" horiz-adv-x="668" 
d="M69 195l311 376l-311 377h229l311 -377l-311 -376h-229z" />
    <glyph glyph-name="quotedblbase" unicode="&#x201e;" horiz-adv-x="1092" 
d="M339 -374h-205l117 656h300zM790 -374h-205l117 656h300z" />
    <glyph glyph-name="quotedblleft" unicode="&#x201c;" horiz-adv-x="1099" 
d="M302 1536h205l-117 -656h-300zM760 1536h205l-117 -656h-300z" />
    <glyph glyph-name="quotedblright" unicode="&#x201d;" horiz-adv-x="1099" 
d="M339 880h-205l117 656h300zM797 880h-205l117 656h300z" />
    <glyph glyph-name="quoteleft" unicode="&#x2018;" horiz-adv-x="641" 
d="M302 1536h205l-117 -656h-300z" />
    <glyph glyph-name="quoteright" unicode="&#x2019;" horiz-adv-x="641" 
d="M339 880h-205l117 656h300z" />
    <glyph glyph-name="quotesinglbase" unicode="&#x201a;" horiz-adv-x="641" 
d="M339 -374h-205l117 656h300z" />
    <glyph glyph-name="hyphen.subs" horiz-adv-x="955" 
d="M156 45v150h642v-150h-642z" />
    <glyph glyph-name="hyphen.sups" horiz-adv-x="955" 
d="M156 1376v151h642v-151h-642z" />
    <glyph glyph-name="space" unicode=" " horiz-adv-x="582" 
 />
    <glyph glyph-name="cent" unicode="&#xa2;" horiz-adv-x="1328" 
d="M714 466c106 0 195 48 250 126l203 -171c-98 -116 -249 -191 -422 -198v-223h-168v236c-258 55 -441 262 -441 534c0 273 183 480 441 535v231h168v-218c173 -7 324 -82 422 -198l-203 -171c-55 78 -144 126 -250 126c-172 0 -305 -124 -305 -305
c0 -180 133 -304 305 -304z" />
    <glyph glyph-name="currency" unicode="&#xa4;" horiz-adv-x="1431" 
d="M714 253c-92 0 -182 26 -261 75l-111 -111l-151 160l108 107c-51 78 -76 168 -76 258c0 92 25 182 76 261l-106 105l151 160l111 -112c79 52 170 78 262 78c90 0 179 -26 257 -77l109 109l154 -154l-107 -107c50 -79 75 -170 75 -262c0 -90 -25 -182 -75 -261l106 -105
l-151 -160l-111 111c-78 -49 -170 -75 -260 -75zM714 468c156 0 274 129 274 277c0 150 -123 272 -274 272c-153 0 -274 -126 -274 -278c0 -156 127 -271 274 -271z" />
    <glyph glyph-name="dollar" unicode="$" horiz-adv-x="1330" 
d="M1200 423c0 -259 -179 -404 -409 -436v-153h-259v164c-158 34 -309 114 -417 227l172 215c104 -121 267 -207 408 -207c120 0 207 62 207 171c0 137 -137 188 -312 265c-201 88 -413 188 -413 459c0 229 151 376 355 417v159h259v-162c136 -28 261 -94 366 -188
l-157 -213c-112 109 -246 162 -356 162c-97 0 -174 -49 -174 -145c0 -125 132 -174 309 -250c202 -89 421 -199 421 -485z" />
    <glyph glyph-name="Euro" unicode="&#x20ac;" horiz-adv-x="1700" 
d="M996 253c142 0 268 74 343 204l245 -166c-128 -186 -345 -311 -588 -311c-325 0 -594 225 -687 540h-168v171h135c-2 25 -3 51 -3 77c0 25 1 49 3 73h-135v171h167c92 317 361 544 688 544c243 0 460 -125 588 -311l-245 -166c-75 130 -201 204 -343 204
c-167 0 -309 -106 -379 -271h457v-171h-501c-3 -24 -4 -48 -4 -73c0 -26 1 -52 4 -77h501v-171h-455c71 -162 211 -267 377 -267z" />
    <glyph glyph-name="florin" unicode="&#x192;" horiz-adv-x="1117" 
d="M879 1340c-105 0 -177 -72 -196 -187l-21 -129h276l-35 -229h-277l-208 -1307h-271l206 1307h-171l35 229h172l27 169c33 208 225 363 431 363c72 0 135 -18 159 -37l-25 -210c-27 22 -68 31 -102 31z" />
    <glyph glyph-name="sterling" unicode="&#xa3;" horiz-adv-x="1468" 
d="M155 0v179l49 11c77 14 115 59 115 136v308h-164v215h164v171c0 312 218 536 524 536c222 0 437 -154 502 -371l-256 -109c-18 142 -129 232 -246 232c-155 0 -252 -103 -252 -288v-171h332v-215h-332v-384h689v-250h-1125z" />
    <glyph glyph-name="yen" unicode="&#xa5;" horiz-adv-x="1559" 
d="M1466 1536l-517 -781h323v-195h-342v-146h341v-184h-341v-230h-298v230h-344v184h344v146h-344v195h322l-517 781h341l347 -553l348 553h337z" />
    <glyph glyph-name="plus" unicode="+" horiz-adv-x="1245" 
d="M510 198v387h-387v226h387v387h226v-387h386v-226h-386v-387h-226z" />
    <glyph glyph-name="minus" unicode="&#x2212;" horiz-adv-x="1341" 
d="M237 585v226h867v-226h-867z" />
    <glyph glyph-name="multiply" unicode="&#xd7;" horiz-adv-x="1113" 
d="M290 267l-159 160l265 266l-265 265l159 161l267 -265l265 265l160 -161l-266 -265l266 -266l-160 -160l-265 265z" />
    <glyph glyph-name="divide" unicode="&#xf7;" horiz-adv-x="1109" 
d="M547 922c-80 0 -152 66 -152 152c0 81 72 153 152 153c82 0 154 -72 154 -153c0 -86 -72 -152 -154 -152zM121 585v226h867v-226h-867zM547 169c-80 0 -152 66 -152 153c0 81 72 152 152 152c82 0 154 -71 154 -152c0 -87 -72 -153 -154 -153z" />
    <glyph glyph-name="equal" unicode="=" horiz-adv-x="1345" 
d="M239 806v226h867v-226h-867zM239 365v226h867v-226h-867z" />
    <glyph glyph-name="notequal" unicode="&#x2260;" horiz-adv-x="1250" 
d="M147 0l188 365h-135v226h251l112 215h-363v226h479l168 324h214l-168 -324h174v-226h-290l-111 -215h401v-226h-516l-189 -365h-215z" />
    <glyph glyph-name="greater" unicode="&#x3e;" horiz-adv-x="1387" 
d="M146 1464l1131 -568v-271l-1131 -572v254l897 454l-897 453v250z" />
    <glyph glyph-name="less" unicode="&#x3c;" horiz-adv-x="1387" 
d="M1241 1464v-250l-897 -453l897 -454v-254l-1131 572v271z" />
    <glyph glyph-name="greaterequal" unicode="&#x2265;" horiz-adv-x="1445" 
d="M170 1507l1131 -490v-272l-1131 -496v253l878 379l-878 376v250zM170 0v194h1131v-194h-1131z" />
    <glyph glyph-name="lessequal" unicode="&#x2264;" horiz-adv-x="1445" 
d="M1274 1507v-250l-877 -376l877 -379v-253l-1130 496v272zM144 0v194h1130v-194h-1130z" />
    <glyph glyph-name="plusminus" unicode="&#xb1;" horiz-adv-x="1309" 
d="M545 367v387h-387v226h387v387h226v-387h387v-226h-387v-387h-226zM145 0v227h1012v-227h-1012z" />
    <glyph glyph-name="approxequal" unicode="&#x2248;" horiz-adv-x="1416" 
d="M918 679c-163 0 -253 109 -299 158c-40 41 -68 49 -96 49c-84 0 -127 -81 -129 -192h-211c3 242 126 405 343 405c110 0 185 -44 268 -148c24 -28 53 -67 107 -67c70 0 120 70 124 190h208c-4 -224 -114 -395 -315 -395zM918 189c-163 0 -254 110 -299 159
c-32 33 -53 50 -96 49c-87 -5 -127 -82 -129 -192h-211c3 245 130 406 343 406c106 0 182 -43 268 -148c22 -26 53 -68 107 -68c70 0 120 67 124 191h208c-4 -224 -114 -397 -315 -397z" />
    <glyph glyph-name="asciitilde" unicode="~" horiz-adv-x="1418" 
d="M916 314c-162 0 -250 111 -299 158c-38 38 -66 50 -94 50c-92 0 -131 -96 -131 -193h-211c-12 239 120 404 347 404c122 0 191 -49 265 -146c25 -32 54 -68 105 -68c72 0 133 71 125 191h209c22 -225 -115 -396 -316 -396z" />
    <glyph glyph-name="logicalnot" unicode="&#xac;" horiz-adv-x="1716" 
d="M1244 181v524h-1113v236h1346v-760h-233z" />
    <glyph glyph-name="emptyset" unicode="&#x2205;" horiz-adv-x="1534" 
d="M1237 988c89 -106 142 -243 142 -392c0 -338 -274 -612 -612 -612c-149 0 -286 53 -393 142l-89 -89l-77 78l89 89c-89 106 -143 243 -143 392c0 338 275 612 613 612c149 0 286 -53 392 -142l89 89l78 -78zM385 596c0 -86 28 -165 75 -229l536 536
c-64 47 -143 75 -229 75c-212 0 -382 -170 -382 -382zM767 214c212 0 382 170 382 382c0 86 -28 165 -75 229l-536 -535c64 -48 143 -76 229 -76z" />
    <glyph glyph-name="infinity" unicode="&#x221e;" horiz-adv-x="1736" 
d="M491 260c-184 0 -316 138 -322 336c6 198 138 336 322 336c120 0 251 -70 375 -193c124 124 255 193 375 193c193 0 314 -126 320 -336c-6 -210 -127 -336 -320 -336c-120 0 -251 68 -375 193c-124 -123 -255 -193 -375 -193zM491 453c68 0 156 50 246 143
c-90 93 -178 143 -246 143c-70 0 -129 -59 -130 -143c1 -84 60 -143 130 -143zM1241 453c72 0 127 54 128 143c-1 89 -56 143 -128 143c-70 0 -157 -52 -247 -143c90 -91 177 -143 247 -143z" />
    <glyph glyph-name="integral" unicode="&#x222b;" horiz-adv-x="986" 
d="M89 -457v273c199 0 253 57 253 232v1065c0 196 145 335 335 335c76 0 171 -22 234 -82l-109 -217c-32 31 -67 45 -96 45c-51 0 -91 -33 -91 -134v-1035c0 -304 -217 -482 -526 -482z" />
    <glyph glyph-name="product" unicode="&#x220f;" horiz-adv-x="1714" 
d="M1570 1440v-254h-123v-1186h-252v1186h-673v-1186h-255v1186h-122v254h1425z" />
    <glyph glyph-name="summation" unicode="&#x2211;" horiz-adv-x="1450" 
d="M118 -240v183l695 655l-695 655v187h1205v-230h-809l632 -612l-632 -612h809v-230z" />
    <glyph glyph-name="radical" unicode="&#x221a;" horiz-adv-x="1502" 
d="M469 0l-215 664h-153v237h322l178 -544l563 1179h261l-737 -1536h-219z" />
    <glyph glyph-name="uni00B5" unicode="&#xb5;" horiz-adv-x="1391" 
d="M949 1024h254v-1024h-254v127c-76 -91 -185 -147 -308 -147c-79 0 -151 22 -213 62v-554h-188v1536h254v-602c0 -122 97 -219 220 -219c131 0 235 97 235 219v602z" />
    <glyph glyph-name="partialdiff" unicode="&#x2202;" horiz-adv-x="1249" 
d="M358 1456c414 94 754 -273 744 -784c-8 -397 -237 -670 -556 -670c-338 0 -514 268 -380 628c116 309 379 447 633 369c-69 195 -219 301 -441 249v208zM842 672c1 38 1 75 -1 111c-182 104 -352 19 -433 -219c-80 -238 21 -373 150 -373c128 0 271 160 284 481z" />
    <glyph glyph-name="percent" unicode="%" horiz-adv-x="1817" 
d="M462 843c-197 0 -357 160 -357 358c0 197 161 355 357 355c197 0 356 -158 356 -355s-159 -358 -356 -358zM609 0h-258l851 1536h258zM462 1046c87 0 154 69 154 155c0 84 -71 153 -154 153c-86 0 -154 -67 -154 -153s68 -155 154 -155zM1357 -16
c-199 0 -358 158 -358 357c0 196 161 355 358 355s355 -159 355 -355s-158 -357 -355 -357zM1357 187c86 0 154 68 154 154c0 83 -70 153 -154 153c-86 0 -155 -68 -155 -153c0 -86 69 -154 155 -154z" />
    <glyph glyph-name="perthousand" unicode="&#x2030;" horiz-adv-x="2623" 
d="M462 843c-197 0 -357 160 -357 358c0 197 161 355 357 355c197 0 356 -158 356 -355s-159 -358 -356 -358zM609 0h-258l851 1536h258zM462 1046c87 0 154 69 154 155c0 84 -71 153 -154 153c-86 0 -154 -67 -154 -153s68 -155 154 -155zM1357 -16
c-199 0 -358 158 -358 357c0 196 161 355 358 355s355 -159 355 -355s-158 -357 -355 -357zM2164 -16c-199 0 -358 158 -358 357c0 196 161 355 358 355s355 -159 355 -355s-158 -357 -355 -357zM1357 187c86 0 154 68 154 154c0 83 -70 153 -154 153
c-86 0 -155 -68 -155 -153c0 -86 69 -154 155 -154zM2164 187c86 0 154 68 154 154c0 83 -70 153 -154 153c-86 0 -155 -68 -155 -153c0 -86 69 -154 155 -154z" />
    <glyph glyph-name="plus.subs" horiz-adv-x="1099" 
d="M474 -274v319h-318v150h318v318h151v-318h318v-150h-318v-319h-151z" />
    <glyph glyph-name="minus.subs" horiz-adv-x="955" 
d="M156 45v150h642v-150h-642z" />
    <glyph glyph-name="plus.sups" horiz-adv-x="1099" 
d="M474 1058v318h-318v151h318v317h151v-317h318v-151h-318v-318h-151z" />
    <glyph glyph-name="minus.sups" horiz-adv-x="955" 
d="M156 1376v151h642v-151h-642z" />
    <glyph glyph-name="lozenge" unicode="&#x25ca;" horiz-adv-x="1395" 
d="M698 106l-619 617l619 618l616 -616zM699 422l300 303l-300 301l-303 -303z" />
    <glyph glyph-name="uniF8FF" unicode="&#xf8ff;" horiz-adv-x="1822" 
d="M911 0c-428 0 -778 350 -778 778c0 430 350 778 778 778c430 0 778 -348 778 -778c0 -428 -348 -778 -778 -778zM911 74c389 0 704 317 704 704c0 389 -315 705 -704 705c-387 0 -705 -316 -705 -705c0 -387 318 -704 705 -704zM1319 444c-9 0 -19 5 -25 13l-297 295
c-14 16 -14 39 0 53l297 297c14 14 37 14 51 0c14 -15 14 -39 0 -53l-270 -271l270 -270c14 -14 12 -35 0 -51c-6 -8 -16 -13 -26 -13zM503 444c-20 0 -36 17 -36 37v594c0 21 16 37 36 37c21 0 37 -16 37 -37v-594c0 -20 -16 -37 -37 -37zM911 444c-21 0 -37 17 -37 37v594
c0 21 16 37 37 37c20 0 37 -16 37 -37v-594c0 -20 -17 -37 -37 -37zM614 741c-20 0 -37 17 -37 37c0 21 17 37 37 37h186c21 0 37 -16 37 -37c0 -20 -16 -37 -37 -37h-186z" />
    <glyph glyph-name="at" unicode="@" horiz-adv-x="1793" 
d="M1321 903c-28 -138 -56 -268 -84 -410c-29 -142 -33 -214 52 -214c111 0 193 132 193 329c0 348 -247 514 -553 514c-363 0 -594 -268 -594 -608c0 -375 263 -596 607 -596c191 0 327 52 438 132l99 -141c-158 -114 -352 -163 -552 -163c-470 0 -791 323 -791 771
c0 451 360 777 795 777c378 0 733 -226 733 -670c0 -366 -216 -514 -409 -514c-122 0 -185 61 -195 132c-26 -49 -108 -131 -247 -131c-195 0 -308 149 -308 346c0 220 150 475 418 475c108 0 186 -50 215 -110l17 81h166zM1078 573c2 103 -33 204 -155 204
c-147 0 -230 -177 -230 -326c0 -74 30 -185 151 -185c167 0 232 184 234 307z" />
    <glyph glyph-name="ampersand" unicode="&#x26;" horiz-adv-x="1560" 
d="M585 -22c-262 0 -473 171 -473 452c0 211 117 318 320 469c-96 109 -138 199 -138 304c0 204 155 351 365 351c208 0 367 -138 367 -336c0 -165 -110 -260 -241 -362l244 -303l227 280l172 -167l-245 -302l292 -366h-317l-146 183c-124 -118 -255 -203 -427 -203z
M635 1017c82 59 162 108 162 201c0 80 -64 129 -135 129c-79 1 -139 -48 -139 -131c0 -81 57 -133 112 -199zM577 214c106 0 202 82 280 158l-275 342c-90 -67 -226 -146 -226 -285c0 -122 108 -215 221 -215z" />
    <glyph glyph-name="paragraph" unicode="&#xb6;" horiz-adv-x="1228" 
d="M502 -307v1157h-40c-225 0 -364 121 -364 344s139 342 364 342h186v-1843h-146zM839 -307v1843h147v-1843h-147z" />
    <glyph glyph-name="section" unicode="&#xa7;" horiz-adv-x="1024" 
d="M865 725c-2 -93 -41 -167 -102 -217c56 -50 94 -118 91 -220c-7 -206 -172 -303 -346 -300c-133 1 -248 67 -318 159l141 122c50 -62 113 -101 184 -102c75 -2 139 32 140 114c4 217 -511 137 -498 530c3 93 43 167 104 218c-57 50 -95 119 -92 221
c6 204 173 301 347 298c130 -1 246 -69 318 -160l-140 -120c-52 64 -115 101 -185 102c-75 1 -139 -31 -142 -114c-7 -217 510 -136 498 -531zM353 804c-5 -104 110 -143 231 -194c51 17 85 67 87 123c4 104 -109 143 -229 194c-53 -16 -87 -65 -89 -123z" />
    <glyph glyph-name="copyright" unicode="&#xa9;" horiz-adv-x="1842" 
d="M921 -20c-434 0 -788 354 -788 788s354 788 788 788s789 -354 789 -788s-355 -788 -789 -788zM921 134c356 0 635 279 635 634s-279 634 -635 634c-355 0 -634 -279 -634 -634s279 -634 634 -634zM926 330c-243 0 -439 196 -439 438c0 244 196 438 439 438
c130 0 256 -61 334 -156l-127 -101c-49 63 -124 98 -207 98c-155 0 -275 -118 -275 -279c0 -159 120 -277 275 -277c83 0 158 35 207 98l127 -102c-78 -95 -204 -157 -334 -157z" />
    <glyph glyph-name="registered" unicode="&#xae;" horiz-adv-x="1842" 
d="M921 1556c434 0 789 -354 789 -788s-355 -788 -789 -788s-788 354 -788 788s354 788 788 788zM921 134c356 0 635 279 635 634s-279 634 -635 634c-355 0 -634 -279 -634 -634s279 -634 634 -634zM1270 954c0 -107 -58 -195 -146 -236l172 -399h-184l-152 373h-149v-373
h-170v899h365c149 0 264 -118 264 -264zM811 1067v-229h170c70 0 125 43 125 113c0 69 -55 116 -125 116h-170z" />
    <glyph glyph-name="trademark" unicode="&#x2122;" horiz-adv-x="1750" 
d="M115 1410v126h512v-126h-185v-590h-144v590h-183zM1357 1536h153v-716h-143v491l-246 -364l-246 363v-490h-145v716h157l233 -350z" />
    <glyph glyph-name="degree" unicode="&#xb0;" horiz-adv-x="947" 
d="M472 954c-167 0 -301 133 -301 301s134 301 301 301c168 0 302 -133 302 -301s-134 -301 -302 -301zM472 1111c81 0 143 63 143 144s-62 144 -143 144s-143 -63 -143 -144s62 -144 143 -144z" />
    <glyph glyph-name="bar" unicode="|" horiz-adv-x="662" 
d="M241 -307v1843h179v-1843h-179z" />
    <glyph glyph-name="brokenbar" unicode="&#xa6;" horiz-adv-x="662" 
d="M241 799v737h179v-737h-179zM241 -307v737h179v-737h-179z" />
    <glyph glyph-name="uni2113" unicode="&#x2113;" horiz-adv-x="1288" 
d="M705 -13c-269 0 -395 163 -426 360c0 7 0 14 -1 20c-41 -26 -82 -59 -126 -90l-74 143c67 53 135 98 196 148v544c0 407 192 566 419 566c236 0 340 -180 340 -385c0 -269 -191 -513 -494 -776l1 -67c2 -163 108 -247 229 -247c139 0 257 108 324 214l117 -116
c-127 -227 -313 -314 -505 -314zM538 756c177 181 307 369 307 538c0 117 -38 199 -142 199c-76 0 -165 -79 -165 -347v-390z" />
    <glyph glyph-name="dagger" unicode="&#x2020;" horiz-adv-x="1035" 
d="M947 1010v-182h-342v-1176h-183v1176h-333v182h333v362h183v-362h342z" />
    <glyph glyph-name="daggerdbl" unicode="&#x2021;" horiz-adv-x="1113" 
d="M985 828h-341v-617h341v-181h-341v-378h-183v378h-333v181h333v617h-333v182h333v362h183v-362h341v-182z" />
    <glyph glyph-name="estimated" unicode="&#x212e;" horiz-adv-x="1979" 
d="M1004 -18c-483 0 -875 352 -875 784c0 438 392 790 875 790c485 0 876 -352 876 -790v-21h-1417c-8 0 -12 -2 -12 -8v-430c0 -18 8 -35 18 -49c138 -141 328 -233 537 -233c227 0 428 102 565 262h125c-155 -185 -409 -305 -692 -305zM463 788h1088c6 0 8 9 8 15v430
c0 18 -6 39 -21 51c-137 135 -323 225 -532 225c-207 0 -395 -92 -535 -231c-12 -14 -20 -33 -20 -53v-422c0 -6 4 -15 12 -15z" />
    <glyph glyph-name="uni2116" unicode="&#x2116;" horiz-adv-x="3183" 
d="M1376 440v1096h296v-1536h-282l-876 1100v-1100h-294v1536h280zM2472 359c-329 0 -579 231 -579 550c0 318 250 549 579 549c328 0 579 -231 579 -549c0 -319 -251 -550 -579 -550zM2471 1214c-170 0 -305 -126 -305 -305c0 -181 135 -305 305 -305
c169 0 306 127 306 305c0 177 -137 305 -306 305zM2012 0v188h923v-188h-923z" />
    <glyph glyph-name="asciicircum" unicode="^" horiz-adv-x="1567" 
d="M1481 406h-240l-457 908l-458 -908h-240l569 1130h257z" />
    <glyph glyph-name="uni0308" unicode="&#x308;" 
d="M-684 1268c-79 0 -145 64 -145 144c0 81 66 144 145 144s145 -63 145 -144c0 -80 -66 -144 -145 -144zM-264 1268c-80 0 -146 64 -146 144c0 81 66 144 146 144c79 0 144 -63 144 -144c0 -80 -65 -144 -144 -144z" />
    <glyph glyph-name="uni0307" unicode="&#x307;" 
d="M-282 1228c-91 0 -166 74 -166 165s75 163 166 163c89 0 164 -72 164 -163s-75 -165 -164 -165z" />
    <glyph glyph-name="gravecomb" unicode="&#x300;" 
d="M-214 1196l-229 261l144 105l268 -366h-183z" />
    <glyph glyph-name="acutecomb" unicode="&#x301;" 
d="M-467 1196l267 366l145 -105l-229 -261h-183z" />
    <glyph glyph-name="uni030B" unicode="&#x30b;" 
d="M-845 1196l267 366l144 -105l-229 -261h-182zM-473 1196l267 366l145 -105l-229 -261h-183z" />
    <glyph glyph-name="uni0302" unicode="&#x302;" 
d="M-534 1237h-178l223 299h191l224 -299h-180l-139 196z" />
    <glyph glyph-name="uni030C" unicode="&#x30c;" 
d="M-489 1237l-223 299h178l141 -197l139 197h180l-224 -299h-191z" />
    <glyph glyph-name="uni0306" unicode="&#x306;" 
d="M-461 1186c-214 0 -364 119 -364 350h165c0 -128 78 -217 199 -217c122 0 201 89 201 217h165c0 -231 -150 -350 -366 -350z" />
    <glyph glyph-name="uni030A" unicode="&#x30a;" 
d="M-341 1138c-133 0 -243 109 -243 242c0 131 110 240 243 240c132 0 239 -109 239 -240c0 -133 -107 -242 -239 -242zM-341 1261c65 0 117 48 117 119c0 63 -52 120 -117 120c-66 0 -115 -57 -115 -120c0 -71 49 -119 115 -119z" />
    <glyph glyph-name="tildecomb" unicode="&#x303;" 
d="M-339 1239c-87 0 -149 43 -197 116c-22 34 -43 47 -70 47c-57 0 -85 -65 -85 -149h-147c0 170 85 293 226 293c90 0 155 -51 197 -116c18 -26 38 -47 74 -47c56 0 82 57 82 150h147c0 -166 -78 -294 -227 -294z" />
    <glyph glyph-name="uni0304" unicode="&#x304;" 
d="M-804 1225v171h660v-171h-660z" />
    <glyph glyph-name="hookabovecomb" unicode="&#x309;" 
d="M-384 1133v139c76 14 113 47 113 97c0 38 -23 66 -68 66c-30 0 -61 -12 -89 -38l-69 100c43 35 99 59 171 59c123 0 200 -73 200 -180c0 -92 -57 -138 -129 -160v-83h-129z" />
    <glyph glyph-name="uni0312" unicode="&#x312;" 
d="M-306 1537h205l-117 -328h-300z" />
    <glyph glyph-name="uni031B" unicode="&#x31b;" 
d="M-327 748c-59 0 -141 22 -213 67l61 87c41 -23 74 -29 97 -29c75 0 98 47 98 133v152h154v-173c0 -184 -99 -237 -197 -237z" />
    <glyph glyph-name="dotbelowcomb" unicode="&#x323;" 
d="M-269 -512c-91 0 -166 73 -166 165c0 90 75 164 166 164c89 0 164 -74 164 -164c0 -92 -75 -165 -164 -165z" />
    <glyph glyph-name="uni0326" unicode="&#x326;" 
d="M-330 -583l-141 64l169 380h255z" />
    <glyph glyph-name="uni0327" unicode="&#x327;" 
d="M-308 -532c-115 0 -209 68 -240 153l130 44c19 -39 65 -63 105 -63c48 0 91 36 91 90c0 57 -42 88 -93 88c-27 0 -54 -10 -75 -30l-107 62l102 192h140l-69 -126c14 3 30 5 44 5c112 0 195 -79 195 -191c0 -125 -98 -224 -223 -224z" />
    <glyph glyph-name="uni0328" unicode="&#x328;" 
d="M-264 -530c-168 2 -259 95 -259 219c0 143 119 285 326 346l83 -35c-127 -61 -223 -169 -223 -261c0 -63 45 -92 100 -92c40 0 86 16 123 47v-196c-48 -20 -100 -29 -150 -28z" />
    <glyph glyph-name="uni0335" unicode="&#x335;" 
d="M-845 424v178h689v-178h-689z" />
    <glyph glyph-name="uni0336" unicode="&#x336;" 
d="M-1673 468v129h1516v-129h-1516z" />
    <glyph glyph-name="uni0337" unicode="&#x337;" 
d="M-703 229v191l651 483v-193z" />
    <glyph glyph-name="uni0338" unicode="&#x338;" 
d="M-923 221l795 1141l125 -75l-795 -1141z" />
    <glyph glyph-name="uni0338.case" 
d="M-1242 -16l1115 1604l132 -80l-1114 -1603z" />
    <glyph glyph-name="acute" unicode="&#xb4;" horiz-adv-x="493" 
d="M31 1196l267 366l145 -105l-229 -261h-183z" />
    <glyph glyph-name="breve" unicode="&#x2d8;" horiz-adv-x="920" 
d="M459 1186c-214 0 -364 119 -364 350h165c0 -128 78 -217 199 -217c122 0 201 89 201 217h165c0 -231 -150 -350 -366 -350z" />
    <glyph glyph-name="caron" unicode="&#x2c7;" horiz-adv-x="787" 
d="M297 1237l-223 299h178l141 -197l139 197h180l-224 -299h-191z" />
    <glyph glyph-name="cedilla" unicode="&#xb8;" horiz-adv-x="623" 
d="M315 -532c-115 0 -209 68 -240 153l130 44c19 -39 65 -63 105 -63c48 0 91 36 91 90c0 57 -42 88 -93 88c-27 0 -54 -10 -75 -30l-107 62l102 192h140l-69 -126c14 3 30 5 44 5c112 0 195 -79 195 -191c0 -125 -98 -224 -223 -224z" />
    <glyph glyph-name="circumflex" unicode="&#x2c6;" horiz-adv-x="786" 
d="M252 1237h-178l223 299h191l224 -299h-180l-139 196z" />
    <glyph glyph-name="dieresis" unicode="&#xa8;" horiz-adv-x="949" 
d="M265 1268c-79 0 -145 64 -145 144c0 81 66 144 145 144s145 -63 145 -144c0 -80 -66 -144 -145 -144zM685 1268c-80 0 -146 64 -146 144c0 81 66 144 146 144c79 0 144 -63 144 -144c0 -80 -65 -144 -144 -144z" />
    <glyph glyph-name="dotaccent" unicode="&#x2d9;" horiz-adv-x="564" 
d="M282 1228c-91 0 -166 74 -166 165s75 163 166 163c89 0 164 -72 164 -163s-75 -165 -164 -165z" />
    <glyph glyph-name="grave" unicode="`" horiz-adv-x="498" 
d="M278 1196l-229 261l144 105l268 -366h-183z" />
    <glyph glyph-name="hungarumlaut" unicode="&#x2dd;" horiz-adv-x="905" 
d="M43 1196l267 366l144 -105l-229 -261h-182zM415 1196l267 366l145 -105l-229 -261h-183z" />
    <glyph glyph-name="macron" unicode="&#xaf;" horiz-adv-x="948" 
d="M144 1225v171h660v-171h-660z" />
    <glyph glyph-name="ogonek" unicode="&#x2db;" horiz-adv-x="609" 
d="M345 -530c-168 2 -259 95 -259 219c0 143 119 285 326 346l83 -35c-127 -61 -223 -169 -223 -261c0 -63 45 -92 100 -92c40 0 86 16 123 47v-196c-48 -20 -100 -29 -150 -28z" />
    <glyph glyph-name="ring" unicode="&#x2da;" horiz-adv-x="684" 
d="M343 1138c-133 0 -243 109 -243 242c0 131 110 240 243 240c132 0 239 -109 239 -240c0 -133 -107 -242 -239 -242zM343 1261c65 0 117 48 117 119c0 63 -52 120 -117 120c-66 0 -115 -57 -115 -120c0 -71 49 -119 115 -119z" />
    <glyph glyph-name="tilde" unicode="&#x2dc;" horiz-adv-x="952" 
d="M613 1239c-87 0 -149 43 -197 116c-22 34 -43 47 -70 47c-57 0 -85 -65 -85 -149h-147c0 170 85 293 226 293c90 0 155 -51 197 -116c18 -26 38 -47 74 -47c56 0 82 57 82 150h147c0 -166 -78 -294 -227 -294z" />
    <glyph glyph-name="uni03060301" 
d="M-494 1673l267 366l145 -105l-229 -261h-183zM-404 1186c-214 0 -364 119 -364 350h165c0 -128 78 -217 199 -217c122 0 201 89 201 217h165c0 -231 -150 -350 -366 -350z" />
    <glyph glyph-name="uni03060300" 
d="M-510 1673l-229 261l144 105l268 -366h-183zM-420 1186c-214 0 -364 119 -364 350h165c0 -128 78 -217 199 -217c122 0 201 89 201 217h165c0 -231 -150 -350 -366 -350z" />
    <glyph glyph-name="uni03060309" 
d="M-470 1610v139c76 14 113 47 113 97c0 38 -23 66 -68 66c-30 0 -61 -12 -89 -38l-69 100c43 35 99 59 171 59c123 0 200 -73 200 -180c0 -92 -57 -138 -129 -160v-83h-129zM-410 1186c-214 0 -364 119 -364 350h165c0 -128 78 -217 199 -217c122 0 201 89 201 217h165
c0 -231 -150 -350 -366 -350z" />
    <glyph glyph-name="uni03060303" 
d="M-331 1716c-87 0 -149 43 -197 116c-22 34 -43 47 -70 47c-57 0 -85 -65 -85 -149h-147c0 170 85 293 226 293c90 0 155 -51 197 -116c18 -26 38 -47 74 -47c56 0 82 57 82 150h147c0 -166 -78 -294 -227 -294zM-467 1186c-214 0 -364 119 -364 350h165
c0 -128 78 -217 199 -217c122 0 201 89 201 217h165c0 -231 -150 -350 -366 -350z" />
    <glyph glyph-name="uni03020301" 
d="M-439 1673l267 366l145 -105l-229 -261h-183zM-488 1237h-178l223 299h191l224 -299h-180l-139 196z" />
    <glyph glyph-name="uni03020300" 
d="M-436 1673l-229 261l144 105l268 -366h-183zM-485 1237h-178l223 299h191l224 -299h-180l-139 196z" />
    <glyph glyph-name="uni03020309" 
d="M-427 1610v139c76 14 113 47 113 97c0 38 -23 66 -68 66c-30 0 -61 -12 -89 -38l-69 100c43 35 99 59 171 59c123 0 200 -73 200 -180c0 -92 -57 -138 -129 -160v-83h-129zM-506 1237h-178l223 299h191l224 -299h-180l-139 196z" />
    <glyph glyph-name="uni03020303" 
d="M-291 1716c-87 0 -149 43 -197 116c-22 34 -43 47 -70 47c-57 0 -85 -65 -85 -149h-147c0 170 85 293 226 293c90 0 155 -51 197 -116c18 -26 38 -47 74 -47c56 0 82 57 82 150h147c0 -166 -78 -294 -227 -294zM-566 1237h-178l223 299h191l224 -299h-180l-139 196z" />
    <glyph glyph-name="number" horiz-adv-x="1229" 
d="M537 1079c277 0 493 -132 493 -444v-635h-258l-13 112h-9c-79 -80 -187 -132 -324 -132c-193 0 -367 102 -367 329c0 212 150 334 385 334h299c-3 146 -106 207 -248 207c-84 0 -180 -21 -277 -55l-71 211c134 45 266 73 390 73zM515 178c88 0 170 43 228 120v179h-204
c-128 0 -195 -56 -195 -154c0 -110 88 -145 171 -145z" />
    </font>
</defs>
</svg>
